%TF.GenerationSoftware,KiCad,Pcbnew,9.0.6*%
%TF.CreationDate,2026-02-24T18:18:20-08:00*%
%TF.ProjectId,CoilArrayBlock,436f696c-4172-4726-9179-426c6f636b2e,rev?*%
%TF.SameCoordinates,Original*%
%TF.FileFunction,Legend,Top*%
%TF.FilePolarity,Positive*%
%FSLAX46Y46*%
G04 Gerber Fmt 4.6, Leading zero omitted, Abs format (unit mm)*
G04 Created by KiCad (PCBNEW 9.0.6) date 2026-02-24 18:18:20*
%MOMM*%
%LPD*%
G01*
G04 APERTURE LIST*
%ADD10C,0.150000*%
%ADD11C,0.200000*%
%ADD12C,0.120000*%
%ADD13C,0.127000*%
%ADD14C,0.000000*%
%ADD15C,0.152400*%
G04 APERTURE END LIST*
D10*
X145300000Y-60850000D02*
X146950000Y-60850000D01*
X147550000Y-60850000D02*
X149200000Y-60850000D01*
X149800000Y-60850000D02*
X151450000Y-60850000D01*
X152050000Y-60850000D02*
X153700000Y-60850000D01*
X154300000Y-60850000D02*
X155950000Y-60850000D01*
X156550000Y-60850000D02*
X158200000Y-60850000D01*
X158800000Y-60850000D02*
X160450000Y-60850000D01*
X161050000Y-60850000D02*
X161700000Y-60850000D01*
X161700000Y-60850000D02*
X161700000Y-62500000D01*
X161700000Y-63100000D02*
X161700000Y-64750000D01*
X161700000Y-65350000D02*
X161700000Y-67000000D01*
X161700000Y-67600000D02*
X161700000Y-69250000D01*
X161700000Y-69400000D02*
X160050000Y-69400000D01*
X159450000Y-69400000D02*
X157800000Y-69400000D01*
X157200000Y-69400000D02*
X155550000Y-69400000D01*
X154950000Y-69400000D02*
X153300000Y-69400000D01*
X152700000Y-69400000D02*
X151050000Y-69400000D01*
X150450000Y-69400000D02*
X148800000Y-69400000D01*
X148200000Y-69400000D02*
X146550000Y-69400000D01*
X145950000Y-69400000D02*
X145300000Y-69400000D01*
X145300000Y-69400000D02*
X145300000Y-67750000D01*
X145300000Y-67150000D02*
X145300000Y-65500000D01*
X145300000Y-64900000D02*
X145300000Y-63250000D01*
X145300000Y-62650000D02*
X145300000Y-61000000D01*
X146630180Y-61793922D02*
X145630180Y-62127255D01*
X145630180Y-62127255D02*
X146630180Y-62460588D01*
X145677800Y-63222493D02*
X145630180Y-63127255D01*
X145630180Y-63127255D02*
X145630180Y-62936779D01*
X145630180Y-62936779D02*
X145677800Y-62841541D01*
X145677800Y-62841541D02*
X145725419Y-62793922D01*
X145725419Y-62793922D02*
X145820657Y-62746303D01*
X145820657Y-62746303D02*
X146106371Y-62746303D01*
X146106371Y-62746303D02*
X146201609Y-62793922D01*
X146201609Y-62793922D02*
X146249228Y-62841541D01*
X146249228Y-62841541D02*
X146296847Y-62936779D01*
X146296847Y-62936779D02*
X146296847Y-63127255D01*
X146296847Y-63127255D02*
X146249228Y-63222493D01*
X145677800Y-64079636D02*
X145630180Y-63984398D01*
X145630180Y-63984398D02*
X145630180Y-63793922D01*
X145630180Y-63793922D02*
X145677800Y-63698684D01*
X145677800Y-63698684D02*
X145725419Y-63651065D01*
X145725419Y-63651065D02*
X145820657Y-63603446D01*
X145820657Y-63603446D02*
X146106371Y-63603446D01*
X146106371Y-63603446D02*
X146201609Y-63651065D01*
X146201609Y-63651065D02*
X146249228Y-63698684D01*
X146249228Y-63698684D02*
X146296847Y-63793922D01*
X146296847Y-63793922D02*
X146296847Y-63984398D01*
X146296847Y-63984398D02*
X146249228Y-64079636D01*
X146582561Y-66460588D02*
X146630180Y-66365350D01*
X146630180Y-66365350D02*
X146630180Y-66222493D01*
X146630180Y-66222493D02*
X146582561Y-66079636D01*
X146582561Y-66079636D02*
X146487323Y-65984398D01*
X146487323Y-65984398D02*
X146392085Y-65936779D01*
X146392085Y-65936779D02*
X146201609Y-65889160D01*
X146201609Y-65889160D02*
X146058752Y-65889160D01*
X146058752Y-65889160D02*
X145868276Y-65936779D01*
X145868276Y-65936779D02*
X145773038Y-65984398D01*
X145773038Y-65984398D02*
X145677800Y-66079636D01*
X145677800Y-66079636D02*
X145630180Y-66222493D01*
X145630180Y-66222493D02*
X145630180Y-66317731D01*
X145630180Y-66317731D02*
X145677800Y-66460588D01*
X145677800Y-66460588D02*
X145725419Y-66508207D01*
X145725419Y-66508207D02*
X146058752Y-66508207D01*
X146058752Y-66508207D02*
X146058752Y-66317731D01*
X145630180Y-66936779D02*
X146630180Y-66936779D01*
X146630180Y-66936779D02*
X145630180Y-67508207D01*
X145630180Y-67508207D02*
X146630180Y-67508207D01*
X145630180Y-67984398D02*
X146630180Y-67984398D01*
X146630180Y-67984398D02*
X146630180Y-68222493D01*
X146630180Y-68222493D02*
X146582561Y-68365350D01*
X146582561Y-68365350D02*
X146487323Y-68460588D01*
X146487323Y-68460588D02*
X146392085Y-68508207D01*
X146392085Y-68508207D02*
X146201609Y-68555826D01*
X146201609Y-68555826D02*
X146058752Y-68555826D01*
X146058752Y-68555826D02*
X145868276Y-68508207D01*
X145868276Y-68508207D02*
X145773038Y-68460588D01*
X145773038Y-68460588D02*
X145677800Y-68365350D01*
X145677800Y-68365350D02*
X145630180Y-68222493D01*
X145630180Y-68222493D02*
X145630180Y-67984398D01*
D11*
X143393971Y-63188720D02*
X144893971Y-63188720D01*
X144893971Y-63188720D02*
X144893971Y-63760149D01*
X144893971Y-63760149D02*
X144822542Y-63903006D01*
X144822542Y-63903006D02*
X144751114Y-63974435D01*
X144751114Y-63974435D02*
X144608257Y-64045863D01*
X144608257Y-64045863D02*
X144393971Y-64045863D01*
X144393971Y-64045863D02*
X144251114Y-63974435D01*
X144251114Y-63974435D02*
X144179685Y-63903006D01*
X144179685Y-63903006D02*
X144108257Y-63760149D01*
X144108257Y-63760149D02*
X144108257Y-63188720D01*
X144893971Y-64545863D02*
X143393971Y-64903006D01*
X143393971Y-64903006D02*
X144465400Y-65188720D01*
X144465400Y-65188720D02*
X143393971Y-65474435D01*
X143393971Y-65474435D02*
X144893971Y-65831578D01*
X143393971Y-67260149D02*
X144108257Y-66760149D01*
X143393971Y-66403006D02*
X144893971Y-66403006D01*
X144893971Y-66403006D02*
X144893971Y-66974435D01*
X144893971Y-66974435D02*
X144822542Y-67117292D01*
X144822542Y-67117292D02*
X144751114Y-67188721D01*
X144751114Y-67188721D02*
X144608257Y-67260149D01*
X144608257Y-67260149D02*
X144393971Y-67260149D01*
X144393971Y-67260149D02*
X144251114Y-67188721D01*
X144251114Y-67188721D02*
X144179685Y-67117292D01*
X144179685Y-67117292D02*
X144108257Y-66974435D01*
X144108257Y-66974435D02*
X144108257Y-66403006D01*
D10*
X154882561Y-66460588D02*
X154930180Y-66365350D01*
X154930180Y-66365350D02*
X154930180Y-66222493D01*
X154930180Y-66222493D02*
X154882561Y-66079636D01*
X154882561Y-66079636D02*
X154787323Y-65984398D01*
X154787323Y-65984398D02*
X154692085Y-65936779D01*
X154692085Y-65936779D02*
X154501609Y-65889160D01*
X154501609Y-65889160D02*
X154358752Y-65889160D01*
X154358752Y-65889160D02*
X154168276Y-65936779D01*
X154168276Y-65936779D02*
X154073038Y-65984398D01*
X154073038Y-65984398D02*
X153977800Y-66079636D01*
X153977800Y-66079636D02*
X153930180Y-66222493D01*
X153930180Y-66222493D02*
X153930180Y-66317731D01*
X153930180Y-66317731D02*
X153977800Y-66460588D01*
X153977800Y-66460588D02*
X154025419Y-66508207D01*
X154025419Y-66508207D02*
X154358752Y-66508207D01*
X154358752Y-66508207D02*
X154358752Y-66317731D01*
X153930180Y-66936779D02*
X154930180Y-66936779D01*
X154930180Y-66936779D02*
X153930180Y-67508207D01*
X153930180Y-67508207D02*
X154930180Y-67508207D01*
X153930180Y-67984398D02*
X154930180Y-67984398D01*
X154930180Y-67984398D02*
X154930180Y-68222493D01*
X154930180Y-68222493D02*
X154882561Y-68365350D01*
X154882561Y-68365350D02*
X154787323Y-68460588D01*
X154787323Y-68460588D02*
X154692085Y-68508207D01*
X154692085Y-68508207D02*
X154501609Y-68555826D01*
X154501609Y-68555826D02*
X154358752Y-68555826D01*
X154358752Y-68555826D02*
X154168276Y-68508207D01*
X154168276Y-68508207D02*
X154073038Y-68460588D01*
X154073038Y-68460588D02*
X153977800Y-68365350D01*
X153977800Y-68365350D02*
X153930180Y-68222493D01*
X153930180Y-68222493D02*
X153930180Y-67984398D01*
X154930180Y-61793922D02*
X153930180Y-62127255D01*
X153930180Y-62127255D02*
X154930180Y-62460588D01*
X153930180Y-62793922D02*
X154596847Y-62793922D01*
X154406371Y-62793922D02*
X154501609Y-62841541D01*
X154501609Y-62841541D02*
X154549228Y-62889160D01*
X154549228Y-62889160D02*
X154596847Y-62984398D01*
X154596847Y-62984398D02*
X154596847Y-63079636D01*
X153977800Y-63793922D02*
X153930180Y-63698684D01*
X153930180Y-63698684D02*
X153930180Y-63508208D01*
X153930180Y-63508208D02*
X153977800Y-63412970D01*
X153977800Y-63412970D02*
X154073038Y-63365351D01*
X154073038Y-63365351D02*
X154453990Y-63365351D01*
X154453990Y-63365351D02*
X154549228Y-63412970D01*
X154549228Y-63412970D02*
X154596847Y-63508208D01*
X154596847Y-63508208D02*
X154596847Y-63698684D01*
X154596847Y-63698684D02*
X154549228Y-63793922D01*
X154549228Y-63793922D02*
X154453990Y-63841541D01*
X154453990Y-63841541D02*
X154358752Y-63841541D01*
X154358752Y-63841541D02*
X154263514Y-63365351D01*
X154596847Y-64127256D02*
X154596847Y-64508208D01*
X153930180Y-64270113D02*
X154787323Y-64270113D01*
X154787323Y-64270113D02*
X154882561Y-64317732D01*
X154882561Y-64317732D02*
X154930180Y-64412970D01*
X154930180Y-64412970D02*
X154930180Y-64508208D01*
X146630180Y-51393922D02*
X145630180Y-51727255D01*
X145630180Y-51727255D02*
X146630180Y-52060588D01*
X145630180Y-52536779D02*
X145677800Y-52441541D01*
X145677800Y-52441541D02*
X145725419Y-52393922D01*
X145725419Y-52393922D02*
X145820657Y-52346303D01*
X145820657Y-52346303D02*
X146106371Y-52346303D01*
X146106371Y-52346303D02*
X146201609Y-52393922D01*
X146201609Y-52393922D02*
X146249228Y-52441541D01*
X146249228Y-52441541D02*
X146296847Y-52536779D01*
X146296847Y-52536779D02*
X146296847Y-52679636D01*
X146296847Y-52679636D02*
X146249228Y-52774874D01*
X146249228Y-52774874D02*
X146201609Y-52822493D01*
X146201609Y-52822493D02*
X146106371Y-52870112D01*
X146106371Y-52870112D02*
X145820657Y-52870112D01*
X145820657Y-52870112D02*
X145725419Y-52822493D01*
X145725419Y-52822493D02*
X145677800Y-52774874D01*
X145677800Y-52774874D02*
X145630180Y-52679636D01*
X145630180Y-52679636D02*
X145630180Y-52536779D01*
X146296847Y-53727255D02*
X145630180Y-53727255D01*
X146296847Y-53298684D02*
X145773038Y-53298684D01*
X145773038Y-53298684D02*
X145677800Y-53346303D01*
X145677800Y-53346303D02*
X145630180Y-53441541D01*
X145630180Y-53441541D02*
X145630180Y-53584398D01*
X145630180Y-53584398D02*
X145677800Y-53679636D01*
X145677800Y-53679636D02*
X145725419Y-53727255D01*
X146296847Y-54060589D02*
X146296847Y-54441541D01*
X146630180Y-54203446D02*
X145773038Y-54203446D01*
X145773038Y-54203446D02*
X145677800Y-54251065D01*
X145677800Y-54251065D02*
X145630180Y-54346303D01*
X145630180Y-54346303D02*
X145630180Y-54441541D01*
D11*
X144793971Y-53174435D02*
X144793971Y-53460149D01*
X144793971Y-53460149D02*
X144722542Y-53603006D01*
X144722542Y-53603006D02*
X144579685Y-53745863D01*
X144579685Y-53745863D02*
X144293971Y-53817292D01*
X144293971Y-53817292D02*
X143793971Y-53817292D01*
X143793971Y-53817292D02*
X143508257Y-53745863D01*
X143508257Y-53745863D02*
X143365400Y-53603006D01*
X143365400Y-53603006D02*
X143293971Y-53460149D01*
X143293971Y-53460149D02*
X143293971Y-53174435D01*
X143293971Y-53174435D02*
X143365400Y-53031578D01*
X143365400Y-53031578D02*
X143508257Y-52888720D01*
X143508257Y-52888720D02*
X143793971Y-52817292D01*
X143793971Y-52817292D02*
X144293971Y-52817292D01*
X144293971Y-52817292D02*
X144579685Y-52888720D01*
X144579685Y-52888720D02*
X144722542Y-53031578D01*
X144722542Y-53031578D02*
X144793971Y-53174435D01*
X144793971Y-54460149D02*
X143579685Y-54460149D01*
X143579685Y-54460149D02*
X143436828Y-54531578D01*
X143436828Y-54531578D02*
X143365400Y-54603007D01*
X143365400Y-54603007D02*
X143293971Y-54745864D01*
X143293971Y-54745864D02*
X143293971Y-55031578D01*
X143293971Y-55031578D02*
X143365400Y-55174435D01*
X143365400Y-55174435D02*
X143436828Y-55245864D01*
X143436828Y-55245864D02*
X143579685Y-55317292D01*
X143579685Y-55317292D02*
X144793971Y-55317292D01*
X144793971Y-55817293D02*
X144793971Y-56674436D01*
X143293971Y-56245864D02*
X144793971Y-56245864D01*
D10*
X146582561Y-56060588D02*
X146630180Y-55965350D01*
X146630180Y-55965350D02*
X146630180Y-55822493D01*
X146630180Y-55822493D02*
X146582561Y-55679636D01*
X146582561Y-55679636D02*
X146487323Y-55584398D01*
X146487323Y-55584398D02*
X146392085Y-55536779D01*
X146392085Y-55536779D02*
X146201609Y-55489160D01*
X146201609Y-55489160D02*
X146058752Y-55489160D01*
X146058752Y-55489160D02*
X145868276Y-55536779D01*
X145868276Y-55536779D02*
X145773038Y-55584398D01*
X145773038Y-55584398D02*
X145677800Y-55679636D01*
X145677800Y-55679636D02*
X145630180Y-55822493D01*
X145630180Y-55822493D02*
X145630180Y-55917731D01*
X145630180Y-55917731D02*
X145677800Y-56060588D01*
X145677800Y-56060588D02*
X145725419Y-56108207D01*
X145725419Y-56108207D02*
X146058752Y-56108207D01*
X146058752Y-56108207D02*
X146058752Y-55917731D01*
X145630180Y-56536779D02*
X146630180Y-56536779D01*
X146630180Y-56536779D02*
X145630180Y-57108207D01*
X145630180Y-57108207D02*
X146630180Y-57108207D01*
X145630180Y-57584398D02*
X146630180Y-57584398D01*
X146630180Y-57584398D02*
X146630180Y-57822493D01*
X146630180Y-57822493D02*
X146582561Y-57965350D01*
X146582561Y-57965350D02*
X146487323Y-58060588D01*
X146487323Y-58060588D02*
X146392085Y-58108207D01*
X146392085Y-58108207D02*
X146201609Y-58155826D01*
X146201609Y-58155826D02*
X146058752Y-58155826D01*
X146058752Y-58155826D02*
X145868276Y-58108207D01*
X145868276Y-58108207D02*
X145773038Y-58060588D01*
X145773038Y-58060588D02*
X145677800Y-57965350D01*
X145677800Y-57965350D02*
X145630180Y-57822493D01*
X145630180Y-57822493D02*
X145630180Y-57584398D01*
X145200000Y-50525000D02*
X146850000Y-50525000D01*
X147450000Y-50525000D02*
X149100000Y-50525000D01*
X149700000Y-50525000D02*
X151350000Y-50525000D01*
X151950000Y-50525000D02*
X153200000Y-50525000D01*
X153200000Y-50525000D02*
X153200000Y-52175000D01*
X153200000Y-52775000D02*
X153200000Y-54425000D01*
X153200000Y-55025000D02*
X153200000Y-56675000D01*
X153200000Y-57275000D02*
X153200000Y-58875000D01*
X153200000Y-58875000D02*
X151550000Y-58875000D01*
X150950000Y-58875000D02*
X149300000Y-58875000D01*
X148700000Y-58875000D02*
X147050000Y-58875000D01*
X146450000Y-58875000D02*
X145200000Y-58875000D01*
X145200000Y-58875000D02*
X145200000Y-57225000D01*
X145200000Y-56625000D02*
X145200000Y-54975000D01*
X145200000Y-54375000D02*
X145200000Y-52725000D01*
X145200000Y-52125000D02*
X145200000Y-50525000D01*
%TO.C,J1*%
X155425000Y-68832500D02*
X155425000Y-61432500D01*
X161175000Y-68832500D02*
X155425000Y-68832500D01*
X161175000Y-61432500D02*
X161175000Y-68832500D01*
X155425000Y-61432500D02*
X161175000Y-61432500D01*
%TO.C,J2*%
X152850000Y-68850000D02*
X147100000Y-68850000D01*
X152850000Y-61450000D02*
X152850000Y-68850000D01*
X147100000Y-68850000D02*
X147100000Y-61450000D01*
X147100000Y-61450000D02*
X152850000Y-61450000D01*
D12*
%TO.C,C4*%
X151940580Y-60410000D02*
X151659420Y-60410000D01*
X151940580Y-59390000D02*
X151659420Y-59390000D01*
D13*
%TO.C,J3*%
X152775000Y-58425000D02*
X147025000Y-58425000D01*
X152775000Y-51025000D02*
X152775000Y-58425000D01*
X147025000Y-58425000D02*
X147025000Y-51025000D01*
X147025000Y-51025000D02*
X152775000Y-51025000D01*
D14*
%TO.C,G\u002A\u002A\u002A*%
G36*
X172155872Y-53599094D02*
G01*
X172166729Y-53603664D01*
X172175536Y-53613354D01*
X172190952Y-53635474D01*
X172211447Y-53667614D01*
X172235489Y-53707362D01*
X172261546Y-53752308D01*
X172264844Y-53758129D01*
X172292353Y-53806712D01*
X172318969Y-53853559D01*
X172342832Y-53895407D01*
X172362080Y-53928992D01*
X172374736Y-53950849D01*
X172409733Y-54011811D01*
X172440734Y-54068236D01*
X172466777Y-54118207D01*
X172486897Y-54159805D01*
X172500134Y-54191110D01*
X172505523Y-54210203D01*
X172505597Y-54211678D01*
X172498000Y-54237558D01*
X172478657Y-54259079D01*
X172452737Y-54271298D01*
X172441976Y-54272476D01*
X172425042Y-54270783D01*
X172409298Y-54264559D01*
X172393273Y-54252084D01*
X172375490Y-54231638D01*
X172354477Y-54201502D01*
X172328759Y-54159955D01*
X172296863Y-54105279D01*
X172293244Y-54098967D01*
X172268512Y-54055877D01*
X172246693Y-54018061D01*
X172229167Y-53987893D01*
X172217312Y-53967746D01*
X172212533Y-53960019D01*
X172212267Y-53968071D01*
X172212007Y-53992376D01*
X172211753Y-54032259D01*
X172211508Y-54087044D01*
X172211271Y-54156057D01*
X172211044Y-54238622D01*
X172210827Y-54334065D01*
X172210621Y-54441710D01*
X172210428Y-54560882D01*
X172210247Y-54690907D01*
X172210081Y-54831109D01*
X172209930Y-54980814D01*
X172209795Y-55139345D01*
X172209676Y-55306029D01*
X172209575Y-55480189D01*
X172209492Y-55661152D01*
X172209429Y-55848242D01*
X172209387Y-56040784D01*
X172209365Y-56238102D01*
X172209363Y-56332011D01*
X172209388Y-56531455D01*
X172209463Y-56726450D01*
X172209585Y-56916321D01*
X172209753Y-57100390D01*
X172209964Y-57277983D01*
X172210216Y-57448423D01*
X172210507Y-57611035D01*
X172210835Y-57765143D01*
X172211199Y-57910070D01*
X172211595Y-58045141D01*
X172212022Y-58169680D01*
X172212478Y-58283011D01*
X172212961Y-58384459D01*
X172213469Y-58473346D01*
X172213999Y-58548998D01*
X172214551Y-58610739D01*
X172215120Y-58657892D01*
X172215706Y-58689781D01*
X172216307Y-58705732D01*
X172216589Y-58707531D01*
X172220063Y-58699635D01*
X172224160Y-58678145D01*
X172228367Y-58646354D01*
X172232124Y-58608080D01*
X172233107Y-58603106D01*
X172234035Y-58612497D01*
X172234908Y-58636415D01*
X172235727Y-58675019D01*
X172236493Y-58728470D01*
X172237206Y-58796929D01*
X172237868Y-58880555D01*
X172238480Y-58979509D01*
X172239041Y-59093951D01*
X172239553Y-59224041D01*
X172240017Y-59369941D01*
X172240434Y-59531810D01*
X172240803Y-59709809D01*
X172241127Y-59904097D01*
X172241405Y-60114836D01*
X172241639Y-60342185D01*
X172241825Y-60580577D01*
X172241968Y-60802698D01*
X172242085Y-61008516D01*
X172242171Y-61198657D01*
X172242224Y-61373746D01*
X172242239Y-61534407D01*
X172242213Y-61681265D01*
X172242143Y-61814946D01*
X172242024Y-61936075D01*
X172241852Y-62045276D01*
X172241625Y-62143175D01*
X172241338Y-62230397D01*
X172240988Y-62307566D01*
X172240571Y-62375309D01*
X172240083Y-62434249D01*
X172239521Y-62485012D01*
X172238881Y-62528224D01*
X172238160Y-62564508D01*
X172237352Y-62594490D01*
X172236456Y-62618795D01*
X172235467Y-62638049D01*
X172234382Y-62652876D01*
X172233197Y-62663900D01*
X172231907Y-62671749D01*
X172230511Y-62677045D01*
X172229446Y-62679610D01*
X172219857Y-62698087D01*
X172214095Y-62708481D01*
X172213715Y-62709027D01*
X172205309Y-62712864D01*
X172183514Y-62721643D01*
X172150812Y-62734420D01*
X172109684Y-62750253D01*
X172062613Y-62768197D01*
X172012081Y-62787309D01*
X171960570Y-62806645D01*
X171910562Y-62825262D01*
X171864539Y-62842216D01*
X171836954Y-62852253D01*
X171787725Y-62870070D01*
X171734985Y-62889194D01*
X171685527Y-62907162D01*
X171650749Y-62919826D01*
X171608631Y-62935170D01*
X171565068Y-62951008D01*
X171527280Y-62964716D01*
X171515328Y-62969041D01*
X171487242Y-62979293D01*
X171447878Y-62993800D01*
X171401804Y-63010871D01*
X171353592Y-63028814D01*
X171337587Y-63034790D01*
X171297604Y-63049725D01*
X171245061Y-63069341D01*
X171183257Y-63092405D01*
X171115494Y-63117687D01*
X171045073Y-63143955D01*
X170975293Y-63169977D01*
X170960946Y-63175327D01*
X170896838Y-63199270D01*
X170835963Y-63222084D01*
X170780640Y-63242892D01*
X170733186Y-63260822D01*
X170695920Y-63274997D01*
X170671159Y-63284544D01*
X170664711Y-63287098D01*
X170647977Y-63293594D01*
X170617214Y-63305261D01*
X170574274Y-63321410D01*
X170521005Y-63341347D01*
X170459261Y-63364381D01*
X170390890Y-63389820D01*
X170317743Y-63416973D01*
X170266910Y-63435807D01*
X170183039Y-63466865D01*
X170095477Y-63499304D01*
X170007358Y-63531960D01*
X169921817Y-63563671D01*
X169841989Y-63593277D01*
X169771006Y-63619615D01*
X169712004Y-63641522D01*
X169699833Y-63646044D01*
X169631969Y-63671244D01*
X169553238Y-63700451D01*
X169468651Y-63731806D01*
X169383219Y-63763453D01*
X169301954Y-63793534D01*
X169247017Y-63813853D01*
X169176782Y-63839843D01*
X169095100Y-63870109D01*
X169006385Y-63903013D01*
X168915050Y-63936917D01*
X168825511Y-63970182D01*
X168742181Y-64001171D01*
X168718027Y-64010161D01*
X168645938Y-64036955D01*
X168573635Y-64063749D01*
X168503947Y-64089502D01*
X168439700Y-64113170D01*
X168383723Y-64133713D01*
X168338841Y-64150087D01*
X168315994Y-64158348D01*
X168274043Y-64173512D01*
X168220322Y-64193066D01*
X168158932Y-64215511D01*
X168093973Y-64239345D01*
X168029546Y-64263068D01*
X168002832Y-64272933D01*
X167907793Y-64307803D01*
X167799940Y-64346913D01*
X167682502Y-64389115D01*
X167558711Y-64433259D01*
X167431799Y-64478194D01*
X167304996Y-64522772D01*
X167181533Y-64565842D01*
X167110328Y-64590508D01*
X167055942Y-64609482D01*
X167006831Y-64626975D01*
X166965286Y-64642143D01*
X166933595Y-64654141D01*
X166914048Y-64662124D01*
X166908823Y-64664864D01*
X166915377Y-64666586D01*
X166937210Y-64668438D01*
X166972673Y-64670358D01*
X167020118Y-64672283D01*
X167077897Y-64674148D01*
X167144363Y-64675890D01*
X167217867Y-64677447D01*
X167251177Y-64678042D01*
X167338032Y-64679562D01*
X167409559Y-64680970D01*
X167467358Y-64682357D01*
X167513030Y-64683813D01*
X167548172Y-64685431D01*
X167574386Y-64687300D01*
X167593269Y-64689511D01*
X167606421Y-64692157D01*
X167615443Y-64695326D01*
X167621932Y-64699112D01*
X167621959Y-64699131D01*
X167640799Y-64721951D01*
X167646763Y-64750665D01*
X167639567Y-64779856D01*
X167627079Y-64797148D01*
X167605800Y-64818427D01*
X167446719Y-64816972D01*
X167406644Y-64816536D01*
X167351990Y-64815836D01*
X167285100Y-64814908D01*
X167208320Y-64813787D01*
X167123995Y-64812508D01*
X167034471Y-64811105D01*
X166942091Y-64809615D01*
X166849200Y-64808072D01*
X166830589Y-64807757D01*
X166716426Y-64805670D01*
X166618716Y-64803559D01*
X166536987Y-64801407D01*
X166470763Y-64799196D01*
X166419571Y-64796908D01*
X166382937Y-64794526D01*
X166360388Y-64792033D01*
X166352459Y-64790091D01*
X166327649Y-64770100D01*
X166316227Y-64741107D01*
X166319161Y-64705779D01*
X166328996Y-64682987D01*
X166342029Y-64667301D01*
X166344180Y-64665938D01*
X166355583Y-64658362D01*
X166378211Y-64642134D01*
X166409844Y-64618888D01*
X166448262Y-64590260D01*
X166491248Y-64557886D01*
X166507942Y-64545228D01*
X166558132Y-64507238D01*
X166610262Y-64468019D01*
X166660548Y-64430399D01*
X166705208Y-64397208D01*
X166740459Y-64371276D01*
X166742425Y-64369843D01*
X166776143Y-64345179D01*
X166819843Y-64313047D01*
X166869937Y-64276096D01*
X166922835Y-64236974D01*
X166974948Y-64198329D01*
X166986178Y-64189986D01*
X167041373Y-64149297D01*
X167085050Y-64118235D01*
X167119050Y-64096032D01*
X167145215Y-64081919D01*
X167165386Y-64075128D01*
X167181404Y-64074891D01*
X167195110Y-64080439D01*
X167208346Y-64091004D01*
X167212853Y-64095390D01*
X167228789Y-64121946D01*
X167230201Y-64152020D01*
X167217574Y-64181300D01*
X167201298Y-64198488D01*
X167112560Y-64268869D01*
X167017623Y-64341977D01*
X166913201Y-64420324D01*
X166858384Y-64460795D01*
X166813421Y-64494113D01*
X166773392Y-64524306D01*
X166740208Y-64549888D01*
X166715782Y-64569371D01*
X166702024Y-64581272D01*
X166699687Y-64584126D01*
X166699877Y-64586513D01*
X166701773Y-64587786D01*
X166707014Y-64587416D01*
X166717243Y-64584872D01*
X166734101Y-64579627D01*
X166759228Y-64571151D01*
X166794265Y-64558915D01*
X166840855Y-64542389D01*
X166900638Y-64521045D01*
X166949083Y-64503717D01*
X167107929Y-64446841D01*
X167253185Y-64394722D01*
X167387226Y-64346493D01*
X167512429Y-64301288D01*
X167631170Y-64258240D01*
X167745825Y-64216483D01*
X167858770Y-64175150D01*
X167972380Y-64133375D01*
X168089033Y-64090291D01*
X168211103Y-64045033D01*
X168340968Y-63996733D01*
X168413328Y-63969769D01*
X168452800Y-63955062D01*
X168490319Y-63941111D01*
X168527819Y-63927203D01*
X168567230Y-63912627D01*
X168610484Y-63896671D01*
X168659513Y-63878624D01*
X168716248Y-63857775D01*
X168782620Y-63833410D01*
X168860562Y-63804821D01*
X168952004Y-63771293D01*
X168976174Y-63762433D01*
X169044425Y-63737393D01*
X169118745Y-63710089D01*
X169194124Y-63682365D01*
X169265552Y-63656065D01*
X169328020Y-63633030D01*
X169348583Y-63625436D01*
X169409366Y-63602982D01*
X169475161Y-63578685D01*
X169540506Y-63554560D01*
X169599937Y-63532626D01*
X169640586Y-63517630D01*
X169697277Y-63496661D01*
X169762437Y-63472465D01*
X169828694Y-63447785D01*
X169888675Y-63425362D01*
X169898733Y-63421591D01*
X170057160Y-63362177D01*
X170200433Y-63308482D01*
X170329235Y-63260253D01*
X170444250Y-63217233D01*
X170546161Y-63179169D01*
X170635651Y-63145805D01*
X170713405Y-63116886D01*
X170780106Y-63092156D01*
X170836438Y-63071362D01*
X170883083Y-63054248D01*
X170897467Y-63049000D01*
X170955441Y-63027840D01*
X171018754Y-63004654D01*
X171085234Y-62980245D01*
X171152708Y-62955413D01*
X171219007Y-62930963D01*
X171281956Y-62907697D01*
X171339386Y-62886416D01*
X171389124Y-62867924D01*
X171428998Y-62853023D01*
X171456837Y-62842515D01*
X171468776Y-62837895D01*
X171492411Y-62828785D01*
X171528598Y-62815274D01*
X171573931Y-62798608D01*
X171625004Y-62780030D01*
X171678411Y-62760785D01*
X171730745Y-62742119D01*
X171735388Y-62740474D01*
X171774038Y-62726540D01*
X171810637Y-62712918D01*
X171839624Y-62701696D01*
X171849649Y-62697584D01*
X171883505Y-62683168D01*
X171633821Y-62646602D01*
X171563930Y-62636420D01*
X171493367Y-62626236D01*
X171425600Y-62616543D01*
X171364096Y-62607836D01*
X171312323Y-62600607D01*
X171273748Y-62595351D01*
X171273040Y-62595257D01*
X171161943Y-62580477D01*
X171091068Y-62644014D01*
X170939318Y-62770784D01*
X170781788Y-62883823D01*
X170616894Y-62983983D01*
X170443052Y-63072120D01*
X170258681Y-63149087D01*
X170062196Y-63215738D01*
X169993839Y-63235780D01*
X169856976Y-63269353D01*
X169707048Y-63296905D01*
X169546849Y-63318341D01*
X169379169Y-63333569D01*
X169206800Y-63342496D01*
X169032535Y-63345027D01*
X168859164Y-63341071D01*
X168689480Y-63330533D01*
X168526274Y-63313320D01*
X168375241Y-63289873D01*
X168170535Y-63245293D01*
X167977052Y-63188627D01*
X167793856Y-63119563D01*
X167626191Y-63040997D01*
X167480776Y-62961030D01*
X167371900Y-62892372D01*
X167742393Y-62892372D01*
X167747428Y-62897771D01*
X167765509Y-62908463D01*
X167794056Y-62923243D01*
X167830484Y-62940904D01*
X167872210Y-62960240D01*
X167916654Y-62980046D01*
X167961230Y-62999114D01*
X168003357Y-63016240D01*
X168027449Y-63025478D01*
X168118190Y-63055824D01*
X168222427Y-63084754D01*
X168336741Y-63111603D01*
X168457718Y-63135709D01*
X168581941Y-63156408D01*
X168705994Y-63173037D01*
X168826460Y-63184933D01*
X168861912Y-63187514D01*
X168902063Y-63189642D01*
X168944856Y-63191028D01*
X168987199Y-63191686D01*
X169025995Y-63191630D01*
X169058150Y-63190873D01*
X169080570Y-63189429D01*
X169090159Y-63187313D01*
X169090013Y-63186496D01*
X169079168Y-63180766D01*
X169056143Y-63170657D01*
X169024610Y-63157731D01*
X168997334Y-63147032D01*
X168951268Y-63127911D01*
X168900950Y-63104844D01*
X168854835Y-63081771D01*
X168839593Y-63073499D01*
X168805784Y-63055809D01*
X168775087Y-63041963D01*
X168751953Y-63033867D01*
X168743961Y-63032556D01*
X168728027Y-63031364D01*
X168698301Y-63028055D01*
X168657731Y-63023033D01*
X168609265Y-63016697D01*
X168555850Y-63009451D01*
X168500435Y-63001695D01*
X168445967Y-62993831D01*
X168395394Y-62986261D01*
X168351664Y-62979386D01*
X168341386Y-62977697D01*
X168305837Y-62972017D01*
X168259050Y-62964869D01*
X168206554Y-62957082D01*
X168153881Y-62949486D01*
X168142485Y-62947876D01*
X168084810Y-62939596D01*
X168018160Y-62929763D01*
X167950270Y-62919534D01*
X167888876Y-62910062D01*
X167881286Y-62908869D01*
X167835624Y-62901995D01*
X167796037Y-62896638D01*
X167765442Y-62893147D01*
X167746756Y-62891868D01*
X167742393Y-62892372D01*
X167371900Y-62892372D01*
X167348968Y-62877911D01*
X167227457Y-62789080D01*
X167112932Y-62691980D01*
X167002083Y-62584052D01*
X166919935Y-62495101D01*
X166893703Y-62463858D01*
X166871393Y-62435595D01*
X167132923Y-62435595D01*
X167136630Y-62443002D01*
X167151570Y-62459477D01*
X167175895Y-62483342D01*
X167207756Y-62512921D01*
X167245303Y-62546538D01*
X167286689Y-62582516D01*
X167330064Y-62619180D01*
X167373579Y-62654854D01*
X167383701Y-62662972D01*
X167419627Y-62690538D01*
X167446244Y-62708018D01*
X167466429Y-62717073D01*
X167481427Y-62719393D01*
X167496363Y-62720594D01*
X167525753Y-62723993D01*
X167567308Y-62729289D01*
X167618740Y-62736177D01*
X167677760Y-62744357D01*
X167742079Y-62753523D01*
X167770467Y-62757645D01*
X167901734Y-62776820D01*
X168017128Y-62793696D01*
X168117526Y-62808402D01*
X168203808Y-62821069D01*
X168276851Y-62831827D01*
X168337536Y-62840805D01*
X168386740Y-62848133D01*
X168425342Y-62853942D01*
X168454220Y-62858360D01*
X168474255Y-62861517D01*
X168481039Y-62862632D01*
X168517598Y-62868422D01*
X168539164Y-62870425D01*
X168547368Y-62868032D01*
X168543842Y-62860637D01*
X168530219Y-62847632D01*
X168527590Y-62845321D01*
X168481674Y-62803574D01*
X168430996Y-62754950D01*
X168381740Y-62705482D01*
X168349082Y-62671062D01*
X168301763Y-62619775D01*
X168205197Y-62606358D01*
X168105037Y-62592058D01*
X167996366Y-62575789D01*
X167877597Y-62557299D01*
X167747143Y-62536336D01*
X167603418Y-62512650D01*
X167444833Y-62485987D01*
X167427290Y-62483010D01*
X167359247Y-62471527D01*
X167296691Y-62461106D01*
X167241530Y-62452054D01*
X167195672Y-62444679D01*
X167161024Y-62439288D01*
X167139495Y-62436189D01*
X167132923Y-62435595D01*
X166871393Y-62435595D01*
X166860622Y-62421950D01*
X166823215Y-62372814D01*
X166784002Y-62319883D01*
X166745505Y-62266591D01*
X166710245Y-62216374D01*
X166680745Y-62172666D01*
X166664529Y-62147223D01*
X166643065Y-62113414D01*
X166627250Y-62092017D01*
X166614779Y-62080501D01*
X166603345Y-62076336D01*
X166599768Y-62076141D01*
X166592480Y-62075856D01*
X166581741Y-62074882D01*
X166566421Y-62073042D01*
X166545390Y-62070159D01*
X166517517Y-62066054D01*
X166481671Y-62060550D01*
X166436722Y-62053471D01*
X166381540Y-62044637D01*
X166314993Y-62033871D01*
X166235952Y-62020997D01*
X166143286Y-62005836D01*
X166035863Y-61988211D01*
X165948822Y-61973907D01*
X165867788Y-61960614D01*
X165791831Y-61948211D01*
X165722586Y-61936960D01*
X165661691Y-61927126D01*
X165610782Y-61918970D01*
X165571494Y-61912757D01*
X165545465Y-61908750D01*
X165534331Y-61907211D01*
X165534094Y-61907203D01*
X165534446Y-61910540D01*
X165549647Y-61919524D01*
X165578758Y-61933692D01*
X165620841Y-61952583D01*
X165665568Y-61971782D01*
X165719665Y-61994790D01*
X165760210Y-62012574D01*
X165789318Y-62026316D01*
X165809104Y-62037198D01*
X165821686Y-62046401D01*
X165829179Y-62055109D01*
X165833698Y-62064503D01*
X165834245Y-62066031D01*
X165837490Y-62097156D01*
X165827068Y-62124627D01*
X165805766Y-62144304D01*
X165776387Y-62152046D01*
X165761410Y-62148492D01*
X165733511Y-62138317D01*
X165694872Y-62122550D01*
X165647673Y-62102214D01*
X165594096Y-62078337D01*
X165536321Y-62051944D01*
X165476531Y-62024062D01*
X165416906Y-61995716D01*
X165359627Y-61967932D01*
X165306876Y-61941737D01*
X165260833Y-61918155D01*
X165223680Y-61898214D01*
X165197597Y-61882939D01*
X165185433Y-61874071D01*
X165170575Y-61848349D01*
X165169047Y-61818426D01*
X165181095Y-61790839D01*
X165182255Y-61789402D01*
X165197077Y-61778992D01*
X165226597Y-61766043D01*
X165271466Y-61750302D01*
X165328257Y-61732725D01*
X165378064Y-61717746D01*
X165438946Y-61699112D01*
X165505873Y-61678381D01*
X165573814Y-61657113D01*
X165637739Y-61636865D01*
X165642651Y-61635297D01*
X165696650Y-61618355D01*
X165746360Y-61603338D01*
X165789144Y-61590997D01*
X165822361Y-61582082D01*
X165843375Y-61577344D01*
X165848284Y-61576774D01*
X165870611Y-61583039D01*
X165892433Y-61598495D01*
X165907336Y-61617607D01*
X165910349Y-61636929D01*
X165908926Y-61646355D01*
X165902214Y-61668740D01*
X165894154Y-61683995D01*
X165883048Y-61690421D01*
X165858786Y-61700490D01*
X165824444Y-61713048D01*
X165783099Y-61726941D01*
X165760898Y-61733985D01*
X165702757Y-61752120D01*
X165659708Y-61765936D01*
X165630696Y-61776195D01*
X165614667Y-61783658D01*
X165610566Y-61789087D01*
X165617338Y-61793243D01*
X165633926Y-61796887D01*
X165659278Y-61800780D01*
X165666810Y-61801874D01*
X165705308Y-61807336D01*
X165753796Y-61814019D01*
X165805473Y-61820992D01*
X165844551Y-61826157D01*
X165879265Y-61830966D01*
X165927692Y-61838070D01*
X165986846Y-61847009D01*
X166053738Y-61857325D01*
X166125380Y-61868559D01*
X166198784Y-61880253D01*
X166235143Y-61886117D01*
X166302925Y-61897039D01*
X166365690Y-61907038D01*
X166421404Y-61915799D01*
X166468035Y-61923008D01*
X166503551Y-61928350D01*
X166525919Y-61931508D01*
X166532844Y-61932256D01*
X166537423Y-61928854D01*
X166536262Y-61917217D01*
X166770864Y-61917217D01*
X166771758Y-61927683D01*
X166781545Y-61950154D01*
X166799222Y-61982901D01*
X166823784Y-62024198D01*
X166854229Y-62072315D01*
X166889551Y-62125525D01*
X166904984Y-62148084D01*
X166931249Y-62186052D01*
X166954258Y-62219120D01*
X166972246Y-62244766D01*
X166983445Y-62260467D01*
X166986149Y-62264039D01*
X166995466Y-62266732D01*
X167019820Y-62271823D01*
X167057538Y-62279022D01*
X167106944Y-62288040D01*
X167166363Y-62298585D01*
X167234121Y-62310369D01*
X167308542Y-62323102D01*
X167387951Y-62336493D01*
X167470675Y-62350253D01*
X167555037Y-62364091D01*
X167639362Y-62377719D01*
X167685438Y-62385069D01*
X167743811Y-62394368D01*
X167810907Y-62405108D01*
X167878739Y-62416008D01*
X167939322Y-62425786D01*
X167943585Y-62426476D01*
X167993520Y-62434542D01*
X168041989Y-62442326D01*
X168084512Y-62449114D01*
X168116607Y-62454187D01*
X168125557Y-62455582D01*
X168153516Y-62459911D01*
X168174467Y-62463167D01*
X168182688Y-62464456D01*
X168189030Y-62461625D01*
X168189036Y-62461443D01*
X168184637Y-62453301D01*
X168172554Y-62433699D01*
X168154459Y-62405286D01*
X168132027Y-62370708D01*
X168123442Y-62357612D01*
X168094604Y-62312690D01*
X168064668Y-62264288D01*
X168037181Y-62218244D01*
X168015813Y-62180614D01*
X167973780Y-62103411D01*
X167884624Y-62089306D01*
X167839526Y-62082156D01*
X167791127Y-62074449D01*
X167737326Y-62065848D01*
X167676024Y-62056017D01*
X167605119Y-62044617D01*
X167522512Y-62031314D01*
X167426103Y-62015768D01*
X167384971Y-62009132D01*
X167265894Y-61989950D01*
X167162513Y-61973374D01*
X167073822Y-61959255D01*
X166998817Y-61947440D01*
X166936490Y-61937781D01*
X166885838Y-61930125D01*
X166845853Y-61924323D01*
X166815531Y-61920225D01*
X166793866Y-61917679D01*
X166779853Y-61916536D01*
X166772485Y-61916644D01*
X166770864Y-61917217D01*
X166536262Y-61917217D01*
X166536260Y-61917198D01*
X166528761Y-61895107D01*
X166514334Y-61860402D01*
X166511533Y-61853965D01*
X166474574Y-61768021D01*
X166443952Y-61693442D01*
X166418282Y-61626531D01*
X166396177Y-61563589D01*
X166376254Y-61500917D01*
X166364985Y-61462654D01*
X166339644Y-61369919D01*
X166335166Y-61351537D01*
X166540943Y-61351537D01*
X166541613Y-61361202D01*
X166547425Y-61383994D01*
X166557450Y-61417236D01*
X166570757Y-61458253D01*
X166586417Y-61504370D01*
X166603499Y-61552911D01*
X166621074Y-61601202D01*
X166638211Y-61646566D01*
X166653981Y-61686329D01*
X166667453Y-61717815D01*
X166670684Y-61724777D01*
X166681276Y-61744449D01*
X166692875Y-61755449D01*
X166711222Y-61761462D01*
X166733267Y-61764975D01*
X166769035Y-61770130D01*
X166818968Y-61777603D01*
X166880526Y-61786992D01*
X166951167Y-61797896D01*
X167028348Y-61809914D01*
X167109528Y-61822644D01*
X167192165Y-61835686D01*
X167273717Y-61848638D01*
X167351643Y-61861098D01*
X167423401Y-61872665D01*
X167486449Y-61882939D01*
X167538244Y-61891517D01*
X167576247Y-61897999D01*
X167579639Y-61898596D01*
X167636745Y-61908525D01*
X167694650Y-61918311D01*
X167750378Y-61927479D01*
X167800954Y-61935552D01*
X167843402Y-61942055D01*
X167874748Y-61946510D01*
X167890686Y-61948353D01*
X167900496Y-61944726D01*
X167901266Y-61942165D01*
X167898064Y-61932283D01*
X167889257Y-61909838D01*
X167876043Y-61877769D01*
X167859619Y-61839014D01*
X167852098Y-61821555D01*
X167831761Y-61773405D01*
X167811492Y-61723394D01*
X167793481Y-61677049D01*
X167779919Y-61639901D01*
X167778592Y-61636021D01*
X167767049Y-61603103D01*
X167756874Y-61576244D01*
X167749662Y-61559568D01*
X167747857Y-61556541D01*
X167744229Y-61554074D01*
X167736434Y-61551233D01*
X167723083Y-61547763D01*
X167702783Y-61543405D01*
X167674144Y-61537901D01*
X167635775Y-61530996D01*
X167586284Y-61522430D01*
X167524280Y-61511947D01*
X167448372Y-61499290D01*
X167357168Y-61484199D01*
X167355348Y-61483899D01*
X167295886Y-61474071D01*
X167223654Y-61462111D01*
X167142579Y-61448669D01*
X167056587Y-61434396D01*
X166969605Y-61419946D01*
X166885561Y-61405969D01*
X166847844Y-61399690D01*
X166778304Y-61388189D01*
X166714212Y-61377738D01*
X166657439Y-61368633D01*
X166609855Y-61361166D01*
X166573332Y-61355631D01*
X166549740Y-61352321D01*
X166540950Y-61351531D01*
X166540943Y-61351537D01*
X166335166Y-61351537D01*
X166317130Y-61277509D01*
X166297309Y-61183974D01*
X166280041Y-61087861D01*
X166265191Y-60987720D01*
X166252621Y-60882098D01*
X166244237Y-60791591D01*
X166437089Y-60791591D01*
X166438425Y-60818930D01*
X166442028Y-60856856D01*
X166447442Y-60902444D01*
X166454214Y-60952772D01*
X166461889Y-61004912D01*
X166470013Y-61055943D01*
X166478131Y-61102938D01*
X166485790Y-61142973D01*
X166492534Y-61173124D01*
X166497910Y-61190466D01*
X166499454Y-61193043D01*
X166509712Y-61196470D01*
X166535303Y-61202197D01*
X166574826Y-61209983D01*
X166626880Y-61219588D01*
X166690062Y-61230773D01*
X166762970Y-61243296D01*
X166844202Y-61256916D01*
X166932356Y-61271395D01*
X167026031Y-61286490D01*
X167123825Y-61301963D01*
X167224335Y-61317571D01*
X167236854Y-61319494D01*
X167272418Y-61325021D01*
X167320353Y-61332569D01*
X167376323Y-61341450D01*
X167435990Y-61350977D01*
X167495001Y-61360458D01*
X167560386Y-61370987D01*
X167610901Y-61378958D01*
X167648394Y-61384469D01*
X167674712Y-61387619D01*
X167691705Y-61388504D01*
X167701220Y-61387224D01*
X167705104Y-61383876D01*
X167705207Y-61378559D01*
X167703417Y-61371526D01*
X167698388Y-61350140D01*
X167691156Y-61315735D01*
X167682413Y-61271967D01*
X167672853Y-61222497D01*
X167663168Y-61170981D01*
X167654051Y-61121078D01*
X167646196Y-61076447D01*
X167640295Y-61040745D01*
X167638486Y-61028740D01*
X167633272Y-60996867D01*
X167628081Y-60972625D01*
X167623795Y-60959916D01*
X167622672Y-60958913D01*
X167613379Y-60957556D01*
X167589091Y-60953671D01*
X167551508Y-60947538D01*
X167502329Y-60939438D01*
X167443252Y-60929652D01*
X167375976Y-60918460D01*
X167302199Y-60906142D01*
X167240656Y-60895837D01*
X167153797Y-60881336D01*
X167064403Y-60866524D01*
X166975508Y-60851896D01*
X166890142Y-60837947D01*
X166811341Y-60825173D01*
X166742135Y-60814067D01*
X166685558Y-60805126D01*
X166669776Y-60802672D01*
X166613335Y-60793891D01*
X166561656Y-60785740D01*
X166517375Y-60778645D01*
X166483125Y-60773031D01*
X166461543Y-60769320D01*
X166456064Y-60768253D01*
X166443010Y-60767412D01*
X166437844Y-60775944D01*
X166437089Y-60791591D01*
X166244237Y-60791591D01*
X166242195Y-60769544D01*
X166233775Y-60648607D01*
X166227224Y-60517835D01*
X166222406Y-60375777D01*
X166219182Y-60220981D01*
X166218695Y-60174376D01*
X166409112Y-60174376D01*
X166413821Y-60393765D01*
X166415214Y-60452925D01*
X166416706Y-60506303D01*
X166418215Y-60551628D01*
X166419658Y-60586627D01*
X166420952Y-60609030D01*
X166421927Y-60616552D01*
X166430984Y-60618743D01*
X166455319Y-60623290D01*
X166493484Y-60629958D01*
X166544028Y-60638512D01*
X166605502Y-60648716D01*
X166676457Y-60660336D01*
X166755443Y-60673135D01*
X166841010Y-60686878D01*
X166931709Y-60701331D01*
X167026091Y-60716257D01*
X167122706Y-60731421D01*
X167220104Y-60746589D01*
X167279173Y-60755725D01*
X167346102Y-60766104D01*
X167407780Y-60775775D01*
X167462189Y-60784412D01*
X167507311Y-60791692D01*
X167541129Y-60797289D01*
X167561624Y-60800880D01*
X167566944Y-60802018D01*
X167581597Y-60804837D01*
X167595393Y-60805896D01*
X167608722Y-60804484D01*
X167612616Y-60795718D01*
X167610622Y-60779057D01*
X167608505Y-60761649D01*
X167605638Y-60730758D01*
X167602301Y-60689794D01*
X167598776Y-60642169D01*
X167596132Y-60603432D01*
X167592556Y-60551192D01*
X167588878Y-60501257D01*
X167585409Y-60457578D01*
X167582458Y-60424105D01*
X167580881Y-60408977D01*
X167575363Y-60362639D01*
X167325702Y-60322433D01*
X167220016Y-60305409D01*
X167115076Y-60288499D01*
X167012491Y-60271962D01*
X166913875Y-60256059D01*
X166820838Y-60241050D01*
X166734992Y-60227194D01*
X166657950Y-60214753D01*
X166591322Y-60203985D01*
X166536720Y-60195152D01*
X166495756Y-60188513D01*
X166471733Y-60184605D01*
X166409112Y-60174376D01*
X166218695Y-60174376D01*
X166217417Y-60051995D01*
X166216960Y-59894770D01*
X166217009Y-59794462D01*
X166217010Y-59792966D01*
X166217184Y-59706723D01*
X166217520Y-59634675D01*
X166218053Y-59575456D01*
X166218422Y-59552570D01*
X166411629Y-59552570D01*
X166411629Y-59794462D01*
X166411789Y-59868079D01*
X166412313Y-59926237D01*
X166413264Y-59970399D01*
X166414707Y-60002033D01*
X166416705Y-60022602D01*
X166419323Y-60033571D01*
X166422209Y-60036448D01*
X166432905Y-60037774D01*
X166458206Y-60041487D01*
X166496007Y-60047259D01*
X166544203Y-60054766D01*
X166600690Y-60063679D01*
X166663362Y-60073674D01*
X166695168Y-60078783D01*
X166775817Y-60091719D01*
X166867740Y-60106383D01*
X166965482Y-60121910D01*
X167063590Y-60137436D01*
X167156608Y-60152095D01*
X167232599Y-60164009D01*
X167298728Y-60174432D01*
X167359359Y-60184157D01*
X167412503Y-60192852D01*
X167456175Y-60200185D01*
X167488387Y-60205824D01*
X167507152Y-60209437D01*
X167511200Y-60210545D01*
X167521246Y-60212966D01*
X167540926Y-60214086D01*
X167542963Y-60214095D01*
X167571176Y-60214095D01*
X167571176Y-59977780D01*
X167571176Y-59741465D01*
X167547900Y-59736668D01*
X167530865Y-59733586D01*
X167501116Y-59728626D01*
X167462678Y-59722444D01*
X167419574Y-59715697D01*
X167414594Y-59714928D01*
X167367677Y-59707644D01*
X167360534Y-59706523D01*
X167754643Y-59706523D01*
X167760283Y-60013208D01*
X167765312Y-60215508D01*
X167772815Y-60402528D01*
X167783024Y-60575770D01*
X167796172Y-60736732D01*
X167812493Y-60886915D01*
X167832220Y-61027818D01*
X167855586Y-61160942D01*
X167882824Y-61287786D01*
X167914167Y-61409850D01*
X167949848Y-61528634D01*
X167990101Y-61645638D01*
X168030279Y-61750283D01*
X168110028Y-61932470D01*
X168197809Y-62102620D01*
X168293173Y-62260189D01*
X168395669Y-62404630D01*
X168504848Y-62535400D01*
X168620261Y-62651954D01*
X168741457Y-62753745D01*
X168867988Y-62840230D01*
X168980406Y-62901792D01*
X169118473Y-62960048D01*
X169265087Y-63004734D01*
X169417817Y-63035165D01*
X169484005Y-63043617D01*
X169525245Y-63046439D01*
X169578415Y-63047794D01*
X169638589Y-63047771D01*
X169700839Y-63046458D01*
X169760240Y-63043941D01*
X169811864Y-63040311D01*
X169840006Y-63037251D01*
X169977413Y-63012698D01*
X170119876Y-62975625D01*
X170263081Y-62927612D01*
X170402717Y-62870237D01*
X170534472Y-62805082D01*
X170635088Y-62746011D01*
X170682426Y-62714274D01*
X170738398Y-62674236D01*
X170799040Y-62628903D01*
X170860389Y-62581284D01*
X170918482Y-62534385D01*
X170958814Y-62500385D01*
X171013735Y-62449204D01*
X171295752Y-62449204D01*
X171296267Y-62456908D01*
X171298208Y-62458491D01*
X171308972Y-62461111D01*
X171334707Y-62465782D01*
X171373617Y-62472225D01*
X171423905Y-62480159D01*
X171483777Y-62489303D01*
X171551436Y-62499378D01*
X171625087Y-62510102D01*
X171668947Y-62516382D01*
X171745019Y-62527258D01*
X171815973Y-62537497D01*
X171880041Y-62546838D01*
X171935452Y-62555018D01*
X171980436Y-62561774D01*
X172013221Y-62566845D01*
X172032040Y-62569968D01*
X172035854Y-62570782D01*
X172052485Y-62574604D01*
X172069017Y-62570370D01*
X172071293Y-62568307D01*
X172073294Y-62563305D01*
X172075037Y-62554365D01*
X172076537Y-62540487D01*
X172077810Y-62520673D01*
X172078873Y-62493921D01*
X172079740Y-62459233D01*
X172080428Y-62415608D01*
X172080951Y-62362048D01*
X172081327Y-62297552D01*
X172081571Y-62221121D01*
X172081699Y-62131755D01*
X172081725Y-62028455D01*
X172081667Y-61910221D01*
X172081541Y-61776885D01*
X172081303Y-61628416D01*
X172080930Y-61496650D01*
X172080419Y-61381365D01*
X172079768Y-61282335D01*
X172078974Y-61199339D01*
X172078035Y-61132152D01*
X172076947Y-61080550D01*
X172075708Y-61044310D01*
X172074315Y-61023209D01*
X172072766Y-61017023D01*
X172072235Y-61018160D01*
X172056390Y-61071730D01*
X172037030Y-61134015D01*
X172015482Y-61201019D01*
X171993070Y-61268750D01*
X171971121Y-61333214D01*
X171950961Y-61390418D01*
X171933917Y-61436367D01*
X171930315Y-61445585D01*
X171859283Y-61607757D01*
X171773980Y-61772822D01*
X171676105Y-61938057D01*
X171567355Y-62100736D01*
X171449428Y-62258134D01*
X171348022Y-62380254D01*
X171320408Y-62412796D01*
X171303392Y-62435140D01*
X171295752Y-62449204D01*
X171013735Y-62449204D01*
X171086750Y-62381162D01*
X171211746Y-62247456D01*
X171331915Y-62101679D01*
X171445374Y-61946242D01*
X171550237Y-61783557D01*
X171633347Y-61637370D01*
X171726359Y-61449844D01*
X171805406Y-61261406D01*
X171871286Y-61069471D01*
X171924798Y-60871458D01*
X171966738Y-60664783D01*
X171995909Y-60463778D01*
X172018253Y-60277574D01*
X172020915Y-57842641D01*
X172023577Y-55407709D01*
X171919686Y-55450416D01*
X171869819Y-55470796D01*
X171815037Y-55492995D01*
X171762650Y-55514059D01*
X171726924Y-55528287D01*
X171702000Y-55538171D01*
X171663178Y-55553595D01*
X171612287Y-55573831D01*
X171551152Y-55598153D01*
X171481602Y-55625833D01*
X171405464Y-55656144D01*
X171324565Y-55688359D01*
X171240732Y-55721751D01*
X171203059Y-55736759D01*
X170768064Y-55910066D01*
X170773116Y-57653700D01*
X170773775Y-57885082D01*
X170774352Y-58100234D01*
X170774829Y-58299854D01*
X170775188Y-58484639D01*
X170775411Y-58655286D01*
X170775482Y-58812493D01*
X170775382Y-58956958D01*
X170775093Y-59089378D01*
X170774599Y-59210451D01*
X170773882Y-59320875D01*
X170772923Y-59421346D01*
X170771706Y-59512562D01*
X170770212Y-59595222D01*
X170768424Y-59670021D01*
X170766325Y-59737659D01*
X170763897Y-59798832D01*
X170761121Y-59854239D01*
X170757982Y-59904576D01*
X170754460Y-59950541D01*
X170750538Y-59992831D01*
X170746199Y-60032145D01*
X170741426Y-60069180D01*
X170736199Y-60104633D01*
X170730503Y-60139201D01*
X170724318Y-60173583D01*
X170717628Y-60208476D01*
X170710415Y-60244578D01*
X170707265Y-60260079D01*
X170664310Y-60433558D01*
X170608389Y-60596417D01*
X170539564Y-60748519D01*
X170457900Y-60889729D01*
X170363457Y-61019911D01*
X170347014Y-61039888D01*
X170256020Y-61137247D01*
X170158546Y-61220037D01*
X170055366Y-61287735D01*
X169947256Y-61339815D01*
X169859737Y-61369334D01*
X169803283Y-61380641D01*
X169736980Y-61387158D01*
X169667265Y-61388704D01*
X169600578Y-61385098D01*
X169551715Y-61377977D01*
X169455655Y-61349863D01*
X169364011Y-61306047D01*
X169277393Y-61247317D01*
X169196410Y-61174464D01*
X169121672Y-61088281D01*
X169053789Y-60989556D01*
X169032404Y-60950453D01*
X169260751Y-60950453D01*
X169261239Y-60955772D01*
X169271875Y-60970094D01*
X169290353Y-60990957D01*
X169314366Y-61015898D01*
X169341609Y-61042457D01*
X169369774Y-61068171D01*
X169376584Y-61074089D01*
X169452599Y-61130569D01*
X169530142Y-61170307D01*
X169610097Y-61193479D01*
X169693347Y-61200258D01*
X169780775Y-61190819D01*
X169860721Y-61169618D01*
X169902922Y-61153655D01*
X169946642Y-61133926D01*
X169984062Y-61114035D01*
X169992415Y-61108884D01*
X170019173Y-61091173D01*
X170033087Y-61080303D01*
X170035815Y-61074388D01*
X170029018Y-61071539D01*
X170025691Y-61071042D01*
X169992654Y-61066468D01*
X169945048Y-61059427D01*
X169885000Y-61050251D01*
X169814635Y-61039273D01*
X169736079Y-61026827D01*
X169651459Y-61013244D01*
X169562900Y-60998858D01*
X169522092Y-60992171D01*
X169458461Y-60981756D01*
X169400181Y-60972291D01*
X169349359Y-60964112D01*
X169308103Y-60957556D01*
X169278520Y-60952958D01*
X169262717Y-60950656D01*
X169260751Y-60950453D01*
X169032404Y-60950453D01*
X168993371Y-60879080D01*
X168941027Y-60757645D01*
X168897367Y-60626040D01*
X168874239Y-60531157D01*
X169071019Y-60531157D01*
X169071687Y-60540523D01*
X169076904Y-60562336D01*
X169085581Y-60593084D01*
X169096626Y-60629254D01*
X169108948Y-60667334D01*
X169121456Y-60703810D01*
X169133059Y-60735171D01*
X169138680Y-60749012D01*
X169141926Y-60757805D01*
X169144344Y-60765260D01*
X169147177Y-60771676D01*
X169151670Y-60777353D01*
X169159068Y-60782590D01*
X169170616Y-60787687D01*
X169187557Y-60792944D01*
X169211137Y-60798661D01*
X169242601Y-60805136D01*
X169283193Y-60812670D01*
X169334157Y-60821563D01*
X169396738Y-60832114D01*
X169472182Y-60844622D01*
X169561731Y-60859388D01*
X169666632Y-60876711D01*
X169674441Y-60878004D01*
X169758429Y-60891911D01*
X169837834Y-60905063D01*
X169910998Y-60917182D01*
X169976264Y-60927996D01*
X170031972Y-60937229D01*
X170076466Y-60944606D01*
X170108087Y-60949853D01*
X170125176Y-60952694D01*
X170127257Y-60953043D01*
X170147541Y-60956255D01*
X170158509Y-60957761D01*
X170168601Y-60952333D01*
X170185854Y-60936948D01*
X170206748Y-60914786D01*
X170209292Y-60911870D01*
X170234885Y-60880861D01*
X170260920Y-60846903D01*
X170285515Y-60812766D01*
X170306790Y-60781223D01*
X170322866Y-60755043D01*
X170331862Y-60737000D01*
X170332563Y-60730150D01*
X170325594Y-60727560D01*
X170308708Y-60723698D01*
X170280806Y-60718372D01*
X170240788Y-60711393D01*
X170187555Y-60702569D01*
X170120008Y-60691711D01*
X170037046Y-60678628D01*
X170017227Y-60675528D01*
X169992264Y-60671579D01*
X169952997Y-60665306D01*
X169901832Y-60657096D01*
X169841174Y-60647337D01*
X169773429Y-60636415D01*
X169701002Y-60624716D01*
X169627890Y-60612887D01*
X169508911Y-60593700D01*
X169405907Y-60577268D01*
X169318167Y-60563486D01*
X169244982Y-60552251D01*
X169185641Y-60543459D01*
X169139436Y-60537005D01*
X169105655Y-60532785D01*
X169083590Y-60530695D01*
X169072530Y-60530630D01*
X169071019Y-60531157D01*
X168874239Y-60531157D01*
X168863002Y-60485057D01*
X168862978Y-60484938D01*
X168846468Y-60388744D01*
X169097616Y-60388744D01*
X169097668Y-60389193D01*
X169106406Y-60391136D01*
X169129378Y-60395129D01*
X169164067Y-60400764D01*
X169207959Y-60407636D01*
X169258537Y-60415338D01*
X169273044Y-60417512D01*
X169339090Y-60427487D01*
X169412425Y-60438749D01*
X169486612Y-60450297D01*
X169555211Y-60461131D01*
X169598267Y-60468047D01*
X169646291Y-60475800D01*
X169707344Y-60485596D01*
X169777734Y-60496847D01*
X169853768Y-60508963D01*
X169931753Y-60521355D01*
X170007996Y-60533435D01*
X170025691Y-60536232D01*
X170093756Y-60547011D01*
X170158048Y-60557236D01*
X170216239Y-60566533D01*
X170265999Y-60574530D01*
X170305000Y-60580851D01*
X170330914Y-60585124D01*
X170338853Y-60586485D01*
X170370920Y-60591457D01*
X170392559Y-60590966D01*
X170407760Y-60582541D01*
X170420513Y-60563713D01*
X170434808Y-60532011D01*
X170437606Y-60525336D01*
X170451555Y-60489389D01*
X170466223Y-60447249D01*
X170480608Y-60402360D01*
X170493709Y-60358162D01*
X170504523Y-60318098D01*
X170512047Y-60285609D01*
X170515281Y-60264139D01*
X170515106Y-60259170D01*
X170510996Y-60252454D01*
X170499829Y-60246659D01*
X170479072Y-60241078D01*
X170446188Y-60235003D01*
X170406519Y-60228880D01*
X170369043Y-60223252D01*
X170318408Y-60215486D01*
X170258168Y-60206137D01*
X170191875Y-60195758D01*
X170123083Y-60184903D01*
X170063778Y-60175473D01*
X169993800Y-60164348D01*
X169911634Y-60151364D01*
X169821825Y-60137234D01*
X169728917Y-60122672D01*
X169637453Y-60108389D01*
X169551978Y-60095100D01*
X169530556Y-60091781D01*
X169461250Y-60080960D01*
X169396869Y-60070728D01*
X169339423Y-60061420D01*
X169290923Y-60053368D01*
X169253378Y-60046906D01*
X169228799Y-60042366D01*
X169219510Y-60040234D01*
X169207477Y-60039809D01*
X169204601Y-60050260D01*
X169201926Y-60062840D01*
X169194526Y-60088693D01*
X169183243Y-60125109D01*
X169168921Y-60169377D01*
X169152403Y-60218785D01*
X169149835Y-60226334D01*
X169133328Y-60275219D01*
X169119071Y-60318345D01*
X169107845Y-60353269D01*
X169100432Y-60377549D01*
X169097616Y-60388744D01*
X168846468Y-60388744D01*
X168845952Y-60385735D01*
X168831792Y-60270043D01*
X168820496Y-60137824D01*
X168812061Y-59989041D01*
X168806484Y-59823658D01*
X168803763Y-59641636D01*
X168803518Y-59589904D01*
X168803087Y-59499415D01*
X168802315Y-59425194D01*
X168801180Y-59366585D01*
X168799663Y-59322931D01*
X168797741Y-59293575D01*
X168795394Y-59277862D01*
X168793446Y-59274626D01*
X168782985Y-59277839D01*
X168759746Y-59286757D01*
X168726450Y-59300279D01*
X168685818Y-59317304D01*
X168649561Y-59332835D01*
X168608369Y-59350490D01*
X168554605Y-59373294D01*
X168491351Y-59399955D01*
X168421688Y-59429178D01*
X168348697Y-59459670D01*
X168275461Y-59490135D01*
X168235587Y-59506662D01*
X168144717Y-59544275D01*
X168068008Y-59576034D01*
X168003979Y-59602554D01*
X167951149Y-59624448D01*
X167908038Y-59642333D01*
X167873163Y-59656823D01*
X167845044Y-59668532D01*
X167822199Y-59678075D01*
X167803148Y-59686068D01*
X167791983Y-59690771D01*
X167754643Y-59706523D01*
X167360534Y-59706523D01*
X167310198Y-59698624D01*
X167244011Y-59688166D01*
X167170966Y-59676568D01*
X167092915Y-59664127D01*
X167011710Y-59651143D01*
X166929203Y-59637913D01*
X166847246Y-59624735D01*
X166767690Y-59611907D01*
X166692388Y-59599728D01*
X166623190Y-59588495D01*
X166561950Y-59578506D01*
X166510518Y-59570060D01*
X166470746Y-59563454D01*
X166444487Y-59558987D01*
X166434904Y-59557245D01*
X166411629Y-59552570D01*
X166218422Y-59552570D01*
X166218822Y-59527698D01*
X166219863Y-59490037D01*
X166221213Y-59461104D01*
X166222909Y-59439535D01*
X166224988Y-59423962D01*
X166225790Y-59420453D01*
X166572172Y-59420453D01*
X166576290Y-59423024D01*
X166587083Y-59426196D01*
X166605716Y-59430160D01*
X166633355Y-59435108D01*
X166671163Y-59441229D01*
X166720307Y-59448716D01*
X166781950Y-59457760D01*
X166857258Y-59468551D01*
X166947395Y-59481281D01*
X167016794Y-59491008D01*
X167092865Y-59501708D01*
X167171712Y-59512907D01*
X167249631Y-59524072D01*
X167322914Y-59534668D01*
X167387858Y-59544162D01*
X167440756Y-59552020D01*
X167452682Y-59553820D01*
X167502975Y-59561384D01*
X167548089Y-59568048D01*
X167585120Y-59573392D01*
X167611162Y-59576997D01*
X167623206Y-59578438D01*
X167637763Y-59575373D01*
X167661816Y-59566522D01*
X167686685Y-59555424D01*
X167703444Y-59547998D01*
X167734392Y-59534962D01*
X167777978Y-59516946D01*
X167832655Y-59494579D01*
X167896874Y-59468489D01*
X167969087Y-59439306D01*
X168047745Y-59407660D01*
X168131300Y-59374179D01*
X168212312Y-59341839D01*
X168297253Y-59307924D01*
X168377343Y-59275809D01*
X168451228Y-59246048D01*
X168517553Y-59219193D01*
X168574964Y-59195794D01*
X168622107Y-59176405D01*
X168657628Y-59161577D01*
X168680173Y-59151862D01*
X168688387Y-59147813D01*
X168688398Y-59147778D01*
X168680515Y-59145008D01*
X168658839Y-59140337D01*
X168626324Y-59134331D01*
X168585924Y-59127555D01*
X168567788Y-59124689D01*
X168526547Y-59118268D01*
X168472247Y-59109789D01*
X168408556Y-59099827D01*
X168339136Y-59088954D01*
X168267652Y-59077744D01*
X168201732Y-59067393D01*
X168108975Y-59052824D01*
X168031468Y-59040669D01*
X167967737Y-59030710D01*
X167916310Y-59022728D01*
X167875715Y-59016505D01*
X167844479Y-59011821D01*
X167821129Y-59008459D01*
X167804194Y-59006199D01*
X167792200Y-59004823D01*
X167783675Y-59004113D01*
X167777146Y-59003850D01*
X167773475Y-59003815D01*
X167756199Y-59006613D01*
X167727803Y-59014173D01*
X167692963Y-59025173D01*
X167671908Y-59032514D01*
X167636121Y-59045330D01*
X167586393Y-59062973D01*
X167524774Y-59084724D01*
X167453317Y-59109864D01*
X167374075Y-59137675D01*
X167289098Y-59167438D01*
X167200440Y-59198435D01*
X167110151Y-59229948D01*
X167020284Y-59261258D01*
X166932891Y-59291646D01*
X166850024Y-59320394D01*
X166822125Y-59330055D01*
X166761692Y-59351043D01*
X166706165Y-59370465D01*
X166657642Y-59387577D01*
X166618223Y-59401632D01*
X166590008Y-59411887D01*
X166575096Y-59417596D01*
X166573565Y-59418292D01*
X166572172Y-59420453D01*
X166225790Y-59420453D01*
X166227488Y-59413020D01*
X166230193Y-59405861D01*
X166235374Y-59396344D01*
X166242396Y-59388109D01*
X166253421Y-59380129D01*
X166270614Y-59371379D01*
X166296138Y-59360835D01*
X166332156Y-59347470D01*
X166380833Y-59330259D01*
X166414282Y-59318609D01*
X166462118Y-59301917D01*
X166522835Y-59280619D01*
X166593366Y-59255797D01*
X166670649Y-59228532D01*
X166751618Y-59199904D01*
X166833210Y-59170995D01*
X166910996Y-59143371D01*
X166989388Y-59115557D01*
X167069462Y-59087259D01*
X167148293Y-59059504D01*
X167222953Y-59033317D01*
X167290516Y-59009725D01*
X167348055Y-58989755D01*
X167392642Y-58974433D01*
X167393435Y-58974163D01*
X167450120Y-58954648D01*
X167508894Y-58934059D01*
X167564959Y-58914099D01*
X167613516Y-58896475D01*
X167643118Y-58885435D01*
X167683151Y-58870408D01*
X167711681Y-58860718D01*
X167732995Y-58855607D01*
X167751384Y-58854318D01*
X167771135Y-58856094D01*
X167791236Y-58859286D01*
X167812611Y-58862772D01*
X167848338Y-58868473D01*
X167896040Y-58876018D01*
X167953340Y-58885031D01*
X168017862Y-58895138D01*
X168087229Y-58905965D01*
X168142485Y-58914564D01*
X168275494Y-58935230D01*
X168392794Y-58953464D01*
X168495400Y-58969449D01*
X168584329Y-58983370D01*
X168660595Y-58995410D01*
X168725214Y-59005752D01*
X168779202Y-59014581D01*
X168823574Y-59022080D01*
X168859346Y-59028432D01*
X168887533Y-59033822D01*
X168909150Y-59038432D01*
X168925213Y-59042447D01*
X168936738Y-59046051D01*
X168944740Y-59049426D01*
X168950234Y-59052757D01*
X168954237Y-59056228D01*
X168957763Y-59060021D01*
X168959962Y-59062412D01*
X168981837Y-59085536D01*
X168987459Y-59448799D01*
X168988701Y-59531955D01*
X168989861Y-59615186D01*
X168990908Y-59695790D01*
X168991809Y-59771065D01*
X168992532Y-59838308D01*
X168993046Y-59894815D01*
X168993319Y-59937884D01*
X168993348Y-59947484D01*
X168993830Y-60001174D01*
X168995209Y-60038831D01*
X168997758Y-60060357D01*
X169001746Y-60065655D01*
X169007442Y-60054627D01*
X169015119Y-60027176D01*
X169025045Y-59983204D01*
X169035559Y-59932233D01*
X169043241Y-59892559D01*
X169231961Y-59892559D01*
X169239279Y-59902251D01*
X169244063Y-59904168D01*
X169256911Y-59906853D01*
X169283743Y-59911513D01*
X169321790Y-59917701D01*
X169368282Y-59924969D01*
X169420451Y-59932870D01*
X169433222Y-59934768D01*
X169496113Y-59944218D01*
X169569942Y-59955536D01*
X169648945Y-59967824D01*
X169727360Y-59980184D01*
X169799423Y-59991719D01*
X169809863Y-59993409D01*
X169880402Y-60004789D01*
X169958206Y-60017234D01*
X170037510Y-60029830D01*
X170112547Y-60041661D01*
X170177554Y-60051812D01*
X170186504Y-60053199D01*
X170243626Y-60062098D01*
X170299549Y-60070925D01*
X170350458Y-60079069D01*
X170392537Y-60085919D01*
X170421971Y-60090865D01*
X170423492Y-60091129D01*
X170459262Y-60096785D01*
X170492805Y-60101084D01*
X170517042Y-60103124D01*
X170517615Y-60103143D01*
X170548260Y-60104065D01*
X170557730Y-60034238D01*
X170561902Y-59999789D01*
X170566275Y-59957398D01*
X170570628Y-59910030D01*
X170574742Y-59860653D01*
X170578397Y-59812231D01*
X170581374Y-59767730D01*
X170583453Y-59730116D01*
X170584414Y-59702355D01*
X170584038Y-59687413D01*
X170583535Y-59685745D01*
X170574390Y-59683401D01*
X170550748Y-59678918D01*
X170514852Y-59672678D01*
X170468942Y-59665060D01*
X170415262Y-59656446D01*
X170359676Y-59647772D01*
X170288868Y-59636828D01*
X170212816Y-59625006D01*
X170136460Y-59613078D01*
X170064740Y-59601817D01*
X170002596Y-59591996D01*
X169979140Y-59588263D01*
X169844474Y-59566808D01*
X169723098Y-59547557D01*
X169615412Y-59530573D01*
X169521819Y-59515916D01*
X169442720Y-59503649D01*
X169378515Y-59493835D01*
X169329607Y-59486534D01*
X169296396Y-59481810D01*
X169279284Y-59479724D01*
X169276884Y-59479698D01*
X169275616Y-59488403D01*
X169272901Y-59511483D01*
X169269011Y-59546471D01*
X169264218Y-59590904D01*
X169258795Y-59642315D01*
X169256545Y-59663945D01*
X169250723Y-59719318D01*
X169245186Y-59770451D01*
X169240265Y-59814422D01*
X169236288Y-59848310D01*
X169233584Y-59869192D01*
X169233052Y-59872589D01*
X169231961Y-59892559D01*
X169043241Y-59892559D01*
X169044791Y-59884551D01*
X169052668Y-59839139D01*
X169059589Y-59792824D01*
X169065953Y-59742434D01*
X169072161Y-59684796D01*
X169078611Y-59616738D01*
X169085702Y-59535087D01*
X169086011Y-59531424D01*
X169087082Y-59509878D01*
X169088087Y-59471649D01*
X169089026Y-59416980D01*
X169089896Y-59346116D01*
X169090697Y-59259301D01*
X169091428Y-59156779D01*
X169091719Y-59104600D01*
X169092087Y-59038795D01*
X169092674Y-58905592D01*
X169092775Y-58876485D01*
X169280872Y-58876485D01*
X169280872Y-59104600D01*
X169280945Y-59172915D01*
X169281242Y-59226202D01*
X169281887Y-59266360D01*
X169282998Y-59295290D01*
X169284698Y-59314890D01*
X169287107Y-59327060D01*
X169290347Y-59333699D01*
X169294538Y-59336707D01*
X169295684Y-59337095D01*
X169309066Y-59339838D01*
X169335785Y-59344401D01*
X169372420Y-59350230D01*
X169415548Y-59356771D01*
X169433222Y-59359370D01*
X169484192Y-59366908D01*
X169545936Y-59376201D01*
X169612508Y-59386346D01*
X169677964Y-59396440D01*
X169716760Y-59402491D01*
X169781166Y-59412513D01*
X169855381Y-59423931D01*
X169932465Y-59435684D01*
X170005477Y-59446713D01*
X170046850Y-59452900D01*
X170114148Y-59463146D01*
X170190441Y-59475146D01*
X170268618Y-59487756D01*
X170341570Y-59499836D01*
X170381172Y-59506579D01*
X170433488Y-59515461D01*
X170481405Y-59523312D01*
X170521923Y-59529664D01*
X170552041Y-59534048D01*
X170568757Y-59535993D01*
X170569493Y-59536032D01*
X170592768Y-59536987D01*
X170592768Y-59305193D01*
X170592768Y-59073398D01*
X170552565Y-59067727D01*
X170533884Y-59064998D01*
X170501015Y-59060096D01*
X170456501Y-59053404D01*
X170402886Y-59045306D01*
X170342717Y-59036186D01*
X170278536Y-59026428D01*
X170266910Y-59024657D01*
X170150683Y-59006971D01*
X170048517Y-58991481D01*
X169957748Y-58977790D01*
X169875708Y-58965504D01*
X169799732Y-58954224D01*
X169727153Y-58943555D01*
X169655306Y-58933101D01*
X169581525Y-58922465D01*
X169526324Y-58914560D01*
X169468049Y-58906175D01*
X169414545Y-58898364D01*
X169368353Y-58891507D01*
X169332012Y-58885985D01*
X169308062Y-58882177D01*
X169299916Y-58880709D01*
X169280872Y-58876485D01*
X169092775Y-58876485D01*
X169093187Y-58757414D01*
X169093254Y-58732600D01*
X169280872Y-58732600D01*
X169299916Y-58737100D01*
X169313775Y-58739610D01*
X169341601Y-58744049D01*
X169380596Y-58749991D01*
X169427962Y-58757012D01*
X169480903Y-58764689D01*
X169496700Y-58766949D01*
X169551548Y-58774856D01*
X169619140Y-58784733D01*
X169695490Y-58795992D01*
X169776611Y-58808041D01*
X169858516Y-58820289D01*
X169937216Y-58832147D01*
X169953748Y-58834651D01*
X170078176Y-58853482D01*
X170186667Y-58869820D01*
X170280009Y-58883778D01*
X170358990Y-58895471D01*
X170424399Y-58905011D01*
X170477024Y-58912513D01*
X170517653Y-58918090D01*
X170547074Y-58921856D01*
X170566077Y-58923924D01*
X170575449Y-58924409D01*
X170575841Y-58924379D01*
X170579682Y-58922081D01*
X170582679Y-58914831D01*
X170584932Y-58900825D01*
X170586539Y-58878259D01*
X170587603Y-58845328D01*
X170588221Y-58800229D01*
X170588496Y-58741157D01*
X170588536Y-58695409D01*
X170588536Y-58467691D01*
X170453115Y-58448168D01*
X170328812Y-58430092D01*
X170204936Y-58411779D01*
X170085719Y-58393864D01*
X169975388Y-58376983D01*
X169890269Y-58363686D01*
X169840043Y-58355839D01*
X169782461Y-58347000D01*
X169719752Y-58337494D01*
X169654139Y-58327650D01*
X169587850Y-58317794D01*
X169523109Y-58308252D01*
X169462144Y-58299352D01*
X169407179Y-58291421D01*
X169360442Y-58284784D01*
X169324157Y-58279770D01*
X169300552Y-58276705D01*
X169292209Y-58275874D01*
X169288728Y-58278725D01*
X169286005Y-58288385D01*
X169283958Y-58306513D01*
X169282503Y-58334770D01*
X169281559Y-58374815D01*
X169281043Y-58428309D01*
X169280874Y-58496913D01*
X169280872Y-58504237D01*
X169280872Y-58732600D01*
X169093254Y-58732600D01*
X169093627Y-58594506D01*
X169093812Y-58504237D01*
X169093990Y-58417112D01*
X169094277Y-58225476D01*
X169094375Y-58129008D01*
X169280872Y-58129008D01*
X169431106Y-58151898D01*
X169480007Y-58159299D01*
X169541726Y-58168564D01*
X169612329Y-58179106D01*
X169687885Y-58190340D01*
X169764460Y-58201680D01*
X169838123Y-58212539D01*
X169839486Y-58212740D01*
X169920271Y-58224655D01*
X170010573Y-58238040D01*
X170104852Y-58252069D01*
X170197570Y-58265917D01*
X170283186Y-58278758D01*
X170338853Y-58287148D01*
X170418422Y-58298882D01*
X170481911Y-58307588D01*
X170529884Y-58313329D01*
X170562904Y-58316167D01*
X170581537Y-58316165D01*
X170586291Y-58314551D01*
X170588319Y-58303489D01*
X170590085Y-58278425D01*
X170591471Y-58242282D01*
X170592361Y-58197986D01*
X170592639Y-58156565D01*
X170592354Y-58101028D01*
X170591485Y-58044825D01*
X170590145Y-57992859D01*
X170588451Y-57950035D01*
X170587337Y-57931115D01*
X170581906Y-57854597D01*
X170530206Y-57848979D01*
X170502558Y-57845481D01*
X170463022Y-57839835D01*
X170416393Y-57832753D01*
X170367468Y-57824949D01*
X170355781Y-57823025D01*
X170308772Y-57815423D01*
X170245957Y-57805566D01*
X170168286Y-57793599D01*
X170076711Y-57779664D01*
X169972181Y-57763905D01*
X169855648Y-57746466D01*
X169728061Y-57727489D01*
X169590373Y-57707120D01*
X169484005Y-57691449D01*
X169430976Y-57683603D01*
X169383035Y-57676423D01*
X169342935Y-57670328D01*
X169313427Y-57665737D01*
X169297263Y-57663069D01*
X169295684Y-57662764D01*
X169291317Y-57662785D01*
X169287900Y-57666145D01*
X169285320Y-57674656D01*
X169283458Y-57690130D01*
X169282199Y-57714381D01*
X169281429Y-57749220D01*
X169281029Y-57796461D01*
X169280885Y-57857915D01*
X169280872Y-57894303D01*
X169280872Y-58129008D01*
X169094375Y-58129008D01*
X169094486Y-58019842D01*
X169094560Y-57894303D01*
X169094616Y-57800454D01*
X169094667Y-57567556D01*
X169094668Y-57536722D01*
X169094668Y-57158441D01*
X169273795Y-57158441D01*
X169274057Y-57208668D01*
X169274738Y-57262435D01*
X169275791Y-57317068D01*
X169277167Y-57369891D01*
X169278819Y-57418229D01*
X169280697Y-57459409D01*
X169282755Y-57490754D01*
X169284944Y-57509590D01*
X169286306Y-57513780D01*
X169295715Y-57516093D01*
X169320481Y-57520601D01*
X169359208Y-57527087D01*
X169410497Y-57535333D01*
X169472952Y-57545121D01*
X169545174Y-57556233D01*
X169625766Y-57568450D01*
X169713332Y-57581556D01*
X169806473Y-57595332D01*
X169852182Y-57602035D01*
X169949516Y-57616294D01*
X170043508Y-57630109D01*
X170132553Y-57643242D01*
X170215048Y-57655454D01*
X170289388Y-57666506D01*
X170353971Y-57676160D01*
X170407192Y-57684177D01*
X170447447Y-57690318D01*
X170473132Y-57694345D01*
X170478507Y-57695232D01*
X170512950Y-57700817D01*
X170542918Y-57705203D01*
X170562887Y-57707593D01*
X170565261Y-57707765D01*
X170584305Y-57708797D01*
X170584305Y-57471809D01*
X170584194Y-57410446D01*
X170583882Y-57354986D01*
X170583399Y-57307571D01*
X170582772Y-57270341D01*
X170582031Y-57245439D01*
X170581206Y-57235006D01*
X170581078Y-57234821D01*
X170571521Y-57233607D01*
X170547049Y-57230145D01*
X170509486Y-57224704D01*
X170460657Y-57217556D01*
X170402385Y-57208971D01*
X170336496Y-57199219D01*
X170264813Y-57188571D01*
X170189161Y-57177298D01*
X170111363Y-57165669D01*
X170033245Y-57153955D01*
X169956630Y-57142427D01*
X169894501Y-57133043D01*
X169775484Y-57115063D01*
X169672171Y-57099527D01*
X169583539Y-57086290D01*
X169508564Y-57075209D01*
X169446222Y-57066139D01*
X169395488Y-57058938D01*
X169355339Y-57053461D01*
X169324751Y-57049564D01*
X169302699Y-57047104D01*
X169288161Y-57045937D01*
X169280111Y-57045918D01*
X169277905Y-57046435D01*
X169276008Y-57055751D01*
X169274722Y-57079308D01*
X169274001Y-57114429D01*
X169273795Y-57158441D01*
X169094668Y-57158441D01*
X169094668Y-56653907D01*
X169272409Y-56653907D01*
X169272475Y-56724365D01*
X169272750Y-56779744D01*
X169273344Y-56821890D01*
X169274369Y-56852651D01*
X169275935Y-56873874D01*
X169278155Y-56887408D01*
X169281139Y-56895099D01*
X169284999Y-56898796D01*
X169287220Y-56899702D01*
X169298540Y-56901855D01*
X169324798Y-56906128D01*
X169364176Y-56912245D01*
X169414854Y-56919932D01*
X169475012Y-56928915D01*
X169542832Y-56938919D01*
X169616495Y-56949669D01*
X169657513Y-56955608D01*
X169747063Y-56968613D01*
X169843264Y-56982715D01*
X169942154Y-56997325D01*
X170039772Y-57011853D01*
X170132155Y-57025709D01*
X170215340Y-57038305D01*
X170279606Y-57048159D01*
X170345553Y-57058288D01*
X170406762Y-57067564D01*
X170461056Y-57075665D01*
X170506260Y-57082272D01*
X170540198Y-57087066D01*
X170560693Y-57089726D01*
X170565261Y-57090157D01*
X170584305Y-57090936D01*
X170584305Y-56849717D01*
X170584205Y-56787785D01*
X170583925Y-56731738D01*
X170583489Y-56683697D01*
X170582923Y-56645786D01*
X170582255Y-56620127D01*
X170581509Y-56608842D01*
X170581350Y-56608497D01*
X170565339Y-56607243D01*
X170534259Y-56603643D01*
X170489767Y-56597945D01*
X170433524Y-56590392D01*
X170367187Y-56581229D01*
X170292415Y-56570704D01*
X170210868Y-56559060D01*
X170124203Y-56546543D01*
X170034079Y-56533398D01*
X169942156Y-56519871D01*
X169850092Y-56506207D01*
X169759545Y-56492651D01*
X169672175Y-56479449D01*
X169589639Y-56466845D01*
X169513598Y-56455086D01*
X169445709Y-56444417D01*
X169387632Y-56435083D01*
X169341024Y-56427328D01*
X169307545Y-56421400D01*
X169288854Y-56417542D01*
X169287220Y-56417096D01*
X169282907Y-56416735D01*
X169279521Y-56419705D01*
X169276950Y-56427785D01*
X169275083Y-56442755D01*
X169273808Y-56466395D01*
X169273016Y-56500484D01*
X169272593Y-56546802D01*
X169272429Y-56607129D01*
X169272409Y-56653907D01*
X169094668Y-56653907D01*
X169094668Y-56261157D01*
X169272409Y-56261157D01*
X169291452Y-56265652D01*
X169302723Y-56267566D01*
X169329406Y-56271704D01*
X169370163Y-56277868D01*
X169423651Y-56285860D01*
X169488533Y-56295481D01*
X169563465Y-56306534D01*
X169647110Y-56318820D01*
X169738126Y-56332141D01*
X169835172Y-56346299D01*
X169936909Y-56361096D01*
X169945284Y-56362313D01*
X170046824Y-56377062D01*
X170143399Y-56391103D01*
X170233718Y-56404248D01*
X170316485Y-56416307D01*
X170390406Y-56427091D01*
X170454188Y-56436412D01*
X170506538Y-56444081D01*
X170546160Y-56449908D01*
X170571761Y-56453705D01*
X170582047Y-56455282D01*
X170582189Y-56455312D01*
X170582724Y-56447414D01*
X170583209Y-56424669D01*
X170583627Y-56389157D01*
X170583960Y-56342959D01*
X170584189Y-56288156D01*
X170584298Y-56226828D01*
X170584305Y-56207338D01*
X170584305Y-55958529D01*
X170510246Y-55948540D01*
X170468235Y-55942803D01*
X170414617Y-55935368D01*
X170351011Y-55926467D01*
X170279030Y-55916331D01*
X170200292Y-55905193D01*
X170116414Y-55893285D01*
X170029010Y-55880838D01*
X169939698Y-55868084D01*
X169850093Y-55855255D01*
X169761811Y-55842583D01*
X169676470Y-55830300D01*
X169595684Y-55818637D01*
X169521071Y-55807827D01*
X169454247Y-55798101D01*
X169396827Y-55789692D01*
X169350428Y-55782830D01*
X169316665Y-55777748D01*
X169297157Y-55774678D01*
X169293083Y-55773930D01*
X169272409Y-55768741D01*
X169272409Y-56014949D01*
X169272409Y-56261157D01*
X169094668Y-56261157D01*
X169094668Y-56014949D01*
X169094668Y-55644917D01*
X169099686Y-55638953D01*
X169459635Y-55638953D01*
X169459785Y-55639148D01*
X169468633Y-55640942D01*
X169492596Y-55644700D01*
X169530004Y-55650186D01*
X169579186Y-55657166D01*
X169638472Y-55665406D01*
X169706192Y-55674671D01*
X169780677Y-55684726D01*
X169852412Y-55694296D01*
X169939095Y-55705853D01*
X170026795Y-55717649D01*
X170112785Y-55729309D01*
X170194339Y-55740460D01*
X170268731Y-55750728D01*
X170333234Y-55759740D01*
X170385124Y-55767122D01*
X170406564Y-55770244D01*
X170460605Y-55777774D01*
X170511798Y-55784112D01*
X170556687Y-55788891D01*
X170591817Y-55791743D01*
X170613733Y-55792302D01*
X170613928Y-55792292D01*
X170643410Y-55787672D01*
X170680610Y-55777649D01*
X170718040Y-55764257D01*
X170719726Y-55763559D01*
X170746823Y-55752505D01*
X170787793Y-55736115D01*
X170840716Y-55715140D01*
X170903669Y-55690333D01*
X170974731Y-55662443D01*
X171051980Y-55632222D01*
X171133494Y-55600421D01*
X171217352Y-55567792D01*
X171301632Y-55535084D01*
X171384412Y-55503051D01*
X171463771Y-55472441D01*
X171511096Y-55454246D01*
X171588330Y-55424540D01*
X171651060Y-55400282D01*
X171700617Y-55380940D01*
X171738334Y-55365980D01*
X171765541Y-55354869D01*
X171783571Y-55347076D01*
X171793755Y-55342067D01*
X171796990Y-55339873D01*
X171791825Y-55336526D01*
X171772846Y-55332309D01*
X171743108Y-55327776D01*
X171708120Y-55323729D01*
X171665757Y-55319308D01*
X171612143Y-55313494D01*
X171552836Y-55306902D01*
X171493393Y-55300147D01*
X171464544Y-55296805D01*
X171421844Y-55291822D01*
X171384153Y-55287427D01*
X171349256Y-55283365D01*
X171314939Y-55279379D01*
X171278985Y-55275213D01*
X171239181Y-55270612D01*
X171193310Y-55265318D01*
X171139159Y-55259077D01*
X171074511Y-55251632D01*
X170997152Y-55242726D01*
X170919411Y-55233779D01*
X170666280Y-55204645D01*
X170589321Y-55233181D01*
X170513369Y-55261182D01*
X170432893Y-55290564D01*
X170351645Y-55319978D01*
X170273379Y-55348072D01*
X170201847Y-55373497D01*
X170140803Y-55394901D01*
X170118793Y-55402505D01*
X170073084Y-55418257D01*
X170019020Y-55436981D01*
X169958725Y-55457932D01*
X169894317Y-55480368D01*
X169827919Y-55503546D01*
X169761652Y-55526724D01*
X169697636Y-55549158D01*
X169637992Y-55570105D01*
X169584842Y-55588823D01*
X169540306Y-55604569D01*
X169506506Y-55616599D01*
X169485562Y-55624171D01*
X169480715Y-55625997D01*
X169464846Y-55633606D01*
X169459635Y-55638953D01*
X169099686Y-55638953D01*
X169116056Y-55619499D01*
X169136493Y-55601198D01*
X169158634Y-55589565D01*
X169161566Y-55588782D01*
X169178653Y-55583778D01*
X169207533Y-55574027D01*
X169244223Y-55560918D01*
X169284738Y-55545841D01*
X169286179Y-55545294D01*
X169332520Y-55527899D01*
X169388412Y-55507249D01*
X169447433Y-55485701D01*
X169503162Y-55465608D01*
X169513628Y-55461871D01*
X169568586Y-55442158D01*
X169628837Y-55420329D01*
X169687703Y-55398815D01*
X169738503Y-55380050D01*
X169746384Y-55377111D01*
X169797414Y-55358221D01*
X169853835Y-55337618D01*
X169908097Y-55318047D01*
X169945284Y-55304832D01*
X169978816Y-55292937D01*
X170024971Y-55276420D01*
X170080470Y-55256464D01*
X170142033Y-55234249D01*
X170206380Y-55210955D01*
X170262678Y-55190514D01*
X170325530Y-55167714D01*
X170387364Y-55145388D01*
X170445163Y-55124618D01*
X170495913Y-55106484D01*
X170536597Y-55092068D01*
X170562863Y-55082908D01*
X170638756Y-55056870D01*
X170863330Y-55084564D01*
X170934721Y-55093374D01*
X171011138Y-55102817D01*
X171087741Y-55112293D01*
X171159688Y-55121202D01*
X171222138Y-55128947D01*
X171248716Y-55132248D01*
X171306747Y-55139460D01*
X171376240Y-55148093D01*
X171451859Y-55157484D01*
X171528267Y-55166970D01*
X171600126Y-55175889D01*
X171616894Y-55177970D01*
X171680247Y-55185914D01*
X171743439Y-55193989D01*
X171802774Y-55201710D01*
X171854552Y-55208594D01*
X171895077Y-55214157D01*
X171909983Y-55216296D01*
X171951267Y-55221782D01*
X171990952Y-55226059D01*
X172023061Y-55228524D01*
X172034926Y-55228890D01*
X172074144Y-55228890D01*
X172073835Y-54595305D01*
X172073714Y-54493243D01*
X172073459Y-54396128D01*
X172073082Y-54305284D01*
X172072596Y-54222036D01*
X172072012Y-54147709D01*
X172071344Y-54083629D01*
X172070602Y-54031119D01*
X172069798Y-53991505D01*
X172068946Y-53966113D01*
X172068057Y-53956266D01*
X172068018Y-53956211D01*
X172061117Y-53959652D01*
X172047225Y-53977056D01*
X172026179Y-54008668D01*
X171997820Y-54054736D01*
X171961987Y-54115505D01*
X171941716Y-54150612D01*
X171919477Y-54187947D01*
X171898516Y-54220634D01*
X171881027Y-54245414D01*
X171869203Y-54259031D01*
X171868205Y-54259805D01*
X171839233Y-54271484D01*
X171810566Y-54266408D01*
X171788990Y-54250672D01*
X171778694Y-54238608D01*
X171772041Y-54225362D01*
X171769587Y-54209553D01*
X171771885Y-54189801D01*
X171779489Y-54164725D01*
X171792955Y-54132946D01*
X171812836Y-54093083D01*
X171839688Y-54043755D01*
X171874063Y-53983583D01*
X171916517Y-53911186D01*
X171943848Y-53865089D01*
X171959638Y-53837785D01*
X171972394Y-53814402D01*
X171978629Y-53801610D01*
X171990359Y-53776285D01*
X172007223Y-53744150D01*
X172027074Y-53708830D01*
X172047761Y-53673945D01*
X172067134Y-53643119D01*
X172083045Y-53619974D01*
X172093344Y-53608132D01*
X172093510Y-53608013D01*
X172123555Y-53596480D01*
X172155872Y-53599094D01*
G37*
D15*
%TO.C,U2*%
X162092301Y-55098001D02*
X158838301Y-55098001D01*
X158838301Y-58352001D02*
X162092301Y-58352001D01*
D12*
%TO.C,C2*%
X156160002Y-53084422D02*
X156160002Y-53365582D01*
X155140002Y-53084422D02*
X155140002Y-53365582D01*
%TO.C,C1*%
X155859420Y-58590000D02*
X156140580Y-58590000D01*
X155859420Y-59610000D02*
X156140580Y-59610000D01*
%TO.C,C5*%
X155409422Y-56360002D02*
X155690582Y-56360002D01*
X155409422Y-55340002D02*
X155690582Y-55340002D01*
%TO.C,C3*%
X157760002Y-53365582D02*
X157760002Y-53084422D01*
X156740002Y-53365582D02*
X156740002Y-53084422D01*
%TO.C,R1*%
X162040580Y-59090000D02*
X161759420Y-59090000D01*
X162040580Y-60110000D02*
X161759420Y-60110000D01*
%TO.C,R2*%
X160440580Y-54510000D02*
X160159420Y-54510000D01*
X160440580Y-53490000D02*
X160159420Y-53490000D01*
%TO.C,R3*%
X164070600Y-56609422D02*
X164070600Y-56890582D01*
X165090600Y-56609422D02*
X165090600Y-56890582D01*
%TO.C,R4*%
X155696180Y-56965003D02*
X155415020Y-56965003D01*
X155696180Y-57985003D02*
X155415020Y-57985003D01*
%TD*%
M02*
