%TF.GenerationSoftware,KiCad,Pcbnew,9.0.6*%
%TF.CreationDate,2026-02-24T18:18:18-08:00*%
%TF.ProjectId,CoilArrayBlock,436f696c-4172-4726-9179-426c6f636b2e,rev?*%
%TF.SameCoordinates,Original*%
%TF.FileFunction,Drillmap*%
%TF.FilePolarity,Positive*%
%FSLAX45Y45*%
G04 Gerber Fmt 4.5, Leading zero omitted, Abs format (unit mm)*
G04 Created by KiCad (PCBNEW 9.0.6) date 2026-02-24 18:18:18*
%MOMM*%
%LPD*%
G01*
G04 APERTURE LIST*
%ADD10C,0.050000*%
%ADD11C,0.200000*%
%ADD12C,0.100000*%
%ADD13C,0.105000*%
G04 APERTURE END LIST*
D10*
X14462426Y-4870495D02*
X17328579Y-4871421D01*
X17330000Y-7050000D02*
X14461420Y-7050504D01*
X14461421Y-7050504D02*
G75*
G02*
X14259497Y-6849290I0J201925D01*
G01*
X14259497Y-6849290D02*
X14260502Y-5070710D01*
X17530000Y-6850000D02*
X17528579Y-5071420D01*
X17328579Y-4871421D02*
G75*
G02*
X17528579Y-5071421I0J-200000D01*
G01*
X14260502Y-5070710D02*
G75*
G02*
X14462426Y-4870495I201924J-1716D01*
G01*
X17530000Y-6850000D02*
G75*
G02*
X17330000Y-7050000I-200000J0D01*
G01*
D11*
D12*
X14975000Y-5975000D02*
X15005000Y-6005000D01*
X15005000Y-5975000D02*
X14975000Y-6005000D01*
X15395000Y-5915000D02*
X15425000Y-5945000D01*
X15425000Y-5915000D02*
X15395000Y-5945000D01*
X15470000Y-5150000D02*
X15500000Y-5180000D01*
X15500000Y-5150000D02*
X15470000Y-5180000D01*
X15470000Y-5460000D02*
X15500000Y-5490000D01*
X15500000Y-5460000D02*
X15470000Y-5490000D01*
X15630000Y-5470000D02*
X15660000Y-5500000D01*
X15660000Y-5470000D02*
X15630000Y-5500000D01*
X15790000Y-5150000D02*
X15820000Y-5180000D01*
X15820000Y-5150000D02*
X15790000Y-5180000D01*
X15790000Y-5460000D02*
X15820000Y-5490000D01*
X15820000Y-5460000D02*
X15790000Y-5490000D01*
X16580000Y-5150000D02*
G75*
G02*
X16480000Y-5150000I-50000J0D01*
G01*
X16480000Y-5150000D02*
G75*
G02*
X16580000Y-5150000I50000J0D01*
G01*
X16580000Y-6650000D02*
G75*
G02*
X16480000Y-6650000I-50000J0D01*
G01*
X16480000Y-6650000D02*
G75*
G02*
X16580000Y-6650000I50000J0D01*
G01*
X17340000Y-5150000D02*
G75*
G02*
X17240000Y-5150000I-50000J0D01*
G01*
X17240000Y-5150000D02*
G75*
G02*
X17340000Y-5150000I50000J0D01*
G01*
X17340000Y-6650000D02*
G75*
G02*
X17240000Y-6650000I-50000J0D01*
G01*
X17240000Y-6650000D02*
G75*
G02*
X17340000Y-6650000I50000J0D01*
G01*
D13*
X15042500Y-5295000D02*
X15042500Y-5400000D01*
X14990000Y-5347500D02*
X15095000Y-5347500D01*
X15042500Y-5545000D02*
X15042500Y-5650000D01*
X14990000Y-5597500D02*
X15095000Y-5597500D01*
X15050000Y-6337500D02*
X15050000Y-6442500D01*
X14997500Y-6390000D02*
X15102500Y-6390000D01*
X15050000Y-6587500D02*
X15050000Y-6692500D01*
X14997500Y-6640000D02*
X15102500Y-6640000D01*
X15882500Y-6335750D02*
X15882500Y-6440750D01*
X15830000Y-6388250D02*
X15935000Y-6388250D01*
X15882500Y-6585750D02*
X15882500Y-6690750D01*
X15830000Y-6638250D02*
X15935000Y-6638250D01*
D11*
X14517774Y-7364488D02*
X14517774Y-7164488D01*
X14517774Y-7164488D02*
X14565393Y-7164488D01*
X14565393Y-7164488D02*
X14593965Y-7174011D01*
X14593965Y-7174011D02*
X14613012Y-7193059D01*
X14613012Y-7193059D02*
X14622536Y-7212107D01*
X14622536Y-7212107D02*
X14632060Y-7250202D01*
X14632060Y-7250202D02*
X14632060Y-7278773D01*
X14632060Y-7278773D02*
X14622536Y-7316868D01*
X14622536Y-7316868D02*
X14613012Y-7335916D01*
X14613012Y-7335916D02*
X14593965Y-7354964D01*
X14593965Y-7354964D02*
X14565393Y-7364488D01*
X14565393Y-7364488D02*
X14517774Y-7364488D01*
X14717774Y-7364488D02*
X14717774Y-7231154D01*
X14717774Y-7269249D02*
X14727298Y-7250202D01*
X14727298Y-7250202D02*
X14736822Y-7240678D01*
X14736822Y-7240678D02*
X14755869Y-7231154D01*
X14755869Y-7231154D02*
X14774917Y-7231154D01*
X14841584Y-7364488D02*
X14841584Y-7231154D01*
X14841584Y-7164488D02*
X14832060Y-7174011D01*
X14832060Y-7174011D02*
X14841584Y-7183535D01*
X14841584Y-7183535D02*
X14851108Y-7174011D01*
X14851108Y-7174011D02*
X14841584Y-7164488D01*
X14841584Y-7164488D02*
X14841584Y-7183535D01*
X14965393Y-7364488D02*
X14946346Y-7354964D01*
X14946346Y-7354964D02*
X14936822Y-7335916D01*
X14936822Y-7335916D02*
X14936822Y-7164488D01*
X15070155Y-7364488D02*
X15051108Y-7354964D01*
X15051108Y-7354964D02*
X15041584Y-7335916D01*
X15041584Y-7335916D02*
X15041584Y-7164488D01*
X15298727Y-7364488D02*
X15298727Y-7164488D01*
X15298727Y-7164488D02*
X15365393Y-7307345D01*
X15365393Y-7307345D02*
X15432060Y-7164488D01*
X15432060Y-7164488D02*
X15432060Y-7364488D01*
X15613012Y-7364488D02*
X15613012Y-7259726D01*
X15613012Y-7259726D02*
X15603489Y-7240678D01*
X15603489Y-7240678D02*
X15584441Y-7231154D01*
X15584441Y-7231154D02*
X15546346Y-7231154D01*
X15546346Y-7231154D02*
X15527298Y-7240678D01*
X15613012Y-7354964D02*
X15593965Y-7364488D01*
X15593965Y-7364488D02*
X15546346Y-7364488D01*
X15546346Y-7364488D02*
X15527298Y-7354964D01*
X15527298Y-7354964D02*
X15517774Y-7335916D01*
X15517774Y-7335916D02*
X15517774Y-7316868D01*
X15517774Y-7316868D02*
X15527298Y-7297821D01*
X15527298Y-7297821D02*
X15546346Y-7288297D01*
X15546346Y-7288297D02*
X15593965Y-7288297D01*
X15593965Y-7288297D02*
X15613012Y-7278773D01*
X15708250Y-7231154D02*
X15708250Y-7431154D01*
X15708250Y-7240678D02*
X15727298Y-7231154D01*
X15727298Y-7231154D02*
X15765393Y-7231154D01*
X15765393Y-7231154D02*
X15784441Y-7240678D01*
X15784441Y-7240678D02*
X15793965Y-7250202D01*
X15793965Y-7250202D02*
X15803489Y-7269249D01*
X15803489Y-7269249D02*
X15803489Y-7326392D01*
X15803489Y-7326392D02*
X15793965Y-7345440D01*
X15793965Y-7345440D02*
X15784441Y-7354964D01*
X15784441Y-7354964D02*
X15765393Y-7364488D01*
X15765393Y-7364488D02*
X15727298Y-7364488D01*
X15727298Y-7364488D02*
X15708250Y-7354964D01*
X15889203Y-7345440D02*
X15898727Y-7354964D01*
X15898727Y-7354964D02*
X15889203Y-7364488D01*
X15889203Y-7364488D02*
X15879679Y-7354964D01*
X15879679Y-7354964D02*
X15889203Y-7345440D01*
X15889203Y-7345440D02*
X15889203Y-7364488D01*
X15889203Y-7240678D02*
X15898727Y-7250202D01*
X15898727Y-7250202D02*
X15889203Y-7259726D01*
X15889203Y-7259726D02*
X15879679Y-7250202D01*
X15879679Y-7250202D02*
X15889203Y-7240678D01*
X15889203Y-7240678D02*
X15889203Y-7259726D01*
D12*
X14226997Y-7678004D02*
X14256997Y-7708004D01*
X14256997Y-7678004D02*
X14226997Y-7708004D01*
D11*
X14555869Y-7584488D02*
X14574917Y-7584488D01*
X14574917Y-7584488D02*
X14593965Y-7594011D01*
X14593965Y-7594011D02*
X14603489Y-7603535D01*
X14603489Y-7603535D02*
X14613012Y-7622583D01*
X14613012Y-7622583D02*
X14622536Y-7660678D01*
X14622536Y-7660678D02*
X14622536Y-7708297D01*
X14622536Y-7708297D02*
X14613012Y-7746392D01*
X14613012Y-7746392D02*
X14603489Y-7765440D01*
X14603489Y-7765440D02*
X14593965Y-7774964D01*
X14593965Y-7774964D02*
X14574917Y-7784488D01*
X14574917Y-7784488D02*
X14555869Y-7784488D01*
X14555869Y-7784488D02*
X14536822Y-7774964D01*
X14536822Y-7774964D02*
X14527298Y-7765440D01*
X14527298Y-7765440D02*
X14517774Y-7746392D01*
X14517774Y-7746392D02*
X14508250Y-7708297D01*
X14508250Y-7708297D02*
X14508250Y-7660678D01*
X14508250Y-7660678D02*
X14517774Y-7622583D01*
X14517774Y-7622583D02*
X14527298Y-7603535D01*
X14527298Y-7603535D02*
X14536822Y-7594011D01*
X14536822Y-7594011D02*
X14555869Y-7584488D01*
X14708250Y-7765440D02*
X14717774Y-7774964D01*
X14717774Y-7774964D02*
X14708250Y-7784488D01*
X14708250Y-7784488D02*
X14698727Y-7774964D01*
X14698727Y-7774964D02*
X14708250Y-7765440D01*
X14708250Y-7765440D02*
X14708250Y-7784488D01*
X14784441Y-7584488D02*
X14908250Y-7584488D01*
X14908250Y-7584488D02*
X14841584Y-7660678D01*
X14841584Y-7660678D02*
X14870155Y-7660678D01*
X14870155Y-7660678D02*
X14889203Y-7670202D01*
X14889203Y-7670202D02*
X14898727Y-7679726D01*
X14898727Y-7679726D02*
X14908250Y-7698773D01*
X14908250Y-7698773D02*
X14908250Y-7746392D01*
X14908250Y-7746392D02*
X14898727Y-7765440D01*
X14898727Y-7765440D02*
X14889203Y-7774964D01*
X14889203Y-7774964D02*
X14870155Y-7784488D01*
X14870155Y-7784488D02*
X14813012Y-7784488D01*
X14813012Y-7784488D02*
X14793965Y-7774964D01*
X14793965Y-7774964D02*
X14784441Y-7765440D01*
X15032060Y-7584488D02*
X15051108Y-7584488D01*
X15051108Y-7584488D02*
X15070155Y-7594011D01*
X15070155Y-7594011D02*
X15079679Y-7603535D01*
X15079679Y-7603535D02*
X15089203Y-7622583D01*
X15089203Y-7622583D02*
X15098727Y-7660678D01*
X15098727Y-7660678D02*
X15098727Y-7708297D01*
X15098727Y-7708297D02*
X15089203Y-7746392D01*
X15089203Y-7746392D02*
X15079679Y-7765440D01*
X15079679Y-7765440D02*
X15070155Y-7774964D01*
X15070155Y-7774964D02*
X15051108Y-7784488D01*
X15051108Y-7784488D02*
X15032060Y-7784488D01*
X15032060Y-7784488D02*
X15013012Y-7774964D01*
X15013012Y-7774964D02*
X15003489Y-7765440D01*
X15003489Y-7765440D02*
X14993965Y-7746392D01*
X14993965Y-7746392D02*
X14984441Y-7708297D01*
X14984441Y-7708297D02*
X14984441Y-7660678D01*
X14984441Y-7660678D02*
X14993965Y-7622583D01*
X14993965Y-7622583D02*
X15003489Y-7603535D01*
X15003489Y-7603535D02*
X15013012Y-7594011D01*
X15013012Y-7594011D02*
X15032060Y-7584488D01*
X15222536Y-7584488D02*
X15241584Y-7584488D01*
X15241584Y-7584488D02*
X15260631Y-7594011D01*
X15260631Y-7594011D02*
X15270155Y-7603535D01*
X15270155Y-7603535D02*
X15279679Y-7622583D01*
X15279679Y-7622583D02*
X15289203Y-7660678D01*
X15289203Y-7660678D02*
X15289203Y-7708297D01*
X15289203Y-7708297D02*
X15279679Y-7746392D01*
X15279679Y-7746392D02*
X15270155Y-7765440D01*
X15270155Y-7765440D02*
X15260631Y-7774964D01*
X15260631Y-7774964D02*
X15241584Y-7784488D01*
X15241584Y-7784488D02*
X15222536Y-7784488D01*
X15222536Y-7784488D02*
X15203489Y-7774964D01*
X15203489Y-7774964D02*
X15193965Y-7765440D01*
X15193965Y-7765440D02*
X15184441Y-7746392D01*
X15184441Y-7746392D02*
X15174917Y-7708297D01*
X15174917Y-7708297D02*
X15174917Y-7660678D01*
X15174917Y-7660678D02*
X15184441Y-7622583D01*
X15184441Y-7622583D02*
X15193965Y-7603535D01*
X15193965Y-7603535D02*
X15203489Y-7594011D01*
X15203489Y-7594011D02*
X15222536Y-7584488D01*
X15374917Y-7784488D02*
X15374917Y-7651154D01*
X15374917Y-7670202D02*
X15384441Y-7660678D01*
X15384441Y-7660678D02*
X15403489Y-7651154D01*
X15403489Y-7651154D02*
X15432060Y-7651154D01*
X15432060Y-7651154D02*
X15451108Y-7660678D01*
X15451108Y-7660678D02*
X15460631Y-7679726D01*
X15460631Y-7679726D02*
X15460631Y-7784488D01*
X15460631Y-7679726D02*
X15470155Y-7660678D01*
X15470155Y-7660678D02*
X15489203Y-7651154D01*
X15489203Y-7651154D02*
X15517774Y-7651154D01*
X15517774Y-7651154D02*
X15536822Y-7660678D01*
X15536822Y-7660678D02*
X15546346Y-7679726D01*
X15546346Y-7679726D02*
X15546346Y-7784488D01*
X15641584Y-7784488D02*
X15641584Y-7651154D01*
X15641584Y-7670202D02*
X15651108Y-7660678D01*
X15651108Y-7660678D02*
X15670155Y-7651154D01*
X15670155Y-7651154D02*
X15698727Y-7651154D01*
X15698727Y-7651154D02*
X15717774Y-7660678D01*
X15717774Y-7660678D02*
X15727298Y-7679726D01*
X15727298Y-7679726D02*
X15727298Y-7784488D01*
X15727298Y-7679726D02*
X15736822Y-7660678D01*
X15736822Y-7660678D02*
X15755870Y-7651154D01*
X15755870Y-7651154D02*
X15784441Y-7651154D01*
X15784441Y-7651154D02*
X15803489Y-7660678D01*
X15803489Y-7660678D02*
X15813012Y-7679726D01*
X15813012Y-7679726D02*
X15813012Y-7784488D01*
X16203489Y-7574964D02*
X16032060Y-7832107D01*
X16460632Y-7584488D02*
X16479679Y-7584488D01*
X16479679Y-7584488D02*
X16498727Y-7594011D01*
X16498727Y-7594011D02*
X16508251Y-7603535D01*
X16508251Y-7603535D02*
X16517774Y-7622583D01*
X16517774Y-7622583D02*
X16527298Y-7660678D01*
X16527298Y-7660678D02*
X16527298Y-7708297D01*
X16527298Y-7708297D02*
X16517774Y-7746392D01*
X16517774Y-7746392D02*
X16508251Y-7765440D01*
X16508251Y-7765440D02*
X16498727Y-7774964D01*
X16498727Y-7774964D02*
X16479679Y-7784488D01*
X16479679Y-7784488D02*
X16460632Y-7784488D01*
X16460632Y-7784488D02*
X16441584Y-7774964D01*
X16441584Y-7774964D02*
X16432060Y-7765440D01*
X16432060Y-7765440D02*
X16422536Y-7746392D01*
X16422536Y-7746392D02*
X16413013Y-7708297D01*
X16413013Y-7708297D02*
X16413013Y-7660678D01*
X16413013Y-7660678D02*
X16422536Y-7622583D01*
X16422536Y-7622583D02*
X16432060Y-7603535D01*
X16432060Y-7603535D02*
X16441584Y-7594011D01*
X16441584Y-7594011D02*
X16460632Y-7584488D01*
X16613013Y-7765440D02*
X16622536Y-7774964D01*
X16622536Y-7774964D02*
X16613013Y-7784488D01*
X16613013Y-7784488D02*
X16603489Y-7774964D01*
X16603489Y-7774964D02*
X16613013Y-7765440D01*
X16613013Y-7765440D02*
X16613013Y-7784488D01*
X16746346Y-7584488D02*
X16765394Y-7584488D01*
X16765394Y-7584488D02*
X16784441Y-7594011D01*
X16784441Y-7594011D02*
X16793965Y-7603535D01*
X16793965Y-7603535D02*
X16803489Y-7622583D01*
X16803489Y-7622583D02*
X16813013Y-7660678D01*
X16813013Y-7660678D02*
X16813013Y-7708297D01*
X16813013Y-7708297D02*
X16803489Y-7746392D01*
X16803489Y-7746392D02*
X16793965Y-7765440D01*
X16793965Y-7765440D02*
X16784441Y-7774964D01*
X16784441Y-7774964D02*
X16765394Y-7784488D01*
X16765394Y-7784488D02*
X16746346Y-7784488D01*
X16746346Y-7784488D02*
X16727298Y-7774964D01*
X16727298Y-7774964D02*
X16717774Y-7765440D01*
X16717774Y-7765440D02*
X16708251Y-7746392D01*
X16708251Y-7746392D02*
X16698727Y-7708297D01*
X16698727Y-7708297D02*
X16698727Y-7660678D01*
X16698727Y-7660678D02*
X16708251Y-7622583D01*
X16708251Y-7622583D02*
X16717774Y-7603535D01*
X16717774Y-7603535D02*
X16727298Y-7594011D01*
X16727298Y-7594011D02*
X16746346Y-7584488D01*
X17003489Y-7784488D02*
X16889203Y-7784488D01*
X16946346Y-7784488D02*
X16946346Y-7584488D01*
X16946346Y-7584488D02*
X16927298Y-7613059D01*
X16927298Y-7613059D02*
X16908251Y-7632107D01*
X16908251Y-7632107D02*
X16889203Y-7641630D01*
X17193965Y-7784488D02*
X17079679Y-7784488D01*
X17136822Y-7784488D02*
X17136822Y-7584488D01*
X17136822Y-7584488D02*
X17117775Y-7613059D01*
X17117775Y-7613059D02*
X17098727Y-7632107D01*
X17098727Y-7632107D02*
X17079679Y-7641630D01*
X17308251Y-7670202D02*
X17289203Y-7660678D01*
X17289203Y-7660678D02*
X17279679Y-7651154D01*
X17279679Y-7651154D02*
X17270156Y-7632107D01*
X17270156Y-7632107D02*
X17270156Y-7622583D01*
X17270156Y-7622583D02*
X17279679Y-7603535D01*
X17279679Y-7603535D02*
X17289203Y-7594011D01*
X17289203Y-7594011D02*
X17308251Y-7584488D01*
X17308251Y-7584488D02*
X17346346Y-7584488D01*
X17346346Y-7584488D02*
X17365394Y-7594011D01*
X17365394Y-7594011D02*
X17374917Y-7603535D01*
X17374917Y-7603535D02*
X17384441Y-7622583D01*
X17384441Y-7622583D02*
X17384441Y-7632107D01*
X17384441Y-7632107D02*
X17374917Y-7651154D01*
X17374917Y-7651154D02*
X17365394Y-7660678D01*
X17365394Y-7660678D02*
X17346346Y-7670202D01*
X17346346Y-7670202D02*
X17308251Y-7670202D01*
X17308251Y-7670202D02*
X17289203Y-7679726D01*
X17289203Y-7679726D02*
X17279679Y-7689249D01*
X17279679Y-7689249D02*
X17270156Y-7708297D01*
X17270156Y-7708297D02*
X17270156Y-7746392D01*
X17270156Y-7746392D02*
X17279679Y-7765440D01*
X17279679Y-7765440D02*
X17289203Y-7774964D01*
X17289203Y-7774964D02*
X17308251Y-7784488D01*
X17308251Y-7784488D02*
X17346346Y-7784488D01*
X17346346Y-7784488D02*
X17365394Y-7774964D01*
X17365394Y-7774964D02*
X17374917Y-7765440D01*
X17374917Y-7765440D02*
X17384441Y-7746392D01*
X17384441Y-7746392D02*
X17384441Y-7708297D01*
X17384441Y-7708297D02*
X17374917Y-7689249D01*
X17374917Y-7689249D02*
X17365394Y-7679726D01*
X17365394Y-7679726D02*
X17346346Y-7670202D01*
X17460632Y-7584488D02*
X17460632Y-7622583D01*
X17536822Y-7584488D02*
X17536822Y-7622583D01*
X17832060Y-7860678D02*
X17822537Y-7851154D01*
X17822537Y-7851154D02*
X17803489Y-7822583D01*
X17803489Y-7822583D02*
X17793965Y-7803535D01*
X17793965Y-7803535D02*
X17784441Y-7774964D01*
X17784441Y-7774964D02*
X17774918Y-7727345D01*
X17774918Y-7727345D02*
X17774918Y-7689249D01*
X17774918Y-7689249D02*
X17784441Y-7641630D01*
X17784441Y-7641630D02*
X17793965Y-7613059D01*
X17793965Y-7613059D02*
X17803489Y-7594011D01*
X17803489Y-7594011D02*
X17822537Y-7565440D01*
X17822537Y-7565440D02*
X17832060Y-7555916D01*
X17889203Y-7584488D02*
X18022537Y-7584488D01*
X18022537Y-7584488D02*
X17936822Y-7784488D01*
X18251108Y-7784488D02*
X18251108Y-7584488D01*
X18336822Y-7784488D02*
X18336822Y-7679726D01*
X18336822Y-7679726D02*
X18327299Y-7660678D01*
X18327299Y-7660678D02*
X18308251Y-7651154D01*
X18308251Y-7651154D02*
X18279679Y-7651154D01*
X18279679Y-7651154D02*
X18260632Y-7660678D01*
X18260632Y-7660678D02*
X18251108Y-7670202D01*
X18460632Y-7784488D02*
X18441584Y-7774964D01*
X18441584Y-7774964D02*
X18432060Y-7765440D01*
X18432060Y-7765440D02*
X18422537Y-7746392D01*
X18422537Y-7746392D02*
X18422537Y-7689249D01*
X18422537Y-7689249D02*
X18432060Y-7670202D01*
X18432060Y-7670202D02*
X18441584Y-7660678D01*
X18441584Y-7660678D02*
X18460632Y-7651154D01*
X18460632Y-7651154D02*
X18489203Y-7651154D01*
X18489203Y-7651154D02*
X18508251Y-7660678D01*
X18508251Y-7660678D02*
X18517775Y-7670202D01*
X18517775Y-7670202D02*
X18527299Y-7689249D01*
X18527299Y-7689249D02*
X18527299Y-7746392D01*
X18527299Y-7746392D02*
X18517775Y-7765440D01*
X18517775Y-7765440D02*
X18508251Y-7774964D01*
X18508251Y-7774964D02*
X18489203Y-7784488D01*
X18489203Y-7784488D02*
X18460632Y-7784488D01*
X18641584Y-7784488D02*
X18622537Y-7774964D01*
X18622537Y-7774964D02*
X18613013Y-7755916D01*
X18613013Y-7755916D02*
X18613013Y-7584488D01*
X18793965Y-7774964D02*
X18774918Y-7784488D01*
X18774918Y-7784488D02*
X18736822Y-7784488D01*
X18736822Y-7784488D02*
X18717775Y-7774964D01*
X18717775Y-7774964D02*
X18708251Y-7755916D01*
X18708251Y-7755916D02*
X18708251Y-7679726D01*
X18708251Y-7679726D02*
X18717775Y-7660678D01*
X18717775Y-7660678D02*
X18736822Y-7651154D01*
X18736822Y-7651154D02*
X18774918Y-7651154D01*
X18774918Y-7651154D02*
X18793965Y-7660678D01*
X18793965Y-7660678D02*
X18803489Y-7679726D01*
X18803489Y-7679726D02*
X18803489Y-7698773D01*
X18803489Y-7698773D02*
X18708251Y-7717821D01*
X18879680Y-7774964D02*
X18898727Y-7784488D01*
X18898727Y-7784488D02*
X18936822Y-7784488D01*
X18936822Y-7784488D02*
X18955870Y-7774964D01*
X18955870Y-7774964D02*
X18965394Y-7755916D01*
X18965394Y-7755916D02*
X18965394Y-7746392D01*
X18965394Y-7746392D02*
X18955870Y-7727345D01*
X18955870Y-7727345D02*
X18936822Y-7717821D01*
X18936822Y-7717821D02*
X18908251Y-7717821D01*
X18908251Y-7717821D02*
X18889203Y-7708297D01*
X18889203Y-7708297D02*
X18879680Y-7689249D01*
X18879680Y-7689249D02*
X18879680Y-7679726D01*
X18879680Y-7679726D02*
X18889203Y-7660678D01*
X18889203Y-7660678D02*
X18908251Y-7651154D01*
X18908251Y-7651154D02*
X18936822Y-7651154D01*
X18936822Y-7651154D02*
X18955870Y-7660678D01*
X19032061Y-7860678D02*
X19041584Y-7851154D01*
X19041584Y-7851154D02*
X19060632Y-7822583D01*
X19060632Y-7822583D02*
X19070156Y-7803535D01*
X19070156Y-7803535D02*
X19079680Y-7774964D01*
X19079680Y-7774964D02*
X19089203Y-7727345D01*
X19089203Y-7727345D02*
X19089203Y-7689249D01*
X19089203Y-7689249D02*
X19079680Y-7641630D01*
X19079680Y-7641630D02*
X19070156Y-7613059D01*
X19070156Y-7613059D02*
X19060632Y-7594011D01*
X19060632Y-7594011D02*
X19041584Y-7565440D01*
X19041584Y-7565440D02*
X19032061Y-7555916D01*
D12*
X14256997Y-7957004D02*
G75*
G02*
X14156997Y-7957004I-50000J0D01*
G01*
X14156997Y-7957004D02*
G75*
G02*
X14256997Y-7957004I50000J0D01*
G01*
D11*
X14622536Y-8048488D02*
X14508250Y-8048488D01*
X14565393Y-8048488D02*
X14565393Y-7848488D01*
X14565393Y-7848488D02*
X14546346Y-7877059D01*
X14546346Y-7877059D02*
X14527298Y-7896107D01*
X14527298Y-7896107D02*
X14508250Y-7905630D01*
X14708250Y-8029440D02*
X14717774Y-8038964D01*
X14717774Y-8038964D02*
X14708250Y-8048488D01*
X14708250Y-8048488D02*
X14698727Y-8038964D01*
X14698727Y-8038964D02*
X14708250Y-8029440D01*
X14708250Y-8029440D02*
X14708250Y-8048488D01*
X14841584Y-7848488D02*
X14860631Y-7848488D01*
X14860631Y-7848488D02*
X14879679Y-7858011D01*
X14879679Y-7858011D02*
X14889203Y-7867535D01*
X14889203Y-7867535D02*
X14898727Y-7886583D01*
X14898727Y-7886583D02*
X14908250Y-7924678D01*
X14908250Y-7924678D02*
X14908250Y-7972297D01*
X14908250Y-7972297D02*
X14898727Y-8010392D01*
X14898727Y-8010392D02*
X14889203Y-8029440D01*
X14889203Y-8029440D02*
X14879679Y-8038964D01*
X14879679Y-8038964D02*
X14860631Y-8048488D01*
X14860631Y-8048488D02*
X14841584Y-8048488D01*
X14841584Y-8048488D02*
X14822536Y-8038964D01*
X14822536Y-8038964D02*
X14813012Y-8029440D01*
X14813012Y-8029440D02*
X14803489Y-8010392D01*
X14803489Y-8010392D02*
X14793965Y-7972297D01*
X14793965Y-7972297D02*
X14793965Y-7924678D01*
X14793965Y-7924678D02*
X14803489Y-7886583D01*
X14803489Y-7886583D02*
X14813012Y-7867535D01*
X14813012Y-7867535D02*
X14822536Y-7858011D01*
X14822536Y-7858011D02*
X14841584Y-7848488D01*
X15032060Y-7848488D02*
X15051108Y-7848488D01*
X15051108Y-7848488D02*
X15070155Y-7858011D01*
X15070155Y-7858011D02*
X15079679Y-7867535D01*
X15079679Y-7867535D02*
X15089203Y-7886583D01*
X15089203Y-7886583D02*
X15098727Y-7924678D01*
X15098727Y-7924678D02*
X15098727Y-7972297D01*
X15098727Y-7972297D02*
X15089203Y-8010392D01*
X15089203Y-8010392D02*
X15079679Y-8029440D01*
X15079679Y-8029440D02*
X15070155Y-8038964D01*
X15070155Y-8038964D02*
X15051108Y-8048488D01*
X15051108Y-8048488D02*
X15032060Y-8048488D01*
X15032060Y-8048488D02*
X15013012Y-8038964D01*
X15013012Y-8038964D02*
X15003489Y-8029440D01*
X15003489Y-8029440D02*
X14993965Y-8010392D01*
X14993965Y-8010392D02*
X14984441Y-7972297D01*
X14984441Y-7972297D02*
X14984441Y-7924678D01*
X14984441Y-7924678D02*
X14993965Y-7886583D01*
X14993965Y-7886583D02*
X15003489Y-7867535D01*
X15003489Y-7867535D02*
X15013012Y-7858011D01*
X15013012Y-7858011D02*
X15032060Y-7848488D01*
X15222536Y-7848488D02*
X15241584Y-7848488D01*
X15241584Y-7848488D02*
X15260631Y-7858011D01*
X15260631Y-7858011D02*
X15270155Y-7867535D01*
X15270155Y-7867535D02*
X15279679Y-7886583D01*
X15279679Y-7886583D02*
X15289203Y-7924678D01*
X15289203Y-7924678D02*
X15289203Y-7972297D01*
X15289203Y-7972297D02*
X15279679Y-8010392D01*
X15279679Y-8010392D02*
X15270155Y-8029440D01*
X15270155Y-8029440D02*
X15260631Y-8038964D01*
X15260631Y-8038964D02*
X15241584Y-8048488D01*
X15241584Y-8048488D02*
X15222536Y-8048488D01*
X15222536Y-8048488D02*
X15203489Y-8038964D01*
X15203489Y-8038964D02*
X15193965Y-8029440D01*
X15193965Y-8029440D02*
X15184441Y-8010392D01*
X15184441Y-8010392D02*
X15174917Y-7972297D01*
X15174917Y-7972297D02*
X15174917Y-7924678D01*
X15174917Y-7924678D02*
X15184441Y-7886583D01*
X15184441Y-7886583D02*
X15193965Y-7867535D01*
X15193965Y-7867535D02*
X15203489Y-7858011D01*
X15203489Y-7858011D02*
X15222536Y-7848488D01*
X15374917Y-8048488D02*
X15374917Y-7915154D01*
X15374917Y-7934202D02*
X15384441Y-7924678D01*
X15384441Y-7924678D02*
X15403489Y-7915154D01*
X15403489Y-7915154D02*
X15432060Y-7915154D01*
X15432060Y-7915154D02*
X15451108Y-7924678D01*
X15451108Y-7924678D02*
X15460631Y-7943726D01*
X15460631Y-7943726D02*
X15460631Y-8048488D01*
X15460631Y-7943726D02*
X15470155Y-7924678D01*
X15470155Y-7924678D02*
X15489203Y-7915154D01*
X15489203Y-7915154D02*
X15517774Y-7915154D01*
X15517774Y-7915154D02*
X15536822Y-7924678D01*
X15536822Y-7924678D02*
X15546346Y-7943726D01*
X15546346Y-7943726D02*
X15546346Y-8048488D01*
X15641584Y-8048488D02*
X15641584Y-7915154D01*
X15641584Y-7934202D02*
X15651108Y-7924678D01*
X15651108Y-7924678D02*
X15670155Y-7915154D01*
X15670155Y-7915154D02*
X15698727Y-7915154D01*
X15698727Y-7915154D02*
X15717774Y-7924678D01*
X15717774Y-7924678D02*
X15727298Y-7943726D01*
X15727298Y-7943726D02*
X15727298Y-8048488D01*
X15727298Y-7943726D02*
X15736822Y-7924678D01*
X15736822Y-7924678D02*
X15755870Y-7915154D01*
X15755870Y-7915154D02*
X15784441Y-7915154D01*
X15784441Y-7915154D02*
X15803489Y-7924678D01*
X15803489Y-7924678D02*
X15813012Y-7943726D01*
X15813012Y-7943726D02*
X15813012Y-8048488D01*
X16203489Y-7838964D02*
X16032060Y-8096107D01*
X16460632Y-7848488D02*
X16479679Y-7848488D01*
X16479679Y-7848488D02*
X16498727Y-7858011D01*
X16498727Y-7858011D02*
X16508251Y-7867535D01*
X16508251Y-7867535D02*
X16517774Y-7886583D01*
X16517774Y-7886583D02*
X16527298Y-7924678D01*
X16527298Y-7924678D02*
X16527298Y-7972297D01*
X16527298Y-7972297D02*
X16517774Y-8010392D01*
X16517774Y-8010392D02*
X16508251Y-8029440D01*
X16508251Y-8029440D02*
X16498727Y-8038964D01*
X16498727Y-8038964D02*
X16479679Y-8048488D01*
X16479679Y-8048488D02*
X16460632Y-8048488D01*
X16460632Y-8048488D02*
X16441584Y-8038964D01*
X16441584Y-8038964D02*
X16432060Y-8029440D01*
X16432060Y-8029440D02*
X16422536Y-8010392D01*
X16422536Y-8010392D02*
X16413013Y-7972297D01*
X16413013Y-7972297D02*
X16413013Y-7924678D01*
X16413013Y-7924678D02*
X16422536Y-7886583D01*
X16422536Y-7886583D02*
X16432060Y-7867535D01*
X16432060Y-7867535D02*
X16441584Y-7858011D01*
X16441584Y-7858011D02*
X16460632Y-7848488D01*
X16613013Y-8029440D02*
X16622536Y-8038964D01*
X16622536Y-8038964D02*
X16613013Y-8048488D01*
X16613013Y-8048488D02*
X16603489Y-8038964D01*
X16603489Y-8038964D02*
X16613013Y-8029440D01*
X16613013Y-8029440D02*
X16613013Y-8048488D01*
X16746346Y-7848488D02*
X16765394Y-7848488D01*
X16765394Y-7848488D02*
X16784441Y-7858011D01*
X16784441Y-7858011D02*
X16793965Y-7867535D01*
X16793965Y-7867535D02*
X16803489Y-7886583D01*
X16803489Y-7886583D02*
X16813013Y-7924678D01*
X16813013Y-7924678D02*
X16813013Y-7972297D01*
X16813013Y-7972297D02*
X16803489Y-8010392D01*
X16803489Y-8010392D02*
X16793965Y-8029440D01*
X16793965Y-8029440D02*
X16784441Y-8038964D01*
X16784441Y-8038964D02*
X16765394Y-8048488D01*
X16765394Y-8048488D02*
X16746346Y-8048488D01*
X16746346Y-8048488D02*
X16727298Y-8038964D01*
X16727298Y-8038964D02*
X16717774Y-8029440D01*
X16717774Y-8029440D02*
X16708251Y-8010392D01*
X16708251Y-8010392D02*
X16698727Y-7972297D01*
X16698727Y-7972297D02*
X16698727Y-7924678D01*
X16698727Y-7924678D02*
X16708251Y-7886583D01*
X16708251Y-7886583D02*
X16717774Y-7867535D01*
X16717774Y-7867535D02*
X16727298Y-7858011D01*
X16727298Y-7858011D02*
X16746346Y-7848488D01*
X16879679Y-7848488D02*
X17003489Y-7848488D01*
X17003489Y-7848488D02*
X16936822Y-7924678D01*
X16936822Y-7924678D02*
X16965394Y-7924678D01*
X16965394Y-7924678D02*
X16984441Y-7934202D01*
X16984441Y-7934202D02*
X16993965Y-7943726D01*
X16993965Y-7943726D02*
X17003489Y-7962773D01*
X17003489Y-7962773D02*
X17003489Y-8010392D01*
X17003489Y-8010392D02*
X16993965Y-8029440D01*
X16993965Y-8029440D02*
X16984441Y-8038964D01*
X16984441Y-8038964D02*
X16965394Y-8048488D01*
X16965394Y-8048488D02*
X16908251Y-8048488D01*
X16908251Y-8048488D02*
X16889203Y-8038964D01*
X16889203Y-8038964D02*
X16879679Y-8029440D01*
X17098727Y-8048488D02*
X17136822Y-8048488D01*
X17136822Y-8048488D02*
X17155870Y-8038964D01*
X17155870Y-8038964D02*
X17165394Y-8029440D01*
X17165394Y-8029440D02*
X17184441Y-8000868D01*
X17184441Y-8000868D02*
X17193965Y-7962773D01*
X17193965Y-7962773D02*
X17193965Y-7886583D01*
X17193965Y-7886583D02*
X17184441Y-7867535D01*
X17184441Y-7867535D02*
X17174917Y-7858011D01*
X17174917Y-7858011D02*
X17155870Y-7848488D01*
X17155870Y-7848488D02*
X17117775Y-7848488D01*
X17117775Y-7848488D02*
X17098727Y-7858011D01*
X17098727Y-7858011D02*
X17089203Y-7867535D01*
X17089203Y-7867535D02*
X17079679Y-7886583D01*
X17079679Y-7886583D02*
X17079679Y-7934202D01*
X17079679Y-7934202D02*
X17089203Y-7953249D01*
X17089203Y-7953249D02*
X17098727Y-7962773D01*
X17098727Y-7962773D02*
X17117775Y-7972297D01*
X17117775Y-7972297D02*
X17155870Y-7972297D01*
X17155870Y-7972297D02*
X17174917Y-7962773D01*
X17174917Y-7962773D02*
X17184441Y-7953249D01*
X17184441Y-7953249D02*
X17193965Y-7934202D01*
X17365394Y-7915154D02*
X17365394Y-8048488D01*
X17317775Y-7838964D02*
X17270156Y-7981821D01*
X17270156Y-7981821D02*
X17393965Y-7981821D01*
X17460632Y-7848488D02*
X17460632Y-7886583D01*
X17536822Y-7848488D02*
X17536822Y-7886583D01*
X17832060Y-8124678D02*
X17822537Y-8115154D01*
X17822537Y-8115154D02*
X17803489Y-8086583D01*
X17803489Y-8086583D02*
X17793965Y-8067535D01*
X17793965Y-8067535D02*
X17784441Y-8038964D01*
X17784441Y-8038964D02*
X17774918Y-7991345D01*
X17774918Y-7991345D02*
X17774918Y-7953249D01*
X17774918Y-7953249D02*
X17784441Y-7905630D01*
X17784441Y-7905630D02*
X17793965Y-7877059D01*
X17793965Y-7877059D02*
X17803489Y-7858011D01*
X17803489Y-7858011D02*
X17822537Y-7829440D01*
X17822537Y-7829440D02*
X17832060Y-7819916D01*
X17993965Y-7915154D02*
X17993965Y-8048488D01*
X17946346Y-7838964D02*
X17898727Y-7981821D01*
X17898727Y-7981821D02*
X18022537Y-7981821D01*
X18251108Y-8048488D02*
X18251108Y-7848488D01*
X18336822Y-8048488D02*
X18336822Y-7943726D01*
X18336822Y-7943726D02*
X18327299Y-7924678D01*
X18327299Y-7924678D02*
X18308251Y-7915154D01*
X18308251Y-7915154D02*
X18279679Y-7915154D01*
X18279679Y-7915154D02*
X18260632Y-7924678D01*
X18260632Y-7924678D02*
X18251108Y-7934202D01*
X18460632Y-8048488D02*
X18441584Y-8038964D01*
X18441584Y-8038964D02*
X18432060Y-8029440D01*
X18432060Y-8029440D02*
X18422537Y-8010392D01*
X18422537Y-8010392D02*
X18422537Y-7953249D01*
X18422537Y-7953249D02*
X18432060Y-7934202D01*
X18432060Y-7934202D02*
X18441584Y-7924678D01*
X18441584Y-7924678D02*
X18460632Y-7915154D01*
X18460632Y-7915154D02*
X18489203Y-7915154D01*
X18489203Y-7915154D02*
X18508251Y-7924678D01*
X18508251Y-7924678D02*
X18517775Y-7934202D01*
X18517775Y-7934202D02*
X18527299Y-7953249D01*
X18527299Y-7953249D02*
X18527299Y-8010392D01*
X18527299Y-8010392D02*
X18517775Y-8029440D01*
X18517775Y-8029440D02*
X18508251Y-8038964D01*
X18508251Y-8038964D02*
X18489203Y-8048488D01*
X18489203Y-8048488D02*
X18460632Y-8048488D01*
X18641584Y-8048488D02*
X18622537Y-8038964D01*
X18622537Y-8038964D02*
X18613013Y-8019916D01*
X18613013Y-8019916D02*
X18613013Y-7848488D01*
X18793965Y-8038964D02*
X18774918Y-8048488D01*
X18774918Y-8048488D02*
X18736822Y-8048488D01*
X18736822Y-8048488D02*
X18717775Y-8038964D01*
X18717775Y-8038964D02*
X18708251Y-8019916D01*
X18708251Y-8019916D02*
X18708251Y-7943726D01*
X18708251Y-7943726D02*
X18717775Y-7924678D01*
X18717775Y-7924678D02*
X18736822Y-7915154D01*
X18736822Y-7915154D02*
X18774918Y-7915154D01*
X18774918Y-7915154D02*
X18793965Y-7924678D01*
X18793965Y-7924678D02*
X18803489Y-7943726D01*
X18803489Y-7943726D02*
X18803489Y-7962773D01*
X18803489Y-7962773D02*
X18708251Y-7981821D01*
X18879680Y-8038964D02*
X18898727Y-8048488D01*
X18898727Y-8048488D02*
X18936822Y-8048488D01*
X18936822Y-8048488D02*
X18955870Y-8038964D01*
X18955870Y-8038964D02*
X18965394Y-8019916D01*
X18965394Y-8019916D02*
X18965394Y-8010392D01*
X18965394Y-8010392D02*
X18955870Y-7991345D01*
X18955870Y-7991345D02*
X18936822Y-7981821D01*
X18936822Y-7981821D02*
X18908251Y-7981821D01*
X18908251Y-7981821D02*
X18889203Y-7972297D01*
X18889203Y-7972297D02*
X18879680Y-7953249D01*
X18879680Y-7953249D02*
X18879680Y-7943726D01*
X18879680Y-7943726D02*
X18889203Y-7924678D01*
X18889203Y-7924678D02*
X18908251Y-7915154D01*
X18908251Y-7915154D02*
X18936822Y-7915154D01*
X18936822Y-7915154D02*
X18955870Y-7924678D01*
X19032061Y-8124678D02*
X19041584Y-8115154D01*
X19041584Y-8115154D02*
X19060632Y-8086583D01*
X19060632Y-8086583D02*
X19070156Y-8067535D01*
X19070156Y-8067535D02*
X19079680Y-8038964D01*
X19079680Y-8038964D02*
X19089203Y-7991345D01*
X19089203Y-7991345D02*
X19089203Y-7953249D01*
X19089203Y-7953249D02*
X19079680Y-7905630D01*
X19079680Y-7905630D02*
X19070156Y-7877059D01*
X19070156Y-7877059D02*
X19060632Y-7858011D01*
X19060632Y-7858011D02*
X19041584Y-7829440D01*
X19041584Y-7829440D02*
X19032061Y-7819916D01*
D13*
X14204497Y-8168504D02*
X14204497Y-8273504D01*
X14151997Y-8221004D02*
X14256997Y-8221004D01*
D11*
X14622536Y-8312488D02*
X14508250Y-8312488D01*
X14565393Y-8312488D02*
X14565393Y-8112488D01*
X14565393Y-8112488D02*
X14546346Y-8141059D01*
X14546346Y-8141059D02*
X14527298Y-8160107D01*
X14527298Y-8160107D02*
X14508250Y-8169630D01*
X14708250Y-8293440D02*
X14717774Y-8302964D01*
X14717774Y-8302964D02*
X14708250Y-8312488D01*
X14708250Y-8312488D02*
X14698727Y-8302964D01*
X14698727Y-8302964D02*
X14708250Y-8293440D01*
X14708250Y-8293440D02*
X14708250Y-8312488D01*
X14841584Y-8112488D02*
X14860631Y-8112488D01*
X14860631Y-8112488D02*
X14879679Y-8122011D01*
X14879679Y-8122011D02*
X14889203Y-8131535D01*
X14889203Y-8131535D02*
X14898727Y-8150583D01*
X14898727Y-8150583D02*
X14908250Y-8188678D01*
X14908250Y-8188678D02*
X14908250Y-8236297D01*
X14908250Y-8236297D02*
X14898727Y-8274392D01*
X14898727Y-8274392D02*
X14889203Y-8293440D01*
X14889203Y-8293440D02*
X14879679Y-8302964D01*
X14879679Y-8302964D02*
X14860631Y-8312488D01*
X14860631Y-8312488D02*
X14841584Y-8312488D01*
X14841584Y-8312488D02*
X14822536Y-8302964D01*
X14822536Y-8302964D02*
X14813012Y-8293440D01*
X14813012Y-8293440D02*
X14803489Y-8274392D01*
X14803489Y-8274392D02*
X14793965Y-8236297D01*
X14793965Y-8236297D02*
X14793965Y-8188678D01*
X14793965Y-8188678D02*
X14803489Y-8150583D01*
X14803489Y-8150583D02*
X14813012Y-8131535D01*
X14813012Y-8131535D02*
X14822536Y-8122011D01*
X14822536Y-8122011D02*
X14841584Y-8112488D01*
X15089203Y-8112488D02*
X14993965Y-8112488D01*
X14993965Y-8112488D02*
X14984441Y-8207726D01*
X14984441Y-8207726D02*
X14993965Y-8198202D01*
X14993965Y-8198202D02*
X15013012Y-8188678D01*
X15013012Y-8188678D02*
X15060631Y-8188678D01*
X15060631Y-8188678D02*
X15079679Y-8198202D01*
X15079679Y-8198202D02*
X15089203Y-8207726D01*
X15089203Y-8207726D02*
X15098727Y-8226773D01*
X15098727Y-8226773D02*
X15098727Y-8274392D01*
X15098727Y-8274392D02*
X15089203Y-8293440D01*
X15089203Y-8293440D02*
X15079679Y-8302964D01*
X15079679Y-8302964D02*
X15060631Y-8312488D01*
X15060631Y-8312488D02*
X15013012Y-8312488D01*
X15013012Y-8312488D02*
X14993965Y-8302964D01*
X14993965Y-8302964D02*
X14984441Y-8293440D01*
X15222536Y-8112488D02*
X15241584Y-8112488D01*
X15241584Y-8112488D02*
X15260631Y-8122011D01*
X15260631Y-8122011D02*
X15270155Y-8131535D01*
X15270155Y-8131535D02*
X15279679Y-8150583D01*
X15279679Y-8150583D02*
X15289203Y-8188678D01*
X15289203Y-8188678D02*
X15289203Y-8236297D01*
X15289203Y-8236297D02*
X15279679Y-8274392D01*
X15279679Y-8274392D02*
X15270155Y-8293440D01*
X15270155Y-8293440D02*
X15260631Y-8302964D01*
X15260631Y-8302964D02*
X15241584Y-8312488D01*
X15241584Y-8312488D02*
X15222536Y-8312488D01*
X15222536Y-8312488D02*
X15203489Y-8302964D01*
X15203489Y-8302964D02*
X15193965Y-8293440D01*
X15193965Y-8293440D02*
X15184441Y-8274392D01*
X15184441Y-8274392D02*
X15174917Y-8236297D01*
X15174917Y-8236297D02*
X15174917Y-8188678D01*
X15174917Y-8188678D02*
X15184441Y-8150583D01*
X15184441Y-8150583D02*
X15193965Y-8131535D01*
X15193965Y-8131535D02*
X15203489Y-8122011D01*
X15203489Y-8122011D02*
X15222536Y-8112488D01*
X15374917Y-8312488D02*
X15374917Y-8179154D01*
X15374917Y-8198202D02*
X15384441Y-8188678D01*
X15384441Y-8188678D02*
X15403489Y-8179154D01*
X15403489Y-8179154D02*
X15432060Y-8179154D01*
X15432060Y-8179154D02*
X15451108Y-8188678D01*
X15451108Y-8188678D02*
X15460631Y-8207726D01*
X15460631Y-8207726D02*
X15460631Y-8312488D01*
X15460631Y-8207726D02*
X15470155Y-8188678D01*
X15470155Y-8188678D02*
X15489203Y-8179154D01*
X15489203Y-8179154D02*
X15517774Y-8179154D01*
X15517774Y-8179154D02*
X15536822Y-8188678D01*
X15536822Y-8188678D02*
X15546346Y-8207726D01*
X15546346Y-8207726D02*
X15546346Y-8312488D01*
X15641584Y-8312488D02*
X15641584Y-8179154D01*
X15641584Y-8198202D02*
X15651108Y-8188678D01*
X15651108Y-8188678D02*
X15670155Y-8179154D01*
X15670155Y-8179154D02*
X15698727Y-8179154D01*
X15698727Y-8179154D02*
X15717774Y-8188678D01*
X15717774Y-8188678D02*
X15727298Y-8207726D01*
X15727298Y-8207726D02*
X15727298Y-8312488D01*
X15727298Y-8207726D02*
X15736822Y-8188678D01*
X15736822Y-8188678D02*
X15755870Y-8179154D01*
X15755870Y-8179154D02*
X15784441Y-8179154D01*
X15784441Y-8179154D02*
X15803489Y-8188678D01*
X15803489Y-8188678D02*
X15813012Y-8207726D01*
X15813012Y-8207726D02*
X15813012Y-8312488D01*
X16203489Y-8102964D02*
X16032060Y-8360107D01*
X16460632Y-8112488D02*
X16479679Y-8112488D01*
X16479679Y-8112488D02*
X16498727Y-8122011D01*
X16498727Y-8122011D02*
X16508251Y-8131535D01*
X16508251Y-8131535D02*
X16517774Y-8150583D01*
X16517774Y-8150583D02*
X16527298Y-8188678D01*
X16527298Y-8188678D02*
X16527298Y-8236297D01*
X16527298Y-8236297D02*
X16517774Y-8274392D01*
X16517774Y-8274392D02*
X16508251Y-8293440D01*
X16508251Y-8293440D02*
X16498727Y-8302964D01*
X16498727Y-8302964D02*
X16479679Y-8312488D01*
X16479679Y-8312488D02*
X16460632Y-8312488D01*
X16460632Y-8312488D02*
X16441584Y-8302964D01*
X16441584Y-8302964D02*
X16432060Y-8293440D01*
X16432060Y-8293440D02*
X16422536Y-8274392D01*
X16422536Y-8274392D02*
X16413013Y-8236297D01*
X16413013Y-8236297D02*
X16413013Y-8188678D01*
X16413013Y-8188678D02*
X16422536Y-8150583D01*
X16422536Y-8150583D02*
X16432060Y-8131535D01*
X16432060Y-8131535D02*
X16441584Y-8122011D01*
X16441584Y-8122011D02*
X16460632Y-8112488D01*
X16613013Y-8293440D02*
X16622536Y-8302964D01*
X16622536Y-8302964D02*
X16613013Y-8312488D01*
X16613013Y-8312488D02*
X16603489Y-8302964D01*
X16603489Y-8302964D02*
X16613013Y-8293440D01*
X16613013Y-8293440D02*
X16613013Y-8312488D01*
X16746346Y-8112488D02*
X16765394Y-8112488D01*
X16765394Y-8112488D02*
X16784441Y-8122011D01*
X16784441Y-8122011D02*
X16793965Y-8131535D01*
X16793965Y-8131535D02*
X16803489Y-8150583D01*
X16803489Y-8150583D02*
X16813013Y-8188678D01*
X16813013Y-8188678D02*
X16813013Y-8236297D01*
X16813013Y-8236297D02*
X16803489Y-8274392D01*
X16803489Y-8274392D02*
X16793965Y-8293440D01*
X16793965Y-8293440D02*
X16784441Y-8302964D01*
X16784441Y-8302964D02*
X16765394Y-8312488D01*
X16765394Y-8312488D02*
X16746346Y-8312488D01*
X16746346Y-8312488D02*
X16727298Y-8302964D01*
X16727298Y-8302964D02*
X16717774Y-8293440D01*
X16717774Y-8293440D02*
X16708251Y-8274392D01*
X16708251Y-8274392D02*
X16698727Y-8236297D01*
X16698727Y-8236297D02*
X16698727Y-8188678D01*
X16698727Y-8188678D02*
X16708251Y-8150583D01*
X16708251Y-8150583D02*
X16717774Y-8131535D01*
X16717774Y-8131535D02*
X16727298Y-8122011D01*
X16727298Y-8122011D02*
X16746346Y-8112488D01*
X16984441Y-8179154D02*
X16984441Y-8312488D01*
X16936822Y-8102964D02*
X16889203Y-8245821D01*
X16889203Y-8245821D02*
X17013013Y-8245821D01*
X17193965Y-8312488D02*
X17079679Y-8312488D01*
X17136822Y-8312488D02*
X17136822Y-8112488D01*
X17136822Y-8112488D02*
X17117775Y-8141059D01*
X17117775Y-8141059D02*
X17098727Y-8160107D01*
X17098727Y-8160107D02*
X17079679Y-8169630D01*
X17260632Y-8112488D02*
X17384441Y-8112488D01*
X17384441Y-8112488D02*
X17317775Y-8188678D01*
X17317775Y-8188678D02*
X17346346Y-8188678D01*
X17346346Y-8188678D02*
X17365394Y-8198202D01*
X17365394Y-8198202D02*
X17374917Y-8207726D01*
X17374917Y-8207726D02*
X17384441Y-8226773D01*
X17384441Y-8226773D02*
X17384441Y-8274392D01*
X17384441Y-8274392D02*
X17374917Y-8293440D01*
X17374917Y-8293440D02*
X17365394Y-8302964D01*
X17365394Y-8302964D02*
X17346346Y-8312488D01*
X17346346Y-8312488D02*
X17289203Y-8312488D01*
X17289203Y-8312488D02*
X17270156Y-8302964D01*
X17270156Y-8302964D02*
X17260632Y-8293440D01*
X17460632Y-8112488D02*
X17460632Y-8150583D01*
X17536822Y-8112488D02*
X17536822Y-8150583D01*
X17832060Y-8388678D02*
X17822537Y-8379154D01*
X17822537Y-8379154D02*
X17803489Y-8350583D01*
X17803489Y-8350583D02*
X17793965Y-8331535D01*
X17793965Y-8331535D02*
X17784441Y-8302964D01*
X17784441Y-8302964D02*
X17774918Y-8255345D01*
X17774918Y-8255345D02*
X17774918Y-8217249D01*
X17774918Y-8217249D02*
X17784441Y-8169630D01*
X17784441Y-8169630D02*
X17793965Y-8141059D01*
X17793965Y-8141059D02*
X17803489Y-8122011D01*
X17803489Y-8122011D02*
X17822537Y-8093440D01*
X17822537Y-8093440D02*
X17832060Y-8083916D01*
X17993965Y-8112488D02*
X17955870Y-8112488D01*
X17955870Y-8112488D02*
X17936822Y-8122011D01*
X17936822Y-8122011D02*
X17927298Y-8131535D01*
X17927298Y-8131535D02*
X17908251Y-8160107D01*
X17908251Y-8160107D02*
X17898727Y-8198202D01*
X17898727Y-8198202D02*
X17898727Y-8274392D01*
X17898727Y-8274392D02*
X17908251Y-8293440D01*
X17908251Y-8293440D02*
X17917775Y-8302964D01*
X17917775Y-8302964D02*
X17936822Y-8312488D01*
X17936822Y-8312488D02*
X17974918Y-8312488D01*
X17974918Y-8312488D02*
X17993965Y-8302964D01*
X17993965Y-8302964D02*
X18003489Y-8293440D01*
X18003489Y-8293440D02*
X18013013Y-8274392D01*
X18013013Y-8274392D02*
X18013013Y-8226773D01*
X18013013Y-8226773D02*
X18003489Y-8207726D01*
X18003489Y-8207726D02*
X17993965Y-8198202D01*
X17993965Y-8198202D02*
X17974918Y-8188678D01*
X17974918Y-8188678D02*
X17936822Y-8188678D01*
X17936822Y-8188678D02*
X17917775Y-8198202D01*
X17917775Y-8198202D02*
X17908251Y-8207726D01*
X17908251Y-8207726D02*
X17898727Y-8226773D01*
X18251108Y-8312488D02*
X18251108Y-8112488D01*
X18336822Y-8312488D02*
X18336822Y-8207726D01*
X18336822Y-8207726D02*
X18327299Y-8188678D01*
X18327299Y-8188678D02*
X18308251Y-8179154D01*
X18308251Y-8179154D02*
X18279679Y-8179154D01*
X18279679Y-8179154D02*
X18260632Y-8188678D01*
X18260632Y-8188678D02*
X18251108Y-8198202D01*
X18460632Y-8312488D02*
X18441584Y-8302964D01*
X18441584Y-8302964D02*
X18432060Y-8293440D01*
X18432060Y-8293440D02*
X18422537Y-8274392D01*
X18422537Y-8274392D02*
X18422537Y-8217249D01*
X18422537Y-8217249D02*
X18432060Y-8198202D01*
X18432060Y-8198202D02*
X18441584Y-8188678D01*
X18441584Y-8188678D02*
X18460632Y-8179154D01*
X18460632Y-8179154D02*
X18489203Y-8179154D01*
X18489203Y-8179154D02*
X18508251Y-8188678D01*
X18508251Y-8188678D02*
X18517775Y-8198202D01*
X18517775Y-8198202D02*
X18527299Y-8217249D01*
X18527299Y-8217249D02*
X18527299Y-8274392D01*
X18527299Y-8274392D02*
X18517775Y-8293440D01*
X18517775Y-8293440D02*
X18508251Y-8302964D01*
X18508251Y-8302964D02*
X18489203Y-8312488D01*
X18489203Y-8312488D02*
X18460632Y-8312488D01*
X18641584Y-8312488D02*
X18622537Y-8302964D01*
X18622537Y-8302964D02*
X18613013Y-8283916D01*
X18613013Y-8283916D02*
X18613013Y-8112488D01*
X18793965Y-8302964D02*
X18774918Y-8312488D01*
X18774918Y-8312488D02*
X18736822Y-8312488D01*
X18736822Y-8312488D02*
X18717775Y-8302964D01*
X18717775Y-8302964D02*
X18708251Y-8283916D01*
X18708251Y-8283916D02*
X18708251Y-8207726D01*
X18708251Y-8207726D02*
X18717775Y-8188678D01*
X18717775Y-8188678D02*
X18736822Y-8179154D01*
X18736822Y-8179154D02*
X18774918Y-8179154D01*
X18774918Y-8179154D02*
X18793965Y-8188678D01*
X18793965Y-8188678D02*
X18803489Y-8207726D01*
X18803489Y-8207726D02*
X18803489Y-8226773D01*
X18803489Y-8226773D02*
X18708251Y-8245821D01*
X18879680Y-8302964D02*
X18898727Y-8312488D01*
X18898727Y-8312488D02*
X18936822Y-8312488D01*
X18936822Y-8312488D02*
X18955870Y-8302964D01*
X18955870Y-8302964D02*
X18965394Y-8283916D01*
X18965394Y-8283916D02*
X18965394Y-8274392D01*
X18965394Y-8274392D02*
X18955870Y-8255345D01*
X18955870Y-8255345D02*
X18936822Y-8245821D01*
X18936822Y-8245821D02*
X18908251Y-8245821D01*
X18908251Y-8245821D02*
X18889203Y-8236297D01*
X18889203Y-8236297D02*
X18879680Y-8217249D01*
X18879680Y-8217249D02*
X18879680Y-8207726D01*
X18879680Y-8207726D02*
X18889203Y-8188678D01*
X18889203Y-8188678D02*
X18908251Y-8179154D01*
X18908251Y-8179154D02*
X18936822Y-8179154D01*
X18936822Y-8179154D02*
X18955870Y-8188678D01*
X19032061Y-8388678D02*
X19041584Y-8379154D01*
X19041584Y-8379154D02*
X19060632Y-8350583D01*
X19060632Y-8350583D02*
X19070156Y-8331535D01*
X19070156Y-8331535D02*
X19079680Y-8302964D01*
X19079680Y-8302964D02*
X19089203Y-8255345D01*
X19089203Y-8255345D02*
X19089203Y-8217249D01*
X19089203Y-8217249D02*
X19079680Y-8169630D01*
X19079680Y-8169630D02*
X19070156Y-8141059D01*
X19070156Y-8141059D02*
X19060632Y-8122011D01*
X19060632Y-8122011D02*
X19041584Y-8093440D01*
X19041584Y-8093440D02*
X19032061Y-8083916D01*
M02*
