%TF.GenerationSoftware,KiCad,Pcbnew,9.0.6*%
%TF.CreationDate,2026-02-24T18:18:20-08:00*%
%TF.ProjectId,CoilArrayBlock,436f696c-4172-4726-9179-426c6f636b2e,rev?*%
%TF.SameCoordinates,Original*%
%TF.FileFunction,Legend,Bot*%
%TF.FilePolarity,Positive*%
%FSLAX46Y46*%
G04 Gerber Fmt 4.6, Leading zero omitted, Abs format (unit mm)*
G04 Created by KiCad (PCBNEW 9.0.6) date 2026-02-24 18:18:20*
%MOMM*%
%LPD*%
G01*
G04 APERTURE LIST*
%ADD10C,0.200000*%
%ADD11C,0.150000*%
G04 APERTURE END LIST*
D10*
X144506028Y-52417292D02*
X145577457Y-52417292D01*
X145577457Y-52417292D02*
X145791742Y-52345863D01*
X145791742Y-52345863D02*
X145934600Y-52203006D01*
X145934600Y-52203006D02*
X146006028Y-51988720D01*
X146006028Y-51988720D02*
X146006028Y-51845863D01*
X146006028Y-53774435D02*
X145220314Y-53774435D01*
X145220314Y-53774435D02*
X145077457Y-53703006D01*
X145077457Y-53703006D02*
X145006028Y-53560149D01*
X145006028Y-53560149D02*
X145006028Y-53274435D01*
X145006028Y-53274435D02*
X145077457Y-53131577D01*
X145934600Y-53774435D02*
X146006028Y-53631577D01*
X146006028Y-53631577D02*
X146006028Y-53274435D01*
X146006028Y-53274435D02*
X145934600Y-53131577D01*
X145934600Y-53131577D02*
X145791742Y-53060149D01*
X145791742Y-53060149D02*
X145648885Y-53060149D01*
X145648885Y-53060149D02*
X145506028Y-53131577D01*
X145506028Y-53131577D02*
X145434600Y-53274435D01*
X145434600Y-53274435D02*
X145434600Y-53631577D01*
X145434600Y-53631577D02*
X145363171Y-53774435D01*
X145934600Y-55131578D02*
X146006028Y-54988720D01*
X146006028Y-54988720D02*
X146006028Y-54703006D01*
X146006028Y-54703006D02*
X145934600Y-54560149D01*
X145934600Y-54560149D02*
X145863171Y-54488720D01*
X145863171Y-54488720D02*
X145720314Y-54417292D01*
X145720314Y-54417292D02*
X145291742Y-54417292D01*
X145291742Y-54417292D02*
X145148885Y-54488720D01*
X145148885Y-54488720D02*
X145077457Y-54560149D01*
X145077457Y-54560149D02*
X145006028Y-54703006D01*
X145006028Y-54703006D02*
X145006028Y-54988720D01*
X145006028Y-54988720D02*
X145077457Y-55131578D01*
X146006028Y-55774434D02*
X144506028Y-55774434D01*
X145434600Y-55917292D02*
X146006028Y-56345863D01*
X145006028Y-56345863D02*
X145577457Y-55774434D01*
X145220314Y-58631577D02*
X145220314Y-58131577D01*
X146006028Y-58131577D02*
X144506028Y-58131577D01*
X144506028Y-58131577D02*
X144506028Y-58845863D01*
X146006028Y-59417291D02*
X145006028Y-59417291D01*
X145291742Y-59417291D02*
X145148885Y-59488720D01*
X145148885Y-59488720D02*
X145077457Y-59560149D01*
X145077457Y-59560149D02*
X145006028Y-59703006D01*
X145006028Y-59703006D02*
X145006028Y-59845863D01*
X146006028Y-60988720D02*
X145220314Y-60988720D01*
X145220314Y-60988720D02*
X145077457Y-60917291D01*
X145077457Y-60917291D02*
X145006028Y-60774434D01*
X145006028Y-60774434D02*
X145006028Y-60488720D01*
X145006028Y-60488720D02*
X145077457Y-60345862D01*
X145934600Y-60988720D02*
X146006028Y-60845862D01*
X146006028Y-60845862D02*
X146006028Y-60488720D01*
X146006028Y-60488720D02*
X145934600Y-60345862D01*
X145934600Y-60345862D02*
X145791742Y-60274434D01*
X145791742Y-60274434D02*
X145648885Y-60274434D01*
X145648885Y-60274434D02*
X145506028Y-60345862D01*
X145506028Y-60345862D02*
X145434600Y-60488720D01*
X145434600Y-60488720D02*
X145434600Y-60845862D01*
X145434600Y-60845862D02*
X145363171Y-60988720D01*
X146006028Y-61917291D02*
X145934600Y-61774434D01*
X145934600Y-61774434D02*
X145791742Y-61703005D01*
X145791742Y-61703005D02*
X144506028Y-61703005D01*
X145934600Y-63060148D02*
X146006028Y-62917291D01*
X146006028Y-62917291D02*
X146006028Y-62631577D01*
X146006028Y-62631577D02*
X145934600Y-62488719D01*
X145934600Y-62488719D02*
X145791742Y-62417291D01*
X145791742Y-62417291D02*
X145220314Y-62417291D01*
X145220314Y-62417291D02*
X145077457Y-62488719D01*
X145077457Y-62488719D02*
X145006028Y-62631577D01*
X145006028Y-62631577D02*
X145006028Y-62917291D01*
X145006028Y-62917291D02*
X145077457Y-63060148D01*
X145077457Y-63060148D02*
X145220314Y-63131577D01*
X145220314Y-63131577D02*
X145363171Y-63131577D01*
X145363171Y-63131577D02*
X145506028Y-62417291D01*
X145006028Y-63631576D02*
X146006028Y-63988719D01*
X145006028Y-64345862D02*
X146006028Y-63988719D01*
X146006028Y-63988719D02*
X146363171Y-63845862D01*
X146363171Y-63845862D02*
X146434600Y-63774433D01*
X146434600Y-63774433D02*
X146506028Y-63631576D01*
X148463171Y-52645863D02*
X148534600Y-52574435D01*
X148534600Y-52574435D02*
X148606028Y-52360149D01*
X148606028Y-52360149D02*
X148606028Y-52217292D01*
X148606028Y-52217292D02*
X148534600Y-52003006D01*
X148534600Y-52003006D02*
X148391742Y-51860149D01*
X148391742Y-51860149D02*
X148248885Y-51788720D01*
X148248885Y-51788720D02*
X147963171Y-51717292D01*
X147963171Y-51717292D02*
X147748885Y-51717292D01*
X147748885Y-51717292D02*
X147463171Y-51788720D01*
X147463171Y-51788720D02*
X147320314Y-51860149D01*
X147320314Y-51860149D02*
X147177457Y-52003006D01*
X147177457Y-52003006D02*
X147106028Y-52217292D01*
X147106028Y-52217292D02*
X147106028Y-52360149D01*
X147106028Y-52360149D02*
X147177457Y-52574435D01*
X147177457Y-52574435D02*
X147248885Y-52645863D01*
X148606028Y-53503006D02*
X148534600Y-53360149D01*
X148534600Y-53360149D02*
X148463171Y-53288720D01*
X148463171Y-53288720D02*
X148320314Y-53217292D01*
X148320314Y-53217292D02*
X147891742Y-53217292D01*
X147891742Y-53217292D02*
X147748885Y-53288720D01*
X147748885Y-53288720D02*
X147677457Y-53360149D01*
X147677457Y-53360149D02*
X147606028Y-53503006D01*
X147606028Y-53503006D02*
X147606028Y-53717292D01*
X147606028Y-53717292D02*
X147677457Y-53860149D01*
X147677457Y-53860149D02*
X147748885Y-53931578D01*
X147748885Y-53931578D02*
X147891742Y-54003006D01*
X147891742Y-54003006D02*
X148320314Y-54003006D01*
X148320314Y-54003006D02*
X148463171Y-53931578D01*
X148463171Y-53931578D02*
X148534600Y-53860149D01*
X148534600Y-53860149D02*
X148606028Y-53717292D01*
X148606028Y-53717292D02*
X148606028Y-53503006D01*
X148606028Y-54645863D02*
X147606028Y-54645863D01*
X147106028Y-54645863D02*
X147177457Y-54574435D01*
X147177457Y-54574435D02*
X147248885Y-54645863D01*
X147248885Y-54645863D02*
X147177457Y-54717292D01*
X147177457Y-54717292D02*
X147106028Y-54645863D01*
X147106028Y-54645863D02*
X147248885Y-54645863D01*
X148606028Y-55574435D02*
X148534600Y-55431578D01*
X148534600Y-55431578D02*
X148391742Y-55360149D01*
X148391742Y-55360149D02*
X147106028Y-55360149D01*
X148606028Y-57288720D02*
X147106028Y-57288720D01*
X147106028Y-57288720D02*
X147106028Y-57860149D01*
X147106028Y-57860149D02*
X147177457Y-58003006D01*
X147177457Y-58003006D02*
X147248885Y-58074435D01*
X147248885Y-58074435D02*
X147391742Y-58145863D01*
X147391742Y-58145863D02*
X147606028Y-58145863D01*
X147606028Y-58145863D02*
X147748885Y-58074435D01*
X147748885Y-58074435D02*
X147820314Y-58003006D01*
X147820314Y-58003006D02*
X147891742Y-57860149D01*
X147891742Y-57860149D02*
X147891742Y-57288720D01*
X148606028Y-58788720D02*
X147606028Y-58788720D01*
X147891742Y-58788720D02*
X147748885Y-58860149D01*
X147748885Y-58860149D02*
X147677457Y-58931578D01*
X147677457Y-58931578D02*
X147606028Y-59074435D01*
X147606028Y-59074435D02*
X147606028Y-59217292D01*
X148534600Y-60288720D02*
X148606028Y-60145863D01*
X148606028Y-60145863D02*
X148606028Y-59860149D01*
X148606028Y-59860149D02*
X148534600Y-59717291D01*
X148534600Y-59717291D02*
X148391742Y-59645863D01*
X148391742Y-59645863D02*
X147820314Y-59645863D01*
X147820314Y-59645863D02*
X147677457Y-59717291D01*
X147677457Y-59717291D02*
X147606028Y-59860149D01*
X147606028Y-59860149D02*
X147606028Y-60145863D01*
X147606028Y-60145863D02*
X147677457Y-60288720D01*
X147677457Y-60288720D02*
X147820314Y-60360149D01*
X147820314Y-60360149D02*
X147963171Y-60360149D01*
X147963171Y-60360149D02*
X148106028Y-59645863D01*
X148606028Y-61645863D02*
X147820314Y-61645863D01*
X147820314Y-61645863D02*
X147677457Y-61574434D01*
X147677457Y-61574434D02*
X147606028Y-61431577D01*
X147606028Y-61431577D02*
X147606028Y-61145863D01*
X147606028Y-61145863D02*
X147677457Y-61003005D01*
X148534600Y-61645863D02*
X148606028Y-61503005D01*
X148606028Y-61503005D02*
X148606028Y-61145863D01*
X148606028Y-61145863D02*
X148534600Y-61003005D01*
X148534600Y-61003005D02*
X148391742Y-60931577D01*
X148391742Y-60931577D02*
X148248885Y-60931577D01*
X148248885Y-60931577D02*
X148106028Y-61003005D01*
X148106028Y-61003005D02*
X148034600Y-61145863D01*
X148034600Y-61145863D02*
X148034600Y-61503005D01*
X148034600Y-61503005D02*
X147963171Y-61645863D01*
X148606028Y-62360148D02*
X147606028Y-62360148D01*
X147748885Y-62360148D02*
X147677457Y-62431577D01*
X147677457Y-62431577D02*
X147606028Y-62574434D01*
X147606028Y-62574434D02*
X147606028Y-62788720D01*
X147606028Y-62788720D02*
X147677457Y-62931577D01*
X147677457Y-62931577D02*
X147820314Y-63003006D01*
X147820314Y-63003006D02*
X148606028Y-63003006D01*
X147820314Y-63003006D02*
X147677457Y-63074434D01*
X147677457Y-63074434D02*
X147606028Y-63217291D01*
X147606028Y-63217291D02*
X147606028Y-63431577D01*
X147606028Y-63431577D02*
X147677457Y-63574434D01*
X147677457Y-63574434D02*
X147820314Y-63645863D01*
X147820314Y-63645863D02*
X148606028Y-63645863D01*
X147606028Y-64360148D02*
X149106028Y-64360148D01*
X147677457Y-64360148D02*
X147606028Y-64503006D01*
X147606028Y-64503006D02*
X147606028Y-64788720D01*
X147606028Y-64788720D02*
X147677457Y-64931577D01*
X147677457Y-64931577D02*
X147748885Y-65003006D01*
X147748885Y-65003006D02*
X147891742Y-65074434D01*
X147891742Y-65074434D02*
X148320314Y-65074434D01*
X148320314Y-65074434D02*
X148463171Y-65003006D01*
X148463171Y-65003006D02*
X148534600Y-64931577D01*
X148534600Y-64931577D02*
X148606028Y-64788720D01*
X148606028Y-64788720D02*
X148606028Y-64503006D01*
X148606028Y-64503006D02*
X148534600Y-64360148D01*
D11*
%TO.C,U1*%
X164010600Y-68350000D02*
X174221400Y-68352800D01*
X164100000Y-49650000D02*
X174221400Y-49652800D01*
X164010600Y-49650000D02*
X164010600Y-68350000D01*
X174221400Y-68352800D02*
X174221400Y-49652800D01*
%TD*%
M02*
