%TF.GenerationSoftware,KiCad,Pcbnew,9.0.6*%
%TF.CreationDate,2026-02-24T18:18:18-08:00*%
%TF.ProjectId,CoilArrayBlock,436f696c-4172-4726-9179-426c6f636b2e,rev?*%
%TF.SameCoordinates,Original*%
%TF.FileFunction,Drillmap*%
%TF.FilePolarity,Positive*%
%FSLAX45Y45*%
G04 Gerber Fmt 4.5, Leading zero omitted, Abs format (unit mm)*
G04 Created by KiCad (PCBNEW 9.0.6) date 2026-02-24 18:18:18*
%MOMM*%
%LPD*%
G01*
G04 APERTURE LIST*
%ADD10C,0.050000*%
%ADD11C,0.200000*%
G04 APERTURE END LIST*
D10*
X14462426Y-4870495D02*
X17328579Y-4871421D01*
X17330000Y-7050000D02*
X14461420Y-7050504D01*
X14461421Y-7050504D02*
G75*
G02*
X14259497Y-6849290I0J201925D01*
G01*
X14259497Y-6849290D02*
X14260502Y-5070710D01*
X17530000Y-6850000D02*
X17528579Y-5071420D01*
X17328579Y-4871421D02*
G75*
G02*
X17528579Y-5071421I0J-200000D01*
G01*
X14260502Y-5070710D02*
G75*
G02*
X14462426Y-4870495I201924J-1716D01*
G01*
X17530000Y-6850000D02*
G75*
G02*
X17330000Y-7050000I-200000J0D01*
G01*
D11*
X14517774Y-7364488D02*
X14517774Y-7164488D01*
X14517774Y-7164488D02*
X14565393Y-7164488D01*
X14565393Y-7164488D02*
X14593965Y-7174011D01*
X14593965Y-7174011D02*
X14613012Y-7193059D01*
X14613012Y-7193059D02*
X14622536Y-7212107D01*
X14622536Y-7212107D02*
X14632060Y-7250202D01*
X14632060Y-7250202D02*
X14632060Y-7278773D01*
X14632060Y-7278773D02*
X14622536Y-7316868D01*
X14622536Y-7316868D02*
X14613012Y-7335916D01*
X14613012Y-7335916D02*
X14593965Y-7354964D01*
X14593965Y-7354964D02*
X14565393Y-7364488D01*
X14565393Y-7364488D02*
X14517774Y-7364488D01*
X14717774Y-7364488D02*
X14717774Y-7231154D01*
X14717774Y-7269249D02*
X14727298Y-7250202D01*
X14727298Y-7250202D02*
X14736822Y-7240678D01*
X14736822Y-7240678D02*
X14755869Y-7231154D01*
X14755869Y-7231154D02*
X14774917Y-7231154D01*
X14841584Y-7364488D02*
X14841584Y-7231154D01*
X14841584Y-7164488D02*
X14832060Y-7174011D01*
X14832060Y-7174011D02*
X14841584Y-7183535D01*
X14841584Y-7183535D02*
X14851108Y-7174011D01*
X14851108Y-7174011D02*
X14841584Y-7164488D01*
X14841584Y-7164488D02*
X14841584Y-7183535D01*
X14965393Y-7364488D02*
X14946346Y-7354964D01*
X14946346Y-7354964D02*
X14936822Y-7335916D01*
X14936822Y-7335916D02*
X14936822Y-7164488D01*
X15070155Y-7364488D02*
X15051108Y-7354964D01*
X15051108Y-7354964D02*
X15041584Y-7335916D01*
X15041584Y-7335916D02*
X15041584Y-7164488D01*
X15298727Y-7364488D02*
X15298727Y-7164488D01*
X15298727Y-7164488D02*
X15365393Y-7307345D01*
X15365393Y-7307345D02*
X15432060Y-7164488D01*
X15432060Y-7164488D02*
X15432060Y-7364488D01*
X15613012Y-7364488D02*
X15613012Y-7259726D01*
X15613012Y-7259726D02*
X15603489Y-7240678D01*
X15603489Y-7240678D02*
X15584441Y-7231154D01*
X15584441Y-7231154D02*
X15546346Y-7231154D01*
X15546346Y-7231154D02*
X15527298Y-7240678D01*
X15613012Y-7354964D02*
X15593965Y-7364488D01*
X15593965Y-7364488D02*
X15546346Y-7364488D01*
X15546346Y-7364488D02*
X15527298Y-7354964D01*
X15527298Y-7354964D02*
X15517774Y-7335916D01*
X15517774Y-7335916D02*
X15517774Y-7316868D01*
X15517774Y-7316868D02*
X15527298Y-7297821D01*
X15527298Y-7297821D02*
X15546346Y-7288297D01*
X15546346Y-7288297D02*
X15593965Y-7288297D01*
X15593965Y-7288297D02*
X15613012Y-7278773D01*
X15708250Y-7231154D02*
X15708250Y-7431154D01*
X15708250Y-7240678D02*
X15727298Y-7231154D01*
X15727298Y-7231154D02*
X15765393Y-7231154D01*
X15765393Y-7231154D02*
X15784441Y-7240678D01*
X15784441Y-7240678D02*
X15793965Y-7250202D01*
X15793965Y-7250202D02*
X15803489Y-7269249D01*
X15803489Y-7269249D02*
X15803489Y-7326392D01*
X15803489Y-7326392D02*
X15793965Y-7345440D01*
X15793965Y-7345440D02*
X15784441Y-7354964D01*
X15784441Y-7354964D02*
X15765393Y-7364488D01*
X15765393Y-7364488D02*
X15727298Y-7364488D01*
X15727298Y-7364488D02*
X15708250Y-7354964D01*
X15889203Y-7345440D02*
X15898727Y-7354964D01*
X15898727Y-7354964D02*
X15889203Y-7364488D01*
X15889203Y-7364488D02*
X15879679Y-7354964D01*
X15879679Y-7354964D02*
X15889203Y-7345440D01*
X15889203Y-7345440D02*
X15889203Y-7364488D01*
X15889203Y-7240678D02*
X15898727Y-7250202D01*
X15898727Y-7250202D02*
X15889203Y-7259726D01*
X15889203Y-7259726D02*
X15879679Y-7250202D01*
X15879679Y-7250202D02*
X15889203Y-7240678D01*
X15889203Y-7240678D02*
X15889203Y-7259726D01*
M02*
