%TF.GenerationSoftware,KiCad,Pcbnew,9.0.6*%
%TF.CreationDate,2026-02-24T18:18:20-08:00*%
%TF.ProjectId,CoilArrayBlock,436f696c-4172-4726-9179-426c6f636b2e,rev?*%
%TF.SameCoordinates,Original*%
%TF.FileFunction,Copper,L1,Top*%
%TF.FilePolarity,Positive*%
%FSLAX46Y46*%
G04 Gerber Fmt 4.6, Leading zero omitted, Abs format (unit mm)*
G04 Created by KiCad (PCBNEW 9.0.6) date 2026-02-24 18:18:20*
%MOMM*%
%LPD*%
G01*
G04 APERTURE LIST*
G04 Aperture macros list*
%AMRoundRect*
0 Rectangle with rounded corners*
0 $1 Rounding radius*
0 $2 $3 $4 $5 $6 $7 $8 $9 X,Y pos of 4 corners*
0 Add a 4 corners polygon primitive as box body*
4,1,4,$2,$3,$4,$5,$6,$7,$8,$9,$2,$3,0*
0 Add four circle primitives for the rounded corners*
1,1,$1+$1,$2,$3*
1,1,$1+$1,$4,$5*
1,1,$1+$1,$6,$7*
1,1,$1+$1,$8,$9*
0 Add four rect primitives between the rounded corners*
20,1,$1+$1,$2,$3,$4,$5,0*
20,1,$1+$1,$4,$5,$6,$7,0*
20,1,$1+$1,$6,$7,$8,$9,0*
20,1,$1+$1,$8,$9,$2,$3,0*%
G04 Aperture macros list end*
%TA.AperFunction,ComponentPad*%
%ADD10R,1.575000X1.575000*%
%TD*%
%TA.AperFunction,ComponentPad*%
%ADD11C,1.575000*%
%TD*%
%TA.AperFunction,ComponentPad*%
%ADD12C,2.000000*%
%TD*%
%TA.AperFunction,ComponentPad*%
%ADD13R,2.000000X2.000000*%
%TD*%
%TA.AperFunction,SMDPad,CuDef*%
%ADD14RoundRect,0.225000X0.225000X0.250000X-0.225000X0.250000X-0.225000X-0.250000X0.225000X-0.250000X0*%
%TD*%
%TA.AperFunction,SMDPad,CuDef*%
%ADD15R,1.430601X0.450800*%
%TD*%
%TA.AperFunction,SMDPad,CuDef*%
%ADD16RoundRect,0.225000X-0.250000X0.225000X-0.250000X-0.225000X0.250000X-0.225000X0.250000X0.225000X0*%
%TD*%
%TA.AperFunction,SMDPad,CuDef*%
%ADD17RoundRect,0.225000X-0.225000X-0.250000X0.225000X-0.250000X0.225000X0.250000X-0.225000X0.250000X0*%
%TD*%
%TA.AperFunction,SMDPad,CuDef*%
%ADD18RoundRect,0.225000X0.250000X-0.225000X0.250000X0.225000X-0.250000X0.225000X-0.250000X-0.225000X0*%
%TD*%
%TA.AperFunction,ViaPad*%
%ADD19C,0.600000*%
%TD*%
%TA.AperFunction,Conductor*%
%ADD20C,0.400000*%
%TD*%
%TA.AperFunction,Conductor*%
%ADD21C,0.500000*%
%TD*%
%TA.AperFunction,Conductor*%
%ADD22C,0.200000*%
%TD*%
G04 APERTURE END LIST*
D10*
%TO.P,J1,1,1*%
%TO.N,Vref*%
X158825000Y-63882500D03*
D11*
%TO.P,J1,2,2*%
%TO.N,GND*%
X158825000Y-66382500D03*
%TD*%
D10*
%TO.P,J2,1,1*%
%TO.N,VCC*%
X150500000Y-63900000D03*
D11*
%TO.P,J2,2,2*%
%TO.N,GND*%
X150500000Y-66400000D03*
%TD*%
D12*
%TO.P,U1,4,mount*%
%TO.N,GND*%
X172900000Y-66500000D03*
%TO.P,U1,3,mount*%
X172900000Y-51500000D03*
%TO.P,U1,2*%
%TO.N,Net-(U2--IN)*%
X165300000Y-66500000D03*
D13*
%TO.P,U1,1*%
%TO.N,Net-(U2-+IN)*%
X165300000Y-51500000D03*
%TD*%
D14*
%TO.P,C4,1*%
%TO.N,VCC*%
X152575000Y-59900000D03*
%TO.P,C4,2*%
%TO.N,GND*%
X151025000Y-59900000D03*
%TD*%
D11*
%TO.P,J3,2,2*%
%TO.N,GND*%
X150425000Y-55975000D03*
D10*
%TO.P,J3,1,1*%
%TO.N,Vout*%
X150425000Y-53475000D03*
%TD*%
D15*
%TO.P,U2,8,+VS*%
%TO.N,VCC*%
X158250002Y-57700000D03*
%TO.P,U2,7,VOUT*%
%TO.N,Net-(U2-VOUT)*%
X158250002Y-57050002D03*
%TO.P,U2,6,REF*%
%TO.N,Vref*%
X158250002Y-56400000D03*
%TO.P,U2,5,-VS*%
%TO.N,GND*%
X158250002Y-55750002D03*
%TO.P,U2,4,+IN*%
%TO.N,Net-(U2-+IN)*%
X162680600Y-55750002D03*
%TO.P,U2,3,RG*%
%TO.N,Net-(R3-Pad1)*%
X162680600Y-56400000D03*
%TO.P,U2,2,RG*%
%TO.N,Net-(R3-Pad2)*%
X162680600Y-57050002D03*
%TO.P,U2,1,-IN*%
%TO.N,Net-(U2--IN)*%
X162680600Y-57700000D03*
%TD*%
D16*
%TO.P,C2,2*%
%TO.N,GND*%
X155650002Y-54000002D03*
%TO.P,C2,1*%
X155650002Y-52450002D03*
%TD*%
D17*
%TO.P,C1,2*%
%TO.N,VCC*%
X156775000Y-59100000D03*
%TO.P,C1,1*%
%TO.N,GND*%
X155225000Y-59100000D03*
%TD*%
%TO.P,C5,2*%
%TO.N,GND*%
X156325002Y-55850002D03*
%TO.P,C5,1*%
%TO.N,Vout*%
X154775002Y-55850002D03*
%TD*%
D18*
%TO.P,C3,2*%
%TO.N,GND*%
X157250002Y-52450002D03*
%TO.P,C3,1*%
X157250002Y-54000002D03*
%TD*%
D14*
%TO.P,R1,2*%
%TO.N,Vref*%
X161125000Y-59600000D03*
%TO.P,R1,1*%
%TO.N,Net-(U2--IN)*%
X162675000Y-59600000D03*
%TD*%
%TO.P,R2,1*%
%TO.N,Net-(U2-+IN)*%
X161075000Y-54000000D03*
%TO.P,R2,2*%
%TO.N,Vref*%
X159525000Y-54000000D03*
%TD*%
D16*
%TO.P,R3,2*%
%TO.N,Net-(R3-Pad2)*%
X164580600Y-57525002D03*
%TO.P,R3,1*%
%TO.N,Net-(R3-Pad1)*%
X164580600Y-55975002D03*
%TD*%
D14*
%TO.P,R4,2*%
%TO.N,Vout*%
X154780600Y-57475003D03*
%TO.P,R4,1*%
%TO.N,Net-(U2-VOUT)*%
X156330600Y-57475003D03*
%TD*%
D19*
%TO.N,GND*%
X149900000Y-59900000D03*
X154100000Y-59300000D03*
X156450002Y-54850002D03*
X154850002Y-54750002D03*
X158050002Y-54750002D03*
X158050002Y-51650002D03*
X154850002Y-51650002D03*
%TD*%
D20*
%TO.N,Vref*%
X159500000Y-59600000D02*
X158825000Y-60275000D01*
X158825000Y-60275000D02*
X158825000Y-63882500D01*
D21*
%TO.N,VCC*%
X152575000Y-59900000D02*
X152575000Y-61825000D01*
X152575000Y-61825000D02*
X150500000Y-63900000D01*
D22*
%TO.N,Vout*%
X154775002Y-55850002D02*
X152800002Y-55850002D01*
X152800002Y-55850002D02*
X150425000Y-53475000D01*
D20*
%TO.N,Vref*%
X158825000Y-63882500D02*
X159000000Y-63707500D01*
D22*
%TO.N,GND*%
X151025000Y-59900000D02*
X149900000Y-59900000D01*
X155225000Y-59100000D02*
X154300000Y-59100000D01*
X154300000Y-59100000D02*
X154100000Y-59300000D01*
%TO.N,Net-(U2--IN)*%
X162675000Y-59600000D02*
X162675000Y-63875000D01*
X162675000Y-63875000D02*
X165300000Y-66500000D01*
X162680600Y-57700000D02*
X162680600Y-59594400D01*
X162680600Y-59594400D02*
X162675000Y-59600000D01*
%TO.N,Net-(U2-+IN)*%
X162680600Y-55750002D02*
X162680600Y-55605600D01*
X162680600Y-55605600D02*
X161075000Y-54000000D01*
X161075000Y-54000000D02*
X162800000Y-54000000D01*
X162800000Y-54000000D02*
X165300000Y-51500000D01*
D20*
%TO.N,Vref*%
X159500000Y-59600000D02*
X159500000Y-56400000D01*
X159500000Y-59600000D02*
X161125000Y-59600000D01*
X159500000Y-56400000D02*
X159500000Y-54025000D01*
X159500000Y-56400000D02*
X158250002Y-56400000D01*
X159500000Y-54025000D02*
X159525000Y-54000000D01*
D21*
%TO.N,VCC*%
X153900000Y-60200000D02*
X153600000Y-59900000D01*
X153600000Y-59900000D02*
X152575000Y-59900000D01*
X156775000Y-59100000D02*
X155675000Y-60200000D01*
X155675000Y-60200000D02*
X153900000Y-60200000D01*
D22*
X158250002Y-57700000D02*
X158175000Y-57700000D01*
D21*
X158175000Y-57700000D02*
X156775000Y-59100000D01*
D22*
%TO.N,GND*%
X156450002Y-54000002D02*
X155650002Y-54000002D01*
X158250002Y-55750002D02*
X158250002Y-54950002D01*
X156450002Y-54850002D02*
X156450002Y-55725002D01*
X156450002Y-55725002D02*
X156325002Y-55850002D01*
X157300002Y-54000002D02*
X158050002Y-54750002D01*
X155600002Y-54000002D02*
X154850002Y-54750002D01*
X155650002Y-52450002D02*
X154850002Y-51650002D01*
X157250002Y-52450002D02*
X158050002Y-51650002D01*
%TO.N,Vout*%
X154780600Y-57475003D02*
X154780600Y-55855600D01*
X154780600Y-55855600D02*
X154775002Y-55850002D01*
%TO.N,GND*%
X157250002Y-54000002D02*
X156450002Y-54000002D01*
%TO.N,Net-(R3-Pad2)*%
X164105600Y-57050002D02*
X164580600Y-57525002D01*
X162680600Y-57050002D02*
X164105600Y-57050002D01*
%TO.N,Net-(R3-Pad1)*%
X164155602Y-56400000D02*
X164580600Y-55975002D01*
X162680600Y-56400000D02*
X164155602Y-56400000D01*
%TO.N,Net-(U2-VOUT)*%
X158250002Y-57050002D02*
X156755601Y-57050002D01*
X156755601Y-57050002D02*
X156330600Y-57475003D01*
%TD*%
M02*
