%TF.GenerationSoftware,KiCad,Pcbnew,9.0.6*%
%TF.CreationDate,2026-02-24T18:18:20-08:00*%
%TF.ProjectId,CoilArrayBlock,436f696c-4172-4726-9179-426c6f636b2e,rev?*%
%TF.SameCoordinates,Original*%
%TF.FileFunction,Copper,L2,Bot*%
%TF.FilePolarity,Positive*%
%FSLAX46Y46*%
G04 Gerber Fmt 4.6, Leading zero omitted, Abs format (unit mm)*
G04 Created by KiCad (PCBNEW 9.0.6) date 2026-02-24 18:18:20*
%MOMM*%
%LPD*%
G01*
G04 APERTURE LIST*
%TA.AperFunction,ComponentPad*%
%ADD10R,1.575000X1.575000*%
%TD*%
%TA.AperFunction,ComponentPad*%
%ADD11C,1.575000*%
%TD*%
%TA.AperFunction,ComponentPad*%
%ADD12C,2.000000*%
%TD*%
%TA.AperFunction,ComponentPad*%
%ADD13R,2.000000X2.000000*%
%TD*%
%TA.AperFunction,ViaPad*%
%ADD14C,0.600000*%
%TD*%
G04 APERTURE END LIST*
D10*
%TO.P,J1,1,1*%
%TO.N,Vref*%
X158825000Y-63882500D03*
D11*
%TO.P,J1,2,2*%
%TO.N,GND*%
X158825000Y-66382500D03*
%TD*%
D10*
%TO.P,J2,1,1*%
%TO.N,VCC*%
X150500000Y-63900000D03*
D11*
%TO.P,J2,2,2*%
%TO.N,GND*%
X150500000Y-66400000D03*
%TD*%
D12*
%TO.P,U1,4,mount*%
%TO.N,GND*%
X172900000Y-66500000D03*
%TO.P,U1,3,mount*%
X172900000Y-51500000D03*
%TO.P,U1,2*%
%TO.N,Net-(U2--IN)*%
X165300000Y-66500000D03*
D13*
%TO.P,U1,1*%
%TO.N,Net-(U2-+IN)*%
X165300000Y-51500000D03*
%TD*%
D11*
%TO.P,J3,2,2*%
%TO.N,GND*%
X150425000Y-55975000D03*
D10*
%TO.P,J3,1,1*%
%TO.N,Vout*%
X150425000Y-53475000D03*
%TD*%
D14*
%TO.N,GND*%
X149900000Y-59900000D03*
X154100000Y-59300000D03*
X156450002Y-54850002D03*
X154850002Y-54750002D03*
X158050002Y-54750002D03*
X158050002Y-51650002D03*
X154850002Y-51650002D03*
%TD*%
%TA.AperFunction,Conductor*%
%TO.N,GND*%
G36*
X173219812Y-49214692D02*
G01*
X173219897Y-49214715D01*
X173281409Y-49214714D01*
X173290208Y-49215029D01*
X173490350Y-49229342D01*
X173507853Y-49231859D01*
X173699585Y-49273567D01*
X173716550Y-49278548D01*
X173900407Y-49347123D01*
X173916479Y-49354463D01*
X174088706Y-49448505D01*
X174103575Y-49458061D01*
X174249554Y-49567339D01*
X174260654Y-49575648D01*
X174274025Y-49587234D01*
X174412765Y-49725974D01*
X174424351Y-49739345D01*
X174541802Y-49896243D01*
X174541933Y-49896417D01*
X174551496Y-49911297D01*
X174603157Y-50005908D01*
X174645531Y-50083509D01*
X174652879Y-50099599D01*
X174668863Y-50142454D01*
X174721449Y-50283444D01*
X174726433Y-50300419D01*
X174768139Y-50492141D01*
X174770657Y-50509654D01*
X174784969Y-50709790D01*
X174785285Y-50718635D01*
X174785285Y-50787652D01*
X174785345Y-50788573D01*
X174799496Y-68495522D01*
X174799180Y-68504467D01*
X174784869Y-68704556D01*
X174782351Y-68722068D01*
X174740646Y-68913787D01*
X174735662Y-68930763D01*
X174667090Y-69114609D01*
X174659740Y-69130701D01*
X174565711Y-69302904D01*
X174556146Y-69317789D01*
X174438558Y-69474867D01*
X174426972Y-69488237D01*
X174288237Y-69626972D01*
X174274867Y-69638558D01*
X174117789Y-69756146D01*
X174102904Y-69765711D01*
X173930701Y-69859740D01*
X173914609Y-69867090D01*
X173730763Y-69935662D01*
X173713787Y-69940646D01*
X173522068Y-69982351D01*
X173504556Y-69984869D01*
X173304410Y-69999184D01*
X173295564Y-69999500D01*
X173226275Y-69999500D01*
X173226081Y-69999512D01*
X144618638Y-70004536D01*
X144609791Y-70004222D01*
X144407374Y-69989779D01*
X144389900Y-69987272D01*
X144195912Y-69945171D01*
X144178971Y-69940209D01*
X143992918Y-69870985D01*
X143976854Y-69863667D01*
X143802516Y-69768726D01*
X143787653Y-69759201D01*
X143628574Y-69640473D01*
X143615214Y-69628935D01*
X143474591Y-69488807D01*
X143463006Y-69475488D01*
X143343716Y-69316824D01*
X143334139Y-69301995D01*
X143238587Y-69127999D01*
X143231213Y-69111960D01*
X143161334Y-68926152D01*
X143156313Y-68909238D01*
X143113526Y-68715383D01*
X143110958Y-68697919D01*
X143101054Y-68565686D01*
X143095823Y-68495848D01*
X143095478Y-68486551D01*
X143098542Y-63064635D01*
X149212000Y-63064635D01*
X149212000Y-64735370D01*
X149212001Y-64735376D01*
X149218408Y-64794983D01*
X149268702Y-64929828D01*
X149268706Y-64929835D01*
X149354952Y-65045044D01*
X149354955Y-65045047D01*
X149470164Y-65131293D01*
X149470171Y-65131297D01*
X149515118Y-65148061D01*
X149605017Y-65181591D01*
X149664627Y-65188000D01*
X149664637Y-65187999D01*
X149664638Y-65188000D01*
X149666666Y-65188109D01*
X149667111Y-65188266D01*
X149667929Y-65188354D01*
X149667908Y-65188547D01*
X149732555Y-65211356D01*
X149775416Y-65266536D01*
X149783642Y-65321660D01*
X149783027Y-65329473D01*
X150350178Y-65896624D01*
X150297358Y-65910778D01*
X150177643Y-65979896D01*
X150079896Y-66077643D01*
X150010778Y-66197358D01*
X149996624Y-66250178D01*
X149429473Y-65683027D01*
X149398830Y-65725204D01*
X149306826Y-65905771D01*
X149306825Y-65905774D01*
X149244203Y-66098508D01*
X149212500Y-66298672D01*
X149212500Y-66501327D01*
X149244203Y-66701491D01*
X149306825Y-66894225D01*
X149306827Y-66894228D01*
X149398831Y-67074797D01*
X149429473Y-67116971D01*
X149429474Y-67116972D01*
X149996624Y-66549821D01*
X150010778Y-66602642D01*
X150079896Y-66722357D01*
X150177643Y-66820104D01*
X150297358Y-66889222D01*
X150350178Y-66903375D01*
X149783026Y-67470525D01*
X149825202Y-67501168D01*
X150005771Y-67593172D01*
X150005774Y-67593174D01*
X150198508Y-67655796D01*
X150398673Y-67687500D01*
X150601327Y-67687500D01*
X150801491Y-67655796D01*
X150994225Y-67593174D01*
X150994228Y-67593172D01*
X151174797Y-67501168D01*
X151216971Y-67470526D01*
X151216971Y-67470525D01*
X150649821Y-66903375D01*
X150702642Y-66889222D01*
X150822357Y-66820104D01*
X150920104Y-66722357D01*
X150989222Y-66602642D01*
X151003375Y-66549821D01*
X151570525Y-67116971D01*
X151570526Y-67116971D01*
X151601168Y-67074797D01*
X151693172Y-66894228D01*
X151693174Y-66894225D01*
X151755796Y-66701491D01*
X151787500Y-66501327D01*
X151787500Y-66298675D01*
X151787028Y-66295695D01*
X151787028Y-66295693D01*
X151755796Y-66098508D01*
X151693174Y-65905774D01*
X151693172Y-65905771D01*
X151601168Y-65725202D01*
X151570525Y-65683027D01*
X151570525Y-65683026D01*
X151003375Y-66250177D01*
X150989222Y-66197358D01*
X150920104Y-66077643D01*
X150822357Y-65979896D01*
X150702642Y-65910778D01*
X150649822Y-65896624D01*
X151216972Y-65329474D01*
X151216357Y-65321659D01*
X151230721Y-65253282D01*
X151279773Y-65203525D01*
X151332083Y-65188472D01*
X151332071Y-65188354D01*
X151332748Y-65188281D01*
X151333354Y-65188107D01*
X151335372Y-65187999D01*
X151394983Y-65181591D01*
X151424433Y-65170607D01*
X151529831Y-65131296D01*
X151645046Y-65045046D01*
X151731296Y-64929831D01*
X151781591Y-64794983D01*
X151788000Y-64735373D01*
X151787999Y-63064628D01*
X151787955Y-63064226D01*
X151787187Y-63057063D01*
X151787186Y-63057060D01*
X151786119Y-63047135D01*
X157537000Y-63047135D01*
X157537000Y-64717870D01*
X157537001Y-64717876D01*
X157543408Y-64777483D01*
X157593702Y-64912328D01*
X157593706Y-64912335D01*
X157679952Y-65027544D01*
X157679955Y-65027547D01*
X157795164Y-65113793D01*
X157795171Y-65113797D01*
X157840118Y-65130561D01*
X157930017Y-65164091D01*
X157989627Y-65170500D01*
X157989637Y-65170499D01*
X157989638Y-65170500D01*
X157991666Y-65170609D01*
X157992111Y-65170766D01*
X157992929Y-65170854D01*
X157992908Y-65171047D01*
X158057555Y-65193856D01*
X158100416Y-65249036D01*
X158108642Y-65304160D01*
X158108027Y-65311973D01*
X158675178Y-65879124D01*
X158622358Y-65893278D01*
X158502643Y-65962396D01*
X158404896Y-66060143D01*
X158335778Y-66179858D01*
X158321624Y-66232678D01*
X157754473Y-65665527D01*
X157723830Y-65707704D01*
X157631826Y-65888271D01*
X157631825Y-65888274D01*
X157569203Y-66081008D01*
X157537500Y-66281172D01*
X157537500Y-66483827D01*
X157569203Y-66683991D01*
X157631825Y-66876725D01*
X157631827Y-66876728D01*
X157723831Y-67057297D01*
X157754473Y-67099471D01*
X157754474Y-67099472D01*
X158321624Y-66532321D01*
X158335778Y-66585142D01*
X158404896Y-66704857D01*
X158502643Y-66802604D01*
X158622358Y-66871722D01*
X158675178Y-66885875D01*
X158108026Y-67453025D01*
X158150202Y-67483668D01*
X158330771Y-67575672D01*
X158330774Y-67575674D01*
X158523508Y-67638296D01*
X158723673Y-67670000D01*
X158926327Y-67670000D01*
X159126491Y-67638296D01*
X159319225Y-67575674D01*
X159319228Y-67575672D01*
X159499797Y-67483668D01*
X159541971Y-67453026D01*
X159541971Y-67453025D01*
X158974821Y-66885875D01*
X159027642Y-66871722D01*
X159147357Y-66802604D01*
X159245104Y-66704857D01*
X159314222Y-66585142D01*
X159328375Y-66532321D01*
X159895525Y-67099471D01*
X159895526Y-67099471D01*
X159926168Y-67057297D01*
X160018172Y-66876728D01*
X160018174Y-66876725D01*
X160080796Y-66683991D01*
X160112500Y-66483827D01*
X160112500Y-66381902D01*
X163799500Y-66381902D01*
X163799500Y-66618097D01*
X163836446Y-66851368D01*
X163909433Y-67075996D01*
X163930312Y-67116972D01*
X164016657Y-67286433D01*
X164155483Y-67477510D01*
X164322490Y-67644517D01*
X164513567Y-67783343D01*
X164612991Y-67834002D01*
X164724003Y-67890566D01*
X164724005Y-67890566D01*
X164724008Y-67890568D01*
X164844412Y-67929689D01*
X164948631Y-67963553D01*
X165181903Y-68000500D01*
X165181908Y-68000500D01*
X165418097Y-68000500D01*
X165651368Y-67963553D01*
X165652870Y-67963065D01*
X165875992Y-67890568D01*
X166086433Y-67783343D01*
X166277510Y-67644517D01*
X166444517Y-67477510D01*
X166583343Y-67286433D01*
X166690568Y-67075992D01*
X166763553Y-66851368D01*
X166770579Y-66807007D01*
X166800500Y-66618097D01*
X166800500Y-66381947D01*
X171400000Y-66381947D01*
X171400000Y-66618052D01*
X171436934Y-66851247D01*
X171509897Y-67075802D01*
X171617087Y-67286174D01*
X171677338Y-67369104D01*
X171677340Y-67369105D01*
X172417037Y-66629408D01*
X172434075Y-66692993D01*
X172499901Y-66807007D01*
X172592993Y-66900099D01*
X172707007Y-66965925D01*
X172770590Y-66982962D01*
X172030893Y-67722658D01*
X172113828Y-67782914D01*
X172324197Y-67890102D01*
X172548752Y-67963065D01*
X172548751Y-67963065D01*
X172781948Y-68000000D01*
X173018052Y-68000000D01*
X173251247Y-67963065D01*
X173475802Y-67890102D01*
X173686163Y-67782918D01*
X173686169Y-67782914D01*
X173769104Y-67722658D01*
X173769105Y-67722658D01*
X173029408Y-66982962D01*
X173092993Y-66965925D01*
X173207007Y-66900099D01*
X173300099Y-66807007D01*
X173365925Y-66692993D01*
X173382962Y-66629409D01*
X174122658Y-67369105D01*
X174122658Y-67369104D01*
X174182914Y-67286169D01*
X174182918Y-67286163D01*
X174290102Y-67075802D01*
X174363065Y-66851247D01*
X174400000Y-66618052D01*
X174400000Y-66381947D01*
X174363065Y-66148752D01*
X174290102Y-65924197D01*
X174182914Y-65713828D01*
X174122658Y-65630894D01*
X174122658Y-65630893D01*
X173382962Y-66370590D01*
X173365925Y-66307007D01*
X173300099Y-66192993D01*
X173207007Y-66099901D01*
X173092993Y-66034075D01*
X173029409Y-66017037D01*
X173769105Y-65277340D01*
X173769104Y-65277338D01*
X173686174Y-65217087D01*
X173475802Y-65109897D01*
X173251247Y-65036934D01*
X173251248Y-65036934D01*
X173018052Y-65000000D01*
X172781948Y-65000000D01*
X172548752Y-65036934D01*
X172324197Y-65109897D01*
X172113830Y-65217084D01*
X172030894Y-65277340D01*
X172770591Y-66017037D01*
X172707007Y-66034075D01*
X172592993Y-66099901D01*
X172499901Y-66192993D01*
X172434075Y-66307007D01*
X172417037Y-66370591D01*
X171677340Y-65630894D01*
X171617084Y-65713830D01*
X171509897Y-65924197D01*
X171436934Y-66148752D01*
X171400000Y-66381947D01*
X166800500Y-66381947D01*
X166800500Y-66381902D01*
X166763553Y-66148631D01*
X166726331Y-66034075D01*
X166690568Y-65924008D01*
X166690566Y-65924005D01*
X166690566Y-65924003D01*
X166583477Y-65713830D01*
X166583343Y-65713567D01*
X166444517Y-65522490D01*
X166277510Y-65355483D01*
X166086433Y-65216657D01*
X166060660Y-65203525D01*
X165875996Y-65109433D01*
X165651368Y-65036446D01*
X165418097Y-64999500D01*
X165418092Y-64999500D01*
X165181908Y-64999500D01*
X165181903Y-64999500D01*
X164948631Y-65036446D01*
X164724003Y-65109433D01*
X164513566Y-65216657D01*
X164430047Y-65277338D01*
X164322490Y-65355483D01*
X164322488Y-65355485D01*
X164322487Y-65355485D01*
X164155485Y-65522487D01*
X164155485Y-65522488D01*
X164155483Y-65522490D01*
X164095862Y-65604550D01*
X164016657Y-65713566D01*
X163909433Y-65924003D01*
X163836446Y-66148631D01*
X163799500Y-66381902D01*
X160112500Y-66381902D01*
X160112500Y-66281172D01*
X160080796Y-66081008D01*
X160018174Y-65888274D01*
X160018172Y-65888271D01*
X159926168Y-65707702D01*
X159895525Y-65665527D01*
X159895525Y-65665526D01*
X159328375Y-66232677D01*
X159314222Y-66179858D01*
X159245104Y-66060143D01*
X159147357Y-65962396D01*
X159027642Y-65893278D01*
X158974822Y-65879124D01*
X159541972Y-65311974D01*
X159541357Y-65304159D01*
X159555721Y-65235782D01*
X159604773Y-65186025D01*
X159657083Y-65170972D01*
X159657071Y-65170854D01*
X159657748Y-65170781D01*
X159658354Y-65170607D01*
X159660372Y-65170499D01*
X159719983Y-65164091D01*
X159854828Y-65113797D01*
X159854827Y-65113797D01*
X159854831Y-65113796D01*
X159970046Y-65027546D01*
X160056296Y-64912331D01*
X160106591Y-64777483D01*
X160113000Y-64717873D01*
X160112999Y-63047128D01*
X160106591Y-62987517D01*
X160056296Y-62852669D01*
X160056295Y-62852668D01*
X160056293Y-62852664D01*
X159970047Y-62737455D01*
X159970044Y-62737452D01*
X159854835Y-62651206D01*
X159854828Y-62651202D01*
X159719982Y-62600908D01*
X159719983Y-62600908D01*
X159660383Y-62594501D01*
X159660381Y-62594500D01*
X159660373Y-62594500D01*
X159660364Y-62594500D01*
X157989629Y-62594500D01*
X157989623Y-62594501D01*
X157930016Y-62600908D01*
X157795171Y-62651202D01*
X157795164Y-62651206D01*
X157679955Y-62737452D01*
X157679952Y-62737455D01*
X157593706Y-62852664D01*
X157593702Y-62852671D01*
X157543408Y-62987517D01*
X157541527Y-63005017D01*
X157537001Y-63047123D01*
X157537000Y-63047135D01*
X151786119Y-63047135D01*
X151781591Y-63005016D01*
X151731297Y-62870171D01*
X151731293Y-62870164D01*
X151645047Y-62754955D01*
X151645044Y-62754952D01*
X151529835Y-62668706D01*
X151529828Y-62668702D01*
X151394982Y-62618408D01*
X151394983Y-62618408D01*
X151335383Y-62612001D01*
X151335381Y-62612000D01*
X151335373Y-62612000D01*
X151335364Y-62612000D01*
X149664629Y-62612000D01*
X149664623Y-62612001D01*
X149605016Y-62618408D01*
X149470171Y-62668702D01*
X149470164Y-62668706D01*
X149354955Y-62754952D01*
X149354952Y-62754955D01*
X149268706Y-62870164D01*
X149268702Y-62870171D01*
X149218408Y-63005017D01*
X149212001Y-63064616D01*
X149212000Y-63064635D01*
X143098542Y-63064635D01*
X143098808Y-62594500D01*
X143101970Y-56998196D01*
X143102608Y-55868730D01*
X143103232Y-54763281D01*
X143104432Y-52639635D01*
X149137000Y-52639635D01*
X149137000Y-54310370D01*
X149137001Y-54310376D01*
X149143408Y-54369983D01*
X149193702Y-54504828D01*
X149193706Y-54504835D01*
X149279952Y-54620044D01*
X149279955Y-54620047D01*
X149395164Y-54706293D01*
X149395171Y-54706297D01*
X149440118Y-54723061D01*
X149530017Y-54756591D01*
X149589627Y-54763000D01*
X149589637Y-54762999D01*
X149589638Y-54763000D01*
X149591666Y-54763109D01*
X149592111Y-54763266D01*
X149592929Y-54763354D01*
X149592908Y-54763547D01*
X149657555Y-54786356D01*
X149700416Y-54841536D01*
X149708642Y-54896660D01*
X149708027Y-54904473D01*
X150275178Y-55471624D01*
X150222358Y-55485778D01*
X150102643Y-55554896D01*
X150004896Y-55652643D01*
X149935778Y-55772358D01*
X149921624Y-55825178D01*
X149354473Y-55258027D01*
X149323830Y-55300204D01*
X149231826Y-55480771D01*
X149231825Y-55480774D01*
X149169203Y-55673508D01*
X149137500Y-55873672D01*
X149137500Y-56076327D01*
X149169203Y-56276491D01*
X149231825Y-56469225D01*
X149231827Y-56469228D01*
X149323831Y-56649797D01*
X149354473Y-56691971D01*
X149354474Y-56691972D01*
X149921624Y-56124821D01*
X149935778Y-56177642D01*
X150004896Y-56297357D01*
X150102643Y-56395104D01*
X150222358Y-56464222D01*
X150275178Y-56478375D01*
X149708026Y-57045525D01*
X149750202Y-57076168D01*
X149930771Y-57168172D01*
X149930774Y-57168174D01*
X150123508Y-57230796D01*
X150323673Y-57262500D01*
X150526327Y-57262500D01*
X150726491Y-57230796D01*
X150919225Y-57168174D01*
X150919228Y-57168172D01*
X151099797Y-57076168D01*
X151141971Y-57045526D01*
X151141971Y-57045525D01*
X150574821Y-56478375D01*
X150627642Y-56464222D01*
X150747357Y-56395104D01*
X150845104Y-56297357D01*
X150914222Y-56177642D01*
X150928375Y-56124821D01*
X151495525Y-56691971D01*
X151495526Y-56691971D01*
X151526168Y-56649797D01*
X151618172Y-56469228D01*
X151618174Y-56469225D01*
X151680796Y-56276491D01*
X151712500Y-56076327D01*
X151712500Y-55873672D01*
X151680796Y-55673508D01*
X151618174Y-55480774D01*
X151618172Y-55480771D01*
X151526168Y-55300202D01*
X151495525Y-55258027D01*
X151495525Y-55258026D01*
X150928375Y-55825177D01*
X150914222Y-55772358D01*
X150845104Y-55652643D01*
X150747357Y-55554896D01*
X150627642Y-55485778D01*
X150574822Y-55471624D01*
X151141972Y-54904474D01*
X151141357Y-54896659D01*
X151155721Y-54828282D01*
X151204773Y-54778525D01*
X151257083Y-54763472D01*
X151257071Y-54763354D01*
X151257748Y-54763281D01*
X151258354Y-54763107D01*
X151260372Y-54762999D01*
X151319983Y-54756591D01*
X151454828Y-54706297D01*
X151454827Y-54706297D01*
X151454831Y-54706296D01*
X151570046Y-54620046D01*
X151656296Y-54504831D01*
X151706591Y-54369983D01*
X151713000Y-54310373D01*
X151712999Y-52639628D01*
X151706591Y-52580017D01*
X151694603Y-52547876D01*
X151656297Y-52445171D01*
X151656293Y-52445164D01*
X151570047Y-52329955D01*
X151570044Y-52329952D01*
X151454835Y-52243706D01*
X151454828Y-52243702D01*
X151319982Y-52193408D01*
X151319983Y-52193408D01*
X151260383Y-52187001D01*
X151260381Y-52187000D01*
X151260373Y-52187000D01*
X151260364Y-52187000D01*
X149589629Y-52187000D01*
X149589623Y-52187001D01*
X149530016Y-52193408D01*
X149395171Y-52243702D01*
X149395164Y-52243706D01*
X149279955Y-52329952D01*
X149279952Y-52329955D01*
X149193706Y-52445164D01*
X149193702Y-52445171D01*
X149143408Y-52580017D01*
X149137001Y-52639616D01*
X149137001Y-52639623D01*
X149137000Y-52639635D01*
X143104432Y-52639635D01*
X143105519Y-50716058D01*
X143105911Y-50706282D01*
X143121929Y-50505297D01*
X143124566Y-50487913D01*
X143132625Y-50452135D01*
X163799500Y-50452135D01*
X163799500Y-52547870D01*
X163799501Y-52547876D01*
X163805908Y-52607483D01*
X163856202Y-52742328D01*
X163856206Y-52742335D01*
X163942452Y-52857544D01*
X163942455Y-52857547D01*
X164057664Y-52943793D01*
X164057671Y-52943797D01*
X164192517Y-52994091D01*
X164192516Y-52994091D01*
X164199444Y-52994835D01*
X164252127Y-53000500D01*
X166347872Y-53000499D01*
X166407483Y-52994091D01*
X166542331Y-52943796D01*
X166657546Y-52857546D01*
X166743796Y-52742331D01*
X166794091Y-52607483D01*
X166800500Y-52547873D01*
X166800499Y-51381947D01*
X171400000Y-51381947D01*
X171400000Y-51618052D01*
X171436934Y-51851247D01*
X171509897Y-52075802D01*
X171617087Y-52286174D01*
X171677338Y-52369104D01*
X171677340Y-52369105D01*
X172417037Y-51629408D01*
X172434075Y-51692993D01*
X172499901Y-51807007D01*
X172592993Y-51900099D01*
X172707007Y-51965925D01*
X172770590Y-51982962D01*
X172030893Y-52722658D01*
X172113828Y-52782914D01*
X172324197Y-52890102D01*
X172548752Y-52963065D01*
X172548751Y-52963065D01*
X172781948Y-53000000D01*
X173018052Y-53000000D01*
X173251247Y-52963065D01*
X173475802Y-52890102D01*
X173686163Y-52782918D01*
X173686169Y-52782914D01*
X173769104Y-52722658D01*
X173769105Y-52722658D01*
X173029408Y-51982962D01*
X173092993Y-51965925D01*
X173207007Y-51900099D01*
X173300099Y-51807007D01*
X173365925Y-51692993D01*
X173382962Y-51629409D01*
X174122658Y-52369105D01*
X174122658Y-52369104D01*
X174182914Y-52286169D01*
X174182918Y-52286163D01*
X174290102Y-52075802D01*
X174363065Y-51851247D01*
X174400000Y-51618052D01*
X174400000Y-51381947D01*
X174363065Y-51148752D01*
X174290102Y-50924197D01*
X174182914Y-50713828D01*
X174122658Y-50630894D01*
X174122658Y-50630893D01*
X173382962Y-51370590D01*
X173365925Y-51307007D01*
X173300099Y-51192993D01*
X173207007Y-51099901D01*
X173092993Y-51034075D01*
X173029409Y-51017037D01*
X173769105Y-50277340D01*
X173769104Y-50277338D01*
X173686174Y-50217087D01*
X173475802Y-50109897D01*
X173251247Y-50036934D01*
X173251248Y-50036934D01*
X173018052Y-50000000D01*
X172781948Y-50000000D01*
X172548752Y-50036934D01*
X172324197Y-50109897D01*
X172113830Y-50217084D01*
X172030894Y-50277340D01*
X172770591Y-51017037D01*
X172707007Y-51034075D01*
X172592993Y-51099901D01*
X172499901Y-51192993D01*
X172434075Y-51307007D01*
X172417037Y-51370591D01*
X171677340Y-50630894D01*
X171617084Y-50713830D01*
X171509897Y-50924197D01*
X171436934Y-51148752D01*
X171400000Y-51381947D01*
X166800499Y-51381947D01*
X166800499Y-50452128D01*
X166794091Y-50392517D01*
X166794090Y-50392514D01*
X166784922Y-50367931D01*
X166743797Y-50257671D01*
X166743793Y-50257664D01*
X166657547Y-50142455D01*
X166657544Y-50142452D01*
X166542335Y-50056206D01*
X166542328Y-50056202D01*
X166407482Y-50005908D01*
X166407483Y-50005908D01*
X166347883Y-49999501D01*
X166347881Y-49999500D01*
X166347873Y-49999500D01*
X166347864Y-49999500D01*
X164252129Y-49999500D01*
X164252123Y-49999501D01*
X164192516Y-50005908D01*
X164057671Y-50056202D01*
X164057664Y-50056206D01*
X163942455Y-50142452D01*
X163942452Y-50142455D01*
X163856206Y-50257664D01*
X163856202Y-50257671D01*
X163805908Y-50392517D01*
X163799501Y-50452116D01*
X163799501Y-50452123D01*
X163799500Y-50452135D01*
X143132625Y-50452135D01*
X143168055Y-50294845D01*
X143173125Y-50278015D01*
X143243505Y-50093042D01*
X143250907Y-50077098D01*
X143346757Y-49903958D01*
X143356350Y-49889208D01*
X143475735Y-49731388D01*
X143487312Y-49718150D01*
X143627849Y-49578803D01*
X143641185Y-49567339D01*
X143800018Y-49449296D01*
X143814838Y-49439835D01*
X143988797Y-49345454D01*
X144004798Y-49338191D01*
X144190364Y-49269384D01*
X144207246Y-49264456D01*
X144400664Y-49222612D01*
X144418080Y-49220122D01*
X144619862Y-49205765D01*
X144628676Y-49205453D01*
X173219812Y-49214692D01*
G37*
%TD.AperFunction*%
%TD*%
M02*
