%TF.GenerationSoftware,KiCad,Pcbnew,8.0.3*%
%TF.CreationDate,2026-01-26T23:04:18-08:00*%
%TF.ProjectId,Transmit-Receive-PCB,5472616e-736d-4697-942d-526563656976,rev?*%
%TF.SameCoordinates,Original*%
%TF.FileFunction,Legend,Top*%
%TF.FilePolarity,Positive*%
%FSLAX46Y46*%
G04 Gerber Fmt 4.6, Leading zero omitted, Abs format (unit mm)*
G04 Created by KiCad (PCBNEW 8.0.3) date 2026-01-26 23:04:18*
%MOMM*%
%LPD*%
G01*
G04 APERTURE LIST*
G04 Aperture macros list*
%AMRoundRect*
0 Rectangle with rounded corners*
0 $1 Rounding radius*
0 $2 $3 $4 $5 $6 $7 $8 $9 X,Y pos of 4 corners*
0 Add a 4 corners polygon primitive as box body*
4,1,4,$2,$3,$4,$5,$6,$7,$8,$9,$2,$3,0*
0 Add four circle primitives for the rounded corners*
1,1,$1+$1,$2,$3*
1,1,$1+$1,$4,$5*
1,1,$1+$1,$6,$7*
1,1,$1+$1,$8,$9*
0 Add four rect primitives between the rounded corners*
20,1,$1+$1,$2,$3,$4,$5,0*
20,1,$1+$1,$4,$5,$6,$7,0*
20,1,$1+$1,$6,$7,$8,$9,0*
20,1,$1+$1,$8,$9,$2,$3,0*%
G04 Aperture macros list end*
%ADD10C,0.100000*%
%ADD11C,0.150000*%
%ADD12C,0.120000*%
%ADD13C,0.127000*%
%ADD14C,0.200000*%
%ADD15C,0.152400*%
%ADD16C,0.010000*%
%ADD17RoundRect,0.250000X-0.475000X0.337500X-0.475000X-0.337500X0.475000X-0.337500X0.475000X0.337500X0*%
%ADD18RoundRect,0.250000X0.350000X0.450000X-0.350000X0.450000X-0.350000X-0.450000X0.350000X-0.450000X0*%
%ADD19RoundRect,0.102000X-0.750000X-0.450000X0.750000X-0.450000X0.750000X0.450000X-0.750000X0.450000X0*%
%ADD20RoundRect,0.102000X-0.450000X-0.750000X0.450000X-0.750000X0.450000X0.750000X-0.450000X0.750000X0*%
%ADD21RoundRect,0.102000X-0.450000X-0.450000X0.450000X-0.450000X0.450000X0.450000X-0.450000X0.450000X0*%
%ADD22C,1.200000*%
%ADD23RoundRect,0.250000X-0.600000X-0.725000X0.600000X-0.725000X0.600000X0.725000X-0.600000X0.725000X0*%
%ADD24O,1.700000X1.950000*%
%ADD25RoundRect,0.102000X-0.675000X0.200000X-0.675000X-0.200000X0.675000X-0.200000X0.675000X0.200000X0*%
%ADD26RoundRect,0.102000X-0.775000X0.750000X-0.775000X-0.750000X0.775000X-0.750000X0.775000X0.750000X0*%
%ADD27O,1.154000X1.504000*%
%ADD28C,4.400000*%
%ADD29R,1.111200X0.600800*%
%ADD30RoundRect,0.250000X0.475000X-0.337500X0.475000X0.337500X-0.475000X0.337500X-0.475000X-0.337500X0*%
%ADD31RoundRect,0.250000X-0.350000X-0.450000X0.350000X-0.450000X0.350000X0.450000X-0.350000X0.450000X0*%
%ADD32RoundRect,0.250000X0.750000X-0.600000X0.750000X0.600000X-0.750000X0.600000X-0.750000X-0.600000X0*%
%ADD33O,2.000000X1.700000*%
G04 APERTURE END LIST*
D10*
X132003884Y-105672419D02*
X132003884Y-104672419D01*
X132003884Y-104672419D02*
X132337217Y-105386704D01*
X132337217Y-105386704D02*
X132670550Y-104672419D01*
X132670550Y-104672419D02*
X132670550Y-105672419D01*
X133146741Y-105672419D02*
X133146741Y-104672419D01*
X133575312Y-105624800D02*
X133718169Y-105672419D01*
X133718169Y-105672419D02*
X133956264Y-105672419D01*
X133956264Y-105672419D02*
X134051502Y-105624800D01*
X134051502Y-105624800D02*
X134099121Y-105577180D01*
X134099121Y-105577180D02*
X134146740Y-105481942D01*
X134146740Y-105481942D02*
X134146740Y-105386704D01*
X134146740Y-105386704D02*
X134099121Y-105291466D01*
X134099121Y-105291466D02*
X134051502Y-105243847D01*
X134051502Y-105243847D02*
X133956264Y-105196228D01*
X133956264Y-105196228D02*
X133765788Y-105148609D01*
X133765788Y-105148609D02*
X133670550Y-105100990D01*
X133670550Y-105100990D02*
X133622931Y-105053371D01*
X133622931Y-105053371D02*
X133575312Y-104958133D01*
X133575312Y-104958133D02*
X133575312Y-104862895D01*
X133575312Y-104862895D02*
X133622931Y-104767657D01*
X133622931Y-104767657D02*
X133670550Y-104720038D01*
X133670550Y-104720038D02*
X133765788Y-104672419D01*
X133765788Y-104672419D02*
X134003883Y-104672419D01*
X134003883Y-104672419D02*
X134146740Y-104720038D01*
X134765788Y-104672419D02*
X134956264Y-104672419D01*
X134956264Y-104672419D02*
X135051502Y-104720038D01*
X135051502Y-104720038D02*
X135146740Y-104815276D01*
X135146740Y-104815276D02*
X135194359Y-105005752D01*
X135194359Y-105005752D02*
X135194359Y-105339085D01*
X135194359Y-105339085D02*
X135146740Y-105529561D01*
X135146740Y-105529561D02*
X135051502Y-105624800D01*
X135051502Y-105624800D02*
X134956264Y-105672419D01*
X134956264Y-105672419D02*
X134765788Y-105672419D01*
X134765788Y-105672419D02*
X134670550Y-105624800D01*
X134670550Y-105624800D02*
X134575312Y-105529561D01*
X134575312Y-105529561D02*
X134527693Y-105339085D01*
X134527693Y-105339085D02*
X134527693Y-105005752D01*
X134527693Y-105005752D02*
X134575312Y-104815276D01*
X134575312Y-104815276D02*
X134670550Y-104720038D01*
X134670550Y-104720038D02*
X134765788Y-104672419D01*
X110008646Y-85172419D02*
X110627693Y-85172419D01*
X110627693Y-85172419D02*
X110294360Y-85553371D01*
X110294360Y-85553371D02*
X110437217Y-85553371D01*
X110437217Y-85553371D02*
X110532455Y-85600990D01*
X110532455Y-85600990D02*
X110580074Y-85648609D01*
X110580074Y-85648609D02*
X110627693Y-85743847D01*
X110627693Y-85743847D02*
X110627693Y-85981942D01*
X110627693Y-85981942D02*
X110580074Y-86077180D01*
X110580074Y-86077180D02*
X110532455Y-86124800D01*
X110532455Y-86124800D02*
X110437217Y-86172419D01*
X110437217Y-86172419D02*
X110151503Y-86172419D01*
X110151503Y-86172419D02*
X110056265Y-86124800D01*
X110056265Y-86124800D02*
X110008646Y-86077180D01*
X110913408Y-85172419D02*
X111246741Y-86172419D01*
X111246741Y-86172419D02*
X111580074Y-85172419D01*
X111818170Y-85172419D02*
X112437217Y-85172419D01*
X112437217Y-85172419D02*
X112103884Y-85553371D01*
X112103884Y-85553371D02*
X112246741Y-85553371D01*
X112246741Y-85553371D02*
X112341979Y-85600990D01*
X112341979Y-85600990D02*
X112389598Y-85648609D01*
X112389598Y-85648609D02*
X112437217Y-85743847D01*
X112437217Y-85743847D02*
X112437217Y-85981942D01*
X112437217Y-85981942D02*
X112389598Y-86077180D01*
X112389598Y-86077180D02*
X112341979Y-86124800D01*
X112341979Y-86124800D02*
X112246741Y-86172419D01*
X112246741Y-86172419D02*
X111961027Y-86172419D01*
X111961027Y-86172419D02*
X111865789Y-86124800D01*
X111865789Y-86124800D02*
X111818170Y-86077180D01*
X128103884Y-105672419D02*
X128103884Y-104672419D01*
X128103884Y-104672419D02*
X128437217Y-105386704D01*
X128437217Y-105386704D02*
X128770550Y-104672419D01*
X128770550Y-104672419D02*
X128770550Y-105672419D01*
X129437217Y-104672419D02*
X129627693Y-104672419D01*
X129627693Y-104672419D02*
X129722931Y-104720038D01*
X129722931Y-104720038D02*
X129818169Y-104815276D01*
X129818169Y-104815276D02*
X129865788Y-105005752D01*
X129865788Y-105005752D02*
X129865788Y-105339085D01*
X129865788Y-105339085D02*
X129818169Y-105529561D01*
X129818169Y-105529561D02*
X129722931Y-105624800D01*
X129722931Y-105624800D02*
X129627693Y-105672419D01*
X129627693Y-105672419D02*
X129437217Y-105672419D01*
X129437217Y-105672419D02*
X129341979Y-105624800D01*
X129341979Y-105624800D02*
X129246741Y-105529561D01*
X129246741Y-105529561D02*
X129199122Y-105339085D01*
X129199122Y-105339085D02*
X129199122Y-105005752D01*
X129199122Y-105005752D02*
X129246741Y-104815276D01*
X129246741Y-104815276D02*
X129341979Y-104720038D01*
X129341979Y-104720038D02*
X129437217Y-104672419D01*
X130246741Y-105624800D02*
X130389598Y-105672419D01*
X130389598Y-105672419D02*
X130627693Y-105672419D01*
X130627693Y-105672419D02*
X130722931Y-105624800D01*
X130722931Y-105624800D02*
X130770550Y-105577180D01*
X130770550Y-105577180D02*
X130818169Y-105481942D01*
X130818169Y-105481942D02*
X130818169Y-105386704D01*
X130818169Y-105386704D02*
X130770550Y-105291466D01*
X130770550Y-105291466D02*
X130722931Y-105243847D01*
X130722931Y-105243847D02*
X130627693Y-105196228D01*
X130627693Y-105196228D02*
X130437217Y-105148609D01*
X130437217Y-105148609D02*
X130341979Y-105100990D01*
X130341979Y-105100990D02*
X130294360Y-105053371D01*
X130294360Y-105053371D02*
X130246741Y-104958133D01*
X130246741Y-104958133D02*
X130246741Y-104862895D01*
X130246741Y-104862895D02*
X130294360Y-104767657D01*
X130294360Y-104767657D02*
X130341979Y-104720038D01*
X130341979Y-104720038D02*
X130437217Y-104672419D01*
X130437217Y-104672419D02*
X130675312Y-104672419D01*
X130675312Y-104672419D02*
X130818169Y-104720038D01*
X131246741Y-105672419D02*
X131246741Y-104672419D01*
X122056265Y-105624800D02*
X122199122Y-105672419D01*
X122199122Y-105672419D02*
X122437217Y-105672419D01*
X122437217Y-105672419D02*
X122532455Y-105624800D01*
X122532455Y-105624800D02*
X122580074Y-105577180D01*
X122580074Y-105577180D02*
X122627693Y-105481942D01*
X122627693Y-105481942D02*
X122627693Y-105386704D01*
X122627693Y-105386704D02*
X122580074Y-105291466D01*
X122580074Y-105291466D02*
X122532455Y-105243847D01*
X122532455Y-105243847D02*
X122437217Y-105196228D01*
X122437217Y-105196228D02*
X122246741Y-105148609D01*
X122246741Y-105148609D02*
X122151503Y-105100990D01*
X122151503Y-105100990D02*
X122103884Y-105053371D01*
X122103884Y-105053371D02*
X122056265Y-104958133D01*
X122056265Y-104958133D02*
X122056265Y-104862895D01*
X122056265Y-104862895D02*
X122103884Y-104767657D01*
X122103884Y-104767657D02*
X122151503Y-104720038D01*
X122151503Y-104720038D02*
X122246741Y-104672419D01*
X122246741Y-104672419D02*
X122484836Y-104672419D01*
X122484836Y-104672419D02*
X122627693Y-104720038D01*
X123627693Y-105577180D02*
X123580074Y-105624800D01*
X123580074Y-105624800D02*
X123437217Y-105672419D01*
X123437217Y-105672419D02*
X123341979Y-105672419D01*
X123341979Y-105672419D02*
X123199122Y-105624800D01*
X123199122Y-105624800D02*
X123103884Y-105529561D01*
X123103884Y-105529561D02*
X123056265Y-105434323D01*
X123056265Y-105434323D02*
X123008646Y-105243847D01*
X123008646Y-105243847D02*
X123008646Y-105100990D01*
X123008646Y-105100990D02*
X123056265Y-104910514D01*
X123056265Y-104910514D02*
X123103884Y-104815276D01*
X123103884Y-104815276D02*
X123199122Y-104720038D01*
X123199122Y-104720038D02*
X123341979Y-104672419D01*
X123341979Y-104672419D02*
X123437217Y-104672419D01*
X123437217Y-104672419D02*
X123580074Y-104720038D01*
X123580074Y-104720038D02*
X123627693Y-104767657D01*
X124056265Y-105672419D02*
X124056265Y-104672419D01*
X124627693Y-105672419D02*
X124199122Y-105100990D01*
X124627693Y-104672419D02*
X124056265Y-105243847D01*
X111127693Y-75220038D02*
X111032455Y-75172419D01*
X111032455Y-75172419D02*
X110889598Y-75172419D01*
X110889598Y-75172419D02*
X110746741Y-75220038D01*
X110746741Y-75220038D02*
X110651503Y-75315276D01*
X110651503Y-75315276D02*
X110603884Y-75410514D01*
X110603884Y-75410514D02*
X110556265Y-75600990D01*
X110556265Y-75600990D02*
X110556265Y-75743847D01*
X110556265Y-75743847D02*
X110603884Y-75934323D01*
X110603884Y-75934323D02*
X110651503Y-76029561D01*
X110651503Y-76029561D02*
X110746741Y-76124800D01*
X110746741Y-76124800D02*
X110889598Y-76172419D01*
X110889598Y-76172419D02*
X110984836Y-76172419D01*
X110984836Y-76172419D02*
X111127693Y-76124800D01*
X111127693Y-76124800D02*
X111175312Y-76077180D01*
X111175312Y-76077180D02*
X111175312Y-75743847D01*
X111175312Y-75743847D02*
X110984836Y-75743847D01*
X111603884Y-75505752D02*
X111603884Y-76172419D01*
X111603884Y-75600990D02*
X111651503Y-75553371D01*
X111651503Y-75553371D02*
X111746741Y-75505752D01*
X111746741Y-75505752D02*
X111889598Y-75505752D01*
X111889598Y-75505752D02*
X111984836Y-75553371D01*
X111984836Y-75553371D02*
X112032455Y-75648609D01*
X112032455Y-75648609D02*
X112032455Y-76172419D01*
X112937217Y-76172419D02*
X112937217Y-75172419D01*
X112937217Y-76124800D02*
X112841979Y-76172419D01*
X112841979Y-76172419D02*
X112651503Y-76172419D01*
X112651503Y-76172419D02*
X112556265Y-76124800D01*
X112556265Y-76124800D02*
X112508646Y-76077180D01*
X112508646Y-76077180D02*
X112461027Y-75981942D01*
X112461027Y-75981942D02*
X112461027Y-75696228D01*
X112461027Y-75696228D02*
X112508646Y-75600990D01*
X112508646Y-75600990D02*
X112556265Y-75553371D01*
X112556265Y-75553371D02*
X112651503Y-75505752D01*
X112651503Y-75505752D02*
X112841979Y-75505752D01*
X112841979Y-75505752D02*
X112937217Y-75553371D01*
X126175312Y-105577180D02*
X126127693Y-105624800D01*
X126127693Y-105624800D02*
X125984836Y-105672419D01*
X125984836Y-105672419D02*
X125889598Y-105672419D01*
X125889598Y-105672419D02*
X125746741Y-105624800D01*
X125746741Y-105624800D02*
X125651503Y-105529561D01*
X125651503Y-105529561D02*
X125603884Y-105434323D01*
X125603884Y-105434323D02*
X125556265Y-105243847D01*
X125556265Y-105243847D02*
X125556265Y-105100990D01*
X125556265Y-105100990D02*
X125603884Y-104910514D01*
X125603884Y-104910514D02*
X125651503Y-104815276D01*
X125651503Y-104815276D02*
X125746741Y-104720038D01*
X125746741Y-104720038D02*
X125889598Y-104672419D01*
X125889598Y-104672419D02*
X125984836Y-104672419D01*
X125984836Y-104672419D02*
X126127693Y-104720038D01*
X126127693Y-104720038D02*
X126175312Y-104767657D01*
X126556265Y-105624800D02*
X126699122Y-105672419D01*
X126699122Y-105672419D02*
X126937217Y-105672419D01*
X126937217Y-105672419D02*
X127032455Y-105624800D01*
X127032455Y-105624800D02*
X127080074Y-105577180D01*
X127080074Y-105577180D02*
X127127693Y-105481942D01*
X127127693Y-105481942D02*
X127127693Y-105386704D01*
X127127693Y-105386704D02*
X127080074Y-105291466D01*
X127080074Y-105291466D02*
X127032455Y-105243847D01*
X127032455Y-105243847D02*
X126937217Y-105196228D01*
X126937217Y-105196228D02*
X126746741Y-105148609D01*
X126746741Y-105148609D02*
X126651503Y-105100990D01*
X126651503Y-105100990D02*
X126603884Y-105053371D01*
X126603884Y-105053371D02*
X126556265Y-104958133D01*
X126556265Y-104958133D02*
X126556265Y-104862895D01*
X126556265Y-104862895D02*
X126603884Y-104767657D01*
X126603884Y-104767657D02*
X126651503Y-104720038D01*
X126651503Y-104720038D02*
X126746741Y-104672419D01*
X126746741Y-104672419D02*
X126984836Y-104672419D01*
X126984836Y-104672419D02*
X127127693Y-104720038D01*
D11*
X114933333Y-71759580D02*
X114885714Y-71807200D01*
X114885714Y-71807200D02*
X114742857Y-71854819D01*
X114742857Y-71854819D02*
X114647619Y-71854819D01*
X114647619Y-71854819D02*
X114504762Y-71807200D01*
X114504762Y-71807200D02*
X114409524Y-71711961D01*
X114409524Y-71711961D02*
X114361905Y-71616723D01*
X114361905Y-71616723D02*
X114314286Y-71426247D01*
X114314286Y-71426247D02*
X114314286Y-71283390D01*
X114314286Y-71283390D02*
X114361905Y-71092914D01*
X114361905Y-71092914D02*
X114409524Y-70997676D01*
X114409524Y-70997676D02*
X114504762Y-70902438D01*
X114504762Y-70902438D02*
X114647619Y-70854819D01*
X114647619Y-70854819D02*
X114742857Y-70854819D01*
X114742857Y-70854819D02*
X114885714Y-70902438D01*
X114885714Y-70902438D02*
X114933333Y-70950057D01*
X115885714Y-71854819D02*
X115314286Y-71854819D01*
X115600000Y-71854819D02*
X115600000Y-70854819D01*
X115600000Y-70854819D02*
X115504762Y-70997676D01*
X115504762Y-70997676D02*
X115409524Y-71092914D01*
X115409524Y-71092914D02*
X115314286Y-71140533D01*
X118833333Y-97354819D02*
X118500000Y-96878628D01*
X118261905Y-97354819D02*
X118261905Y-96354819D01*
X118261905Y-96354819D02*
X118642857Y-96354819D01*
X118642857Y-96354819D02*
X118738095Y-96402438D01*
X118738095Y-96402438D02*
X118785714Y-96450057D01*
X118785714Y-96450057D02*
X118833333Y-96545295D01*
X118833333Y-96545295D02*
X118833333Y-96688152D01*
X118833333Y-96688152D02*
X118785714Y-96783390D01*
X118785714Y-96783390D02*
X118738095Y-96831009D01*
X118738095Y-96831009D02*
X118642857Y-96878628D01*
X118642857Y-96878628D02*
X118261905Y-96878628D01*
X119166667Y-96354819D02*
X119785714Y-96354819D01*
X119785714Y-96354819D02*
X119452381Y-96735771D01*
X119452381Y-96735771D02*
X119595238Y-96735771D01*
X119595238Y-96735771D02*
X119690476Y-96783390D01*
X119690476Y-96783390D02*
X119738095Y-96831009D01*
X119738095Y-96831009D02*
X119785714Y-96926247D01*
X119785714Y-96926247D02*
X119785714Y-97164342D01*
X119785714Y-97164342D02*
X119738095Y-97259580D01*
X119738095Y-97259580D02*
X119690476Y-97307200D01*
X119690476Y-97307200D02*
X119595238Y-97354819D01*
X119595238Y-97354819D02*
X119309524Y-97354819D01*
X119309524Y-97354819D02*
X119214286Y-97307200D01*
X119214286Y-97307200D02*
X119166667Y-97259580D01*
X130538095Y-75054819D02*
X130538095Y-75864342D01*
X130538095Y-75864342D02*
X130585714Y-75959580D01*
X130585714Y-75959580D02*
X130633333Y-76007200D01*
X130633333Y-76007200D02*
X130728571Y-76054819D01*
X130728571Y-76054819D02*
X130919047Y-76054819D01*
X130919047Y-76054819D02*
X131014285Y-76007200D01*
X131014285Y-76007200D02*
X131061904Y-75959580D01*
X131061904Y-75959580D02*
X131109523Y-75864342D01*
X131109523Y-75864342D02*
X131109523Y-75054819D01*
X132109523Y-76054819D02*
X131538095Y-76054819D01*
X131823809Y-76054819D02*
X131823809Y-75054819D01*
X131823809Y-75054819D02*
X131728571Y-75197676D01*
X131728571Y-75197676D02*
X131633333Y-75292914D01*
X131633333Y-75292914D02*
X131538095Y-75340533D01*
X135366666Y-100454819D02*
X135366666Y-101169104D01*
X135366666Y-101169104D02*
X135319047Y-101311961D01*
X135319047Y-101311961D02*
X135223809Y-101407200D01*
X135223809Y-101407200D02*
X135080952Y-101454819D01*
X135080952Y-101454819D02*
X134985714Y-101454819D01*
X135795238Y-100550057D02*
X135842857Y-100502438D01*
X135842857Y-100502438D02*
X135938095Y-100454819D01*
X135938095Y-100454819D02*
X136176190Y-100454819D01*
X136176190Y-100454819D02*
X136271428Y-100502438D01*
X136271428Y-100502438D02*
X136319047Y-100550057D01*
X136319047Y-100550057D02*
X136366666Y-100645295D01*
X136366666Y-100645295D02*
X136366666Y-100740533D01*
X136366666Y-100740533D02*
X136319047Y-100883390D01*
X136319047Y-100883390D02*
X135747619Y-101454819D01*
X135747619Y-101454819D02*
X136366666Y-101454819D01*
X118733333Y-91254819D02*
X118400000Y-90778628D01*
X118161905Y-91254819D02*
X118161905Y-90254819D01*
X118161905Y-90254819D02*
X118542857Y-90254819D01*
X118542857Y-90254819D02*
X118638095Y-90302438D01*
X118638095Y-90302438D02*
X118685714Y-90350057D01*
X118685714Y-90350057D02*
X118733333Y-90445295D01*
X118733333Y-90445295D02*
X118733333Y-90588152D01*
X118733333Y-90588152D02*
X118685714Y-90683390D01*
X118685714Y-90683390D02*
X118638095Y-90731009D01*
X118638095Y-90731009D02*
X118542857Y-90778628D01*
X118542857Y-90778628D02*
X118161905Y-90778628D01*
X119114286Y-90350057D02*
X119161905Y-90302438D01*
X119161905Y-90302438D02*
X119257143Y-90254819D01*
X119257143Y-90254819D02*
X119495238Y-90254819D01*
X119495238Y-90254819D02*
X119590476Y-90302438D01*
X119590476Y-90302438D02*
X119638095Y-90350057D01*
X119638095Y-90350057D02*
X119685714Y-90445295D01*
X119685714Y-90445295D02*
X119685714Y-90540533D01*
X119685714Y-90540533D02*
X119638095Y-90683390D01*
X119638095Y-90683390D02*
X119066667Y-91254819D01*
X119066667Y-91254819D02*
X119685714Y-91254819D01*
X110266666Y-88354819D02*
X110266666Y-89069104D01*
X110266666Y-89069104D02*
X110219047Y-89211961D01*
X110219047Y-89211961D02*
X110123809Y-89307200D01*
X110123809Y-89307200D02*
X109980952Y-89354819D01*
X109980952Y-89354819D02*
X109885714Y-89354819D01*
X111266666Y-89354819D02*
X110695238Y-89354819D01*
X110980952Y-89354819D02*
X110980952Y-88354819D01*
X110980952Y-88354819D02*
X110885714Y-88497676D01*
X110885714Y-88497676D02*
X110790476Y-88592914D01*
X110790476Y-88592914D02*
X110695238Y-88640533D01*
X140438095Y-100454819D02*
X140438095Y-99454819D01*
X140438095Y-99931009D02*
X141009523Y-99931009D01*
X141009523Y-100454819D02*
X141009523Y-99454819D01*
X141914285Y-99788152D02*
X141914285Y-100454819D01*
X141676190Y-99407200D02*
X141438095Y-100121485D01*
X141438095Y-100121485D02*
X142057142Y-100121485D01*
X121661905Y-73854819D02*
X121661905Y-72854819D01*
X121661905Y-72854819D02*
X121900000Y-72854819D01*
X121900000Y-72854819D02*
X122042857Y-72902438D01*
X122042857Y-72902438D02*
X122138095Y-72997676D01*
X122138095Y-72997676D02*
X122185714Y-73092914D01*
X122185714Y-73092914D02*
X122233333Y-73283390D01*
X122233333Y-73283390D02*
X122233333Y-73426247D01*
X122233333Y-73426247D02*
X122185714Y-73616723D01*
X122185714Y-73616723D02*
X122138095Y-73711961D01*
X122138095Y-73711961D02*
X122042857Y-73807200D01*
X122042857Y-73807200D02*
X121900000Y-73854819D01*
X121900000Y-73854819D02*
X121661905Y-73854819D01*
X123185714Y-73854819D02*
X122614286Y-73854819D01*
X122900000Y-73854819D02*
X122900000Y-72854819D01*
X122900000Y-72854819D02*
X122804762Y-72997676D01*
X122804762Y-72997676D02*
X122709524Y-73092914D01*
X122709524Y-73092914D02*
X122614286Y-73140533D01*
X125086600Y-74654819D02*
X125086600Y-74892914D01*
X124848505Y-74797676D02*
X125086600Y-74892914D01*
X125086600Y-74892914D02*
X125324695Y-74797676D01*
X124943743Y-75083390D02*
X125086600Y-74892914D01*
X125086600Y-74892914D02*
X125229457Y-75083390D01*
X125086599Y-75745180D02*
X125086599Y-75507085D01*
X125324694Y-75602323D02*
X125086599Y-75507085D01*
X125086599Y-75507085D02*
X124848504Y-75602323D01*
X125229456Y-75316609D02*
X125086599Y-75507085D01*
X125086599Y-75507085D02*
X124943742Y-75316609D01*
X117733333Y-89259580D02*
X117685714Y-89307200D01*
X117685714Y-89307200D02*
X117542857Y-89354819D01*
X117542857Y-89354819D02*
X117447619Y-89354819D01*
X117447619Y-89354819D02*
X117304762Y-89307200D01*
X117304762Y-89307200D02*
X117209524Y-89211961D01*
X117209524Y-89211961D02*
X117161905Y-89116723D01*
X117161905Y-89116723D02*
X117114286Y-88926247D01*
X117114286Y-88926247D02*
X117114286Y-88783390D01*
X117114286Y-88783390D02*
X117161905Y-88592914D01*
X117161905Y-88592914D02*
X117209524Y-88497676D01*
X117209524Y-88497676D02*
X117304762Y-88402438D01*
X117304762Y-88402438D02*
X117447619Y-88354819D01*
X117447619Y-88354819D02*
X117542857Y-88354819D01*
X117542857Y-88354819D02*
X117685714Y-88402438D01*
X117685714Y-88402438D02*
X117733333Y-88450057D01*
X118638095Y-88354819D02*
X118161905Y-88354819D01*
X118161905Y-88354819D02*
X118114286Y-88831009D01*
X118114286Y-88831009D02*
X118161905Y-88783390D01*
X118161905Y-88783390D02*
X118257143Y-88735771D01*
X118257143Y-88735771D02*
X118495238Y-88735771D01*
X118495238Y-88735771D02*
X118590476Y-88783390D01*
X118590476Y-88783390D02*
X118638095Y-88831009D01*
X118638095Y-88831009D02*
X118685714Y-88926247D01*
X118685714Y-88926247D02*
X118685714Y-89164342D01*
X118685714Y-89164342D02*
X118638095Y-89259580D01*
X118638095Y-89259580D02*
X118590476Y-89307200D01*
X118590476Y-89307200D02*
X118495238Y-89354819D01*
X118495238Y-89354819D02*
X118257143Y-89354819D01*
X118257143Y-89354819D02*
X118161905Y-89307200D01*
X118161905Y-89307200D02*
X118114286Y-89259580D01*
X116033333Y-85559580D02*
X115985714Y-85607200D01*
X115985714Y-85607200D02*
X115842857Y-85654819D01*
X115842857Y-85654819D02*
X115747619Y-85654819D01*
X115747619Y-85654819D02*
X115604762Y-85607200D01*
X115604762Y-85607200D02*
X115509524Y-85511961D01*
X115509524Y-85511961D02*
X115461905Y-85416723D01*
X115461905Y-85416723D02*
X115414286Y-85226247D01*
X115414286Y-85226247D02*
X115414286Y-85083390D01*
X115414286Y-85083390D02*
X115461905Y-84892914D01*
X115461905Y-84892914D02*
X115509524Y-84797676D01*
X115509524Y-84797676D02*
X115604762Y-84702438D01*
X115604762Y-84702438D02*
X115747619Y-84654819D01*
X115747619Y-84654819D02*
X115842857Y-84654819D01*
X115842857Y-84654819D02*
X115985714Y-84702438D01*
X115985714Y-84702438D02*
X116033333Y-84750057D01*
X116366667Y-84654819D02*
X116985714Y-84654819D01*
X116985714Y-84654819D02*
X116652381Y-85035771D01*
X116652381Y-85035771D02*
X116795238Y-85035771D01*
X116795238Y-85035771D02*
X116890476Y-85083390D01*
X116890476Y-85083390D02*
X116938095Y-85131009D01*
X116938095Y-85131009D02*
X116985714Y-85226247D01*
X116985714Y-85226247D02*
X116985714Y-85464342D01*
X116985714Y-85464342D02*
X116938095Y-85559580D01*
X116938095Y-85559580D02*
X116890476Y-85607200D01*
X116890476Y-85607200D02*
X116795238Y-85654819D01*
X116795238Y-85654819D02*
X116509524Y-85654819D01*
X116509524Y-85654819D02*
X116414286Y-85607200D01*
X116414286Y-85607200D02*
X116366667Y-85559580D01*
X117933333Y-71759580D02*
X117885714Y-71807200D01*
X117885714Y-71807200D02*
X117742857Y-71854819D01*
X117742857Y-71854819D02*
X117647619Y-71854819D01*
X117647619Y-71854819D02*
X117504762Y-71807200D01*
X117504762Y-71807200D02*
X117409524Y-71711961D01*
X117409524Y-71711961D02*
X117361905Y-71616723D01*
X117361905Y-71616723D02*
X117314286Y-71426247D01*
X117314286Y-71426247D02*
X117314286Y-71283390D01*
X117314286Y-71283390D02*
X117361905Y-71092914D01*
X117361905Y-71092914D02*
X117409524Y-70997676D01*
X117409524Y-70997676D02*
X117504762Y-70902438D01*
X117504762Y-70902438D02*
X117647619Y-70854819D01*
X117647619Y-70854819D02*
X117742857Y-70854819D01*
X117742857Y-70854819D02*
X117885714Y-70902438D01*
X117885714Y-70902438D02*
X117933333Y-70950057D01*
X118314286Y-70950057D02*
X118361905Y-70902438D01*
X118361905Y-70902438D02*
X118457143Y-70854819D01*
X118457143Y-70854819D02*
X118695238Y-70854819D01*
X118695238Y-70854819D02*
X118790476Y-70902438D01*
X118790476Y-70902438D02*
X118838095Y-70950057D01*
X118838095Y-70950057D02*
X118885714Y-71045295D01*
X118885714Y-71045295D02*
X118885714Y-71140533D01*
X118885714Y-71140533D02*
X118838095Y-71283390D01*
X118838095Y-71283390D02*
X118266667Y-71854819D01*
X118266667Y-71854819D02*
X118885714Y-71854819D01*
X115833333Y-102759580D02*
X115785714Y-102807200D01*
X115785714Y-102807200D02*
X115642857Y-102854819D01*
X115642857Y-102854819D02*
X115547619Y-102854819D01*
X115547619Y-102854819D02*
X115404762Y-102807200D01*
X115404762Y-102807200D02*
X115309524Y-102711961D01*
X115309524Y-102711961D02*
X115261905Y-102616723D01*
X115261905Y-102616723D02*
X115214286Y-102426247D01*
X115214286Y-102426247D02*
X115214286Y-102283390D01*
X115214286Y-102283390D02*
X115261905Y-102092914D01*
X115261905Y-102092914D02*
X115309524Y-101997676D01*
X115309524Y-101997676D02*
X115404762Y-101902438D01*
X115404762Y-101902438D02*
X115547619Y-101854819D01*
X115547619Y-101854819D02*
X115642857Y-101854819D01*
X115642857Y-101854819D02*
X115785714Y-101902438D01*
X115785714Y-101902438D02*
X115833333Y-101950057D01*
X116690476Y-102188152D02*
X116690476Y-102854819D01*
X116452381Y-101807200D02*
X116214286Y-102521485D01*
X116214286Y-102521485D02*
X116833333Y-102521485D01*
X116033333Y-80854819D02*
X115700000Y-80378628D01*
X115461905Y-80854819D02*
X115461905Y-79854819D01*
X115461905Y-79854819D02*
X115842857Y-79854819D01*
X115842857Y-79854819D02*
X115938095Y-79902438D01*
X115938095Y-79902438D02*
X115985714Y-79950057D01*
X115985714Y-79950057D02*
X116033333Y-80045295D01*
X116033333Y-80045295D02*
X116033333Y-80188152D01*
X116033333Y-80188152D02*
X115985714Y-80283390D01*
X115985714Y-80283390D02*
X115938095Y-80331009D01*
X115938095Y-80331009D02*
X115842857Y-80378628D01*
X115842857Y-80378628D02*
X115461905Y-80378628D01*
X116985714Y-80854819D02*
X116414286Y-80854819D01*
X116700000Y-80854819D02*
X116700000Y-79854819D01*
X116700000Y-79854819D02*
X116604762Y-79997676D01*
X116604762Y-79997676D02*
X116509524Y-80092914D01*
X116509524Y-80092914D02*
X116414286Y-80140533D01*
X115666666Y-77254819D02*
X115666666Y-77969104D01*
X115666666Y-77969104D02*
X115619047Y-78111961D01*
X115619047Y-78111961D02*
X115523809Y-78207200D01*
X115523809Y-78207200D02*
X115380952Y-78254819D01*
X115380952Y-78254819D02*
X115285714Y-78254819D01*
X116047619Y-77254819D02*
X116666666Y-77254819D01*
X116666666Y-77254819D02*
X116333333Y-77635771D01*
X116333333Y-77635771D02*
X116476190Y-77635771D01*
X116476190Y-77635771D02*
X116571428Y-77683390D01*
X116571428Y-77683390D02*
X116619047Y-77731009D01*
X116619047Y-77731009D02*
X116666666Y-77826247D01*
X116666666Y-77826247D02*
X116666666Y-78064342D01*
X116666666Y-78064342D02*
X116619047Y-78159580D01*
X116619047Y-78159580D02*
X116571428Y-78207200D01*
X116571428Y-78207200D02*
X116476190Y-78254819D01*
X116476190Y-78254819D02*
X116190476Y-78254819D01*
X116190476Y-78254819D02*
X116095238Y-78207200D01*
X116095238Y-78207200D02*
X116047619Y-78159580D01*
X135838095Y-70654819D02*
X135838095Y-69654819D01*
X135838095Y-70131009D02*
X136409523Y-70131009D01*
X136409523Y-70654819D02*
X136409523Y-69654819D01*
X136838095Y-69750057D02*
X136885714Y-69702438D01*
X136885714Y-69702438D02*
X136980952Y-69654819D01*
X136980952Y-69654819D02*
X137219047Y-69654819D01*
X137219047Y-69654819D02*
X137314285Y-69702438D01*
X137314285Y-69702438D02*
X137361904Y-69750057D01*
X137361904Y-69750057D02*
X137409523Y-69845295D01*
X137409523Y-69845295D02*
X137409523Y-69940533D01*
X137409523Y-69940533D02*
X137361904Y-70083390D01*
X137361904Y-70083390D02*
X136790476Y-70654819D01*
X136790476Y-70654819D02*
X137409523Y-70654819D01*
X112338095Y-70654819D02*
X112338095Y-69654819D01*
X112338095Y-70131009D02*
X112909523Y-70131009D01*
X112909523Y-70654819D02*
X112909523Y-69654819D01*
X113909523Y-70654819D02*
X113338095Y-70654819D01*
X113623809Y-70654819D02*
X113623809Y-69654819D01*
X113623809Y-69654819D02*
X113528571Y-69797676D01*
X113528571Y-69797676D02*
X113433333Y-69892914D01*
X113433333Y-69892914D02*
X113338095Y-69940533D01*
X110738095Y-100554819D02*
X110738095Y-99554819D01*
X110738095Y-100031009D02*
X111309523Y-100031009D01*
X111309523Y-100554819D02*
X111309523Y-99554819D01*
X111690476Y-99554819D02*
X112309523Y-99554819D01*
X112309523Y-99554819D02*
X111976190Y-99935771D01*
X111976190Y-99935771D02*
X112119047Y-99935771D01*
X112119047Y-99935771D02*
X112214285Y-99983390D01*
X112214285Y-99983390D02*
X112261904Y-100031009D01*
X112261904Y-100031009D02*
X112309523Y-100126247D01*
X112309523Y-100126247D02*
X112309523Y-100364342D01*
X112309523Y-100364342D02*
X112261904Y-100459580D01*
X112261904Y-100459580D02*
X112214285Y-100507200D01*
X112214285Y-100507200D02*
X112119047Y-100554819D01*
X112119047Y-100554819D02*
X111833333Y-100554819D01*
X111833333Y-100554819D02*
X111738095Y-100507200D01*
X111738095Y-100507200D02*
X111690476Y-100459580D01*
D12*
%TO.C,C1*%
X114365000Y-73838748D02*
X114365000Y-74361252D01*
X115835000Y-73838748D02*
X115835000Y-74361252D01*
%TO.C,R3*%
X117227064Y-94065000D02*
X116772936Y-94065000D01*
X117227064Y-95535000D02*
X116772936Y-95535000D01*
D13*
%TO.C,U1*%
X120800000Y-76670000D02*
X138800000Y-76670000D01*
X120800000Y-77090000D02*
X120800000Y-76670000D01*
X120800000Y-95870000D02*
X120800000Y-95140000D01*
X122045000Y-95870000D02*
X120800000Y-95870000D01*
X138800000Y-76670000D02*
X138800000Y-77090000D01*
X138800000Y-95870000D02*
X137555000Y-95870000D01*
X138800000Y-95870000D02*
X138800000Y-95140000D01*
D14*
X119400000Y-77860000D02*
G75*
G02*
X119200000Y-77860000I-100000J0D01*
G01*
X119200000Y-77860000D02*
G75*
G02*
X119400000Y-77860000I100000J0D01*
G01*
D12*
%TO.C,J2*%
X121450000Y-97750000D02*
X121450000Y-99000000D01*
X121740000Y-98040000D02*
X121740000Y-104010000D01*
X121740000Y-104010000D02*
X134360000Y-104010000D01*
X121750000Y-98050000D02*
X121750000Y-98800000D01*
X121750000Y-98800000D02*
X123550000Y-98800000D01*
X121750000Y-100300000D02*
X122500000Y-100300000D01*
X122500000Y-100300000D02*
X122500000Y-101640000D01*
X122700000Y-97750000D02*
X121450000Y-97750000D01*
X123550000Y-98050000D02*
X121750000Y-98050000D01*
X123550000Y-98800000D02*
X123550000Y-98050000D01*
X125050000Y-98050000D02*
X125050000Y-98800000D01*
X125050000Y-98800000D02*
X131050000Y-98800000D01*
X128050000Y-103250000D02*
X123560000Y-103250000D01*
X131050000Y-98050000D02*
X125050000Y-98050000D01*
X131050000Y-98800000D02*
X131050000Y-98050000D01*
X132550000Y-98050000D02*
X132550000Y-98800000D01*
X132550000Y-98800000D02*
X134350000Y-98800000D01*
X133600000Y-100300000D02*
X133600000Y-103250000D01*
X133600000Y-103250000D02*
X128050000Y-103250000D01*
X134350000Y-98050000D02*
X132550000Y-98050000D01*
X134350000Y-98800000D02*
X134350000Y-98050000D01*
X134350000Y-100300000D02*
X133600000Y-100300000D01*
X134360000Y-98040000D02*
X121740000Y-98040000D01*
X134360000Y-104010000D02*
X134360000Y-98040000D01*
%TO.C,R2*%
X117227064Y-91865000D02*
X116772936Y-91865000D01*
X117227064Y-93335000D02*
X116772936Y-93335000D01*
D13*
%TO.C,J1*%
X109050000Y-90300000D02*
X109400000Y-90300000D01*
X109400000Y-97700000D02*
X109050000Y-97700000D01*
X111600000Y-90300000D02*
X113350000Y-90300000D01*
X113350000Y-90300000D02*
X113350000Y-90530000D01*
X113350000Y-97470000D02*
X113350000Y-97700000D01*
X113350000Y-97700000D02*
X111600000Y-97700000D01*
D14*
X114600000Y-92700000D02*
G75*
G02*
X114400000Y-92700000I-100000J0D01*
G01*
X114400000Y-92700000D02*
G75*
G02*
X114600000Y-92700000I100000J0D01*
G01*
D15*
%TO.C,D1*%
X120873000Y-76002000D02*
X123977000Y-76002000D01*
X123977000Y-74398000D02*
X120873000Y-74398000D01*
D12*
%TO.C,C5*%
X115165000Y-88701248D02*
X115165000Y-89223752D01*
X116635000Y-88701248D02*
X116635000Y-89223752D01*
%TO.C,C3*%
X117565000Y-85338748D02*
X117565000Y-85861252D01*
X119035000Y-85338748D02*
X119035000Y-85861252D01*
%TO.C,C2*%
X117365000Y-73838748D02*
X117365000Y-74361252D01*
X118835000Y-73838748D02*
X118835000Y-74361252D01*
%TO.C,C4*%
X115265000Y-99123752D02*
X115265000Y-98601248D01*
X116735000Y-99123752D02*
X116735000Y-98601248D01*
%TO.C,R1*%
X116972936Y-81365000D02*
X117427064Y-81365000D01*
X116972936Y-82835000D02*
X117427064Y-82835000D01*
%TO.C,J3*%
X108350000Y-83500000D02*
X108350000Y-84750000D01*
X108350000Y-84750000D02*
X109600000Y-84750000D01*
X108640000Y-76840000D02*
X108640000Y-84460000D01*
X108640000Y-84460000D02*
X114610000Y-84460000D01*
X108650000Y-76850000D02*
X108650000Y-78650000D01*
X108650000Y-78650000D02*
X109400000Y-78650000D01*
X108650000Y-80150000D02*
X108650000Y-81150000D01*
X108650000Y-81150000D02*
X109400000Y-81150000D01*
X108650000Y-82650000D02*
X108650000Y-84450000D01*
X108650000Y-84450000D02*
X109400000Y-84450000D01*
X109400000Y-76850000D02*
X108650000Y-76850000D01*
X109400000Y-78650000D02*
X109400000Y-76850000D01*
X109400000Y-80150000D02*
X108650000Y-80150000D01*
X109400000Y-81150000D02*
X109400000Y-80150000D01*
X109400000Y-82650000D02*
X108650000Y-82650000D01*
X109400000Y-84450000D02*
X109400000Y-82650000D01*
X110900000Y-76850000D02*
X110900000Y-77600000D01*
X110900000Y-77600000D02*
X113850000Y-77600000D01*
X110900000Y-83700000D02*
X112240000Y-83700000D01*
X110900000Y-84450000D02*
X110900000Y-83700000D01*
X113850000Y-77600000D02*
X113850000Y-80650000D01*
X113850000Y-80650000D02*
X113850000Y-82640000D01*
X114610000Y-76840000D02*
X108640000Y-76840000D01*
X114610000Y-84460000D02*
X114610000Y-76840000D01*
%TD*%
%LPC*%
D16*
%TO.C,J1*%
X110806000Y-89956000D02*
X110838000Y-89958000D01*
X110869000Y-89962000D01*
X110900000Y-89968000D01*
X110930000Y-89975000D01*
X110960000Y-89984000D01*
X110990000Y-89995000D01*
X111019000Y-90007000D01*
X111047000Y-90020000D01*
X111075000Y-90035000D01*
X111102000Y-90052000D01*
X111128000Y-90070000D01*
X111153000Y-90089000D01*
X111176000Y-90109000D01*
X111199000Y-90131000D01*
X111221000Y-90154000D01*
X111241000Y-90177000D01*
X111260000Y-90202000D01*
X111278000Y-90228000D01*
X111295000Y-90255000D01*
X111310000Y-90283000D01*
X111323000Y-90311000D01*
X111335000Y-90340000D01*
X111346000Y-90370000D01*
X111355000Y-90400000D01*
X111362000Y-90430000D01*
X111368000Y-90461000D01*
X111372000Y-90492000D01*
X111374000Y-90524000D01*
X111375000Y-90555000D01*
X111375000Y-91800000D01*
X109625000Y-91800000D01*
X109625000Y-90555000D01*
X109626000Y-90524000D01*
X109628000Y-90492000D01*
X109632000Y-90461000D01*
X109638000Y-90430000D01*
X109645000Y-90400000D01*
X109654000Y-90370000D01*
X109665000Y-90340000D01*
X109677000Y-90311000D01*
X109690000Y-90283000D01*
X109705000Y-90255000D01*
X109722000Y-90228000D01*
X109740000Y-90202000D01*
X109759000Y-90177000D01*
X109779000Y-90154000D01*
X109801000Y-90131000D01*
X109824000Y-90109000D01*
X109847000Y-90089000D01*
X109872000Y-90070000D01*
X109898000Y-90052000D01*
X109925000Y-90035000D01*
X109953000Y-90020000D01*
X109981000Y-90007000D01*
X110010000Y-89995000D01*
X110040000Y-89984000D01*
X110070000Y-89975000D01*
X110100000Y-89968000D01*
X110131000Y-89962000D01*
X110162000Y-89958000D01*
X110194000Y-89956000D01*
X110225000Y-89955000D01*
X110775000Y-89955000D01*
X110806000Y-89956000D01*
G36*
X110806000Y-89956000D02*
G01*
X110838000Y-89958000D01*
X110869000Y-89962000D01*
X110900000Y-89968000D01*
X110930000Y-89975000D01*
X110960000Y-89984000D01*
X110990000Y-89995000D01*
X111019000Y-90007000D01*
X111047000Y-90020000D01*
X111075000Y-90035000D01*
X111102000Y-90052000D01*
X111128000Y-90070000D01*
X111153000Y-90089000D01*
X111176000Y-90109000D01*
X111199000Y-90131000D01*
X111221000Y-90154000D01*
X111241000Y-90177000D01*
X111260000Y-90202000D01*
X111278000Y-90228000D01*
X111295000Y-90255000D01*
X111310000Y-90283000D01*
X111323000Y-90311000D01*
X111335000Y-90340000D01*
X111346000Y-90370000D01*
X111355000Y-90400000D01*
X111362000Y-90430000D01*
X111368000Y-90461000D01*
X111372000Y-90492000D01*
X111374000Y-90524000D01*
X111375000Y-90555000D01*
X111375000Y-91800000D01*
X109625000Y-91800000D01*
X109625000Y-90555000D01*
X109626000Y-90524000D01*
X109628000Y-90492000D01*
X109632000Y-90461000D01*
X109638000Y-90430000D01*
X109645000Y-90400000D01*
X109654000Y-90370000D01*
X109665000Y-90340000D01*
X109677000Y-90311000D01*
X109690000Y-90283000D01*
X109705000Y-90255000D01*
X109722000Y-90228000D01*
X109740000Y-90202000D01*
X109759000Y-90177000D01*
X109779000Y-90154000D01*
X109801000Y-90131000D01*
X109824000Y-90109000D01*
X109847000Y-90089000D01*
X109872000Y-90070000D01*
X109898000Y-90052000D01*
X109925000Y-90035000D01*
X109953000Y-90020000D01*
X109981000Y-90007000D01*
X110010000Y-89995000D01*
X110040000Y-89984000D01*
X110070000Y-89975000D01*
X110100000Y-89968000D01*
X110131000Y-89962000D01*
X110162000Y-89958000D01*
X110194000Y-89956000D01*
X110225000Y-89955000D01*
X110775000Y-89955000D01*
X110806000Y-89956000D01*
G37*
X111375000Y-97445000D02*
X111374000Y-97476000D01*
X111372000Y-97508000D01*
X111368000Y-97539000D01*
X111362000Y-97570000D01*
X111355000Y-97600000D01*
X111346000Y-97630000D01*
X111335000Y-97660000D01*
X111323000Y-97689000D01*
X111310000Y-97717000D01*
X111295000Y-97745000D01*
X111278000Y-97772000D01*
X111260000Y-97798000D01*
X111241000Y-97823000D01*
X111221000Y-97846000D01*
X111199000Y-97869000D01*
X111176000Y-97891000D01*
X111153000Y-97911000D01*
X111128000Y-97930000D01*
X111102000Y-97948000D01*
X111075000Y-97965000D01*
X111047000Y-97980000D01*
X111019000Y-97993000D01*
X110990000Y-98005000D01*
X110960000Y-98016000D01*
X110930000Y-98025000D01*
X110900000Y-98032000D01*
X110869000Y-98038000D01*
X110838000Y-98042000D01*
X110806000Y-98044000D01*
X110775000Y-98045000D01*
X110225000Y-98045000D01*
X110194000Y-98044000D01*
X110162000Y-98042000D01*
X110131000Y-98038000D01*
X110100000Y-98032000D01*
X110070000Y-98025000D01*
X110040000Y-98016000D01*
X110010000Y-98005000D01*
X109981000Y-97993000D01*
X109953000Y-97980000D01*
X109925000Y-97965000D01*
X109898000Y-97948000D01*
X109872000Y-97930000D01*
X109847000Y-97911000D01*
X109824000Y-97891000D01*
X109801000Y-97869000D01*
X109779000Y-97846000D01*
X109759000Y-97823000D01*
X109740000Y-97798000D01*
X109722000Y-97772000D01*
X109705000Y-97745000D01*
X109690000Y-97717000D01*
X109677000Y-97689000D01*
X109665000Y-97660000D01*
X109654000Y-97630000D01*
X109645000Y-97600000D01*
X109638000Y-97570000D01*
X109632000Y-97539000D01*
X109628000Y-97508000D01*
X109626000Y-97476000D01*
X109625000Y-97445000D01*
X109625000Y-96200000D01*
X111375000Y-96200000D01*
X111375000Y-97445000D01*
G36*
X111375000Y-97445000D02*
G01*
X111374000Y-97476000D01*
X111372000Y-97508000D01*
X111368000Y-97539000D01*
X111362000Y-97570000D01*
X111355000Y-97600000D01*
X111346000Y-97630000D01*
X111335000Y-97660000D01*
X111323000Y-97689000D01*
X111310000Y-97717000D01*
X111295000Y-97745000D01*
X111278000Y-97772000D01*
X111260000Y-97798000D01*
X111241000Y-97823000D01*
X111221000Y-97846000D01*
X111199000Y-97869000D01*
X111176000Y-97891000D01*
X111153000Y-97911000D01*
X111128000Y-97930000D01*
X111102000Y-97948000D01*
X111075000Y-97965000D01*
X111047000Y-97980000D01*
X111019000Y-97993000D01*
X110990000Y-98005000D01*
X110960000Y-98016000D01*
X110930000Y-98025000D01*
X110900000Y-98032000D01*
X110869000Y-98038000D01*
X110838000Y-98042000D01*
X110806000Y-98044000D01*
X110775000Y-98045000D01*
X110225000Y-98045000D01*
X110194000Y-98044000D01*
X110162000Y-98042000D01*
X110131000Y-98038000D01*
X110100000Y-98032000D01*
X110070000Y-98025000D01*
X110040000Y-98016000D01*
X110010000Y-98005000D01*
X109981000Y-97993000D01*
X109953000Y-97980000D01*
X109925000Y-97965000D01*
X109898000Y-97948000D01*
X109872000Y-97930000D01*
X109847000Y-97911000D01*
X109824000Y-97891000D01*
X109801000Y-97869000D01*
X109779000Y-97846000D01*
X109759000Y-97823000D01*
X109740000Y-97798000D01*
X109722000Y-97772000D01*
X109705000Y-97745000D01*
X109690000Y-97717000D01*
X109677000Y-97689000D01*
X109665000Y-97660000D01*
X109654000Y-97630000D01*
X109645000Y-97600000D01*
X109638000Y-97570000D01*
X109632000Y-97539000D01*
X109628000Y-97508000D01*
X109626000Y-97476000D01*
X109625000Y-97445000D01*
X109625000Y-96200000D01*
X111375000Y-96200000D01*
X111375000Y-97445000D01*
G37*
%TD*%
D17*
%TO.C,C1*%
X115100000Y-73062500D03*
X115100000Y-75137500D03*
%TD*%
D18*
%TO.C,R3*%
X118000000Y-94800000D03*
X116000000Y-94800000D03*
%TD*%
D19*
%TO.C,U1*%
X121050000Y-77860000D03*
X121050000Y-79130000D03*
X121050000Y-80400000D03*
X121050000Y-81670000D03*
X121050000Y-82940000D03*
X121050000Y-84210000D03*
X121050000Y-85480000D03*
X121050000Y-86750000D03*
X121050000Y-88020000D03*
X121050000Y-89290000D03*
X121050000Y-90560000D03*
X121050000Y-91830000D03*
X121050000Y-93100000D03*
X121050000Y-94370000D03*
D20*
X122815000Y-95620000D03*
X124085000Y-95620000D03*
X125355000Y-95620000D03*
X126625000Y-95620000D03*
X127895000Y-95620000D03*
X129165000Y-95620000D03*
X130435000Y-95620000D03*
X131705000Y-95620000D03*
X132975000Y-95620000D03*
X134245000Y-95620000D03*
X135515000Y-95620000D03*
X136785000Y-95620000D03*
D19*
X138550000Y-94370000D03*
X138550000Y-93100000D03*
X138550000Y-91830000D03*
X138550000Y-90560000D03*
X138550000Y-89290000D03*
X138550000Y-88020000D03*
X138550000Y-86750000D03*
X138550000Y-85480000D03*
X138550000Y-84210000D03*
X138550000Y-82940000D03*
X138550000Y-81670000D03*
X138550000Y-80400000D03*
X138550000Y-79130000D03*
X138550000Y-77860000D03*
D21*
X126900000Y-84180000D03*
X128300000Y-84180000D03*
X129700000Y-84180000D03*
X126900000Y-85580000D03*
X128300000Y-85580000D03*
X129700000Y-85580000D03*
X126900000Y-86980000D03*
X128300000Y-86980000D03*
X129700000Y-86980000D03*
%TD*%
D22*
%TO.C,J2*%
X122700000Y-102500000D03*
D23*
X124300000Y-100500000D03*
D24*
X126800000Y-100500000D03*
X129300000Y-100500000D03*
X131800000Y-100500000D03*
%TD*%
D18*
%TO.C,R2*%
X118000000Y-92600000D03*
X116000000Y-92600000D03*
%TD*%
D25*
%TO.C,J1*%
X113175000Y-92700000D03*
X113175000Y-93350000D03*
X113175000Y-94000000D03*
X113175000Y-94650000D03*
X113175000Y-95300000D03*
D26*
X110500000Y-95000000D03*
X110500000Y-93000000D03*
D27*
X113200000Y-91500000D03*
X113200000Y-96500000D03*
%TD*%
D28*
%TO.C,H4*%
X139800000Y-103300000D03*
%TD*%
D29*
%TO.C,D1*%
X124150000Y-75200000D03*
X120700000Y-75200000D03*
%TD*%
D17*
%TO.C,C5*%
X115900000Y-87925000D03*
X115900000Y-90000000D03*
%TD*%
%TO.C,C3*%
X118300000Y-84562500D03*
X118300000Y-86637500D03*
%TD*%
%TO.C,C2*%
X118100000Y-73062500D03*
X118100000Y-75137500D03*
%TD*%
D30*
%TO.C,C4*%
X116000000Y-99900000D03*
X116000000Y-97825000D03*
%TD*%
D31*
%TO.C,R1*%
X116200000Y-82100000D03*
X118200000Y-82100000D03*
%TD*%
D22*
%TO.C,J3*%
X113100000Y-83500000D03*
D32*
X111100000Y-81900000D03*
D33*
X111100000Y-79400000D03*
%TD*%
D28*
%TO.C,H2*%
X139800000Y-72200000D03*
%TD*%
%TO.C,H1*%
X110100000Y-72100000D03*
%TD*%
%TO.C,H3*%
X110100000Y-103200000D03*
%TD*%
%LPD*%
M02*
