%TF.GenerationSoftware,KiCad,Pcbnew,8.0.3*%
%TF.CreationDate,2026-01-26T23:04:18-08:00*%
%TF.ProjectId,Transmit-Receive-PCB,5472616e-736d-4697-942d-526563656976,rev?*%
%TF.SameCoordinates,Original*%
%TF.FileFunction,Paste,Top*%
%TF.FilePolarity,Positive*%
%FSLAX46Y46*%
G04 Gerber Fmt 4.6, Leading zero omitted, Abs format (unit mm)*
G04 Created by KiCad (PCBNEW 8.0.3) date 2026-01-26 23:04:18*
%MOMM*%
%LPD*%
G01*
G04 APERTURE LIST*
G04 Aperture macros list*
%AMRoundRect*
0 Rectangle with rounded corners*
0 $1 Rounding radius*
0 $2 $3 $4 $5 $6 $7 $8 $9 X,Y pos of 4 corners*
0 Add a 4 corners polygon primitive as box body*
4,1,4,$2,$3,$4,$5,$6,$7,$8,$9,$2,$3,0*
0 Add four circle primitives for the rounded corners*
1,1,$1+$1,$2,$3*
1,1,$1+$1,$4,$5*
1,1,$1+$1,$6,$7*
1,1,$1+$1,$8,$9*
0 Add four rect primitives between the rounded corners*
20,1,$1+$1,$2,$3,$4,$5,0*
20,1,$1+$1,$4,$5,$6,$7,0*
20,1,$1+$1,$6,$7,$8,$9,0*
20,1,$1+$1,$8,$9,$2,$3,0*%
G04 Aperture macros list end*
%ADD10C,0.010000*%
%ADD11RoundRect,0.250000X-0.475000X0.337500X-0.475000X-0.337500X0.475000X-0.337500X0.475000X0.337500X0*%
%ADD12RoundRect,0.250000X0.350000X0.450000X-0.350000X0.450000X-0.350000X-0.450000X0.350000X-0.450000X0*%
%ADD13R,1.500000X0.900000*%
%ADD14R,0.900000X1.500000*%
%ADD15R,0.900000X0.900000*%
%ADD16R,1.350000X0.400000*%
%ADD17R,1.550000X1.500000*%
%ADD18R,1.111200X0.600800*%
%ADD19RoundRect,0.250000X0.475000X-0.337500X0.475000X0.337500X-0.475000X0.337500X-0.475000X-0.337500X0*%
%ADD20RoundRect,0.250000X-0.350000X-0.450000X0.350000X-0.450000X0.350000X0.450000X-0.350000X0.450000X0*%
G04 APERTURE END LIST*
D10*
%TO.C,J1*%
X110801000Y-90056000D02*
X110827000Y-90058000D01*
X110853000Y-90061000D01*
X110879000Y-90066000D01*
X110904000Y-90072000D01*
X110930000Y-90079000D01*
X110954000Y-90088000D01*
X110978000Y-90098000D01*
X111002000Y-90109000D01*
X111025000Y-90122000D01*
X111047000Y-90136000D01*
X111069000Y-90150000D01*
X111090000Y-90166000D01*
X111110000Y-90183000D01*
X111129000Y-90201000D01*
X111147000Y-90220000D01*
X111164000Y-90240000D01*
X111180000Y-90261000D01*
X111194000Y-90283000D01*
X111208000Y-90305000D01*
X111221000Y-90328000D01*
X111232000Y-90352000D01*
X111242000Y-90376000D01*
X111251000Y-90400000D01*
X111258000Y-90426000D01*
X111264000Y-90451000D01*
X111269000Y-90477000D01*
X111272000Y-90503000D01*
X111274000Y-90529000D01*
X111275000Y-90555000D01*
X111275000Y-91700000D01*
X109725000Y-91700000D01*
X109725000Y-90555000D01*
X109726000Y-90529000D01*
X109728000Y-90503000D01*
X109731000Y-90477000D01*
X109736000Y-90451000D01*
X109742000Y-90426000D01*
X109749000Y-90400000D01*
X109758000Y-90376000D01*
X109768000Y-90352000D01*
X109779000Y-90328000D01*
X109792000Y-90305000D01*
X109806000Y-90283000D01*
X109820000Y-90261000D01*
X109836000Y-90240000D01*
X109853000Y-90220000D01*
X109871000Y-90201000D01*
X109890000Y-90183000D01*
X109910000Y-90166000D01*
X109931000Y-90150000D01*
X109953000Y-90136000D01*
X109975000Y-90122000D01*
X109998000Y-90109000D01*
X110022000Y-90098000D01*
X110046000Y-90088000D01*
X110070000Y-90079000D01*
X110096000Y-90072000D01*
X110121000Y-90066000D01*
X110147000Y-90061000D01*
X110173000Y-90058000D01*
X110199000Y-90056000D01*
X110225000Y-90055000D01*
X110775000Y-90055000D01*
X110801000Y-90056000D01*
G36*
X110801000Y-90056000D02*
G01*
X110827000Y-90058000D01*
X110853000Y-90061000D01*
X110879000Y-90066000D01*
X110904000Y-90072000D01*
X110930000Y-90079000D01*
X110954000Y-90088000D01*
X110978000Y-90098000D01*
X111002000Y-90109000D01*
X111025000Y-90122000D01*
X111047000Y-90136000D01*
X111069000Y-90150000D01*
X111090000Y-90166000D01*
X111110000Y-90183000D01*
X111129000Y-90201000D01*
X111147000Y-90220000D01*
X111164000Y-90240000D01*
X111180000Y-90261000D01*
X111194000Y-90283000D01*
X111208000Y-90305000D01*
X111221000Y-90328000D01*
X111232000Y-90352000D01*
X111242000Y-90376000D01*
X111251000Y-90400000D01*
X111258000Y-90426000D01*
X111264000Y-90451000D01*
X111269000Y-90477000D01*
X111272000Y-90503000D01*
X111274000Y-90529000D01*
X111275000Y-90555000D01*
X111275000Y-91700000D01*
X109725000Y-91700000D01*
X109725000Y-90555000D01*
X109726000Y-90529000D01*
X109728000Y-90503000D01*
X109731000Y-90477000D01*
X109736000Y-90451000D01*
X109742000Y-90426000D01*
X109749000Y-90400000D01*
X109758000Y-90376000D01*
X109768000Y-90352000D01*
X109779000Y-90328000D01*
X109792000Y-90305000D01*
X109806000Y-90283000D01*
X109820000Y-90261000D01*
X109836000Y-90240000D01*
X109853000Y-90220000D01*
X109871000Y-90201000D01*
X109890000Y-90183000D01*
X109910000Y-90166000D01*
X109931000Y-90150000D01*
X109953000Y-90136000D01*
X109975000Y-90122000D01*
X109998000Y-90109000D01*
X110022000Y-90098000D01*
X110046000Y-90088000D01*
X110070000Y-90079000D01*
X110096000Y-90072000D01*
X110121000Y-90066000D01*
X110147000Y-90061000D01*
X110173000Y-90058000D01*
X110199000Y-90056000D01*
X110225000Y-90055000D01*
X110775000Y-90055000D01*
X110801000Y-90056000D01*
G37*
X111275000Y-97445000D02*
X111274000Y-97471000D01*
X111272000Y-97497000D01*
X111269000Y-97523000D01*
X111264000Y-97549000D01*
X111258000Y-97574000D01*
X111251000Y-97600000D01*
X111242000Y-97624000D01*
X111232000Y-97648000D01*
X111221000Y-97672000D01*
X111208000Y-97695000D01*
X111194000Y-97717000D01*
X111180000Y-97739000D01*
X111164000Y-97760000D01*
X111147000Y-97780000D01*
X111129000Y-97799000D01*
X111110000Y-97817000D01*
X111090000Y-97834000D01*
X111069000Y-97850000D01*
X111047000Y-97864000D01*
X111025000Y-97878000D01*
X111002000Y-97891000D01*
X110978000Y-97902000D01*
X110954000Y-97912000D01*
X110930000Y-97921000D01*
X110904000Y-97928000D01*
X110879000Y-97934000D01*
X110853000Y-97939000D01*
X110827000Y-97942000D01*
X110801000Y-97944000D01*
X110775000Y-97945000D01*
X110225000Y-97945000D01*
X110199000Y-97944000D01*
X110173000Y-97942000D01*
X110147000Y-97939000D01*
X110121000Y-97934000D01*
X110096000Y-97928000D01*
X110070000Y-97921000D01*
X110046000Y-97912000D01*
X110022000Y-97902000D01*
X109998000Y-97891000D01*
X109975000Y-97878000D01*
X109953000Y-97864000D01*
X109931000Y-97850000D01*
X109910000Y-97834000D01*
X109890000Y-97817000D01*
X109871000Y-97799000D01*
X109853000Y-97780000D01*
X109836000Y-97760000D01*
X109820000Y-97739000D01*
X109806000Y-97717000D01*
X109792000Y-97695000D01*
X109779000Y-97672000D01*
X109768000Y-97648000D01*
X109758000Y-97624000D01*
X109749000Y-97600000D01*
X109742000Y-97574000D01*
X109736000Y-97549000D01*
X109731000Y-97523000D01*
X109728000Y-97497000D01*
X109726000Y-97471000D01*
X109725000Y-97445000D01*
X109725000Y-96300000D01*
X111275000Y-96300000D01*
X111275000Y-97445000D01*
G36*
X111275000Y-97445000D02*
G01*
X111274000Y-97471000D01*
X111272000Y-97497000D01*
X111269000Y-97523000D01*
X111264000Y-97549000D01*
X111258000Y-97574000D01*
X111251000Y-97600000D01*
X111242000Y-97624000D01*
X111232000Y-97648000D01*
X111221000Y-97672000D01*
X111208000Y-97695000D01*
X111194000Y-97717000D01*
X111180000Y-97739000D01*
X111164000Y-97760000D01*
X111147000Y-97780000D01*
X111129000Y-97799000D01*
X111110000Y-97817000D01*
X111090000Y-97834000D01*
X111069000Y-97850000D01*
X111047000Y-97864000D01*
X111025000Y-97878000D01*
X111002000Y-97891000D01*
X110978000Y-97902000D01*
X110954000Y-97912000D01*
X110930000Y-97921000D01*
X110904000Y-97928000D01*
X110879000Y-97934000D01*
X110853000Y-97939000D01*
X110827000Y-97942000D01*
X110801000Y-97944000D01*
X110775000Y-97945000D01*
X110225000Y-97945000D01*
X110199000Y-97944000D01*
X110173000Y-97942000D01*
X110147000Y-97939000D01*
X110121000Y-97934000D01*
X110096000Y-97928000D01*
X110070000Y-97921000D01*
X110046000Y-97912000D01*
X110022000Y-97902000D01*
X109998000Y-97891000D01*
X109975000Y-97878000D01*
X109953000Y-97864000D01*
X109931000Y-97850000D01*
X109910000Y-97834000D01*
X109890000Y-97817000D01*
X109871000Y-97799000D01*
X109853000Y-97780000D01*
X109836000Y-97760000D01*
X109820000Y-97739000D01*
X109806000Y-97717000D01*
X109792000Y-97695000D01*
X109779000Y-97672000D01*
X109768000Y-97648000D01*
X109758000Y-97624000D01*
X109749000Y-97600000D01*
X109742000Y-97574000D01*
X109736000Y-97549000D01*
X109731000Y-97523000D01*
X109728000Y-97497000D01*
X109726000Y-97471000D01*
X109725000Y-97445000D01*
X109725000Y-96300000D01*
X111275000Y-96300000D01*
X111275000Y-97445000D01*
G37*
%TD*%
D11*
%TO.C,C1*%
X115100000Y-73062500D03*
X115100000Y-75137500D03*
%TD*%
D12*
%TO.C,R3*%
X118000000Y-94800000D03*
X116000000Y-94800000D03*
%TD*%
D13*
%TO.C,U1*%
X121050000Y-77860000D03*
X121050000Y-79130000D03*
X121050000Y-80400000D03*
X121050000Y-81670000D03*
X121050000Y-82940000D03*
X121050000Y-84210000D03*
X121050000Y-85480000D03*
X121050000Y-86750000D03*
X121050000Y-88020000D03*
X121050000Y-89290000D03*
X121050000Y-90560000D03*
X121050000Y-91830000D03*
X121050000Y-93100000D03*
X121050000Y-94370000D03*
D14*
X122815000Y-95620000D03*
X124085000Y-95620000D03*
X125355000Y-95620000D03*
X126625000Y-95620000D03*
X127895000Y-95620000D03*
X129165000Y-95620000D03*
X130435000Y-95620000D03*
X131705000Y-95620000D03*
X132975000Y-95620000D03*
X134245000Y-95620000D03*
X135515000Y-95620000D03*
X136785000Y-95620000D03*
D13*
X138550000Y-94370000D03*
X138550000Y-93100000D03*
X138550000Y-91830000D03*
X138550000Y-90560000D03*
X138550000Y-89290000D03*
X138550000Y-88020000D03*
X138550000Y-86750000D03*
X138550000Y-85480000D03*
X138550000Y-84210000D03*
X138550000Y-82940000D03*
X138550000Y-81670000D03*
X138550000Y-80400000D03*
X138550000Y-79130000D03*
X138550000Y-77860000D03*
D15*
X126900000Y-84180000D03*
X128300000Y-84180000D03*
X129700000Y-84180000D03*
X126900000Y-85580000D03*
X128300000Y-85580000D03*
X129700000Y-85580000D03*
X126900000Y-86980000D03*
X128300000Y-86980000D03*
X129700000Y-86980000D03*
%TD*%
D12*
%TO.C,R2*%
X118000000Y-92600000D03*
X116000000Y-92600000D03*
%TD*%
D16*
%TO.C,J1*%
X113175000Y-92700000D03*
X113175000Y-93350000D03*
X113175000Y-94000000D03*
X113175000Y-94650000D03*
X113175000Y-95300000D03*
D17*
X110500000Y-95000000D03*
X110500000Y-93000000D03*
%TD*%
D18*
%TO.C,D1*%
X124150000Y-75200000D03*
X120700000Y-75200000D03*
%TD*%
D11*
%TO.C,C5*%
X115900000Y-87925000D03*
X115900000Y-90000000D03*
%TD*%
%TO.C,C3*%
X118300000Y-84562500D03*
X118300000Y-86637500D03*
%TD*%
%TO.C,C2*%
X118100000Y-73062500D03*
X118100000Y-75137500D03*
%TD*%
D19*
%TO.C,C4*%
X116000000Y-99900000D03*
X116000000Y-97825000D03*
%TD*%
D20*
%TO.C,R1*%
X116200000Y-82100000D03*
X118200000Y-82100000D03*
%TD*%
M02*
