%TF.GenerationSoftware,KiCad,Pcbnew,8.0.3*%
%TF.CreationDate,2026-01-26T23:04:18-08:00*%
%TF.ProjectId,Transmit-Receive-PCB,5472616e-736d-4697-942d-526563656976,rev?*%
%TF.SameCoordinates,Original*%
%TF.FileFunction,Copper,L3,Inr*%
%TF.FilePolarity,Positive*%
%FSLAX46Y46*%
G04 Gerber Fmt 4.6, Leading zero omitted, Abs format (unit mm)*
G04 Created by KiCad (PCBNEW 8.0.3) date 2026-01-26 23:04:18*
%MOMM*%
%LPD*%
G01*
G04 APERTURE LIST*
G04 Aperture macros list*
%AMRoundRect*
0 Rectangle with rounded corners*
0 $1 Rounding radius*
0 $2 $3 $4 $5 $6 $7 $8 $9 X,Y pos of 4 corners*
0 Add a 4 corners polygon primitive as box body*
4,1,4,$2,$3,$4,$5,$6,$7,$8,$9,$2,$3,0*
0 Add four circle primitives for the rounded corners*
1,1,$1+$1,$2,$3*
1,1,$1+$1,$4,$5*
1,1,$1+$1,$6,$7*
1,1,$1+$1,$8,$9*
0 Add four rect primitives between the rounded corners*
20,1,$1+$1,$2,$3,$4,$5,0*
20,1,$1+$1,$4,$5,$6,$7,0*
20,1,$1+$1,$6,$7,$8,$9,0*
20,1,$1+$1,$8,$9,$2,$3,0*%
%AMFreePoly0*
4,1,123,1.203536,0.778536,1.205000,0.775000,1.205000,-0.775000,1.203536,-0.778536,1.200000,-0.780000,0.055000,-0.780000,0.054808,-0.779996,0.028808,-0.778996,0.028617,-0.778985,0.002617,-0.776985,0.002427,-0.776967,-0.023573,-0.773967,-0.023944,-0.773910,-0.049944,-0.768910,-0.050167,-0.768862,-0.075167,-0.762862,-0.075300,-0.762828,-0.101300,-0.755828,-0.101756,-0.755682,-0.125756,-0.746682,
-0.125923,-0.746615,-0.149923,-0.736615,-0.150083,-0.736545,-0.174083,-0.725545,-0.174460,-0.725353,-0.197460,-0.712353,-0.197684,-0.712218,-0.241684,-0.684218,-0.242030,-0.683977,-0.263030,-0.667977,-0.263238,-0.667810,-0.283238,-0.650810,-0.283439,-0.650630,-0.302439,-0.632630,-0.302630,-0.632439,-0.320630,-0.613439,-0.320810,-0.613238,-0.337810,-0.593238,-0.337977,-0.593030,-0.353977,-0.572030,
-0.354218,-0.571684,-0.382218,-0.527684,-0.382353,-0.527460,-0.395353,-0.504460,-0.395545,-0.504083,-0.406545,-0.480083,-0.406615,-0.479923,-0.416615,-0.455923,-0.416682,-0.455756,-0.425682,-0.431756,-0.425828,-0.431300,-0.432828,-0.405300,-0.432862,-0.405167,-0.438862,-0.380167,-0.438910,-0.379944,-0.443910,-0.353944,-0.443967,-0.353573,-0.446967,-0.327573,-0.446985,-0.327383,-0.448985,-0.301383,
-0.448996,-0.301192,-0.449996,-0.275192,-0.450000,-0.275000,-0.450000,0.275000,-0.449996,0.275192,-0.448996,0.301192,-0.448985,0.301383,-0.446985,0.327383,-0.446967,0.327573,-0.443967,0.353573,-0.443910,0.353944,-0.438910,0.379944,-0.438862,0.380167,-0.432862,0.405167,-0.432828,0.405300,-0.425828,0.431300,-0.425682,0.431756,-0.416682,0.455756,-0.416615,0.455923,-0.406615,0.479923,
-0.406545,0.480083,-0.395545,0.504083,-0.395353,0.504460,-0.382353,0.527460,-0.382218,0.527684,-0.354218,0.571684,-0.353977,0.572030,-0.337977,0.593030,-0.337810,0.593238,-0.320810,0.613238,-0.320630,0.613439,-0.302630,0.632439,-0.302439,0.632630,-0.283439,0.650630,-0.283238,0.650810,-0.263238,0.667810,-0.263030,0.667977,-0.242030,0.683977,-0.241684,0.684218,-0.197684,0.712218,
-0.197460,0.712353,-0.174460,0.725353,-0.174083,0.725545,-0.150083,0.736545,-0.149923,0.736615,-0.125923,0.746615,-0.125756,0.746682,-0.101756,0.755682,-0.101300,0.755828,-0.075300,0.762828,-0.075167,0.762862,-0.050167,0.768862,-0.049944,0.768910,-0.023944,0.773910,-0.023573,0.773967,0.002427,0.776967,0.002617,0.776985,0.028617,0.778985,0.028808,0.778996,0.054808,0.779996,
0.055000,0.780000,1.200000,0.780000,1.203536,0.778536,1.203536,0.778536,$1*%
%AMFreePoly1*
4,1,123,-0.054808,0.779996,-0.028808,0.778996,-0.028617,0.778985,-0.002617,0.776985,-0.002427,0.776967,0.023573,0.773967,0.023944,0.773910,0.049944,0.768910,0.050167,0.768862,0.075167,0.762862,0.075300,0.762828,0.101300,0.755828,0.101756,0.755682,0.125756,0.746682,0.125923,0.746615,0.149923,0.736615,0.150083,0.736545,0.174083,0.725545,0.174460,0.725353,0.197460,0.712353,
0.197684,0.712218,0.241684,0.684218,0.242030,0.683977,0.263030,0.667977,0.263238,0.667810,0.283238,0.650810,0.283439,0.650630,0.302439,0.632630,0.302630,0.632439,0.320630,0.613439,0.320810,0.613238,0.337810,0.593238,0.337977,0.593030,0.353977,0.572030,0.354218,0.571684,0.382218,0.527684,0.382353,0.527460,0.395353,0.504460,0.395545,0.504083,0.406545,0.480083,
0.406615,0.479923,0.416615,0.455923,0.416682,0.455756,0.425682,0.431756,0.425828,0.431300,0.432828,0.405300,0.432862,0.405167,0.438862,0.380167,0.438910,0.379944,0.443910,0.353944,0.443967,0.353573,0.446967,0.327573,0.446985,0.327383,0.448985,0.301383,0.448996,0.301192,0.449996,0.275192,0.450000,0.275000,0.450000,-0.275000,0.449996,-0.275192,0.448996,-0.301192,
0.448985,-0.301383,0.446985,-0.327383,0.446967,-0.327573,0.443967,-0.353573,0.443910,-0.353944,0.438910,-0.379944,0.438862,-0.380167,0.432862,-0.405167,0.432828,-0.405300,0.425828,-0.431300,0.425682,-0.431756,0.416682,-0.455756,0.416615,-0.455923,0.406615,-0.479923,0.406545,-0.480083,0.395545,-0.504083,0.395353,-0.504460,0.382353,-0.527460,0.382218,-0.527684,0.354218,-0.571684,
0.353977,-0.572030,0.337977,-0.593030,0.337810,-0.593238,0.320810,-0.613238,0.320630,-0.613439,0.302630,-0.632439,0.302439,-0.632630,0.283439,-0.650630,0.283238,-0.650810,0.263238,-0.667810,0.263030,-0.667977,0.242030,-0.683977,0.241684,-0.684218,0.197684,-0.712218,0.197460,-0.712353,0.174460,-0.725353,0.174083,-0.725545,0.150083,-0.736545,0.149923,-0.736615,0.125923,-0.746615,
0.125756,-0.746682,0.101756,-0.755682,0.101300,-0.755828,0.075300,-0.762828,0.075167,-0.762862,0.050167,-0.768862,0.049944,-0.768910,0.023944,-0.773910,0.023573,-0.773967,-0.002427,-0.776967,-0.002617,-0.776985,-0.028617,-0.778985,-0.028808,-0.778996,-0.054808,-0.779996,-0.055000,-0.780000,-1.200000,-0.780000,-1.203536,-0.778536,-1.205000,-0.775000,-1.205000,0.775000,-1.203536,0.778536,
-1.200000,0.780000,-0.055000,0.780000,-0.054808,0.779996,-0.054808,0.779996,$1*%
G04 Aperture macros list end*
%TA.AperFunction,ComponentPad*%
%ADD10C,0.400000*%
%TD*%
%TA.AperFunction,ComponentPad*%
%ADD11RoundRect,0.250000X-0.600000X-0.725000X0.600000X-0.725000X0.600000X0.725000X-0.600000X0.725000X0*%
%TD*%
%TA.AperFunction,ComponentPad*%
%ADD12O,1.700000X1.950000*%
%TD*%
%TA.AperFunction,ComponentPad*%
%ADD13FreePoly0,270.000000*%
%TD*%
%TA.AperFunction,ComponentPad*%
%ADD14FreePoly1,270.000000*%
%TD*%
%TA.AperFunction,ComponentPad*%
%ADD15O,0.950000X1.300000*%
%TD*%
%TA.AperFunction,ComponentPad*%
%ADD16C,4.400000*%
%TD*%
%TA.AperFunction,ComponentPad*%
%ADD17RoundRect,0.250000X0.750000X-0.600000X0.750000X0.600000X-0.750000X0.600000X-0.750000X-0.600000X0*%
%TD*%
%TA.AperFunction,ComponentPad*%
%ADD18O,2.000000X1.700000*%
%TD*%
%TA.AperFunction,ViaPad*%
%ADD19C,0.600000*%
%TD*%
G04 APERTURE END LIST*
D10*
%TO.N,GND*%
%TO.C,U1*%
X127600000Y-84180000D03*
X129000000Y-84180000D03*
X126900000Y-84880000D03*
X128300000Y-84880000D03*
X129700000Y-84880000D03*
X127600000Y-85580000D03*
X129000000Y-85580000D03*
X126900000Y-86280000D03*
X128300000Y-86280000D03*
X129700000Y-86280000D03*
X127600000Y-86980000D03*
X129000000Y-86980000D03*
%TD*%
D11*
%TO.N,/SCK*%
%TO.C,J2*%
X124300000Y-100500000D03*
D12*
%TO.N,/CS*%
X126800000Y-100500000D03*
%TO.N,/MOSI*%
X129300000Y-100500000D03*
%TO.N,/MISO*%
X131800000Y-100500000D03*
%TD*%
D13*
%TO.N,GND*%
%TO.C,J1*%
X110500000Y-90500000D03*
D14*
X110500000Y-97500000D03*
D15*
X113200000Y-91500000D03*
X113200000Y-96500000D03*
%TD*%
D16*
%TO.N,GND*%
%TO.C,H4*%
X139800000Y-103300000D03*
%TD*%
D17*
%TO.N,+3.3V*%
%TO.C,J3*%
X111100000Y-81900000D03*
D18*
%TO.N,GND*%
X111100000Y-79400000D03*
%TD*%
D16*
%TO.N,GND*%
%TO.C,H2*%
X139800000Y-72200000D03*
%TD*%
%TO.N,GND*%
%TO.C,H1*%
X110100000Y-72100000D03*
%TD*%
%TO.N,GND*%
%TO.C,H3*%
X110100000Y-103200000D03*
%TD*%
D19*
%TO.N,GND*%
X139800000Y-100000000D03*
X125500000Y-85600000D03*
X116600000Y-71700000D03*
X140500000Y-77860000D03*
X116000000Y-101200000D03*
X110100000Y-100000000D03*
X110100000Y-75600000D03*
X114300000Y-95300000D03*
X119400000Y-77000000D03*
X139800000Y-75700000D03*
X113400000Y-75700000D03*
X114300000Y-96500000D03*
X114300000Y-91500000D03*
X116600000Y-86600000D03*
%TO.N,/SCK*%
X129165000Y-97200000D03*
X125400000Y-97200000D03*
%TD*%
%TA.AperFunction,Conductor*%
%TO.N,GND*%
G36*
X109260967Y-103916602D02*
G01*
X109383398Y-104039033D01*
X109517262Y-104136290D01*
X108375030Y-105278522D01*
X108375030Y-105278523D01*
X108501862Y-105377889D01*
X108542495Y-105434729D01*
X108545947Y-105504513D01*
X108511123Y-105565086D01*
X108449079Y-105597216D01*
X108425389Y-105599500D01*
X107824500Y-105599500D01*
X107757461Y-105579815D01*
X107711706Y-105527011D01*
X107700500Y-105475500D01*
X107700500Y-104874610D01*
X107720185Y-104807571D01*
X107772989Y-104761816D01*
X107842147Y-104751872D01*
X107905703Y-104780897D01*
X107922111Y-104798137D01*
X108021476Y-104924968D01*
X109163708Y-103782736D01*
X109260967Y-103916602D01*
G37*
%TD.AperFunction*%
%TA.AperFunction,Conductor*%
G36*
X138337880Y-69720185D02*
G01*
X138383635Y-69772989D01*
X138393579Y-69842147D01*
X138364554Y-69905703D01*
X138334991Y-69930617D01*
X138263422Y-69973881D01*
X138263416Y-69973886D01*
X138075030Y-70121474D01*
X138075029Y-70121476D01*
X139217262Y-71263709D01*
X139083398Y-71360967D01*
X138960967Y-71483398D01*
X138863709Y-71617262D01*
X137721476Y-70475029D01*
X137721474Y-70475030D01*
X137573886Y-70663416D01*
X137573881Y-70663422D01*
X137404898Y-70942956D01*
X137404897Y-70942958D01*
X137270839Y-71240824D01*
X137270835Y-71240835D01*
X137173667Y-71552658D01*
X137114786Y-71873961D01*
X137095065Y-72200000D01*
X137114786Y-72526038D01*
X137173667Y-72847341D01*
X137270835Y-73159164D01*
X137270839Y-73159175D01*
X137404897Y-73457041D01*
X137404898Y-73457043D01*
X137573881Y-73736576D01*
X137721476Y-73924968D01*
X138863708Y-72782736D01*
X138960967Y-72916602D01*
X139083398Y-73039033D01*
X139217262Y-73136290D01*
X138075030Y-74278522D01*
X138075030Y-74278523D01*
X138263423Y-74426118D01*
X138542956Y-74595101D01*
X138542958Y-74595102D01*
X138840824Y-74729160D01*
X138840835Y-74729164D01*
X139152658Y-74826332D01*
X139473961Y-74885213D01*
X139800000Y-74904934D01*
X140126038Y-74885213D01*
X140447341Y-74826332D01*
X140759164Y-74729164D01*
X140759175Y-74729160D01*
X141057041Y-74595102D01*
X141057043Y-74595101D01*
X141336586Y-74426112D01*
X141524968Y-74278523D01*
X141524968Y-74278522D01*
X140382737Y-73136290D01*
X140516602Y-73039033D01*
X140639033Y-72916602D01*
X140736290Y-72782736D01*
X141878522Y-73924968D01*
X141878523Y-73924968D01*
X141977889Y-73798138D01*
X142034729Y-73757505D01*
X142104514Y-73754053D01*
X142165086Y-73788877D01*
X142197216Y-73850921D01*
X142199500Y-73874611D01*
X142199500Y-101625389D01*
X142179815Y-101692428D01*
X142127011Y-101738183D01*
X142057853Y-101748127D01*
X141994297Y-101719102D01*
X141977889Y-101701862D01*
X141878522Y-101575030D01*
X140736290Y-102717261D01*
X140639033Y-102583398D01*
X140516602Y-102460967D01*
X140382736Y-102363709D01*
X141524968Y-101221476D01*
X141336576Y-101073881D01*
X141057043Y-100904898D01*
X141057041Y-100904897D01*
X140759175Y-100770839D01*
X140759164Y-100770835D01*
X140447341Y-100673667D01*
X140126038Y-100614786D01*
X139800000Y-100595065D01*
X139473961Y-100614786D01*
X139152658Y-100673667D01*
X138840835Y-100770835D01*
X138840824Y-100770839D01*
X138542958Y-100904897D01*
X138542956Y-100904898D01*
X138263422Y-101073881D01*
X138263416Y-101073886D01*
X138075030Y-101221474D01*
X138075029Y-101221476D01*
X139217262Y-102363709D01*
X139083398Y-102460967D01*
X138960967Y-102583398D01*
X138863709Y-102717262D01*
X137721476Y-101575029D01*
X137721474Y-101575030D01*
X137573886Y-101763416D01*
X137573881Y-101763422D01*
X137404898Y-102042956D01*
X137404897Y-102042958D01*
X137270839Y-102340824D01*
X137270835Y-102340835D01*
X137173667Y-102652658D01*
X137114786Y-102973961D01*
X137095065Y-103300000D01*
X137114786Y-103626038D01*
X137173667Y-103947341D01*
X137270835Y-104259164D01*
X137270839Y-104259175D01*
X137404897Y-104557041D01*
X137404898Y-104557043D01*
X137573881Y-104836576D01*
X137721476Y-105024968D01*
X138863708Y-103882736D01*
X138960967Y-104016602D01*
X139083398Y-104139033D01*
X139217262Y-104236290D01*
X138075030Y-105378522D01*
X138075063Y-105379067D01*
X138114854Y-105434729D01*
X138118306Y-105504514D01*
X138083482Y-105565086D01*
X138021438Y-105597216D01*
X137997748Y-105599500D01*
X111774611Y-105599500D01*
X111707572Y-105579815D01*
X111661817Y-105527011D01*
X111651873Y-105457853D01*
X111680898Y-105394297D01*
X111698138Y-105377889D01*
X111824968Y-105278523D01*
X111824968Y-105278522D01*
X110682737Y-104136290D01*
X110816602Y-104039033D01*
X110939033Y-103916602D01*
X111036290Y-103782737D01*
X112178522Y-104924968D01*
X112178523Y-104924968D01*
X112326112Y-104736586D01*
X112495101Y-104457043D01*
X112495102Y-104457041D01*
X112629160Y-104159175D01*
X112629164Y-104159164D01*
X112726332Y-103847341D01*
X112785213Y-103526038D01*
X112804934Y-103200000D01*
X112785213Y-102873961D01*
X112726332Y-102552658D01*
X112683819Y-102416228D01*
X121849500Y-102416228D01*
X121849500Y-102583771D01*
X121882182Y-102748074D01*
X121882184Y-102748082D01*
X121946295Y-102902860D01*
X122039373Y-103042162D01*
X122157837Y-103160626D01*
X122216765Y-103200000D01*
X122297137Y-103253703D01*
X122451918Y-103317816D01*
X122616228Y-103350499D01*
X122616232Y-103350500D01*
X122616233Y-103350500D01*
X122783768Y-103350500D01*
X122783769Y-103350499D01*
X122948082Y-103317816D01*
X123102863Y-103253703D01*
X123242162Y-103160626D01*
X123360626Y-103042162D01*
X123453703Y-102902863D01*
X123517816Y-102748082D01*
X123550500Y-102583767D01*
X123550500Y-102416233D01*
X123517816Y-102251918D01*
X123471916Y-102141108D01*
X123464448Y-102071641D01*
X123495723Y-102009162D01*
X123555811Y-101973509D01*
X123599081Y-101970299D01*
X123602300Y-101970627D01*
X123649991Y-101975500D01*
X124950008Y-101975499D01*
X125052797Y-101964999D01*
X125219334Y-101909814D01*
X125368656Y-101817712D01*
X125492712Y-101693656D01*
X125584814Y-101544334D01*
X125584814Y-101544331D01*
X125588178Y-101538879D01*
X125640126Y-101492154D01*
X125709088Y-101480931D01*
X125773170Y-101508774D01*
X125781398Y-101516294D01*
X125920213Y-101655109D01*
X126092179Y-101780048D01*
X126092181Y-101780049D01*
X126092184Y-101780051D01*
X126281588Y-101876557D01*
X126483757Y-101942246D01*
X126693713Y-101975500D01*
X126693714Y-101975500D01*
X126906286Y-101975500D01*
X126906287Y-101975500D01*
X127116243Y-101942246D01*
X127318412Y-101876557D01*
X127507816Y-101780051D01*
X127554275Y-101746297D01*
X127679786Y-101655109D01*
X127679788Y-101655106D01*
X127679792Y-101655104D01*
X127830104Y-101504792D01*
X127949683Y-101340204D01*
X128005011Y-101297540D01*
X128074624Y-101291561D01*
X128136420Y-101324166D01*
X128150313Y-101340199D01*
X128248272Y-101475029D01*
X128269896Y-101504792D01*
X128420213Y-101655109D01*
X128592179Y-101780048D01*
X128592181Y-101780049D01*
X128592184Y-101780051D01*
X128781588Y-101876557D01*
X128983757Y-101942246D01*
X129193713Y-101975500D01*
X129193714Y-101975500D01*
X129406286Y-101975500D01*
X129406287Y-101975500D01*
X129616243Y-101942246D01*
X129818412Y-101876557D01*
X130007816Y-101780051D01*
X130054275Y-101746297D01*
X130179786Y-101655109D01*
X130179788Y-101655106D01*
X130179792Y-101655104D01*
X130330104Y-101504792D01*
X130449683Y-101340204D01*
X130505011Y-101297540D01*
X130574624Y-101291561D01*
X130636420Y-101324166D01*
X130650313Y-101340199D01*
X130748272Y-101475029D01*
X130769896Y-101504792D01*
X130920213Y-101655109D01*
X131092179Y-101780048D01*
X131092181Y-101780049D01*
X131092184Y-101780051D01*
X131281588Y-101876557D01*
X131483757Y-101942246D01*
X131693713Y-101975500D01*
X131693714Y-101975500D01*
X131906286Y-101975500D01*
X131906287Y-101975500D01*
X132116243Y-101942246D01*
X132318412Y-101876557D01*
X132507816Y-101780051D01*
X132554275Y-101746297D01*
X132679786Y-101655109D01*
X132679788Y-101655106D01*
X132679792Y-101655104D01*
X132830104Y-101504792D01*
X132830106Y-101504788D01*
X132830109Y-101504786D01*
X132955048Y-101332820D01*
X132955047Y-101332820D01*
X132955051Y-101332816D01*
X133051557Y-101143412D01*
X133117246Y-100941243D01*
X133150500Y-100731287D01*
X133150500Y-100268713D01*
X133117246Y-100058757D01*
X133051557Y-99856588D01*
X132955051Y-99667184D01*
X132955049Y-99667181D01*
X132955048Y-99667179D01*
X132830109Y-99495213D01*
X132679786Y-99344890D01*
X132507820Y-99219951D01*
X132318414Y-99123444D01*
X132318413Y-99123443D01*
X132318412Y-99123443D01*
X132116243Y-99057754D01*
X132116241Y-99057753D01*
X132116240Y-99057753D01*
X131954957Y-99032208D01*
X131906287Y-99024500D01*
X131693713Y-99024500D01*
X131645042Y-99032208D01*
X131483760Y-99057753D01*
X131281585Y-99123444D01*
X131092179Y-99219951D01*
X130920213Y-99344890D01*
X130769894Y-99495209D01*
X130769890Y-99495214D01*
X130650318Y-99659793D01*
X130594989Y-99702459D01*
X130525375Y-99708438D01*
X130463580Y-99675833D01*
X130449682Y-99659793D01*
X130330109Y-99495214D01*
X130330105Y-99495209D01*
X130179786Y-99344890D01*
X130007820Y-99219951D01*
X129818414Y-99123444D01*
X129818413Y-99123443D01*
X129818412Y-99123443D01*
X129616243Y-99057754D01*
X129616241Y-99057753D01*
X129616240Y-99057753D01*
X129454957Y-99032208D01*
X129406287Y-99024500D01*
X129193713Y-99024500D01*
X129145042Y-99032208D01*
X128983760Y-99057753D01*
X128781585Y-99123444D01*
X128592179Y-99219951D01*
X128420213Y-99344890D01*
X128269894Y-99495209D01*
X128269890Y-99495214D01*
X128150318Y-99659793D01*
X128094989Y-99702459D01*
X128025375Y-99708438D01*
X127963580Y-99675833D01*
X127949682Y-99659793D01*
X127830109Y-99495214D01*
X127830105Y-99495209D01*
X127679786Y-99344890D01*
X127507820Y-99219951D01*
X127318414Y-99123444D01*
X127318413Y-99123443D01*
X127318412Y-99123443D01*
X127116243Y-99057754D01*
X127116241Y-99057753D01*
X127116240Y-99057753D01*
X126954957Y-99032208D01*
X126906287Y-99024500D01*
X126693713Y-99024500D01*
X126645042Y-99032208D01*
X126483760Y-99057753D01*
X126281585Y-99123444D01*
X126092179Y-99219951D01*
X125920215Y-99344889D01*
X125781398Y-99483706D01*
X125720075Y-99517190D01*
X125650383Y-99512206D01*
X125594450Y-99470334D01*
X125588178Y-99461120D01*
X125492712Y-99306344D01*
X125368657Y-99182289D01*
X125368656Y-99182288D01*
X125219334Y-99090186D01*
X125052797Y-99035001D01*
X125052795Y-99035000D01*
X124950010Y-99024500D01*
X123649998Y-99024500D01*
X123649981Y-99024501D01*
X123547203Y-99035000D01*
X123547200Y-99035001D01*
X123380668Y-99090185D01*
X123380663Y-99090187D01*
X123231342Y-99182289D01*
X123107289Y-99306342D01*
X123015187Y-99455663D01*
X123015185Y-99455668D01*
X123010325Y-99470334D01*
X122960001Y-99622203D01*
X122960001Y-99622204D01*
X122960000Y-99622204D01*
X122949500Y-99724983D01*
X122949500Y-101275001D01*
X122949501Y-101275018D01*
X122960000Y-101377796D01*
X122960001Y-101377799D01*
X123001830Y-101504028D01*
X123004232Y-101573856D01*
X122968500Y-101633898D01*
X122905980Y-101665091D01*
X122859934Y-101664650D01*
X122808015Y-101654323D01*
X122783767Y-101649500D01*
X122616233Y-101649500D01*
X122616228Y-101649500D01*
X122451925Y-101682182D01*
X122451917Y-101682184D01*
X122297139Y-101746295D01*
X122157837Y-101839373D01*
X122039373Y-101957837D01*
X121946295Y-102097139D01*
X121882184Y-102251917D01*
X121882182Y-102251925D01*
X121849500Y-102416228D01*
X112683819Y-102416228D01*
X112629164Y-102240835D01*
X112629160Y-102240824D01*
X112495102Y-101942958D01*
X112495101Y-101942956D01*
X112326118Y-101663423D01*
X112178522Y-101475030D01*
X111036290Y-102617262D01*
X110939033Y-102483398D01*
X110816602Y-102360967D01*
X110682736Y-102263709D01*
X111824968Y-101121476D01*
X111636576Y-100973881D01*
X111357043Y-100804898D01*
X111357041Y-100804897D01*
X111059175Y-100670839D01*
X111059164Y-100670835D01*
X110747341Y-100573667D01*
X110426038Y-100514786D01*
X110100000Y-100495065D01*
X109773961Y-100514786D01*
X109452658Y-100573667D01*
X109140835Y-100670835D01*
X109140824Y-100670839D01*
X108842958Y-100804897D01*
X108842956Y-100804898D01*
X108563422Y-100973881D01*
X108563416Y-100973886D01*
X108375030Y-101121474D01*
X108375029Y-101121476D01*
X109517262Y-102263709D01*
X109383398Y-102360967D01*
X109260967Y-102483398D01*
X109163709Y-102617262D01*
X108021476Y-101475029D01*
X108021475Y-101475030D01*
X107922111Y-101601861D01*
X107865272Y-101642493D01*
X107795487Y-101645946D01*
X107734914Y-101611122D01*
X107702784Y-101549079D01*
X107700500Y-101525388D01*
X107700500Y-96300001D01*
X109210000Y-96300001D01*
X109210000Y-97250000D01*
X110125272Y-97250000D01*
X110033386Y-97288060D01*
X109963060Y-97358386D01*
X109925000Y-97450272D01*
X109925000Y-97549728D01*
X109963060Y-97641614D01*
X110033386Y-97711940D01*
X110125272Y-97750000D01*
X109256465Y-97750000D01*
X109258600Y-97757232D01*
X109258885Y-97758117D01*
X109266791Y-97780831D01*
X109275795Y-97804838D01*
X109278798Y-97812650D01*
X109278954Y-97813047D01*
X109282613Y-97822073D01*
X109292586Y-97846008D01*
X109295889Y-97853753D01*
X109296055Y-97854136D01*
X109299826Y-97862568D01*
X109310822Y-97886559D01*
X109320150Y-97905823D01*
X109320533Y-97906574D01*
X109330668Y-97925425D01*
X109343666Y-97948421D01*
X109350325Y-97959849D01*
X109350635Y-97960367D01*
X109357526Y-97971512D01*
X109385507Y-98015481D01*
X109397644Y-98033671D01*
X109398148Y-98034394D01*
X109410346Y-98051102D01*
X109426359Y-98072120D01*
X109434716Y-98082788D01*
X109435067Y-98083224D01*
X109443593Y-98093527D01*
X109460617Y-98113556D01*
X109469106Y-98123287D01*
X109469503Y-98123731D01*
X109479105Y-98134156D01*
X109497139Y-98153193D01*
X109506683Y-98162998D01*
X109507001Y-98163316D01*
X109516806Y-98172860D01*
X109535843Y-98190894D01*
X109546268Y-98200496D01*
X109546712Y-98200893D01*
X109556443Y-98209382D01*
X109576472Y-98226406D01*
X109586775Y-98234932D01*
X109587211Y-98235283D01*
X109597879Y-98243640D01*
X109618897Y-98259653D01*
X109635605Y-98271851D01*
X109636328Y-98272355D01*
X109654518Y-98284492D01*
X109698487Y-98312473D01*
X109709632Y-98319364D01*
X109710150Y-98319674D01*
X109721578Y-98326333D01*
X109744574Y-98339331D01*
X109763425Y-98349466D01*
X109764176Y-98349849D01*
X109783440Y-98359177D01*
X109807431Y-98370173D01*
X109815863Y-98373944D01*
X109816246Y-98374110D01*
X109823991Y-98377413D01*
X109847926Y-98387386D01*
X109856952Y-98391045D01*
X109857349Y-98391201D01*
X109865161Y-98394204D01*
X109889168Y-98403208D01*
X109911870Y-98411110D01*
X109912760Y-98411396D01*
X109936118Y-98418293D01*
X109962193Y-98425313D01*
X109968210Y-98426892D01*
X109968644Y-98427003D01*
X109975817Y-98428781D01*
X110000797Y-98434775D01*
X110012465Y-98437431D01*
X110012804Y-98437504D01*
X110023790Y-98439741D01*
X110049747Y-98444734D01*
X110068405Y-98447959D01*
X110069156Y-98448075D01*
X110087956Y-98450604D01*
X110114017Y-98453611D01*
X110122778Y-98454544D01*
X110123196Y-98454584D01*
X110133462Y-98455481D01*
X110159541Y-98457486D01*
X110169223Y-98458137D01*
X110169665Y-98458162D01*
X110179263Y-98458622D01*
X110205216Y-98459621D01*
X110215368Y-98459908D01*
X110215800Y-98459916D01*
X110225012Y-98460000D01*
X110250000Y-98460000D01*
X110250000Y-97750000D01*
X110750000Y-97750000D01*
X110750000Y-98460000D01*
X110774988Y-98460000D01*
X110784199Y-98459916D01*
X110784631Y-98459908D01*
X110794783Y-98459621D01*
X110820736Y-98458622D01*
X110830334Y-98458162D01*
X110830776Y-98458137D01*
X110840458Y-98457486D01*
X110866537Y-98455481D01*
X110876803Y-98454584D01*
X110877221Y-98454544D01*
X110885982Y-98453611D01*
X110912043Y-98450604D01*
X110930843Y-98448075D01*
X110931594Y-98447959D01*
X110950252Y-98444734D01*
X110976209Y-98439741D01*
X110987195Y-98437504D01*
X110987534Y-98437431D01*
X110999202Y-98434775D01*
X111024182Y-98428781D01*
X111031355Y-98427003D01*
X111031789Y-98426892D01*
X111037806Y-98425313D01*
X111063881Y-98418293D01*
X111087239Y-98411396D01*
X111088129Y-98411110D01*
X111110831Y-98403208D01*
X111134838Y-98394204D01*
X111142650Y-98391201D01*
X111143047Y-98391045D01*
X111152073Y-98387386D01*
X111176008Y-98377413D01*
X111183753Y-98374110D01*
X111184136Y-98373944D01*
X111192568Y-98370173D01*
X111216559Y-98359177D01*
X111235823Y-98349849D01*
X111236574Y-98349466D01*
X111255425Y-98339331D01*
X111278421Y-98326333D01*
X111289849Y-98319674D01*
X111290367Y-98319364D01*
X111301512Y-98312473D01*
X111345481Y-98284492D01*
X111363671Y-98272355D01*
X111364394Y-98271851D01*
X111381102Y-98259653D01*
X111402120Y-98243640D01*
X111412788Y-98235283D01*
X111413224Y-98234932D01*
X111423527Y-98226406D01*
X111443556Y-98209382D01*
X111453287Y-98200893D01*
X111453731Y-98200496D01*
X111464156Y-98190894D01*
X111483193Y-98172860D01*
X111492998Y-98163316D01*
X111493316Y-98162998D01*
X111502860Y-98153193D01*
X111520894Y-98134156D01*
X111530496Y-98123731D01*
X111530893Y-98123287D01*
X111539382Y-98113556D01*
X111556406Y-98093527D01*
X111564932Y-98083224D01*
X111565283Y-98082788D01*
X111573640Y-98072120D01*
X111589653Y-98051102D01*
X111601851Y-98034394D01*
X111602355Y-98033671D01*
X111614492Y-98015481D01*
X111642473Y-97971512D01*
X111649364Y-97960367D01*
X111649674Y-97959849D01*
X111656333Y-97948421D01*
X111669331Y-97925425D01*
X111679466Y-97906574D01*
X111679849Y-97905823D01*
X111689177Y-97886559D01*
X111700173Y-97862568D01*
X111703944Y-97854136D01*
X111704110Y-97853753D01*
X111707413Y-97846008D01*
X111717386Y-97822073D01*
X111721045Y-97813047D01*
X111721201Y-97812650D01*
X111724204Y-97804838D01*
X111733208Y-97780831D01*
X111741114Y-97758117D01*
X111741399Y-97757232D01*
X111743535Y-97750000D01*
X110874728Y-97750000D01*
X110966614Y-97711940D01*
X111036940Y-97641614D01*
X111075000Y-97549728D01*
X111075000Y-97450272D01*
X111036940Y-97358386D01*
X110966614Y-97288060D01*
X110874728Y-97250000D01*
X111790000Y-97250000D01*
X111790000Y-96299997D01*
X111787106Y-96246011D01*
X111782755Y-96228966D01*
X112225000Y-96228966D01*
X112225000Y-96250000D01*
X112933408Y-96250000D01*
X112925000Y-96270299D01*
X112925000Y-96729701D01*
X112933408Y-96750000D01*
X112225000Y-96750000D01*
X112225000Y-96771033D01*
X112262466Y-96959389D01*
X112262468Y-96959397D01*
X112335964Y-97136833D01*
X112335969Y-97136842D01*
X112442667Y-97296526D01*
X112442670Y-97296530D01*
X112578469Y-97432329D01*
X112578473Y-97432332D01*
X112738157Y-97539030D01*
X112738167Y-97539035D01*
X112915599Y-97612530D01*
X112915606Y-97612533D01*
X112950000Y-97619373D01*
X112950000Y-96790056D01*
X112966866Y-96830775D01*
X113044225Y-96908134D01*
X113145299Y-96950000D01*
X113254701Y-96950000D01*
X113355775Y-96908134D01*
X113433134Y-96830775D01*
X113450000Y-96790056D01*
X113450000Y-97619372D01*
X113484393Y-97612533D01*
X113484400Y-97612530D01*
X113661832Y-97539035D01*
X113661842Y-97539030D01*
X113821526Y-97432332D01*
X113821530Y-97432329D01*
X113957329Y-97296530D01*
X113957332Y-97296526D01*
X114021832Y-97199996D01*
X124594435Y-97199996D01*
X124594435Y-97200003D01*
X124614630Y-97379249D01*
X124614631Y-97379254D01*
X124674211Y-97549523D01*
X124718101Y-97619373D01*
X124770184Y-97702262D01*
X124897738Y-97829816D01*
X124988044Y-97886559D01*
X125049898Y-97925425D01*
X125050478Y-97925789D01*
X125181147Y-97971512D01*
X125220745Y-97985368D01*
X125220750Y-97985369D01*
X125399996Y-98005565D01*
X125400000Y-98005565D01*
X125400004Y-98005565D01*
X125579249Y-97985369D01*
X125579252Y-97985368D01*
X125579255Y-97985368D01*
X125749522Y-97925789D01*
X125902262Y-97829816D01*
X126029816Y-97702262D01*
X126125789Y-97549522D01*
X126185368Y-97379255D01*
X126185369Y-97379249D01*
X126205565Y-97200003D01*
X126205565Y-97199996D01*
X128359435Y-97199996D01*
X128359435Y-97200003D01*
X128379630Y-97379249D01*
X128379631Y-97379254D01*
X128439211Y-97549523D01*
X128483101Y-97619373D01*
X128535184Y-97702262D01*
X128662738Y-97829816D01*
X128753044Y-97886559D01*
X128814898Y-97925425D01*
X128815478Y-97925789D01*
X128946147Y-97971512D01*
X128985745Y-97985368D01*
X128985750Y-97985369D01*
X129164996Y-98005565D01*
X129165000Y-98005565D01*
X129165004Y-98005565D01*
X129344249Y-97985369D01*
X129344252Y-97985368D01*
X129344255Y-97985368D01*
X129514522Y-97925789D01*
X129667262Y-97829816D01*
X129794816Y-97702262D01*
X129890789Y-97549522D01*
X129950368Y-97379255D01*
X129950369Y-97379249D01*
X129970565Y-97200003D01*
X129970565Y-97199996D01*
X129950369Y-97020750D01*
X129950368Y-97020745D01*
X129928901Y-96959397D01*
X129890789Y-96850478D01*
X129794816Y-96697738D01*
X129667262Y-96570184D01*
X129514523Y-96474211D01*
X129344254Y-96414631D01*
X129344249Y-96414630D01*
X129165004Y-96394435D01*
X129164996Y-96394435D01*
X128985750Y-96414630D01*
X128985745Y-96414631D01*
X128815476Y-96474211D01*
X128662737Y-96570184D01*
X128535184Y-96697737D01*
X128439211Y-96850476D01*
X128379631Y-97020745D01*
X128379630Y-97020750D01*
X128359435Y-97199996D01*
X126205565Y-97199996D01*
X126185369Y-97020750D01*
X126185368Y-97020745D01*
X126163901Y-96959397D01*
X126125789Y-96850478D01*
X126029816Y-96697738D01*
X125902262Y-96570184D01*
X125749523Y-96474211D01*
X125579254Y-96414631D01*
X125579249Y-96414630D01*
X125400004Y-96394435D01*
X125399996Y-96394435D01*
X125220750Y-96414630D01*
X125220745Y-96414631D01*
X125050476Y-96474211D01*
X124897737Y-96570184D01*
X124770184Y-96697737D01*
X124674211Y-96850476D01*
X124614631Y-97020745D01*
X124614630Y-97020750D01*
X124594435Y-97199996D01*
X114021832Y-97199996D01*
X114064030Y-97136842D01*
X114064035Y-97136833D01*
X114137531Y-96959397D01*
X114137533Y-96959389D01*
X114174999Y-96771033D01*
X114175000Y-96771030D01*
X114175000Y-96750000D01*
X113466592Y-96750000D01*
X113475000Y-96729701D01*
X113475000Y-96270299D01*
X113466592Y-96250000D01*
X114175000Y-96250000D01*
X114175000Y-96228970D01*
X114174999Y-96228966D01*
X114137533Y-96040610D01*
X114137531Y-96040602D01*
X114064035Y-95863166D01*
X114064030Y-95863157D01*
X113957332Y-95703473D01*
X113957329Y-95703469D01*
X113821530Y-95567670D01*
X113821526Y-95567667D01*
X113661842Y-95460969D01*
X113661833Y-95460964D01*
X113484397Y-95387468D01*
X113484389Y-95387466D01*
X113450000Y-95380625D01*
X113450000Y-96209943D01*
X113433134Y-96169225D01*
X113355775Y-96091866D01*
X113254701Y-96050000D01*
X113145299Y-96050000D01*
X113044225Y-96091866D01*
X112966866Y-96169225D01*
X112950000Y-96209943D01*
X112950000Y-95380625D01*
X112915610Y-95387466D01*
X112915602Y-95387468D01*
X112738166Y-95460964D01*
X112738157Y-95460969D01*
X112578473Y-95567667D01*
X112578469Y-95567670D01*
X112442670Y-95703469D01*
X112442667Y-95703473D01*
X112335969Y-95863157D01*
X112335964Y-95863166D01*
X112262468Y-96040602D01*
X112262466Y-96040610D01*
X112225000Y-96228966D01*
X111782755Y-96228966D01*
X111751557Y-96106740D01*
X111748628Y-96099669D01*
X111696893Y-96004923D01*
X111598950Y-95899722D01*
X111598948Y-95899721D01*
X111475327Y-95826370D01*
X111468267Y-95823445D01*
X111417271Y-95805455D01*
X111274998Y-95785000D01*
X110750000Y-95785000D01*
X110750000Y-97250000D01*
X110250000Y-97250000D01*
X110250000Y-95785000D01*
X109724998Y-95785000D01*
X109671011Y-95787893D01*
X109531740Y-95823442D01*
X109524669Y-95826371D01*
X109429923Y-95878106D01*
X109324722Y-95976049D01*
X109324721Y-95976051D01*
X109251370Y-96099672D01*
X109248445Y-96106732D01*
X109230455Y-96157728D01*
X109210000Y-96300001D01*
X107700500Y-96300001D01*
X107700500Y-90750000D01*
X109210000Y-90750000D01*
X109210000Y-91700002D01*
X109212893Y-91753988D01*
X109248442Y-91893259D01*
X109251371Y-91900330D01*
X109303106Y-91995076D01*
X109401049Y-92100277D01*
X109401051Y-92100278D01*
X109524672Y-92173629D01*
X109531732Y-92176554D01*
X109582728Y-92194544D01*
X109725001Y-92214999D01*
X109725003Y-92215000D01*
X110250000Y-92215000D01*
X110250000Y-90750000D01*
X110750000Y-90750000D01*
X110750000Y-92215000D01*
X111275002Y-92215000D01*
X111328988Y-92212106D01*
X111468259Y-92176557D01*
X111475330Y-92173628D01*
X111570076Y-92121893D01*
X111675277Y-92023950D01*
X111675278Y-92023948D01*
X111748629Y-91900327D01*
X111751554Y-91893267D01*
X111769544Y-91842271D01*
X111789999Y-91699998D01*
X111790000Y-91699997D01*
X111790000Y-91228966D01*
X112225000Y-91228966D01*
X112225000Y-91250000D01*
X112933408Y-91250000D01*
X112925000Y-91270299D01*
X112925000Y-91729701D01*
X112933408Y-91750000D01*
X112225000Y-91750000D01*
X112225000Y-91771033D01*
X112262466Y-91959389D01*
X112262468Y-91959397D01*
X112335964Y-92136833D01*
X112335969Y-92136842D01*
X112442667Y-92296526D01*
X112442670Y-92296530D01*
X112578469Y-92432329D01*
X112578473Y-92432332D01*
X112738157Y-92539030D01*
X112738167Y-92539035D01*
X112915599Y-92612530D01*
X112915606Y-92612533D01*
X112950000Y-92619373D01*
X112950000Y-91790056D01*
X112966866Y-91830775D01*
X113044225Y-91908134D01*
X113145299Y-91950000D01*
X113254701Y-91950000D01*
X113355775Y-91908134D01*
X113433134Y-91830775D01*
X113450000Y-91790056D01*
X113450000Y-92619372D01*
X113484393Y-92612533D01*
X113484400Y-92612530D01*
X113661832Y-92539035D01*
X113661842Y-92539030D01*
X113821526Y-92432332D01*
X113821530Y-92432329D01*
X113957329Y-92296530D01*
X113957332Y-92296526D01*
X114064030Y-92136842D01*
X114064035Y-92136833D01*
X114137531Y-91959397D01*
X114137533Y-91959389D01*
X114174999Y-91771033D01*
X114175000Y-91771030D01*
X114175000Y-91750000D01*
X113466592Y-91750000D01*
X113475000Y-91729701D01*
X113475000Y-91270299D01*
X113466592Y-91250000D01*
X114175000Y-91250000D01*
X114175000Y-91228970D01*
X114174999Y-91228966D01*
X114137533Y-91040610D01*
X114137531Y-91040602D01*
X114064035Y-90863166D01*
X114064030Y-90863157D01*
X113957332Y-90703473D01*
X113957329Y-90703469D01*
X113821530Y-90567670D01*
X113821526Y-90567667D01*
X113661842Y-90460969D01*
X113661833Y-90460964D01*
X113484397Y-90387468D01*
X113484389Y-90387466D01*
X113450000Y-90380625D01*
X113450000Y-91209943D01*
X113433134Y-91169225D01*
X113355775Y-91091866D01*
X113254701Y-91050000D01*
X113145299Y-91050000D01*
X113044225Y-91091866D01*
X112966866Y-91169225D01*
X112950000Y-91209943D01*
X112950000Y-90380625D01*
X112915610Y-90387466D01*
X112915602Y-90387468D01*
X112738166Y-90460964D01*
X112738157Y-90460969D01*
X112578473Y-90567667D01*
X112578469Y-90567670D01*
X112442670Y-90703469D01*
X112442667Y-90703473D01*
X112335969Y-90863157D01*
X112335964Y-90863166D01*
X112262468Y-91040602D01*
X112262466Y-91040610D01*
X112225000Y-91228966D01*
X111790000Y-91228966D01*
X111790000Y-90750000D01*
X110874728Y-90750000D01*
X110966614Y-90711940D01*
X111036940Y-90641614D01*
X111075000Y-90549728D01*
X111075000Y-90450272D01*
X111036940Y-90358386D01*
X110966614Y-90288060D01*
X110874728Y-90250000D01*
X111743535Y-90250000D01*
X111743534Y-90249999D01*
X111741399Y-90242767D01*
X111741114Y-90241882D01*
X111733208Y-90219168D01*
X111724204Y-90195161D01*
X111721201Y-90187349D01*
X111721045Y-90186952D01*
X111717386Y-90177926D01*
X111707413Y-90153991D01*
X111704110Y-90146246D01*
X111703944Y-90145863D01*
X111700173Y-90137431D01*
X111689177Y-90113440D01*
X111679849Y-90094176D01*
X111679466Y-90093425D01*
X111669331Y-90074574D01*
X111656333Y-90051578D01*
X111649674Y-90040150D01*
X111649364Y-90039632D01*
X111642473Y-90028487D01*
X111614492Y-89984518D01*
X111602355Y-89966328D01*
X111601851Y-89965605D01*
X111589653Y-89948897D01*
X111573640Y-89927879D01*
X111565283Y-89917211D01*
X111564932Y-89916775D01*
X111556406Y-89906472D01*
X111539382Y-89886443D01*
X111530893Y-89876712D01*
X111530496Y-89876268D01*
X111520894Y-89865843D01*
X111502860Y-89846806D01*
X111493316Y-89837001D01*
X111492998Y-89836683D01*
X111483193Y-89827139D01*
X111464156Y-89809105D01*
X111453731Y-89799503D01*
X111453287Y-89799106D01*
X111443556Y-89790617D01*
X111423527Y-89773593D01*
X111413224Y-89765067D01*
X111412788Y-89764716D01*
X111402120Y-89756359D01*
X111381102Y-89740346D01*
X111364394Y-89728148D01*
X111363671Y-89727644D01*
X111345481Y-89715507D01*
X111301512Y-89687526D01*
X111290367Y-89680635D01*
X111289849Y-89680325D01*
X111278421Y-89673666D01*
X111255425Y-89660668D01*
X111236574Y-89650533D01*
X111235823Y-89650150D01*
X111216559Y-89640822D01*
X111192568Y-89629826D01*
X111184136Y-89626055D01*
X111183753Y-89625889D01*
X111176008Y-89622586D01*
X111152073Y-89612613D01*
X111143047Y-89608954D01*
X111142650Y-89608798D01*
X111134838Y-89605795D01*
X111110831Y-89596791D01*
X111088129Y-89588889D01*
X111087239Y-89588603D01*
X111063881Y-89581706D01*
X111037806Y-89574686D01*
X111031789Y-89573107D01*
X111031355Y-89572996D01*
X111024182Y-89571218D01*
X110999202Y-89565224D01*
X110987534Y-89562568D01*
X110987195Y-89562495D01*
X110976209Y-89560258D01*
X110950252Y-89555265D01*
X110931594Y-89552040D01*
X110930843Y-89551924D01*
X110912043Y-89549395D01*
X110885982Y-89546388D01*
X110877221Y-89545455D01*
X110876803Y-89545415D01*
X110866537Y-89544518D01*
X110840458Y-89542513D01*
X110830776Y-89541862D01*
X110830334Y-89541837D01*
X110820736Y-89541377D01*
X110794783Y-89540378D01*
X110784631Y-89540091D01*
X110784199Y-89540083D01*
X110774988Y-89540000D01*
X110750000Y-89540000D01*
X110750000Y-90250000D01*
X110250000Y-90250000D01*
X110250000Y-89540000D01*
X110225012Y-89540000D01*
X110215800Y-89540083D01*
X110215368Y-89540091D01*
X110205216Y-89540378D01*
X110179263Y-89541377D01*
X110169665Y-89541837D01*
X110169223Y-89541862D01*
X110159541Y-89542513D01*
X110133462Y-89544518D01*
X110123196Y-89545415D01*
X110122778Y-89545455D01*
X110114017Y-89546388D01*
X110087956Y-89549395D01*
X110069156Y-89551924D01*
X110068405Y-89552040D01*
X110049747Y-89555265D01*
X110023790Y-89560258D01*
X110012804Y-89562495D01*
X110012465Y-89562568D01*
X110000797Y-89565224D01*
X109975817Y-89571218D01*
X109968644Y-89572996D01*
X109968210Y-89573107D01*
X109962193Y-89574686D01*
X109936118Y-89581706D01*
X109912760Y-89588603D01*
X109911870Y-89588889D01*
X109889168Y-89596791D01*
X109865161Y-89605795D01*
X109857349Y-89608798D01*
X109856952Y-89608954D01*
X109847926Y-89612613D01*
X109823991Y-89622586D01*
X109816246Y-89625889D01*
X109815863Y-89626055D01*
X109807431Y-89629826D01*
X109783440Y-89640822D01*
X109764176Y-89650150D01*
X109763425Y-89650533D01*
X109744574Y-89660668D01*
X109721578Y-89673666D01*
X109710150Y-89680325D01*
X109709632Y-89680635D01*
X109698487Y-89687526D01*
X109654518Y-89715507D01*
X109636328Y-89727644D01*
X109635605Y-89728148D01*
X109618897Y-89740346D01*
X109597879Y-89756359D01*
X109587211Y-89764716D01*
X109586775Y-89765067D01*
X109576472Y-89773593D01*
X109556443Y-89790617D01*
X109546712Y-89799106D01*
X109546268Y-89799503D01*
X109535843Y-89809105D01*
X109516806Y-89827139D01*
X109507001Y-89836683D01*
X109506683Y-89837001D01*
X109497139Y-89846806D01*
X109479105Y-89865843D01*
X109469503Y-89876268D01*
X109469106Y-89876712D01*
X109460617Y-89886443D01*
X109443593Y-89906472D01*
X109435067Y-89916775D01*
X109434716Y-89917211D01*
X109426359Y-89927879D01*
X109410346Y-89948897D01*
X109398148Y-89965605D01*
X109397644Y-89966328D01*
X109385507Y-89984518D01*
X109357526Y-90028487D01*
X109350635Y-90039632D01*
X109350325Y-90040150D01*
X109343666Y-90051578D01*
X109330668Y-90074574D01*
X109320533Y-90093425D01*
X109320150Y-90094176D01*
X109310822Y-90113440D01*
X109299826Y-90137431D01*
X109296055Y-90145863D01*
X109295889Y-90146246D01*
X109292586Y-90153991D01*
X109282613Y-90177926D01*
X109278954Y-90186952D01*
X109278798Y-90187349D01*
X109275795Y-90195161D01*
X109266791Y-90219168D01*
X109258885Y-90241882D01*
X109258600Y-90242767D01*
X109256465Y-90249999D01*
X109256465Y-90250000D01*
X110125272Y-90250000D01*
X110033386Y-90288060D01*
X109963060Y-90358386D01*
X109925000Y-90450272D01*
X109925000Y-90549728D01*
X109963060Y-90641614D01*
X110033386Y-90711940D01*
X110125272Y-90750000D01*
X109210000Y-90750000D01*
X107700500Y-90750000D01*
X107700500Y-87595801D01*
X127267039Y-87595801D01*
X127349955Y-87639318D01*
X127515006Y-87680000D01*
X127684994Y-87680000D01*
X127850044Y-87639318D01*
X127932959Y-87595801D01*
X128667039Y-87595801D01*
X128749955Y-87639318D01*
X128915006Y-87680000D01*
X129084994Y-87680000D01*
X129250044Y-87639318D01*
X129332959Y-87595801D01*
X129000001Y-87262843D01*
X129000000Y-87262843D01*
X128667039Y-87595801D01*
X127932959Y-87595801D01*
X127600001Y-87262843D01*
X127600000Y-87262843D01*
X127267039Y-87595801D01*
X107700500Y-87595801D01*
X107700500Y-86895801D01*
X126567039Y-86895801D01*
X126649955Y-86939318D01*
X126814218Y-86979806D01*
X126874599Y-87014963D01*
X126906387Y-87077182D01*
X126907639Y-87085256D01*
X126915348Y-87148748D01*
X126915349Y-87148751D01*
X126975629Y-87307694D01*
X126981277Y-87315878D01*
X127317157Y-86980000D01*
X127297266Y-86960109D01*
X127500000Y-86960109D01*
X127500000Y-86999891D01*
X127515224Y-87036645D01*
X127543355Y-87064776D01*
X127580109Y-87080000D01*
X127619891Y-87080000D01*
X127656645Y-87064776D01*
X127684776Y-87036645D01*
X127700000Y-86999891D01*
X127700000Y-86980000D01*
X127882843Y-86980000D01*
X128218721Y-87315879D01*
X128237150Y-87314204D01*
X128252227Y-87301986D01*
X128321675Y-87294325D01*
X128361398Y-87314071D01*
X128381277Y-87315878D01*
X128717157Y-86980000D01*
X128697266Y-86960109D01*
X128900000Y-86960109D01*
X128900000Y-86999891D01*
X128915224Y-87036645D01*
X128943355Y-87064776D01*
X128980109Y-87080000D01*
X129019891Y-87080000D01*
X129056645Y-87064776D01*
X129084776Y-87036645D01*
X129100000Y-86999891D01*
X129100000Y-86980000D01*
X129282843Y-86980000D01*
X129618721Y-87315879D01*
X129624370Y-87307694D01*
X129684650Y-87148751D01*
X129684651Y-87148747D01*
X129692360Y-87085258D01*
X129719981Y-87021080D01*
X129777915Y-86982022D01*
X129785781Y-86979806D01*
X129950044Y-86939318D01*
X130032959Y-86895801D01*
X129700000Y-86562843D01*
X129282843Y-86980000D01*
X129100000Y-86980000D01*
X129100000Y-86960109D01*
X129084776Y-86923355D01*
X129056645Y-86895224D01*
X129019891Y-86880000D01*
X128980109Y-86880000D01*
X128943355Y-86895224D01*
X128915224Y-86923355D01*
X128900000Y-86960109D01*
X128697266Y-86960109D01*
X128300000Y-86562843D01*
X127882843Y-86980000D01*
X127700000Y-86980000D01*
X127700000Y-86960109D01*
X127684776Y-86923355D01*
X127656645Y-86895224D01*
X127619891Y-86880000D01*
X127580109Y-86880000D01*
X127543355Y-86895224D01*
X127515224Y-86923355D01*
X127500000Y-86960109D01*
X127297266Y-86960109D01*
X127283959Y-86946802D01*
X126900001Y-86562843D01*
X126900000Y-86562843D01*
X126567039Y-86895801D01*
X107700500Y-86895801D01*
X107700500Y-86279999D01*
X126194859Y-86279999D01*
X126194859Y-86280000D01*
X126215348Y-86448748D01*
X126215349Y-86448751D01*
X126275629Y-86607694D01*
X126281277Y-86615878D01*
X126617157Y-86280000D01*
X126617157Y-86279999D01*
X126597267Y-86260109D01*
X126800000Y-86260109D01*
X126800000Y-86299891D01*
X126815224Y-86336645D01*
X126843355Y-86364776D01*
X126880109Y-86380000D01*
X126919891Y-86380000D01*
X126956645Y-86364776D01*
X126984776Y-86336645D01*
X127000000Y-86299891D01*
X127000000Y-86280000D01*
X127182843Y-86280000D01*
X127600000Y-86697157D01*
X128017157Y-86280000D01*
X127997266Y-86260109D01*
X128200000Y-86260109D01*
X128200000Y-86299891D01*
X128215224Y-86336645D01*
X128243355Y-86364776D01*
X128280109Y-86380000D01*
X128319891Y-86380000D01*
X128356645Y-86364776D01*
X128384776Y-86336645D01*
X128400000Y-86299891D01*
X128400000Y-86280000D01*
X128582843Y-86280000D01*
X129000000Y-86697157D01*
X129417157Y-86280000D01*
X129397266Y-86260109D01*
X129600000Y-86260109D01*
X129600000Y-86299891D01*
X129615224Y-86336645D01*
X129643355Y-86364776D01*
X129680109Y-86380000D01*
X129719891Y-86380000D01*
X129756645Y-86364776D01*
X129784776Y-86336645D01*
X129800000Y-86299891D01*
X129800000Y-86279999D01*
X129982843Y-86279999D01*
X129982843Y-86280001D01*
X130318721Y-86615879D01*
X130324370Y-86607694D01*
X130384650Y-86448751D01*
X130384651Y-86448748D01*
X130405141Y-86280000D01*
X130405141Y-86279999D01*
X130384651Y-86111251D01*
X130384650Y-86111245D01*
X130324371Y-85952305D01*
X130318722Y-85944120D01*
X130318721Y-85944120D01*
X129982843Y-86279999D01*
X129800000Y-86279999D01*
X129800000Y-86260109D01*
X129784776Y-86223355D01*
X129756645Y-86195224D01*
X129719891Y-86180000D01*
X129680109Y-86180000D01*
X129643355Y-86195224D01*
X129615224Y-86223355D01*
X129600000Y-86260109D01*
X129397266Y-86260109D01*
X129000000Y-85862843D01*
X128582843Y-86280000D01*
X128400000Y-86280000D01*
X128400000Y-86260109D01*
X128384776Y-86223355D01*
X128356645Y-86195224D01*
X128319891Y-86180000D01*
X128280109Y-86180000D01*
X128243355Y-86195224D01*
X128215224Y-86223355D01*
X128200000Y-86260109D01*
X127997266Y-86260109D01*
X127600000Y-85862843D01*
X127182843Y-86280000D01*
X127000000Y-86280000D01*
X127000000Y-86260109D01*
X126984776Y-86223355D01*
X126956645Y-86195224D01*
X126919891Y-86180000D01*
X126880109Y-86180000D01*
X126843355Y-86195224D01*
X126815224Y-86223355D01*
X126800000Y-86260109D01*
X126597267Y-86260109D01*
X126281277Y-85944119D01*
X126275629Y-85952303D01*
X126275628Y-85952306D01*
X126215349Y-86111245D01*
X126215348Y-86111251D01*
X126194859Y-86279999D01*
X107700500Y-86279999D01*
X107700500Y-85495801D01*
X126567039Y-85495801D01*
X126574334Y-85543727D01*
X126584451Y-85586811D01*
X126574577Y-85614672D01*
X126567039Y-85664196D01*
X126900000Y-85997157D01*
X127317157Y-85580000D01*
X127297266Y-85560109D01*
X127500000Y-85560109D01*
X127500000Y-85599891D01*
X127515224Y-85636645D01*
X127543355Y-85664776D01*
X127580109Y-85680000D01*
X127619891Y-85680000D01*
X127656645Y-85664776D01*
X127684776Y-85636645D01*
X127700000Y-85599891D01*
X127700000Y-85580000D01*
X127882843Y-85580000D01*
X128300000Y-85997157D01*
X128717157Y-85580000D01*
X128697266Y-85560109D01*
X128900000Y-85560109D01*
X128900000Y-85599891D01*
X128915224Y-85636645D01*
X128943355Y-85664776D01*
X128980109Y-85680000D01*
X129019891Y-85680000D01*
X129056645Y-85664776D01*
X129084776Y-85636645D01*
X129100000Y-85599891D01*
X129100000Y-85580000D01*
X129282843Y-85580000D01*
X129700000Y-85997157D01*
X129700001Y-85997157D01*
X130032959Y-85664197D01*
X130025664Y-85616270D01*
X130015547Y-85573195D01*
X130025423Y-85545318D01*
X130032959Y-85495801D01*
X129700000Y-85162843D01*
X129282843Y-85580000D01*
X129100000Y-85580000D01*
X129100000Y-85560109D01*
X129084776Y-85523355D01*
X129056645Y-85495224D01*
X129019891Y-85480000D01*
X128980109Y-85480000D01*
X128943355Y-85495224D01*
X128915224Y-85523355D01*
X128900000Y-85560109D01*
X128697266Y-85560109D01*
X128300000Y-85162843D01*
X127882843Y-85580000D01*
X127700000Y-85580000D01*
X127700000Y-85560109D01*
X127684776Y-85523355D01*
X127656645Y-85495224D01*
X127619891Y-85480000D01*
X127580109Y-85480000D01*
X127543355Y-85495224D01*
X127515224Y-85523355D01*
X127500000Y-85560109D01*
X127297266Y-85560109D01*
X127283959Y-85546802D01*
X126900001Y-85162843D01*
X126900000Y-85162843D01*
X126567039Y-85495801D01*
X107700500Y-85495801D01*
X107700500Y-84879999D01*
X126194859Y-84879999D01*
X126194859Y-84880000D01*
X126215348Y-85048748D01*
X126215349Y-85048751D01*
X126275629Y-85207694D01*
X126281277Y-85215878D01*
X126617157Y-84880000D01*
X126617157Y-84879999D01*
X126597267Y-84860109D01*
X126800000Y-84860109D01*
X126800000Y-84899891D01*
X126815224Y-84936645D01*
X126843355Y-84964776D01*
X126880109Y-84980000D01*
X126919891Y-84980000D01*
X126956645Y-84964776D01*
X126984776Y-84936645D01*
X127000000Y-84899891D01*
X127000000Y-84880000D01*
X127182843Y-84880000D01*
X127600000Y-85297157D01*
X128017157Y-84880000D01*
X127997266Y-84860109D01*
X128200000Y-84860109D01*
X128200000Y-84899891D01*
X128215224Y-84936645D01*
X128243355Y-84964776D01*
X128280109Y-84980000D01*
X128319891Y-84980000D01*
X128356645Y-84964776D01*
X128384776Y-84936645D01*
X128400000Y-84899891D01*
X128400000Y-84880000D01*
X128582843Y-84880000D01*
X129000000Y-85297157D01*
X129417157Y-84880000D01*
X129397266Y-84860109D01*
X129600000Y-84860109D01*
X129600000Y-84899891D01*
X129615224Y-84936645D01*
X129643355Y-84964776D01*
X129680109Y-84980000D01*
X129719891Y-84980000D01*
X129756645Y-84964776D01*
X129784776Y-84936645D01*
X129800000Y-84899891D01*
X129800000Y-84879999D01*
X129982843Y-84879999D01*
X129982843Y-84880001D01*
X130318721Y-85215879D01*
X130324370Y-85207694D01*
X130384650Y-85048751D01*
X130384651Y-85048748D01*
X130405141Y-84880000D01*
X130405141Y-84879999D01*
X130384651Y-84711251D01*
X130384650Y-84711245D01*
X130324371Y-84552305D01*
X130318722Y-84544120D01*
X130318721Y-84544120D01*
X129982843Y-84879999D01*
X129800000Y-84879999D01*
X129800000Y-84860109D01*
X129784776Y-84823355D01*
X129756645Y-84795224D01*
X129719891Y-84780000D01*
X129680109Y-84780000D01*
X129643355Y-84795224D01*
X129615224Y-84823355D01*
X129600000Y-84860109D01*
X129397266Y-84860109D01*
X129000000Y-84462843D01*
X128582843Y-84880000D01*
X128400000Y-84880000D01*
X128400000Y-84860109D01*
X128384776Y-84823355D01*
X128356645Y-84795224D01*
X128319891Y-84780000D01*
X128280109Y-84780000D01*
X128243355Y-84795224D01*
X128215224Y-84823355D01*
X128200000Y-84860109D01*
X127997266Y-84860109D01*
X127600000Y-84462843D01*
X127182843Y-84880000D01*
X127000000Y-84880000D01*
X127000000Y-84860109D01*
X126984776Y-84823355D01*
X126956645Y-84795224D01*
X126919891Y-84780000D01*
X126880109Y-84780000D01*
X126843355Y-84795224D01*
X126815224Y-84823355D01*
X126800000Y-84860109D01*
X126597267Y-84860109D01*
X126281277Y-84544119D01*
X126275629Y-84552303D01*
X126275628Y-84552306D01*
X126215349Y-84711245D01*
X126215348Y-84711251D01*
X126194859Y-84879999D01*
X107700500Y-84879999D01*
X107700500Y-81249983D01*
X109599500Y-81249983D01*
X109599500Y-82550001D01*
X109599501Y-82550018D01*
X109610000Y-82652796D01*
X109610001Y-82652799D01*
X109619739Y-82682185D01*
X109665186Y-82819334D01*
X109757288Y-82968656D01*
X109881344Y-83092712D01*
X110030666Y-83184814D01*
X110197203Y-83239999D01*
X110299991Y-83250500D01*
X111900008Y-83250499D01*
X112002797Y-83239999D01*
X112102266Y-83207037D01*
X112172091Y-83204636D01*
X112232133Y-83240367D01*
X112263327Y-83302887D01*
X112262886Y-83348934D01*
X112249500Y-83416234D01*
X112249500Y-83583771D01*
X112282182Y-83748074D01*
X112282184Y-83748082D01*
X112346295Y-83902860D01*
X112439373Y-84042162D01*
X112557837Y-84160626D01*
X112616602Y-84199891D01*
X112697137Y-84253703D01*
X112697138Y-84253703D01*
X112697139Y-84253704D01*
X112723869Y-84264776D01*
X112851918Y-84317816D01*
X113016228Y-84350499D01*
X113016232Y-84350500D01*
X113016233Y-84350500D01*
X113183768Y-84350500D01*
X113183769Y-84350499D01*
X113348082Y-84317816D01*
X113477531Y-84264196D01*
X126567039Y-84264196D01*
X126900000Y-84597157D01*
X127317157Y-84180000D01*
X127317157Y-84179999D01*
X127297267Y-84160109D01*
X127500000Y-84160109D01*
X127500000Y-84199891D01*
X127515224Y-84236645D01*
X127543355Y-84264776D01*
X127580109Y-84280000D01*
X127619891Y-84280000D01*
X127656645Y-84264776D01*
X127684776Y-84236645D01*
X127700000Y-84199891D01*
X127700000Y-84179999D01*
X127882843Y-84179999D01*
X127916041Y-84213197D01*
X127916041Y-84213198D01*
X128300000Y-84597157D01*
X128717157Y-84180000D01*
X128717157Y-84179999D01*
X128697267Y-84160109D01*
X128900000Y-84160109D01*
X128900000Y-84199891D01*
X128915224Y-84236645D01*
X128943355Y-84264776D01*
X128980109Y-84280000D01*
X129019891Y-84280000D01*
X129056645Y-84264776D01*
X129084776Y-84236645D01*
X129100000Y-84199891D01*
X129100000Y-84179999D01*
X129282843Y-84179999D01*
X129316041Y-84213197D01*
X129316041Y-84213198D01*
X129700000Y-84597157D01*
X129700001Y-84597157D01*
X130032959Y-84264197D01*
X130032959Y-84264196D01*
X129950046Y-84220682D01*
X129785780Y-84180193D01*
X129725400Y-84145036D01*
X129693612Y-84082816D01*
X129692360Y-84074741D01*
X129684651Y-84011252D01*
X129684650Y-84011245D01*
X129624371Y-83852305D01*
X129618722Y-83844120D01*
X129618721Y-83844120D01*
X129282843Y-84179999D01*
X129100000Y-84179999D01*
X129100000Y-84160109D01*
X129084776Y-84123355D01*
X129056645Y-84095224D01*
X129019891Y-84080000D01*
X128980109Y-84080000D01*
X128943355Y-84095224D01*
X128915224Y-84123355D01*
X128900000Y-84160109D01*
X128697267Y-84160109D01*
X128381277Y-83844119D01*
X128362837Y-83845796D01*
X128347777Y-83858004D01*
X128278329Y-83865671D01*
X128238603Y-83845927D01*
X128218721Y-83844120D01*
X127882843Y-84179999D01*
X127700000Y-84179999D01*
X127700000Y-84160109D01*
X127684776Y-84123355D01*
X127656645Y-84095224D01*
X127619891Y-84080000D01*
X127580109Y-84080000D01*
X127543355Y-84095224D01*
X127515224Y-84123355D01*
X127500000Y-84160109D01*
X127297267Y-84160109D01*
X126981277Y-83844119D01*
X126975629Y-83852303D01*
X126975628Y-83852306D01*
X126915349Y-84011245D01*
X126915348Y-84011251D01*
X126907639Y-84074743D01*
X126880017Y-84138921D01*
X126822082Y-84177977D01*
X126814219Y-84180193D01*
X126649951Y-84220682D01*
X126567039Y-84264196D01*
X113477531Y-84264196D01*
X113502863Y-84253703D01*
X113642162Y-84160626D01*
X113760626Y-84042162D01*
X113853703Y-83902863D01*
X113917816Y-83748082D01*
X113950500Y-83583767D01*
X113950500Y-83564196D01*
X127267039Y-83564196D01*
X127600000Y-83897157D01*
X127600001Y-83897157D01*
X127932959Y-83564197D01*
X127932959Y-83564196D01*
X128667039Y-83564196D01*
X129000000Y-83897157D01*
X129000001Y-83897157D01*
X129332959Y-83564197D01*
X129332959Y-83564196D01*
X129250046Y-83520682D01*
X129084994Y-83480000D01*
X128915006Y-83480000D01*
X128749951Y-83520682D01*
X128667039Y-83564196D01*
X127932959Y-83564196D01*
X127850046Y-83520682D01*
X127684994Y-83480000D01*
X127515006Y-83480000D01*
X127349951Y-83520682D01*
X127267039Y-83564196D01*
X113950500Y-83564196D01*
X113950500Y-83416233D01*
X113917816Y-83251918D01*
X113853703Y-83097137D01*
X113822537Y-83050494D01*
X113760626Y-82957837D01*
X113642162Y-82839373D01*
X113502860Y-82746295D01*
X113348082Y-82682184D01*
X113348074Y-82682182D01*
X113183771Y-82649500D01*
X113183767Y-82649500D01*
X113016233Y-82649500D01*
X113016228Y-82649500D01*
X112851925Y-82682182D01*
X112851913Y-82682185D01*
X112767213Y-82717269D01*
X112697744Y-82724738D01*
X112635265Y-82693462D01*
X112599613Y-82633373D01*
X112596403Y-82590108D01*
X112600500Y-82550009D01*
X112600499Y-81249992D01*
X112589999Y-81147203D01*
X112534814Y-80980666D01*
X112442712Y-80831344D01*
X112318656Y-80707288D01*
X112169334Y-80615186D01*
X112169332Y-80615185D01*
X112163440Y-80611551D01*
X112116716Y-80559603D01*
X112105493Y-80490641D01*
X112133337Y-80426558D01*
X112140856Y-80418330D01*
X112279728Y-80279458D01*
X112404620Y-80107557D01*
X112501095Y-79918217D01*
X112566757Y-79716129D01*
X112566757Y-79716126D01*
X112577231Y-79650000D01*
X111533012Y-79650000D01*
X111565925Y-79592993D01*
X111600000Y-79465826D01*
X111600000Y-79334174D01*
X111565925Y-79207007D01*
X111533012Y-79150000D01*
X112577231Y-79150000D01*
X112566757Y-79083873D01*
X112566757Y-79083870D01*
X112501095Y-78881782D01*
X112404620Y-78692442D01*
X112279727Y-78520540D01*
X112279723Y-78520535D01*
X112129464Y-78370276D01*
X112129459Y-78370272D01*
X111957557Y-78245379D01*
X111768217Y-78148904D01*
X111566129Y-78083242D01*
X111356246Y-78050000D01*
X111350000Y-78050000D01*
X111350000Y-78966988D01*
X111292993Y-78934075D01*
X111165826Y-78900000D01*
X111034174Y-78900000D01*
X110907007Y-78934075D01*
X110850000Y-78966988D01*
X110850000Y-78050000D01*
X110843754Y-78050000D01*
X110633872Y-78083242D01*
X110633869Y-78083242D01*
X110431782Y-78148904D01*
X110242442Y-78245379D01*
X110070540Y-78370272D01*
X110070535Y-78370276D01*
X109920276Y-78520535D01*
X109920272Y-78520540D01*
X109795379Y-78692442D01*
X109698904Y-78881782D01*
X109633242Y-79083870D01*
X109633242Y-79083873D01*
X109622769Y-79150000D01*
X110666988Y-79150000D01*
X110634075Y-79207007D01*
X110600000Y-79334174D01*
X110600000Y-79465826D01*
X110634075Y-79592993D01*
X110666988Y-79650000D01*
X109622769Y-79650000D01*
X109633242Y-79716126D01*
X109633242Y-79716129D01*
X109698904Y-79918217D01*
X109795379Y-80107557D01*
X109920272Y-80279459D01*
X109920276Y-80279464D01*
X110059143Y-80418331D01*
X110092628Y-80479654D01*
X110087644Y-80549346D01*
X110045772Y-80605279D01*
X110036559Y-80611551D01*
X109881342Y-80707289D01*
X109757289Y-80831342D01*
X109665187Y-80980663D01*
X109665186Y-80980666D01*
X109610001Y-81147203D01*
X109610001Y-81147204D01*
X109610000Y-81147204D01*
X109599500Y-81249983D01*
X107700500Y-81249983D01*
X107700500Y-73774610D01*
X107720185Y-73707571D01*
X107772989Y-73661816D01*
X107842147Y-73651872D01*
X107905703Y-73680897D01*
X107922111Y-73698137D01*
X108021476Y-73824968D01*
X109163708Y-72682736D01*
X109260967Y-72816602D01*
X109383398Y-72939033D01*
X109517262Y-73036290D01*
X108375030Y-74178522D01*
X108375030Y-74178523D01*
X108563423Y-74326118D01*
X108842956Y-74495101D01*
X108842958Y-74495102D01*
X109140824Y-74629160D01*
X109140835Y-74629164D01*
X109452658Y-74726332D01*
X109773961Y-74785213D01*
X110100000Y-74804934D01*
X110426038Y-74785213D01*
X110747341Y-74726332D01*
X111059164Y-74629164D01*
X111059175Y-74629160D01*
X111357041Y-74495102D01*
X111357043Y-74495101D01*
X111636586Y-74326112D01*
X111824968Y-74178523D01*
X111824968Y-74178522D01*
X110682737Y-73036290D01*
X110816602Y-72939033D01*
X110939033Y-72816602D01*
X111036290Y-72682737D01*
X112178522Y-73824968D01*
X112178523Y-73824968D01*
X112326112Y-73636586D01*
X112495101Y-73357043D01*
X112495102Y-73357041D01*
X112629160Y-73059175D01*
X112629164Y-73059164D01*
X112726332Y-72747341D01*
X112785213Y-72426038D01*
X112804934Y-72100000D01*
X112785213Y-71773961D01*
X112726332Y-71452658D01*
X112629164Y-71140835D01*
X112629160Y-71140824D01*
X112495102Y-70842958D01*
X112495101Y-70842956D01*
X112326118Y-70563423D01*
X112178522Y-70375030D01*
X111036290Y-71517262D01*
X110939033Y-71383398D01*
X110816602Y-71260967D01*
X110682736Y-71163709D01*
X111824968Y-70021476D01*
X111824968Y-70021475D01*
X111698138Y-69922111D01*
X111657505Y-69865271D01*
X111654053Y-69795487D01*
X111688877Y-69734914D01*
X111750921Y-69702784D01*
X111774611Y-69700500D01*
X138270841Y-69700500D01*
X138337880Y-69720185D01*
G37*
%TD.AperFunction*%
%TA.AperFunction,Conductor*%
G36*
X141878522Y-105024968D02*
G01*
X141878523Y-105024968D01*
X141977889Y-104898138D01*
X142034729Y-104857505D01*
X142104514Y-104854053D01*
X142165086Y-104888877D01*
X142197216Y-104950921D01*
X142199500Y-104974611D01*
X142199500Y-105475500D01*
X142179815Y-105542539D01*
X142127011Y-105588294D01*
X142075500Y-105599500D01*
X141602251Y-105599500D01*
X141535212Y-105579815D01*
X141489457Y-105527011D01*
X141479513Y-105457853D01*
X141508538Y-105394297D01*
X141524959Y-105378667D01*
X141524968Y-105378522D01*
X140382737Y-104236290D01*
X140516602Y-104139033D01*
X140639033Y-104016602D01*
X140736290Y-103882736D01*
X141878522Y-105024968D01*
G37*
%TD.AperFunction*%
%TA.AperFunction,Conductor*%
G36*
X142142539Y-69720185D02*
G01*
X142188294Y-69772989D01*
X142199500Y-69824500D01*
X142199500Y-70525389D01*
X142179815Y-70592428D01*
X142127011Y-70638183D01*
X142057853Y-70648127D01*
X141994297Y-70619102D01*
X141977889Y-70601862D01*
X141878522Y-70475030D01*
X140736290Y-71617261D01*
X140639033Y-71483398D01*
X140516602Y-71360967D01*
X140382736Y-71263709D01*
X141524968Y-70121476D01*
X141336576Y-69973881D01*
X141265009Y-69930617D01*
X141217822Y-69879089D01*
X141205983Y-69810230D01*
X141233252Y-69745901D01*
X141290970Y-69706527D01*
X141329159Y-69700500D01*
X142075500Y-69700500D01*
X142142539Y-69720185D01*
G37*
%TD.AperFunction*%
%TA.AperFunction,Conductor*%
G36*
X108492428Y-69720185D02*
G01*
X108538183Y-69772989D01*
X108548127Y-69842147D01*
X108519102Y-69905703D01*
X108501861Y-69922111D01*
X108375030Y-70021474D01*
X108375029Y-70021476D01*
X109517262Y-71163709D01*
X109383398Y-71260967D01*
X109260967Y-71383398D01*
X109163709Y-71517262D01*
X108021476Y-70375029D01*
X108021475Y-70375030D01*
X107922111Y-70501861D01*
X107865272Y-70542493D01*
X107795487Y-70545946D01*
X107734914Y-70511122D01*
X107702784Y-70449079D01*
X107700500Y-70425388D01*
X107700500Y-69824500D01*
X107720185Y-69757461D01*
X107772989Y-69711706D01*
X107824500Y-69700500D01*
X108425389Y-69700500D01*
X108492428Y-69720185D01*
G37*
%TD.AperFunction*%
%TD*%
M02*
