%TF.GenerationSoftware,KiCad,Pcbnew,8.0.3*%
%TF.CreationDate,2026-01-26T23:04:18-08:00*%
%TF.ProjectId,Transmit-Receive-PCB,5472616e-736d-4697-942d-526563656976,rev?*%
%TF.SameCoordinates,Original*%
%TF.FileFunction,Copper,L1,Top*%
%TF.FilePolarity,Positive*%
%FSLAX46Y46*%
G04 Gerber Fmt 4.6, Leading zero omitted, Abs format (unit mm)*
G04 Created by KiCad (PCBNEW 8.0.3) date 2026-01-26 23:04:18*
%MOMM*%
%LPD*%
G01*
G04 APERTURE LIST*
G04 Aperture macros list*
%AMRoundRect*
0 Rectangle with rounded corners*
0 $1 Rounding radius*
0 $2 $3 $4 $5 $6 $7 $8 $9 X,Y pos of 4 corners*
0 Add a 4 corners polygon primitive as box body*
4,1,4,$2,$3,$4,$5,$6,$7,$8,$9,$2,$3,0*
0 Add four circle primitives for the rounded corners*
1,1,$1+$1,$2,$3*
1,1,$1+$1,$4,$5*
1,1,$1+$1,$6,$7*
1,1,$1+$1,$8,$9*
0 Add four rect primitives between the rounded corners*
20,1,$1+$1,$2,$3,$4,$5,0*
20,1,$1+$1,$4,$5,$6,$7,0*
20,1,$1+$1,$6,$7,$8,$9,0*
20,1,$1+$1,$8,$9,$2,$3,0*%
%AMFreePoly0*
4,1,123,1.203536,0.778536,1.205000,0.775000,1.205000,-0.775000,1.203536,-0.778536,1.200000,-0.780000,0.055000,-0.780000,0.054808,-0.779996,0.028808,-0.778996,0.028617,-0.778985,0.002617,-0.776985,0.002427,-0.776967,-0.023573,-0.773967,-0.023944,-0.773910,-0.049944,-0.768910,-0.050167,-0.768862,-0.075167,-0.762862,-0.075300,-0.762828,-0.101300,-0.755828,-0.101756,-0.755682,-0.125756,-0.746682,
-0.125923,-0.746615,-0.149923,-0.736615,-0.150083,-0.736545,-0.174083,-0.725545,-0.174460,-0.725353,-0.197460,-0.712353,-0.197684,-0.712218,-0.241684,-0.684218,-0.242030,-0.683977,-0.263030,-0.667977,-0.263238,-0.667810,-0.283238,-0.650810,-0.283439,-0.650630,-0.302439,-0.632630,-0.302630,-0.632439,-0.320630,-0.613439,-0.320810,-0.613238,-0.337810,-0.593238,-0.337977,-0.593030,-0.353977,-0.572030,
-0.354218,-0.571684,-0.382218,-0.527684,-0.382353,-0.527460,-0.395353,-0.504460,-0.395545,-0.504083,-0.406545,-0.480083,-0.406615,-0.479923,-0.416615,-0.455923,-0.416682,-0.455756,-0.425682,-0.431756,-0.425828,-0.431300,-0.432828,-0.405300,-0.432862,-0.405167,-0.438862,-0.380167,-0.438910,-0.379944,-0.443910,-0.353944,-0.443967,-0.353573,-0.446967,-0.327573,-0.446985,-0.327383,-0.448985,-0.301383,
-0.448996,-0.301192,-0.449996,-0.275192,-0.450000,-0.275000,-0.450000,0.275000,-0.449996,0.275192,-0.448996,0.301192,-0.448985,0.301383,-0.446985,0.327383,-0.446967,0.327573,-0.443967,0.353573,-0.443910,0.353944,-0.438910,0.379944,-0.438862,0.380167,-0.432862,0.405167,-0.432828,0.405300,-0.425828,0.431300,-0.425682,0.431756,-0.416682,0.455756,-0.416615,0.455923,-0.406615,0.479923,
-0.406545,0.480083,-0.395545,0.504083,-0.395353,0.504460,-0.382353,0.527460,-0.382218,0.527684,-0.354218,0.571684,-0.353977,0.572030,-0.337977,0.593030,-0.337810,0.593238,-0.320810,0.613238,-0.320630,0.613439,-0.302630,0.632439,-0.302439,0.632630,-0.283439,0.650630,-0.283238,0.650810,-0.263238,0.667810,-0.263030,0.667977,-0.242030,0.683977,-0.241684,0.684218,-0.197684,0.712218,
-0.197460,0.712353,-0.174460,0.725353,-0.174083,0.725545,-0.150083,0.736545,-0.149923,0.736615,-0.125923,0.746615,-0.125756,0.746682,-0.101756,0.755682,-0.101300,0.755828,-0.075300,0.762828,-0.075167,0.762862,-0.050167,0.768862,-0.049944,0.768910,-0.023944,0.773910,-0.023573,0.773967,0.002427,0.776967,0.002617,0.776985,0.028617,0.778985,0.028808,0.778996,0.054808,0.779996,
0.055000,0.780000,1.200000,0.780000,1.203536,0.778536,1.203536,0.778536,$1*%
%AMFreePoly1*
4,1,123,-0.054808,0.779996,-0.028808,0.778996,-0.028617,0.778985,-0.002617,0.776985,-0.002427,0.776967,0.023573,0.773967,0.023944,0.773910,0.049944,0.768910,0.050167,0.768862,0.075167,0.762862,0.075300,0.762828,0.101300,0.755828,0.101756,0.755682,0.125756,0.746682,0.125923,0.746615,0.149923,0.736615,0.150083,0.736545,0.174083,0.725545,0.174460,0.725353,0.197460,0.712353,
0.197684,0.712218,0.241684,0.684218,0.242030,0.683977,0.263030,0.667977,0.263238,0.667810,0.283238,0.650810,0.283439,0.650630,0.302439,0.632630,0.302630,0.632439,0.320630,0.613439,0.320810,0.613238,0.337810,0.593238,0.337977,0.593030,0.353977,0.572030,0.354218,0.571684,0.382218,0.527684,0.382353,0.527460,0.395353,0.504460,0.395545,0.504083,0.406545,0.480083,
0.406615,0.479923,0.416615,0.455923,0.416682,0.455756,0.425682,0.431756,0.425828,0.431300,0.432828,0.405300,0.432862,0.405167,0.438862,0.380167,0.438910,0.379944,0.443910,0.353944,0.443967,0.353573,0.446967,0.327573,0.446985,0.327383,0.448985,0.301383,0.448996,0.301192,0.449996,0.275192,0.450000,0.275000,0.450000,-0.275000,0.449996,-0.275192,0.448996,-0.301192,
0.448985,-0.301383,0.446985,-0.327383,0.446967,-0.327573,0.443967,-0.353573,0.443910,-0.353944,0.438910,-0.379944,0.438862,-0.380167,0.432862,-0.405167,0.432828,-0.405300,0.425828,-0.431300,0.425682,-0.431756,0.416682,-0.455756,0.416615,-0.455923,0.406615,-0.479923,0.406545,-0.480083,0.395545,-0.504083,0.395353,-0.504460,0.382353,-0.527460,0.382218,-0.527684,0.354218,-0.571684,
0.353977,-0.572030,0.337977,-0.593030,0.337810,-0.593238,0.320810,-0.613238,0.320630,-0.613439,0.302630,-0.632439,0.302439,-0.632630,0.283439,-0.650630,0.283238,-0.650810,0.263238,-0.667810,0.263030,-0.667977,0.242030,-0.683977,0.241684,-0.684218,0.197684,-0.712218,0.197460,-0.712353,0.174460,-0.725353,0.174083,-0.725545,0.150083,-0.736545,0.149923,-0.736615,0.125923,-0.746615,
0.125756,-0.746682,0.101756,-0.755682,0.101300,-0.755828,0.075300,-0.762828,0.075167,-0.762862,0.050167,-0.768862,0.049944,-0.768910,0.023944,-0.773910,0.023573,-0.773967,-0.002427,-0.776967,-0.002617,-0.776985,-0.028617,-0.778985,-0.028808,-0.778996,-0.054808,-0.779996,-0.055000,-0.780000,-1.200000,-0.780000,-1.203536,-0.778536,-1.205000,-0.775000,-1.205000,0.775000,-1.203536,0.778536,
-1.200000,0.780000,-0.055000,0.780000,-0.054808,0.779996,-0.054808,0.779996,$1*%
G04 Aperture macros list end*
%TA.AperFunction,SMDPad,CuDef*%
%ADD10RoundRect,0.250000X-0.475000X0.337500X-0.475000X-0.337500X0.475000X-0.337500X0.475000X0.337500X0*%
%TD*%
%TA.AperFunction,SMDPad,CuDef*%
%ADD11RoundRect,0.250000X0.350000X0.450000X-0.350000X0.450000X-0.350000X-0.450000X0.350000X-0.450000X0*%
%TD*%
%TA.AperFunction,SMDPad,CuDef*%
%ADD12R,1.500000X0.900000*%
%TD*%
%TA.AperFunction,SMDPad,CuDef*%
%ADD13R,0.900000X1.500000*%
%TD*%
%TA.AperFunction,SMDPad,CuDef*%
%ADD14R,0.900000X0.900000*%
%TD*%
%TA.AperFunction,ComponentPad*%
%ADD15C,0.400000*%
%TD*%
%TA.AperFunction,ComponentPad*%
%ADD16RoundRect,0.250000X-0.600000X-0.725000X0.600000X-0.725000X0.600000X0.725000X-0.600000X0.725000X0*%
%TD*%
%TA.AperFunction,ComponentPad*%
%ADD17O,1.700000X1.950000*%
%TD*%
%TA.AperFunction,SMDPad,CuDef*%
%ADD18R,1.350000X0.400000*%
%TD*%
%TA.AperFunction,ComponentPad*%
%ADD19FreePoly0,270.000000*%
%TD*%
%TA.AperFunction,SMDPad,CuDef*%
%ADD20R,1.550000X1.500000*%
%TD*%
%TA.AperFunction,ComponentPad*%
%ADD21FreePoly1,270.000000*%
%TD*%
%TA.AperFunction,ComponentPad*%
%ADD22O,0.950000X1.300000*%
%TD*%
%TA.AperFunction,ComponentPad*%
%ADD23C,4.400000*%
%TD*%
%TA.AperFunction,SMDPad,CuDef*%
%ADD24R,1.111200X0.600800*%
%TD*%
%TA.AperFunction,SMDPad,CuDef*%
%ADD25RoundRect,0.250000X0.475000X-0.337500X0.475000X0.337500X-0.475000X0.337500X-0.475000X-0.337500X0*%
%TD*%
%TA.AperFunction,SMDPad,CuDef*%
%ADD26RoundRect,0.250000X-0.350000X-0.450000X0.350000X-0.450000X0.350000X0.450000X-0.350000X0.450000X0*%
%TD*%
%TA.AperFunction,ComponentPad*%
%ADD27RoundRect,0.250000X0.750000X-0.600000X0.750000X0.600000X-0.750000X0.600000X-0.750000X-0.600000X0*%
%TD*%
%TA.AperFunction,ComponentPad*%
%ADD28O,2.000000X1.700000*%
%TD*%
%TA.AperFunction,ViaPad*%
%ADD29C,0.600000*%
%TD*%
%TA.AperFunction,Conductor*%
%ADD30C,0.350000*%
%TD*%
%TA.AperFunction,Conductor*%
%ADD31C,0.200000*%
%TD*%
%TA.AperFunction,Conductor*%
%ADD32C,0.300000*%
%TD*%
%TA.AperFunction,Conductor*%
%ADD33C,0.400000*%
%TD*%
G04 APERTURE END LIST*
D10*
%TO.P,C1,1*%
%TO.N,GND*%
X115100000Y-73062500D03*
%TO.P,C1,2*%
%TO.N,+3.3V*%
X115100000Y-75137500D03*
%TD*%
D11*
%TO.P,R3,1*%
%TO.N,Net-(U1-IO20)*%
X118000000Y-94800000D03*
%TO.P,R3,2*%
%TO.N,Net-(J1-D+)*%
X116000000Y-94800000D03*
%TD*%
D12*
%TO.P,U1,1,GND*%
%TO.N,GND*%
X121050000Y-77860000D03*
%TO.P,U1,2,3V3*%
%TO.N,+3.3V*%
X121050000Y-79130000D03*
%TO.P,U1,3,EN*%
%TO.N,Net-(U1-EN)*%
X121050000Y-80400000D03*
%TO.P,U1,4,IO4*%
%TO.N,unconnected-(U1-IO4-Pad4)*%
X121050000Y-81670000D03*
%TO.P,U1,5,IO5*%
%TO.N,unconnected-(U1-IO5-Pad5)*%
X121050000Y-82940000D03*
%TO.P,U1,6,IO6*%
%TO.N,unconnected-(U1-IO6-Pad6)*%
X121050000Y-84210000D03*
%TO.P,U1,7,IO7*%
%TO.N,unconnected-(U1-IO7-Pad7)*%
X121050000Y-85480000D03*
%TO.P,U1,8,IO15*%
%TO.N,unconnected-(U1-IO15-Pad8)*%
X121050000Y-86750000D03*
%TO.P,U1,9,IO16*%
%TO.N,unconnected-(U1-IO16-Pad9)*%
X121050000Y-88020000D03*
%TO.P,U1,10,IO17*%
%TO.N,unconnected-(U1-IO17-Pad10)*%
X121050000Y-89290000D03*
%TO.P,U1,11,IO18*%
%TO.N,unconnected-(U1-IO18-Pad11)*%
X121050000Y-90560000D03*
%TO.P,U1,12,IO8*%
%TO.N,unconnected-(U1-IO8-Pad12)*%
X121050000Y-91830000D03*
%TO.P,U1,13,IO19*%
%TO.N,Net-(U1-IO19)*%
X121050000Y-93100000D03*
%TO.P,U1,14,IO20*%
%TO.N,Net-(U1-IO20)*%
X121050000Y-94370000D03*
D13*
%TO.P,U1,15,IO3*%
%TO.N,unconnected-(U1-IO3-Pad15)*%
X122815000Y-95620000D03*
%TO.P,U1,16,IO46*%
%TO.N,unconnected-(U1-IO46-Pad16)*%
X124085000Y-95620000D03*
%TO.P,U1,17,IO9*%
%TO.N,unconnected-(U1-IO9-Pad17)*%
X125355000Y-95620000D03*
%TO.P,U1,18,IO10*%
%TO.N,/CS*%
X126625000Y-95620000D03*
%TO.P,U1,19,IO11*%
%TO.N,/MOSI*%
X127895000Y-95620000D03*
%TO.P,U1,20,IO12*%
%TO.N,/SCK*%
X129165000Y-95620000D03*
%TO.P,U1,21,IO13*%
%TO.N,/MISO*%
X130435000Y-95620000D03*
%TO.P,U1,22,IO14*%
%TO.N,unconnected-(U1-IO14-Pad22)*%
X131705000Y-95620000D03*
%TO.P,U1,23,IO21*%
%TO.N,unconnected-(U1-IO21-Pad23)*%
X132975000Y-95620000D03*
%TO.P,U1,24,IO47*%
%TO.N,unconnected-(U1-IO47-Pad24)*%
X134245000Y-95620000D03*
%TO.P,U1,25,IO48*%
%TO.N,unconnected-(U1-IO48-Pad25)*%
X135515000Y-95620000D03*
%TO.P,U1,26,IO45*%
%TO.N,unconnected-(U1-IO45-Pad26)*%
X136785000Y-95620000D03*
D12*
%TO.P,U1,27,IO0*%
%TO.N,unconnected-(U1-IO0-Pad27)*%
X138550000Y-94370000D03*
%TO.P,U1,28,IO35*%
%TO.N,unconnected-(U1-IO35-Pad28)*%
X138550000Y-93100000D03*
%TO.P,U1,29,IO36*%
%TO.N,unconnected-(U1-IO36-Pad29)*%
X138550000Y-91830000D03*
%TO.P,U1,30,IO37*%
%TO.N,unconnected-(U1-IO37-Pad30)*%
X138550000Y-90560000D03*
%TO.P,U1,31,IO38*%
%TO.N,unconnected-(U1-IO38-Pad31)*%
X138550000Y-89290000D03*
%TO.P,U1,32,IO39*%
%TO.N,unconnected-(U1-IO39-Pad32)*%
X138550000Y-88020000D03*
%TO.P,U1,33,IO40*%
%TO.N,unconnected-(U1-IO40-Pad33)*%
X138550000Y-86750000D03*
%TO.P,U1,34,IO41*%
%TO.N,unconnected-(U1-IO41-Pad34)*%
X138550000Y-85480000D03*
%TO.P,U1,35,IO42*%
%TO.N,unconnected-(U1-IO42-Pad35)*%
X138550000Y-84210000D03*
%TO.P,U1,36,RXD0*%
%TO.N,unconnected-(U1-RXD0-Pad36)*%
X138550000Y-82940000D03*
%TO.P,U1,37,TXD0*%
%TO.N,unconnected-(U1-TXD0-Pad37)*%
X138550000Y-81670000D03*
%TO.P,U1,38,IO2*%
%TO.N,unconnected-(U1-IO2-Pad38)*%
X138550000Y-80400000D03*
%TO.P,U1,39,IO1*%
%TO.N,unconnected-(U1-IO1-Pad39)*%
X138550000Y-79130000D03*
%TO.P,U1,40,GND__1*%
%TO.N,GND*%
X138550000Y-77860000D03*
D14*
%TO.P,U1,41_1,GND__2*%
X126900000Y-84180000D03*
%TO.P,U1,41_2,GND__3*%
X128300000Y-84180000D03*
%TO.P,U1,41_3,GND__4*%
X129700000Y-84180000D03*
%TO.P,U1,41_4,GND__5*%
X126900000Y-85580000D03*
%TO.P,U1,41_5,GND__6*%
X128300000Y-85580000D03*
%TO.P,U1,41_6,GND__7*%
X129700000Y-85580000D03*
%TO.P,U1,41_7,GND__8*%
X126900000Y-86980000D03*
%TO.P,U1,41_8,GND__9*%
X128300000Y-86980000D03*
%TO.P,U1,41_9,GND__10*%
X129700000Y-86980000D03*
D15*
%TO.P,U1,41_10*%
X127600000Y-84180000D03*
%TO.P,U1,41_11*%
X129000000Y-84180000D03*
%TO.P,U1,41_12*%
X126900000Y-84880000D03*
%TO.P,U1,41_13*%
X128300000Y-84880000D03*
%TO.P,U1,41_14*%
X129700000Y-84880000D03*
%TO.P,U1,41_15*%
X127600000Y-85580000D03*
%TO.P,U1,41_16*%
X129000000Y-85580000D03*
%TO.P,U1,41_17*%
X126900000Y-86280000D03*
%TO.P,U1,41_18*%
X128300000Y-86280000D03*
%TO.P,U1,41_19*%
X129700000Y-86280000D03*
%TO.P,U1,41_20*%
X127600000Y-86980000D03*
%TO.P,U1,41_21*%
X129000000Y-86980000D03*
%TD*%
D16*
%TO.P,J2,1,Pin_1*%
%TO.N,/SCK*%
X124300000Y-100500000D03*
D17*
%TO.P,J2,2,Pin_2*%
%TO.N,/CS*%
X126800000Y-100500000D03*
%TO.P,J2,3,Pin_3*%
%TO.N,/MOSI*%
X129300000Y-100500000D03*
%TO.P,J2,4,Pin_4*%
%TO.N,/MISO*%
X131800000Y-100500000D03*
%TD*%
D11*
%TO.P,R2,1*%
%TO.N,Net-(U1-IO19)*%
X118000000Y-92600000D03*
%TO.P,R2,2*%
%TO.N,Net-(J1-D-)*%
X116000000Y-92600000D03*
%TD*%
D18*
%TO.P,J1,1,VCC*%
%TO.N,unconnected-(J1-VCC-Pad1)*%
X113175000Y-92700000D03*
%TO.P,J1,2,D-*%
%TO.N,Net-(J1-D-)*%
X113175000Y-93350000D03*
%TO.P,J1,3,D+*%
%TO.N,Net-(J1-D+)*%
X113175000Y-94000000D03*
%TO.P,J1,4,ID*%
%TO.N,unconnected-(J1-ID-Pad4)*%
X113175000Y-94650000D03*
%TO.P,J1,5,GND*%
%TO.N,GND*%
X113175000Y-95300000D03*
D19*
%TO.P,J1,SH1,SHIELD*%
X110500000Y-90500000D03*
D20*
%TO.P,J1,SH2,SHIELD__1*%
X110500000Y-95000000D03*
%TO.P,J1,SH3,SHIELD__2*%
X110500000Y-93000000D03*
D21*
%TO.P,J1,SH4,SHIELD__3*%
X110500000Y-97500000D03*
D22*
%TO.P,J1,SH5,SHIELD__4*%
X113200000Y-91500000D03*
%TO.P,J1,SH6,SHIELD__5*%
X113200000Y-96500000D03*
%TD*%
D23*
%TO.P,H4,1,1*%
%TO.N,GND*%
X139800000Y-103300000D03*
%TD*%
D24*
%TO.P,D1,1,K*%
%TO.N,+3.3V*%
X124150000Y-75200000D03*
%TO.P,D1,2,A*%
%TO.N,GND*%
X120700000Y-75200000D03*
%TD*%
D10*
%TO.P,C5,1*%
%TO.N,GND*%
X115900000Y-87925000D03*
%TO.P,C5,2*%
%TO.N,Net-(U1-IO19)*%
X115900000Y-90000000D03*
%TD*%
%TO.P,C3,1*%
%TO.N,Net-(U1-EN)*%
X118300000Y-84562500D03*
%TO.P,C3,2*%
%TO.N,GND*%
X118300000Y-86637500D03*
%TD*%
%TO.P,C2,1*%
%TO.N,GND*%
X118100000Y-73062500D03*
%TO.P,C2,2*%
%TO.N,+3.3V*%
X118100000Y-75137500D03*
%TD*%
D25*
%TO.P,C4,1*%
%TO.N,GND*%
X116000000Y-99900000D03*
%TO.P,C4,2*%
%TO.N,Net-(U1-IO20)*%
X116000000Y-97825000D03*
%TD*%
D26*
%TO.P,R1,1*%
%TO.N,+3.3V*%
X116200000Y-82100000D03*
%TO.P,R1,2*%
%TO.N,Net-(U1-EN)*%
X118200000Y-82100000D03*
%TD*%
D27*
%TO.P,J3,1,Pin_1*%
%TO.N,+3.3V*%
X111100000Y-81900000D03*
D28*
%TO.P,J3,2,Pin_2*%
%TO.N,GND*%
X111100000Y-79400000D03*
%TD*%
D23*
%TO.P,H2,1,1*%
%TO.N,GND*%
X139800000Y-72200000D03*
%TD*%
%TO.P,H1,1,1*%
%TO.N,GND*%
X110100000Y-72100000D03*
%TD*%
%TO.P,H3,1,1*%
%TO.N,GND*%
X110100000Y-103200000D03*
%TD*%
D29*
%TO.N,GND*%
X139800000Y-100000000D03*
X125500000Y-85600000D03*
X116600000Y-71700000D03*
X140500000Y-77860000D03*
X116000000Y-101200000D03*
X110100000Y-100000000D03*
X110100000Y-75600000D03*
X114300000Y-95300000D03*
X119400000Y-77000000D03*
X139800000Y-75700000D03*
X113400000Y-75700000D03*
X114300000Y-96500000D03*
X114300000Y-91500000D03*
X116600000Y-86600000D03*
%TO.N,/SCK*%
X129165000Y-97200000D03*
X125400000Y-97200000D03*
%TD*%
D30*
%TO.N,+3.3V*%
X113100000Y-81900000D02*
X111100000Y-81900000D01*
X113300000Y-82100000D02*
X113100000Y-81900000D01*
D31*
X119170000Y-79130000D02*
X119170000Y-79070000D01*
D30*
X125900000Y-76500000D02*
X125900000Y-75700000D01*
X121050000Y-79130000D02*
X123270000Y-79130000D01*
X116200000Y-82100000D02*
X119170000Y-79130000D01*
X116200000Y-82100000D02*
X113300000Y-82100000D01*
X119170000Y-79130000D02*
X121050000Y-79130000D01*
X123270000Y-79130000D02*
X125900000Y-76500000D01*
X125900000Y-75700000D02*
X125400000Y-75200000D01*
X119170000Y-79070000D02*
X118100000Y-78000000D01*
X118100000Y-78000000D02*
X118100000Y-75137500D01*
D32*
X118100000Y-75137500D02*
X115100000Y-75137500D01*
D30*
X125400000Y-75200000D02*
X124150000Y-75200000D01*
D31*
%TO.N,GND*%
X126900000Y-84172893D02*
X127392893Y-83680000D01*
X126900000Y-86987107D02*
X126900000Y-86980000D01*
D32*
X113175000Y-95300000D02*
X110800000Y-95300000D01*
D31*
X126892893Y-85580000D02*
X126400000Y-85087107D01*
X129700000Y-86980000D02*
X129707107Y-86980000D01*
X114300000Y-96500000D02*
X114200000Y-96500000D01*
D32*
X110500000Y-93000000D02*
X110500000Y-90500000D01*
X116600000Y-73062500D02*
X116600000Y-71700000D01*
X110100000Y-75600000D02*
X110100000Y-72100000D01*
X110100000Y-100000000D02*
X110100000Y-103200000D01*
D31*
X126900000Y-86980000D02*
X126892893Y-86980000D01*
X126892893Y-86980000D02*
X126400000Y-86487107D01*
D32*
X120200000Y-75200000D02*
X120700000Y-75200000D01*
D31*
X110800000Y-95300000D02*
X110500000Y-95000000D01*
X126892893Y-84180000D02*
X126900000Y-84180000D01*
D32*
X126900000Y-85580000D02*
X125551813Y-85580000D01*
X119400000Y-77000000D02*
X119400000Y-76000000D01*
D31*
X129207107Y-83680000D02*
X129700000Y-84172893D01*
D30*
X113400000Y-77100000D02*
X111100000Y-79400000D01*
D31*
X129707107Y-85580000D02*
X129700000Y-85580000D01*
X129707107Y-84180000D02*
X130200000Y-84672893D01*
X128300000Y-86987107D02*
X128792893Y-87480000D01*
D32*
X119400000Y-77000000D02*
X119400000Y-77400000D01*
D31*
X126900000Y-84180000D02*
X126900000Y-84172893D01*
D32*
X139800000Y-100000000D02*
X139800000Y-103300000D01*
D31*
X126400000Y-86072893D02*
X126892893Y-85580000D01*
X127392893Y-83680000D02*
X127807107Y-83680000D01*
X127412893Y-87500000D02*
X126900000Y-86987107D01*
X126900000Y-85580000D02*
X126892893Y-85580000D01*
X126400000Y-84672893D02*
X126892893Y-84180000D01*
X125500000Y-85528187D02*
X125551282Y-85579469D01*
X127600000Y-85580000D02*
X128300000Y-85580000D01*
D32*
X110500000Y-95000000D02*
X110500000Y-93000000D01*
D31*
X130200000Y-84672893D02*
X130200000Y-85087107D01*
D32*
X119860000Y-77860000D02*
X121050000Y-77860000D01*
D31*
X113200000Y-91500000D02*
X112900000Y-91500000D01*
X128300000Y-84172893D02*
X128792893Y-83680000D01*
D32*
X113175000Y-95300000D02*
X114300000Y-95300000D01*
X116000000Y-99900000D02*
X116000000Y-101200000D01*
D31*
X129700000Y-84180000D02*
X129707107Y-84180000D01*
X125551813Y-85580000D02*
X125571813Y-85600000D01*
X129207107Y-87480000D02*
X129700000Y-86987107D01*
X129707107Y-86980000D02*
X130200000Y-86487107D01*
X129700000Y-86987107D02*
X129700000Y-86980000D01*
D32*
X115900000Y-87925000D02*
X115900000Y-87400000D01*
X113200000Y-91500000D02*
X114300000Y-91500000D01*
X115900000Y-87400000D02*
X116600000Y-86700000D01*
D31*
X125500000Y-85600000D02*
X125500000Y-85528187D01*
X130200000Y-86487107D02*
X130200000Y-86072893D01*
D32*
X113200000Y-96500000D02*
X114300000Y-96500000D01*
D31*
X129700000Y-84172893D02*
X129700000Y-84180000D01*
D32*
X115100000Y-73062500D02*
X116600000Y-73062500D01*
D31*
X130200000Y-86072893D02*
X129707107Y-85580000D01*
X125571813Y-85600000D02*
X125500000Y-85600000D01*
D30*
X113400000Y-75700000D02*
X113400000Y-77100000D01*
D31*
X116600000Y-86700000D02*
X116600000Y-86600000D01*
X127787107Y-87500000D02*
X127412893Y-87500000D01*
X116600000Y-86600000D02*
X116700000Y-86600000D01*
D32*
X139800000Y-75700000D02*
X139800000Y-72100000D01*
X119400000Y-76000000D02*
X120200000Y-75200000D01*
X116662500Y-86637500D02*
X118300000Y-86637500D01*
X110500000Y-97500000D02*
X110500000Y-95000000D01*
D31*
X128300000Y-86980000D02*
X128300000Y-86987107D01*
X116700000Y-86600000D02*
X116662500Y-86637500D01*
X127807107Y-83680000D02*
X128300000Y-84172893D01*
X128792893Y-83680000D02*
X129207107Y-83680000D01*
X128792893Y-87480000D02*
X129207107Y-87480000D01*
X128300000Y-86987107D02*
X127787107Y-87500000D01*
X128300000Y-84180000D02*
X128300000Y-84172893D01*
X126400000Y-85087107D02*
X126400000Y-84672893D01*
D32*
X119400000Y-77400000D02*
X119860000Y-77860000D01*
D33*
X138550000Y-77860000D02*
X140500000Y-77860000D01*
D31*
X116000000Y-101200000D02*
X116000000Y-101100000D01*
X126400000Y-86487107D02*
X126400000Y-86072893D01*
D32*
X116600000Y-73062500D02*
X118100000Y-73062500D01*
D31*
X130200000Y-85087107D02*
X129707107Y-85580000D01*
%TO.N,Net-(U1-EN)*%
X118300000Y-82200000D02*
X118200000Y-82100000D01*
D32*
X118300000Y-84562500D02*
X118300000Y-82200000D01*
X118200000Y-82100000D02*
X119900000Y-80400000D01*
X119900000Y-80400000D02*
X121050000Y-80400000D01*
%TO.N,Net-(U1-IO20)*%
X119530000Y-94370000D02*
X121050000Y-94370000D01*
X116000000Y-97825000D02*
X116975000Y-97825000D01*
X119100000Y-94800000D02*
X119530000Y-94370000D01*
X116975000Y-97825000D02*
X118000000Y-96800000D01*
X118000000Y-94800000D02*
X119100000Y-94800000D01*
X118000000Y-96800000D02*
X118000000Y-94800000D01*
%TO.N,Net-(U1-IO19)*%
X118000000Y-92600000D02*
X119000000Y-92600000D01*
X119000000Y-92600000D02*
X119500000Y-93100000D01*
X118000000Y-92600000D02*
X118000000Y-91300000D01*
X118000000Y-91300000D02*
X116700000Y-90000000D01*
X119500000Y-93100000D02*
X121050000Y-93100000D01*
X116700000Y-90000000D02*
X115900000Y-90000000D01*
%TO.N,/CS*%
X126800000Y-98000000D02*
X126800000Y-100500000D01*
X126625000Y-97825000D02*
X126800000Y-98000000D01*
X126625000Y-95620000D02*
X126625000Y-97825000D01*
%TO.N,/MISO*%
X130435000Y-95620000D02*
X130435000Y-97935000D01*
X130435000Y-97935000D02*
X131800000Y-99300000D01*
X131800000Y-99300000D02*
X131800000Y-100500000D01*
%TO.N,/SCK*%
X125400000Y-97300000D02*
X124300000Y-98400000D01*
X124300000Y-98400000D02*
X124300000Y-100500000D01*
X129165000Y-97200000D02*
X129165000Y-95620000D01*
%TO.N,/MOSI*%
X127895000Y-95620000D02*
X127895000Y-97795000D01*
X127895000Y-97795000D02*
X129300000Y-99200000D01*
X129300000Y-99200000D02*
X129300000Y-100500000D01*
%TO.N,Net-(J1-D-)*%
X116000000Y-92600000D02*
X115250000Y-93350000D01*
X115250000Y-93350000D02*
X112875000Y-93350000D01*
%TO.N,Net-(J1-D+)*%
X115200000Y-94000000D02*
X112875000Y-94000000D01*
X116000000Y-94800000D02*
X115200000Y-94000000D01*
%TD*%
M02*
