%TF.GenerationSoftware,KiCad,Pcbnew,8.0.3*%
%TF.CreationDate,2026-01-26T23:04:18-08:00*%
%TF.ProjectId,Transmit-Receive-PCB,5472616e-736d-4697-942d-526563656976,rev?*%
%TF.SameCoordinates,Original*%
%TF.FileFunction,Copper,L4,Bot*%
%TF.FilePolarity,Positive*%
%FSLAX46Y46*%
G04 Gerber Fmt 4.6, Leading zero omitted, Abs format (unit mm)*
G04 Created by KiCad (PCBNEW 8.0.3) date 2026-01-26 23:04:18*
%MOMM*%
%LPD*%
G01*
G04 APERTURE LIST*
G04 Aperture macros list*
%AMRoundRect*
0 Rectangle with rounded corners*
0 $1 Rounding radius*
0 $2 $3 $4 $5 $6 $7 $8 $9 X,Y pos of 4 corners*
0 Add a 4 corners polygon primitive as box body*
4,1,4,$2,$3,$4,$5,$6,$7,$8,$9,$2,$3,0*
0 Add four circle primitives for the rounded corners*
1,1,$1+$1,$2,$3*
1,1,$1+$1,$4,$5*
1,1,$1+$1,$6,$7*
1,1,$1+$1,$8,$9*
0 Add four rect primitives between the rounded corners*
20,1,$1+$1,$2,$3,$4,$5,0*
20,1,$1+$1,$4,$5,$6,$7,0*
20,1,$1+$1,$6,$7,$8,$9,0*
20,1,$1+$1,$8,$9,$2,$3,0*%
%AMFreePoly0*
4,1,123,1.203536,0.778536,1.205000,0.775000,1.205000,-0.775000,1.203536,-0.778536,1.200000,-0.780000,0.055000,-0.780000,0.054808,-0.779996,0.028808,-0.778996,0.028617,-0.778985,0.002617,-0.776985,0.002427,-0.776967,-0.023573,-0.773967,-0.023944,-0.773910,-0.049944,-0.768910,-0.050167,-0.768862,-0.075167,-0.762862,-0.075300,-0.762828,-0.101300,-0.755828,-0.101756,-0.755682,-0.125756,-0.746682,
-0.125923,-0.746615,-0.149923,-0.736615,-0.150083,-0.736545,-0.174083,-0.725545,-0.174460,-0.725353,-0.197460,-0.712353,-0.197684,-0.712218,-0.241684,-0.684218,-0.242030,-0.683977,-0.263030,-0.667977,-0.263238,-0.667810,-0.283238,-0.650810,-0.283439,-0.650630,-0.302439,-0.632630,-0.302630,-0.632439,-0.320630,-0.613439,-0.320810,-0.613238,-0.337810,-0.593238,-0.337977,-0.593030,-0.353977,-0.572030,
-0.354218,-0.571684,-0.382218,-0.527684,-0.382353,-0.527460,-0.395353,-0.504460,-0.395545,-0.504083,-0.406545,-0.480083,-0.406615,-0.479923,-0.416615,-0.455923,-0.416682,-0.455756,-0.425682,-0.431756,-0.425828,-0.431300,-0.432828,-0.405300,-0.432862,-0.405167,-0.438862,-0.380167,-0.438910,-0.379944,-0.443910,-0.353944,-0.443967,-0.353573,-0.446967,-0.327573,-0.446985,-0.327383,-0.448985,-0.301383,
-0.448996,-0.301192,-0.449996,-0.275192,-0.450000,-0.275000,-0.450000,0.275000,-0.449996,0.275192,-0.448996,0.301192,-0.448985,0.301383,-0.446985,0.327383,-0.446967,0.327573,-0.443967,0.353573,-0.443910,0.353944,-0.438910,0.379944,-0.438862,0.380167,-0.432862,0.405167,-0.432828,0.405300,-0.425828,0.431300,-0.425682,0.431756,-0.416682,0.455756,-0.416615,0.455923,-0.406615,0.479923,
-0.406545,0.480083,-0.395545,0.504083,-0.395353,0.504460,-0.382353,0.527460,-0.382218,0.527684,-0.354218,0.571684,-0.353977,0.572030,-0.337977,0.593030,-0.337810,0.593238,-0.320810,0.613238,-0.320630,0.613439,-0.302630,0.632439,-0.302439,0.632630,-0.283439,0.650630,-0.283238,0.650810,-0.263238,0.667810,-0.263030,0.667977,-0.242030,0.683977,-0.241684,0.684218,-0.197684,0.712218,
-0.197460,0.712353,-0.174460,0.725353,-0.174083,0.725545,-0.150083,0.736545,-0.149923,0.736615,-0.125923,0.746615,-0.125756,0.746682,-0.101756,0.755682,-0.101300,0.755828,-0.075300,0.762828,-0.075167,0.762862,-0.050167,0.768862,-0.049944,0.768910,-0.023944,0.773910,-0.023573,0.773967,0.002427,0.776967,0.002617,0.776985,0.028617,0.778985,0.028808,0.778996,0.054808,0.779996,
0.055000,0.780000,1.200000,0.780000,1.203536,0.778536,1.203536,0.778536,$1*%
%AMFreePoly1*
4,1,123,-0.054808,0.779996,-0.028808,0.778996,-0.028617,0.778985,-0.002617,0.776985,-0.002427,0.776967,0.023573,0.773967,0.023944,0.773910,0.049944,0.768910,0.050167,0.768862,0.075167,0.762862,0.075300,0.762828,0.101300,0.755828,0.101756,0.755682,0.125756,0.746682,0.125923,0.746615,0.149923,0.736615,0.150083,0.736545,0.174083,0.725545,0.174460,0.725353,0.197460,0.712353,
0.197684,0.712218,0.241684,0.684218,0.242030,0.683977,0.263030,0.667977,0.263238,0.667810,0.283238,0.650810,0.283439,0.650630,0.302439,0.632630,0.302630,0.632439,0.320630,0.613439,0.320810,0.613238,0.337810,0.593238,0.337977,0.593030,0.353977,0.572030,0.354218,0.571684,0.382218,0.527684,0.382353,0.527460,0.395353,0.504460,0.395545,0.504083,0.406545,0.480083,
0.406615,0.479923,0.416615,0.455923,0.416682,0.455756,0.425682,0.431756,0.425828,0.431300,0.432828,0.405300,0.432862,0.405167,0.438862,0.380167,0.438910,0.379944,0.443910,0.353944,0.443967,0.353573,0.446967,0.327573,0.446985,0.327383,0.448985,0.301383,0.448996,0.301192,0.449996,0.275192,0.450000,0.275000,0.450000,-0.275000,0.449996,-0.275192,0.448996,-0.301192,
0.448985,-0.301383,0.446985,-0.327383,0.446967,-0.327573,0.443967,-0.353573,0.443910,-0.353944,0.438910,-0.379944,0.438862,-0.380167,0.432862,-0.405167,0.432828,-0.405300,0.425828,-0.431300,0.425682,-0.431756,0.416682,-0.455756,0.416615,-0.455923,0.406615,-0.479923,0.406545,-0.480083,0.395545,-0.504083,0.395353,-0.504460,0.382353,-0.527460,0.382218,-0.527684,0.354218,-0.571684,
0.353977,-0.572030,0.337977,-0.593030,0.337810,-0.593238,0.320810,-0.613238,0.320630,-0.613439,0.302630,-0.632439,0.302439,-0.632630,0.283439,-0.650630,0.283238,-0.650810,0.263238,-0.667810,0.263030,-0.667977,0.242030,-0.683977,0.241684,-0.684218,0.197684,-0.712218,0.197460,-0.712353,0.174460,-0.725353,0.174083,-0.725545,0.150083,-0.736545,0.149923,-0.736615,0.125923,-0.746615,
0.125756,-0.746682,0.101756,-0.755682,0.101300,-0.755828,0.075300,-0.762828,0.075167,-0.762862,0.050167,-0.768862,0.049944,-0.768910,0.023944,-0.773910,0.023573,-0.773967,-0.002427,-0.776967,-0.002617,-0.776985,-0.028617,-0.778985,-0.028808,-0.778996,-0.054808,-0.779996,-0.055000,-0.780000,-1.200000,-0.780000,-1.203536,-0.778536,-1.205000,-0.775000,-1.205000,0.775000,-1.203536,0.778536,
-1.200000,0.780000,-0.055000,0.780000,-0.054808,0.779996,-0.054808,0.779996,$1*%
G04 Aperture macros list end*
%TA.AperFunction,ComponentPad*%
%ADD10C,0.400000*%
%TD*%
%TA.AperFunction,ComponentPad*%
%ADD11RoundRect,0.250000X-0.600000X-0.725000X0.600000X-0.725000X0.600000X0.725000X-0.600000X0.725000X0*%
%TD*%
%TA.AperFunction,ComponentPad*%
%ADD12O,1.700000X1.950000*%
%TD*%
%TA.AperFunction,ComponentPad*%
%ADD13FreePoly0,270.000000*%
%TD*%
%TA.AperFunction,ComponentPad*%
%ADD14FreePoly1,270.000000*%
%TD*%
%TA.AperFunction,ComponentPad*%
%ADD15O,0.950000X1.300000*%
%TD*%
%TA.AperFunction,ComponentPad*%
%ADD16C,4.400000*%
%TD*%
%TA.AperFunction,ComponentPad*%
%ADD17RoundRect,0.250000X0.750000X-0.600000X0.750000X0.600000X-0.750000X0.600000X-0.750000X-0.600000X0*%
%TD*%
%TA.AperFunction,ComponentPad*%
%ADD18O,2.000000X1.700000*%
%TD*%
%TA.AperFunction,ViaPad*%
%ADD19C,0.600000*%
%TD*%
%TA.AperFunction,Conductor*%
%ADD20C,0.300000*%
%TD*%
G04 APERTURE END LIST*
D10*
%TO.P,U1,41_10*%
%TO.N,GND*%
X127600000Y-84180000D03*
%TO.P,U1,41_11*%
X129000000Y-84180000D03*
%TO.P,U1,41_12*%
X126900000Y-84880000D03*
%TO.P,U1,41_13*%
X128300000Y-84880000D03*
%TO.P,U1,41_14*%
X129700000Y-84880000D03*
%TO.P,U1,41_15*%
X127600000Y-85580000D03*
%TO.P,U1,41_16*%
X129000000Y-85580000D03*
%TO.P,U1,41_17*%
X126900000Y-86280000D03*
%TO.P,U1,41_18*%
X128300000Y-86280000D03*
%TO.P,U1,41_19*%
X129700000Y-86280000D03*
%TO.P,U1,41_20*%
X127600000Y-86980000D03*
%TO.P,U1,41_21*%
X129000000Y-86980000D03*
%TD*%
D11*
%TO.P,J2,1,Pin_1*%
%TO.N,/SCK*%
X124300000Y-100500000D03*
D12*
%TO.P,J2,2,Pin_2*%
%TO.N,/CS*%
X126800000Y-100500000D03*
%TO.P,J2,3,Pin_3*%
%TO.N,/MOSI*%
X129300000Y-100500000D03*
%TO.P,J2,4,Pin_4*%
%TO.N,/MISO*%
X131800000Y-100500000D03*
%TD*%
D13*
%TO.P,J1,SH1,SHIELD*%
%TO.N,GND*%
X110500000Y-90500000D03*
D14*
%TO.P,J1,SH4,SHIELD__3*%
X110500000Y-97500000D03*
D15*
%TO.P,J1,SH5,SHIELD__4*%
X113200000Y-91500000D03*
%TO.P,J1,SH6,SHIELD__5*%
X113200000Y-96500000D03*
%TD*%
D16*
%TO.P,H4,1,1*%
%TO.N,GND*%
X139800000Y-103300000D03*
%TD*%
D17*
%TO.P,J3,1,Pin_1*%
%TO.N,+3.3V*%
X111100000Y-81900000D03*
D18*
%TO.P,J3,2,Pin_2*%
%TO.N,GND*%
X111100000Y-79400000D03*
%TD*%
D16*
%TO.P,H2,1,1*%
%TO.N,GND*%
X139800000Y-72200000D03*
%TD*%
%TO.P,H1,1,1*%
%TO.N,GND*%
X110100000Y-72100000D03*
%TD*%
%TO.P,H3,1,1*%
%TO.N,GND*%
X110100000Y-103200000D03*
%TD*%
D19*
%TO.N,GND*%
X139800000Y-100000000D03*
X125500000Y-85600000D03*
X116600000Y-71700000D03*
X140500000Y-77860000D03*
X116000000Y-101200000D03*
X110100000Y-100000000D03*
X110100000Y-75600000D03*
X114300000Y-95300000D03*
X119400000Y-77000000D03*
X139800000Y-75700000D03*
X113400000Y-75700000D03*
X114300000Y-96500000D03*
X114300000Y-91500000D03*
X116600000Y-86600000D03*
%TO.N,/SCK*%
X129165000Y-97200000D03*
X125400000Y-97200000D03*
%TD*%
D20*
%TO.N,/SCK*%
X129165000Y-97200000D02*
X125500000Y-97200000D01*
X125500000Y-97200000D02*
X125400000Y-97300000D01*
%TD*%
M02*
