%TF.GenerationSoftware,KiCad,Pcbnew,8.0.3*%
%TF.CreationDate,2026-01-26T23:04:29-08:00*%
%TF.ProjectId,Transmit-Receive-PCB,5472616e-736d-4697-942d-526563656976,rev?*%
%TF.SameCoordinates,Original*%
%TF.FileFunction,Drillmap*%
%TF.FilePolarity,Positive*%
%FSLAX45Y45*%
G04 Gerber Fmt 4.5, Leading zero omitted, Abs format (unit mm)*
G04 Created by KiCad (PCBNEW 8.0.3) date 2026-01-26 23:04:29*
%MOMM*%
%LPD*%
G01*
G04 APERTURE LIST*
%ADD10C,0.050000*%
%ADD11C,0.200000*%
%ADD12C,0.120000*%
G04 APERTURE END LIST*
D10*
X10720000Y-6920000D02*
X14270000Y-6920000D01*
X14270000Y-10610000D01*
X10720000Y-10610000D01*
X10720000Y-6920000D01*
D11*
D12*
X11250000Y-8290000D02*
X11370000Y-8410000D01*
X11370000Y-8290000D02*
X11250000Y-8410000D01*
X12210000Y-10190000D02*
X12330000Y-10310000D01*
X12330000Y-10190000D02*
X12210000Y-10310000D01*
D11*
X10978277Y-10923984D02*
X10978277Y-10723984D01*
X10978277Y-10723984D02*
X11025896Y-10723984D01*
X11025896Y-10723984D02*
X11054467Y-10733508D01*
X11054467Y-10733508D02*
X11073515Y-10752555D01*
X11073515Y-10752555D02*
X11083039Y-10771603D01*
X11083039Y-10771603D02*
X11092563Y-10809698D01*
X11092563Y-10809698D02*
X11092563Y-10838270D01*
X11092563Y-10838270D02*
X11083039Y-10876365D01*
X11083039Y-10876365D02*
X11073515Y-10895412D01*
X11073515Y-10895412D02*
X11054467Y-10914460D01*
X11054467Y-10914460D02*
X11025896Y-10923984D01*
X11025896Y-10923984D02*
X10978277Y-10923984D01*
X11178277Y-10923984D02*
X11178277Y-10790650D01*
X11178277Y-10828746D02*
X11187801Y-10809698D01*
X11187801Y-10809698D02*
X11197324Y-10800174D01*
X11197324Y-10800174D02*
X11216372Y-10790650D01*
X11216372Y-10790650D02*
X11235420Y-10790650D01*
X11302086Y-10923984D02*
X11302086Y-10790650D01*
X11302086Y-10723984D02*
X11292562Y-10733508D01*
X11292562Y-10733508D02*
X11302086Y-10743031D01*
X11302086Y-10743031D02*
X11311610Y-10733508D01*
X11311610Y-10733508D02*
X11302086Y-10723984D01*
X11302086Y-10723984D02*
X11302086Y-10743031D01*
X11425896Y-10923984D02*
X11406848Y-10914460D01*
X11406848Y-10914460D02*
X11397324Y-10895412D01*
X11397324Y-10895412D02*
X11397324Y-10723984D01*
X11530658Y-10923984D02*
X11511610Y-10914460D01*
X11511610Y-10914460D02*
X11502086Y-10895412D01*
X11502086Y-10895412D02*
X11502086Y-10723984D01*
X11759229Y-10923984D02*
X11759229Y-10723984D01*
X11759229Y-10723984D02*
X11825896Y-10866841D01*
X11825896Y-10866841D02*
X11892562Y-10723984D01*
X11892562Y-10723984D02*
X11892562Y-10923984D01*
X12073515Y-10923984D02*
X12073515Y-10819222D01*
X12073515Y-10819222D02*
X12063991Y-10800174D01*
X12063991Y-10800174D02*
X12044943Y-10790650D01*
X12044943Y-10790650D02*
X12006848Y-10790650D01*
X12006848Y-10790650D02*
X11987801Y-10800174D01*
X12073515Y-10914460D02*
X12054467Y-10923984D01*
X12054467Y-10923984D02*
X12006848Y-10923984D01*
X12006848Y-10923984D02*
X11987801Y-10914460D01*
X11987801Y-10914460D02*
X11978277Y-10895412D01*
X11978277Y-10895412D02*
X11978277Y-10876365D01*
X11978277Y-10876365D02*
X11987801Y-10857317D01*
X11987801Y-10857317D02*
X12006848Y-10847793D01*
X12006848Y-10847793D02*
X12054467Y-10847793D01*
X12054467Y-10847793D02*
X12073515Y-10838270D01*
X12168753Y-10790650D02*
X12168753Y-10990650D01*
X12168753Y-10800174D02*
X12187801Y-10790650D01*
X12187801Y-10790650D02*
X12225896Y-10790650D01*
X12225896Y-10790650D02*
X12244943Y-10800174D01*
X12244943Y-10800174D02*
X12254467Y-10809698D01*
X12254467Y-10809698D02*
X12263991Y-10828746D01*
X12263991Y-10828746D02*
X12263991Y-10885889D01*
X12263991Y-10885889D02*
X12254467Y-10904936D01*
X12254467Y-10904936D02*
X12244943Y-10914460D01*
X12244943Y-10914460D02*
X12225896Y-10923984D01*
X12225896Y-10923984D02*
X12187801Y-10923984D01*
X12187801Y-10923984D02*
X12168753Y-10914460D01*
X12349705Y-10904936D02*
X12359229Y-10914460D01*
X12359229Y-10914460D02*
X12349705Y-10923984D01*
X12349705Y-10923984D02*
X12340182Y-10914460D01*
X12340182Y-10914460D02*
X12349705Y-10904936D01*
X12349705Y-10904936D02*
X12349705Y-10923984D01*
X12349705Y-10800174D02*
X12359229Y-10809698D01*
X12359229Y-10809698D02*
X12349705Y-10819222D01*
X12349705Y-10819222D02*
X12340182Y-10809698D01*
X12340182Y-10809698D02*
X12349705Y-10800174D01*
X12349705Y-10800174D02*
X12349705Y-10819222D01*
D12*
X10597500Y-11192500D02*
X10717500Y-11312500D01*
X10717500Y-11192500D02*
X10597500Y-11312500D01*
D11*
X11083039Y-11343984D02*
X10968753Y-11343984D01*
X11025896Y-11343984D02*
X11025896Y-11143984D01*
X11025896Y-11143984D02*
X11006848Y-11172555D01*
X11006848Y-11172555D02*
X10987801Y-11191603D01*
X10987801Y-11191603D02*
X10968753Y-11201127D01*
X11168753Y-11324936D02*
X11178277Y-11334460D01*
X11178277Y-11334460D02*
X11168753Y-11343984D01*
X11168753Y-11343984D02*
X11159229Y-11334460D01*
X11159229Y-11334460D02*
X11168753Y-11324936D01*
X11168753Y-11324936D02*
X11168753Y-11343984D01*
X11254467Y-11163031D02*
X11263991Y-11153508D01*
X11263991Y-11153508D02*
X11283039Y-11143984D01*
X11283039Y-11143984D02*
X11330658Y-11143984D01*
X11330658Y-11143984D02*
X11349705Y-11153508D01*
X11349705Y-11153508D02*
X11359229Y-11163031D01*
X11359229Y-11163031D02*
X11368753Y-11182079D01*
X11368753Y-11182079D02*
X11368753Y-11201127D01*
X11368753Y-11201127D02*
X11359229Y-11229698D01*
X11359229Y-11229698D02*
X11244943Y-11343984D01*
X11244943Y-11343984D02*
X11368753Y-11343984D01*
X11492562Y-11143984D02*
X11511610Y-11143984D01*
X11511610Y-11143984D02*
X11530658Y-11153508D01*
X11530658Y-11153508D02*
X11540182Y-11163031D01*
X11540182Y-11163031D02*
X11549705Y-11182079D01*
X11549705Y-11182079D02*
X11559229Y-11220174D01*
X11559229Y-11220174D02*
X11559229Y-11267793D01*
X11559229Y-11267793D02*
X11549705Y-11305888D01*
X11549705Y-11305888D02*
X11540182Y-11324936D01*
X11540182Y-11324936D02*
X11530658Y-11334460D01*
X11530658Y-11334460D02*
X11511610Y-11343984D01*
X11511610Y-11343984D02*
X11492562Y-11343984D01*
X11492562Y-11343984D02*
X11473515Y-11334460D01*
X11473515Y-11334460D02*
X11463991Y-11324936D01*
X11463991Y-11324936D02*
X11454467Y-11305888D01*
X11454467Y-11305888D02*
X11444943Y-11267793D01*
X11444943Y-11267793D02*
X11444943Y-11220174D01*
X11444943Y-11220174D02*
X11454467Y-11182079D01*
X11454467Y-11182079D02*
X11463991Y-11163031D01*
X11463991Y-11163031D02*
X11473515Y-11153508D01*
X11473515Y-11153508D02*
X11492562Y-11143984D01*
X11683039Y-11143984D02*
X11702086Y-11143984D01*
X11702086Y-11143984D02*
X11721134Y-11153508D01*
X11721134Y-11153508D02*
X11730658Y-11163031D01*
X11730658Y-11163031D02*
X11740182Y-11182079D01*
X11740182Y-11182079D02*
X11749705Y-11220174D01*
X11749705Y-11220174D02*
X11749705Y-11267793D01*
X11749705Y-11267793D02*
X11740182Y-11305888D01*
X11740182Y-11305888D02*
X11730658Y-11324936D01*
X11730658Y-11324936D02*
X11721134Y-11334460D01*
X11721134Y-11334460D02*
X11702086Y-11343984D01*
X11702086Y-11343984D02*
X11683039Y-11343984D01*
X11683039Y-11343984D02*
X11663991Y-11334460D01*
X11663991Y-11334460D02*
X11654467Y-11324936D01*
X11654467Y-11324936D02*
X11644943Y-11305888D01*
X11644943Y-11305888D02*
X11635420Y-11267793D01*
X11635420Y-11267793D02*
X11635420Y-11220174D01*
X11635420Y-11220174D02*
X11644943Y-11182079D01*
X11644943Y-11182079D02*
X11654467Y-11163031D01*
X11654467Y-11163031D02*
X11663991Y-11153508D01*
X11663991Y-11153508D02*
X11683039Y-11143984D01*
X11835420Y-11343984D02*
X11835420Y-11210650D01*
X11835420Y-11229698D02*
X11844943Y-11220174D01*
X11844943Y-11220174D02*
X11863991Y-11210650D01*
X11863991Y-11210650D02*
X11892563Y-11210650D01*
X11892563Y-11210650D02*
X11911610Y-11220174D01*
X11911610Y-11220174D02*
X11921134Y-11239222D01*
X11921134Y-11239222D02*
X11921134Y-11343984D01*
X11921134Y-11239222D02*
X11930658Y-11220174D01*
X11930658Y-11220174D02*
X11949705Y-11210650D01*
X11949705Y-11210650D02*
X11978277Y-11210650D01*
X11978277Y-11210650D02*
X11997324Y-11220174D01*
X11997324Y-11220174D02*
X12006848Y-11239222D01*
X12006848Y-11239222D02*
X12006848Y-11343984D01*
X12102086Y-11343984D02*
X12102086Y-11210650D01*
X12102086Y-11229698D02*
X12111610Y-11220174D01*
X12111610Y-11220174D02*
X12130658Y-11210650D01*
X12130658Y-11210650D02*
X12159229Y-11210650D01*
X12159229Y-11210650D02*
X12178277Y-11220174D01*
X12178277Y-11220174D02*
X12187801Y-11239222D01*
X12187801Y-11239222D02*
X12187801Y-11343984D01*
X12187801Y-11239222D02*
X12197324Y-11220174D01*
X12197324Y-11220174D02*
X12216372Y-11210650D01*
X12216372Y-11210650D02*
X12244943Y-11210650D01*
X12244943Y-11210650D02*
X12263991Y-11220174D01*
X12263991Y-11220174D02*
X12273515Y-11239222D01*
X12273515Y-11239222D02*
X12273515Y-11343984D01*
X12663991Y-11134460D02*
X12492563Y-11391603D01*
X12921134Y-11143984D02*
X12940182Y-11143984D01*
X12940182Y-11143984D02*
X12959229Y-11153508D01*
X12959229Y-11153508D02*
X12968753Y-11163031D01*
X12968753Y-11163031D02*
X12978277Y-11182079D01*
X12978277Y-11182079D02*
X12987801Y-11220174D01*
X12987801Y-11220174D02*
X12987801Y-11267793D01*
X12987801Y-11267793D02*
X12978277Y-11305888D01*
X12978277Y-11305888D02*
X12968753Y-11324936D01*
X12968753Y-11324936D02*
X12959229Y-11334460D01*
X12959229Y-11334460D02*
X12940182Y-11343984D01*
X12940182Y-11343984D02*
X12921134Y-11343984D01*
X12921134Y-11343984D02*
X12902086Y-11334460D01*
X12902086Y-11334460D02*
X12892563Y-11324936D01*
X12892563Y-11324936D02*
X12883039Y-11305888D01*
X12883039Y-11305888D02*
X12873515Y-11267793D01*
X12873515Y-11267793D02*
X12873515Y-11220174D01*
X12873515Y-11220174D02*
X12883039Y-11182079D01*
X12883039Y-11182079D02*
X12892563Y-11163031D01*
X12892563Y-11163031D02*
X12902086Y-11153508D01*
X12902086Y-11153508D02*
X12921134Y-11143984D01*
X13073515Y-11324936D02*
X13083039Y-11334460D01*
X13083039Y-11334460D02*
X13073515Y-11343984D01*
X13073515Y-11343984D02*
X13063991Y-11334460D01*
X13063991Y-11334460D02*
X13073515Y-11324936D01*
X13073515Y-11324936D02*
X13073515Y-11343984D01*
X13206848Y-11143984D02*
X13225896Y-11143984D01*
X13225896Y-11143984D02*
X13244944Y-11153508D01*
X13244944Y-11153508D02*
X13254467Y-11163031D01*
X13254467Y-11163031D02*
X13263991Y-11182079D01*
X13263991Y-11182079D02*
X13273515Y-11220174D01*
X13273515Y-11220174D02*
X13273515Y-11267793D01*
X13273515Y-11267793D02*
X13263991Y-11305888D01*
X13263991Y-11305888D02*
X13254467Y-11324936D01*
X13254467Y-11324936D02*
X13244944Y-11334460D01*
X13244944Y-11334460D02*
X13225896Y-11343984D01*
X13225896Y-11343984D02*
X13206848Y-11343984D01*
X13206848Y-11343984D02*
X13187801Y-11334460D01*
X13187801Y-11334460D02*
X13178277Y-11324936D01*
X13178277Y-11324936D02*
X13168753Y-11305888D01*
X13168753Y-11305888D02*
X13159229Y-11267793D01*
X13159229Y-11267793D02*
X13159229Y-11220174D01*
X13159229Y-11220174D02*
X13168753Y-11182079D01*
X13168753Y-11182079D02*
X13178277Y-11163031D01*
X13178277Y-11163031D02*
X13187801Y-11153508D01*
X13187801Y-11153508D02*
X13206848Y-11143984D01*
X13444944Y-11210650D02*
X13444944Y-11343984D01*
X13397325Y-11134460D02*
X13349706Y-11277317D01*
X13349706Y-11277317D02*
X13473515Y-11277317D01*
X13530658Y-11143984D02*
X13663991Y-11143984D01*
X13663991Y-11143984D02*
X13578277Y-11343984D01*
X13730658Y-11163031D02*
X13740182Y-11153508D01*
X13740182Y-11153508D02*
X13759229Y-11143984D01*
X13759229Y-11143984D02*
X13806848Y-11143984D01*
X13806848Y-11143984D02*
X13825896Y-11153508D01*
X13825896Y-11153508D02*
X13835420Y-11163031D01*
X13835420Y-11163031D02*
X13844944Y-11182079D01*
X13844944Y-11182079D02*
X13844944Y-11201127D01*
X13844944Y-11201127D02*
X13835420Y-11229698D01*
X13835420Y-11229698D02*
X13721134Y-11343984D01*
X13721134Y-11343984D02*
X13844944Y-11343984D01*
X13921134Y-11143984D02*
X13921134Y-11182079D01*
X13997325Y-11143984D02*
X13997325Y-11182079D01*
X14292563Y-11420174D02*
X14283039Y-11410650D01*
X14283039Y-11410650D02*
X14263991Y-11382079D01*
X14263991Y-11382079D02*
X14254468Y-11363031D01*
X14254468Y-11363031D02*
X14244944Y-11334460D01*
X14244944Y-11334460D02*
X14235420Y-11286841D01*
X14235420Y-11286841D02*
X14235420Y-11248746D01*
X14235420Y-11248746D02*
X14244944Y-11201127D01*
X14244944Y-11201127D02*
X14254468Y-11172555D01*
X14254468Y-11172555D02*
X14263991Y-11153508D01*
X14263991Y-11153508D02*
X14283039Y-11124936D01*
X14283039Y-11124936D02*
X14292563Y-11115412D01*
X14359229Y-11163031D02*
X14368753Y-11153508D01*
X14368753Y-11153508D02*
X14387801Y-11143984D01*
X14387801Y-11143984D02*
X14435420Y-11143984D01*
X14435420Y-11143984D02*
X14454468Y-11153508D01*
X14454468Y-11153508D02*
X14463991Y-11163031D01*
X14463991Y-11163031D02*
X14473515Y-11182079D01*
X14473515Y-11182079D02*
X14473515Y-11201127D01*
X14473515Y-11201127D02*
X14463991Y-11229698D01*
X14463991Y-11229698D02*
X14349706Y-11343984D01*
X14349706Y-11343984D02*
X14473515Y-11343984D01*
X14711610Y-11343984D02*
X14711610Y-11143984D01*
X14797325Y-11343984D02*
X14797325Y-11239222D01*
X14797325Y-11239222D02*
X14787801Y-11220174D01*
X14787801Y-11220174D02*
X14768753Y-11210650D01*
X14768753Y-11210650D02*
X14740182Y-11210650D01*
X14740182Y-11210650D02*
X14721134Y-11220174D01*
X14721134Y-11220174D02*
X14711610Y-11229698D01*
X14921134Y-11343984D02*
X14902087Y-11334460D01*
X14902087Y-11334460D02*
X14892563Y-11324936D01*
X14892563Y-11324936D02*
X14883039Y-11305888D01*
X14883039Y-11305888D02*
X14883039Y-11248746D01*
X14883039Y-11248746D02*
X14892563Y-11229698D01*
X14892563Y-11229698D02*
X14902087Y-11220174D01*
X14902087Y-11220174D02*
X14921134Y-11210650D01*
X14921134Y-11210650D02*
X14949706Y-11210650D01*
X14949706Y-11210650D02*
X14968753Y-11220174D01*
X14968753Y-11220174D02*
X14978277Y-11229698D01*
X14978277Y-11229698D02*
X14987801Y-11248746D01*
X14987801Y-11248746D02*
X14987801Y-11305888D01*
X14987801Y-11305888D02*
X14978277Y-11324936D01*
X14978277Y-11324936D02*
X14968753Y-11334460D01*
X14968753Y-11334460D02*
X14949706Y-11343984D01*
X14949706Y-11343984D02*
X14921134Y-11343984D01*
X15102087Y-11343984D02*
X15083039Y-11334460D01*
X15083039Y-11334460D02*
X15073515Y-11315412D01*
X15073515Y-11315412D02*
X15073515Y-11143984D01*
X15254468Y-11334460D02*
X15235420Y-11343984D01*
X15235420Y-11343984D02*
X15197325Y-11343984D01*
X15197325Y-11343984D02*
X15178277Y-11334460D01*
X15178277Y-11334460D02*
X15168753Y-11315412D01*
X15168753Y-11315412D02*
X15168753Y-11239222D01*
X15168753Y-11239222D02*
X15178277Y-11220174D01*
X15178277Y-11220174D02*
X15197325Y-11210650D01*
X15197325Y-11210650D02*
X15235420Y-11210650D01*
X15235420Y-11210650D02*
X15254468Y-11220174D01*
X15254468Y-11220174D02*
X15263991Y-11239222D01*
X15263991Y-11239222D02*
X15263991Y-11258269D01*
X15263991Y-11258269D02*
X15168753Y-11277317D01*
X15340182Y-11334460D02*
X15359230Y-11343984D01*
X15359230Y-11343984D02*
X15397325Y-11343984D01*
X15397325Y-11343984D02*
X15416372Y-11334460D01*
X15416372Y-11334460D02*
X15425896Y-11315412D01*
X15425896Y-11315412D02*
X15425896Y-11305888D01*
X15425896Y-11305888D02*
X15416372Y-11286841D01*
X15416372Y-11286841D02*
X15397325Y-11277317D01*
X15397325Y-11277317D02*
X15368753Y-11277317D01*
X15368753Y-11277317D02*
X15349706Y-11267793D01*
X15349706Y-11267793D02*
X15340182Y-11248746D01*
X15340182Y-11248746D02*
X15340182Y-11239222D01*
X15340182Y-11239222D02*
X15349706Y-11220174D01*
X15349706Y-11220174D02*
X15368753Y-11210650D01*
X15368753Y-11210650D02*
X15397325Y-11210650D01*
X15397325Y-11210650D02*
X15416372Y-11220174D01*
X15492563Y-11420174D02*
X15502087Y-11410650D01*
X15502087Y-11410650D02*
X15521134Y-11382079D01*
X15521134Y-11382079D02*
X15530658Y-11363031D01*
X15530658Y-11363031D02*
X15540182Y-11334460D01*
X15540182Y-11334460D02*
X15549706Y-11286841D01*
X15549706Y-11286841D02*
X15549706Y-11248746D01*
X15549706Y-11248746D02*
X15540182Y-11201127D01*
X15540182Y-11201127D02*
X15530658Y-11172555D01*
X15530658Y-11172555D02*
X15521134Y-11153508D01*
X15521134Y-11153508D02*
X15502087Y-11124936D01*
X15502087Y-11124936D02*
X15492563Y-11115412D01*
X15854468Y-11420174D02*
X15844944Y-11410650D01*
X15844944Y-11410650D02*
X15825896Y-11382079D01*
X15825896Y-11382079D02*
X15816372Y-11363031D01*
X15816372Y-11363031D02*
X15806849Y-11334460D01*
X15806849Y-11334460D02*
X15797325Y-11286841D01*
X15797325Y-11286841D02*
X15797325Y-11248746D01*
X15797325Y-11248746D02*
X15806849Y-11201127D01*
X15806849Y-11201127D02*
X15816372Y-11172555D01*
X15816372Y-11172555D02*
X15825896Y-11153508D01*
X15825896Y-11153508D02*
X15844944Y-11124936D01*
X15844944Y-11124936D02*
X15854468Y-11115412D01*
X15930658Y-11210650D02*
X15930658Y-11343984D01*
X15930658Y-11229698D02*
X15940182Y-11220174D01*
X15940182Y-11220174D02*
X15959230Y-11210650D01*
X15959230Y-11210650D02*
X15987801Y-11210650D01*
X15987801Y-11210650D02*
X16006849Y-11220174D01*
X16006849Y-11220174D02*
X16016372Y-11239222D01*
X16016372Y-11239222D02*
X16016372Y-11343984D01*
X16140182Y-11343984D02*
X16121134Y-11334460D01*
X16121134Y-11334460D02*
X16111611Y-11324936D01*
X16111611Y-11324936D02*
X16102087Y-11305888D01*
X16102087Y-11305888D02*
X16102087Y-11248746D01*
X16102087Y-11248746D02*
X16111611Y-11229698D01*
X16111611Y-11229698D02*
X16121134Y-11220174D01*
X16121134Y-11220174D02*
X16140182Y-11210650D01*
X16140182Y-11210650D02*
X16168753Y-11210650D01*
X16168753Y-11210650D02*
X16187801Y-11220174D01*
X16187801Y-11220174D02*
X16197325Y-11229698D01*
X16197325Y-11229698D02*
X16206849Y-11248746D01*
X16206849Y-11248746D02*
X16206849Y-11305888D01*
X16206849Y-11305888D02*
X16197325Y-11324936D01*
X16197325Y-11324936D02*
X16187801Y-11334460D01*
X16187801Y-11334460D02*
X16168753Y-11343984D01*
X16168753Y-11343984D02*
X16140182Y-11343984D01*
X16263992Y-11210650D02*
X16340182Y-11210650D01*
X16292563Y-11143984D02*
X16292563Y-11315412D01*
X16292563Y-11315412D02*
X16302087Y-11334460D01*
X16302087Y-11334460D02*
X16321134Y-11343984D01*
X16321134Y-11343984D02*
X16340182Y-11343984D01*
X16559230Y-11210650D02*
X16559230Y-11410650D01*
X16559230Y-11220174D02*
X16578277Y-11210650D01*
X16578277Y-11210650D02*
X16616373Y-11210650D01*
X16616373Y-11210650D02*
X16635420Y-11220174D01*
X16635420Y-11220174D02*
X16644944Y-11229698D01*
X16644944Y-11229698D02*
X16654468Y-11248746D01*
X16654468Y-11248746D02*
X16654468Y-11305888D01*
X16654468Y-11305888D02*
X16644944Y-11324936D01*
X16644944Y-11324936D02*
X16635420Y-11334460D01*
X16635420Y-11334460D02*
X16616373Y-11343984D01*
X16616373Y-11343984D02*
X16578277Y-11343984D01*
X16578277Y-11343984D02*
X16559230Y-11334460D01*
X16768753Y-11343984D02*
X16749706Y-11334460D01*
X16749706Y-11334460D02*
X16740182Y-11315412D01*
X16740182Y-11315412D02*
X16740182Y-11143984D01*
X16930658Y-11343984D02*
X16930658Y-11239222D01*
X16930658Y-11239222D02*
X16921135Y-11220174D01*
X16921135Y-11220174D02*
X16902087Y-11210650D01*
X16902087Y-11210650D02*
X16863992Y-11210650D01*
X16863992Y-11210650D02*
X16844944Y-11220174D01*
X16930658Y-11334460D02*
X16911611Y-11343984D01*
X16911611Y-11343984D02*
X16863992Y-11343984D01*
X16863992Y-11343984D02*
X16844944Y-11334460D01*
X16844944Y-11334460D02*
X16835420Y-11315412D01*
X16835420Y-11315412D02*
X16835420Y-11296365D01*
X16835420Y-11296365D02*
X16844944Y-11277317D01*
X16844944Y-11277317D02*
X16863992Y-11267793D01*
X16863992Y-11267793D02*
X16911611Y-11267793D01*
X16911611Y-11267793D02*
X16930658Y-11258269D01*
X16997325Y-11210650D02*
X17073515Y-11210650D01*
X17025896Y-11143984D02*
X17025896Y-11315412D01*
X17025896Y-11315412D02*
X17035420Y-11334460D01*
X17035420Y-11334460D02*
X17054468Y-11343984D01*
X17054468Y-11343984D02*
X17073515Y-11343984D01*
X17216373Y-11334460D02*
X17197325Y-11343984D01*
X17197325Y-11343984D02*
X17159230Y-11343984D01*
X17159230Y-11343984D02*
X17140182Y-11334460D01*
X17140182Y-11334460D02*
X17130658Y-11315412D01*
X17130658Y-11315412D02*
X17130658Y-11239222D01*
X17130658Y-11239222D02*
X17140182Y-11220174D01*
X17140182Y-11220174D02*
X17159230Y-11210650D01*
X17159230Y-11210650D02*
X17197325Y-11210650D01*
X17197325Y-11210650D02*
X17216373Y-11220174D01*
X17216373Y-11220174D02*
X17225896Y-11239222D01*
X17225896Y-11239222D02*
X17225896Y-11258269D01*
X17225896Y-11258269D02*
X17130658Y-11277317D01*
X17397325Y-11343984D02*
X17397325Y-11143984D01*
X17397325Y-11334460D02*
X17378277Y-11343984D01*
X17378277Y-11343984D02*
X17340182Y-11343984D01*
X17340182Y-11343984D02*
X17321135Y-11334460D01*
X17321135Y-11334460D02*
X17311611Y-11324936D01*
X17311611Y-11324936D02*
X17302087Y-11305888D01*
X17302087Y-11305888D02*
X17302087Y-11248746D01*
X17302087Y-11248746D02*
X17311611Y-11229698D01*
X17311611Y-11229698D02*
X17321135Y-11220174D01*
X17321135Y-11220174D02*
X17340182Y-11210650D01*
X17340182Y-11210650D02*
X17378277Y-11210650D01*
X17378277Y-11210650D02*
X17397325Y-11220174D01*
X17473516Y-11420174D02*
X17483039Y-11410650D01*
X17483039Y-11410650D02*
X17502087Y-11382079D01*
X17502087Y-11382079D02*
X17511611Y-11363031D01*
X17511611Y-11363031D02*
X17521135Y-11334460D01*
X17521135Y-11334460D02*
X17530658Y-11286841D01*
X17530658Y-11286841D02*
X17530658Y-11248746D01*
X17530658Y-11248746D02*
X17521135Y-11201127D01*
X17521135Y-11201127D02*
X17511611Y-11172555D01*
X17511611Y-11172555D02*
X17502087Y-11153508D01*
X17502087Y-11153508D02*
X17483039Y-11124936D01*
X17483039Y-11124936D02*
X17473516Y-11115412D01*
M02*
