G04 #@! TF.GenerationSoftware,KiCad,Pcbnew,8.0.3*
G04 #@! TF.CreationDate,2026-02-23T19:35:16-08:00*
G04 #@! TF.ProjectId,Capstone_Signal_Processing,43617073-746f-46e6-955f-5369676e616c,rev?*
G04 #@! TF.SameCoordinates,Original*
G04 #@! TF.FileFunction,Copper,L1,Top*
G04 #@! TF.FilePolarity,Positive*
%FSLAX46Y46*%
G04 Gerber Fmt 4.6, Leading zero omitted, Abs format (unit mm)*
G04 Created by KiCad (PCBNEW 8.0.3) date 2026-02-23 19:35:16*
%MOMM*%
%LPD*%
G01*
G04 APERTURE LIST*
G04 Aperture macros list*
%AMRoundRect*
0 Rectangle with rounded corners*
0 $1 Rounding radius*
0 $2 $3 $4 $5 $6 $7 $8 $9 X,Y pos of 4 corners*
0 Add a 4 corners polygon primitive as box body*
4,1,4,$2,$3,$4,$5,$6,$7,$8,$9,$2,$3,0*
0 Add four circle primitives for the rounded corners*
1,1,$1+$1,$2,$3*
1,1,$1+$1,$4,$5*
1,1,$1+$1,$6,$7*
1,1,$1+$1,$8,$9*
0 Add four rect primitives between the rounded corners*
20,1,$1+$1,$2,$3,$4,$5,0*
20,1,$1+$1,$4,$5,$6,$7,0*
20,1,$1+$1,$6,$7,$8,$9,0*
20,1,$1+$1,$8,$9,$2,$3,0*%
G04 Aperture macros list end*
G04 #@! TA.AperFunction,ComponentPad*
%ADD10C,4.400000*%
G04 #@! TD*
G04 #@! TA.AperFunction,ComponentPad*
%ADD11RoundRect,0.250000X-0.600000X-0.750000X0.600000X-0.750000X0.600000X0.750000X-0.600000X0.750000X0*%
G04 #@! TD*
G04 #@! TA.AperFunction,ComponentPad*
%ADD12O,1.700000X2.000000*%
G04 #@! TD*
G04 #@! TA.AperFunction,SMDPad,CuDef*
%ADD13RoundRect,0.250000X-0.475000X0.337500X-0.475000X-0.337500X0.475000X-0.337500X0.475000X0.337500X0*%
G04 #@! TD*
G04 #@! TA.AperFunction,ComponentPad*
%ADD14RoundRect,0.250000X0.750000X-0.600000X0.750000X0.600000X-0.750000X0.600000X-0.750000X-0.600000X0*%
G04 #@! TD*
G04 #@! TA.AperFunction,ComponentPad*
%ADD15O,2.000000X1.700000*%
G04 #@! TD*
G04 #@! TA.AperFunction,SMDPad,CuDef*
%ADD16R,0.762000X0.254000*%
G04 #@! TD*
G04 #@! TA.AperFunction,SMDPad,CuDef*
%ADD17R,0.254000X0.762000*%
G04 #@! TD*
G04 #@! TA.AperFunction,SMDPad,CuDef*
%ADD18R,2.692400X4.699000*%
G04 #@! TD*
G04 #@! TA.AperFunction,SMDPad,CuDef*
%ADD19RoundRect,0.250000X0.475000X-0.337500X0.475000X0.337500X-0.475000X0.337500X-0.475000X-0.337500X0*%
G04 #@! TD*
G04 #@! TA.AperFunction,SMDPad,CuDef*
%ADD20RoundRect,0.250000X-0.450000X0.350000X-0.450000X-0.350000X0.450000X-0.350000X0.450000X0.350000X0*%
G04 #@! TD*
G04 #@! TA.AperFunction,SMDPad,CuDef*
%ADD21RoundRect,0.250000X0.350000X0.450000X-0.350000X0.450000X-0.350000X-0.450000X0.350000X-0.450000X0*%
G04 #@! TD*
G04 #@! TA.AperFunction,ComponentPad*
%ADD22RoundRect,0.250000X0.600000X0.750000X-0.600000X0.750000X-0.600000X-0.750000X0.600000X-0.750000X0*%
G04 #@! TD*
G04 #@! TA.AperFunction,ComponentPad*
%ADD23RoundRect,0.250000X-0.600000X-0.725000X0.600000X-0.725000X0.600000X0.725000X-0.600000X0.725000X0*%
G04 #@! TD*
G04 #@! TA.AperFunction,ComponentPad*
%ADD24O,1.700000X1.950000*%
G04 #@! TD*
G04 #@! TA.AperFunction,ComponentPad*
%ADD25RoundRect,0.250000X-0.750000X0.600000X-0.750000X-0.600000X0.750000X-0.600000X0.750000X0.600000X0*%
G04 #@! TD*
G04 #@! TA.AperFunction,ViaPad*
%ADD26C,0.600000*%
G04 #@! TD*
G04 #@! TA.AperFunction,Conductor*
%ADD27C,0.300000*%
G04 #@! TD*
G04 #@! TA.AperFunction,Conductor*
%ADD28C,0.200000*%
G04 #@! TD*
G04 APERTURE END LIST*
D10*
X130500000Y-82100000D03*
D11*
X140900000Y-85100000D03*
D12*
X143400000Y-85100000D03*
D13*
X138800000Y-94800000D03*
X138800000Y-96875000D03*
D10*
X160200000Y-82100000D03*
D13*
X141700000Y-98900000D03*
X141700000Y-100975000D03*
D14*
X131600000Y-107300000D03*
D15*
X131600000Y-104800000D03*
D16*
X145381500Y-96900000D03*
X145381500Y-97400002D03*
X145381500Y-97900001D03*
X145381500Y-98400000D03*
X145381500Y-98900001D03*
X145381500Y-99400001D03*
X145381500Y-99900002D03*
X145381500Y-100400001D03*
X145381500Y-100900000D03*
X145381500Y-101400002D03*
D17*
X146100000Y-102121801D03*
X146599999Y-102121801D03*
X147100000Y-102121801D03*
X147600000Y-102121801D03*
X148100001Y-102121801D03*
X148600000Y-102121801D03*
D16*
X149318500Y-101400002D03*
X149318500Y-100900000D03*
X149318500Y-100400001D03*
X149318500Y-99900002D03*
X149318500Y-99400001D03*
X149318500Y-98900001D03*
X149318500Y-98400000D03*
X149318500Y-97900001D03*
X149318500Y-97400002D03*
X149318500Y-96900000D03*
D17*
X148600000Y-96178201D03*
X148100001Y-96178201D03*
X147600000Y-96178201D03*
X147100000Y-96178201D03*
X146599999Y-96178201D03*
X146100000Y-96178201D03*
D18*
X147350000Y-99150001D03*
D19*
X143800000Y-105337500D03*
X143800000Y-103262500D03*
D10*
X130500000Y-113200000D03*
D13*
X141400000Y-94800000D03*
X141400000Y-96875000D03*
X155600000Y-100462500D03*
X155600000Y-102537500D03*
X138800000Y-98900000D03*
X138800000Y-100975000D03*
D11*
X149800000Y-85100000D03*
D12*
X152300000Y-85100000D03*
D20*
X138100000Y-110100000D03*
X138100000Y-112100000D03*
D21*
X141000000Y-104200000D03*
X139000000Y-104200000D03*
D13*
X152900000Y-100462500D03*
X152900000Y-102537500D03*
D19*
X155600000Y-98200000D03*
X155600000Y-96125000D03*
X152900000Y-98200000D03*
X152900000Y-96125000D03*
D22*
X134100000Y-89900000D03*
D12*
X131600000Y-89900000D03*
D23*
X143100000Y-111100000D03*
D24*
X145600000Y-111100000D03*
X148100000Y-111100000D03*
X150600000Y-111100000D03*
D25*
X159600000Y-89300000D03*
D15*
X159600000Y-91800000D03*
D25*
X132600000Y-96300000D03*
D15*
X132600000Y-98800000D03*
D10*
X160200000Y-113200000D03*
D26*
X160200000Y-110000000D03*
X132300000Y-110600000D03*
X130500000Y-85600000D03*
X136800000Y-98800000D03*
X151400000Y-96100000D03*
X136800000Y-96900000D03*
X157800000Y-99300000D03*
X160200000Y-85700000D03*
X142237500Y-105337500D03*
X151400000Y-100500000D03*
X141100000Y-107200000D03*
D27*
X130500000Y-112400000D02*
X130500000Y-113200000D01*
D28*
X151375000Y-96125000D02*
X151325000Y-96125000D01*
D27*
X155600000Y-102537500D02*
X156362500Y-102537500D01*
X130500000Y-85600000D02*
X130500000Y-82100000D01*
X160200000Y-110000000D02*
X160200000Y-113200000D01*
X144599999Y-98900001D02*
X145381500Y-98900001D01*
X152900000Y-96125000D02*
X151425000Y-96125000D01*
D28*
X144599999Y-98900001D02*
X144599998Y-98900000D01*
X151325000Y-96125000D02*
X151300000Y-96100000D01*
D27*
X157800000Y-99300000D02*
X157800000Y-97500000D01*
X135000000Y-104800000D02*
X136900000Y-102900000D01*
D28*
X151400000Y-96100000D02*
X151375000Y-96125000D01*
X138800000Y-96875000D02*
X138775000Y-96900000D01*
D27*
X152237500Y-102537500D02*
X152900000Y-102537500D01*
X155600000Y-96125000D02*
X152900000Y-96125000D01*
X157800000Y-101100000D02*
X157800000Y-99300000D01*
X141400000Y-96875000D02*
X138800000Y-96875000D01*
X136900000Y-102900000D02*
X136900000Y-98900000D01*
X132600000Y-98800000D02*
X136800000Y-98800000D01*
X136800000Y-98800000D02*
X138700000Y-98800000D01*
X138775000Y-96900000D02*
X136800000Y-96900000D01*
X138700000Y-98800000D02*
X138800000Y-98900000D01*
X150100001Y-100400001D02*
X152237500Y-102537500D01*
X131600000Y-104800000D02*
X135000000Y-104800000D01*
X156425000Y-96125000D02*
X155600000Y-96125000D01*
X136800000Y-96900000D02*
X135300000Y-96900000D01*
X156362500Y-102537500D02*
X157800000Y-101100000D01*
D28*
X147350000Y-99150001D02*
X148600000Y-100400001D01*
X136900000Y-98900000D02*
X136800000Y-98800000D01*
X145381500Y-98900001D02*
X147100000Y-98900001D01*
D27*
X144599998Y-98900000D02*
X141700000Y-98900000D01*
X142237500Y-105337500D02*
X143800000Y-105337500D01*
D28*
X148600000Y-100400001D02*
X149318500Y-100400001D01*
D27*
X160200000Y-85700000D02*
X160200000Y-82100000D01*
X157800000Y-97500000D02*
X156425000Y-96125000D01*
D28*
X147100000Y-98900001D02*
X147350000Y-99150001D01*
D27*
X152900000Y-102537500D02*
X155600000Y-102537500D01*
X135300000Y-96900000D02*
X133400000Y-98800000D01*
X133400000Y-98800000D02*
X132600000Y-98800000D01*
X138800000Y-98900000D02*
X141700000Y-98900000D01*
D28*
X151425000Y-96125000D02*
X151400000Y-96100000D01*
D27*
X132300000Y-110600000D02*
X130500000Y-112400000D01*
X149318500Y-100400001D02*
X150100001Y-100400001D01*
X138100000Y-110100000D02*
X135300000Y-107300000D01*
X152862500Y-100500000D02*
X152900000Y-100462500D01*
X151400000Y-100500000D02*
X152862500Y-100500000D01*
X141100000Y-107200000D02*
X139300000Y-107200000D01*
X149318500Y-99900002D02*
X150800002Y-99900002D01*
X139200000Y-107300000D02*
X131600000Y-107300000D01*
X150800002Y-99900002D02*
X151400000Y-100500000D01*
X155600000Y-100462500D02*
X152900000Y-100462500D01*
X139000000Y-104200000D02*
X135900000Y-107300000D01*
X139300000Y-107200000D02*
X139200000Y-107300000D01*
X142900000Y-97700000D02*
X142900000Y-96300000D01*
X134100000Y-94800000D02*
X138800000Y-94800000D01*
X141400000Y-94800000D02*
X138800000Y-94800000D01*
X143600000Y-98400000D02*
X142900000Y-97700000D01*
X145381500Y-98400000D02*
X143600000Y-98400000D01*
X142900000Y-96300000D02*
X141400000Y-94800000D01*
X132600000Y-96300000D02*
X134100000Y-94800000D01*
X144300001Y-99400001D02*
X145381500Y-99400001D01*
D28*
X144300000Y-99400000D02*
X144300001Y-99400001D01*
D27*
X144100000Y-99400000D02*
X144300000Y-99400000D01*
X138800000Y-100975000D02*
X141700000Y-100975000D01*
X142525000Y-100975000D02*
X144100000Y-99400000D01*
X141700000Y-100975000D02*
X142525000Y-100975000D01*
X144400002Y-99900002D02*
X145381500Y-99900002D01*
X143800000Y-100500000D02*
X144400000Y-99900000D01*
D28*
X144400000Y-99900000D02*
X144400002Y-99900002D01*
D27*
X143800000Y-103262500D02*
X143800000Y-100500000D01*
X151600000Y-98200000D02*
X152900000Y-98200000D01*
X149318500Y-99400001D02*
X150399999Y-99400001D01*
X155600000Y-98200000D02*
X152900000Y-98200000D01*
X150399999Y-99400001D02*
X151600000Y-98200000D01*
X144100000Y-94500000D02*
X144100000Y-93500000D01*
X140900000Y-90300000D02*
X140900000Y-85100000D01*
X144900000Y-96418500D02*
X144900000Y-95300000D01*
X144100000Y-93500000D02*
X140900000Y-90300000D01*
X144900000Y-95300000D02*
X144100000Y-94500000D01*
X145381500Y-96900000D02*
X144900000Y-96418500D01*
X149800000Y-89200000D02*
X149800000Y-85100000D01*
X146599999Y-96178201D02*
X146599999Y-95099999D01*
X146000000Y-93000000D02*
X149800000Y-89200000D01*
X146000000Y-94500000D02*
X146000000Y-93000000D01*
X146599999Y-95099999D02*
X146000000Y-94500000D01*
X147600000Y-96178201D02*
X147600000Y-94900000D01*
X153200000Y-89300000D02*
X159600000Y-89300000D01*
X147600000Y-94900000D02*
X153200000Y-89300000D01*
X146599999Y-103500001D02*
X145100000Y-105000000D01*
X145100000Y-105000000D02*
X145100000Y-107400000D01*
X145100000Y-107400000D02*
X143100000Y-109400000D01*
X146599999Y-102121801D02*
X146599999Y-103500001D01*
X143100000Y-109400000D02*
X143100000Y-111100000D01*
X141073516Y-104273516D02*
X144726484Y-104273516D01*
X146100000Y-102900000D02*
X146100000Y-102121801D01*
X144726484Y-104273516D02*
X146100000Y-102900000D01*
X141000000Y-104200000D02*
X141073516Y-104273516D01*
X147600000Y-102121801D02*
X147600000Y-105500000D01*
X148100000Y-106000000D02*
X148100000Y-111100000D01*
X147600000Y-105500000D02*
X148100000Y-106000000D01*
X144800000Y-94300000D02*
X144800000Y-92800000D01*
X146100000Y-96178201D02*
X146100000Y-95600000D01*
X143400000Y-91400000D02*
X143400000Y-85100000D01*
X146100000Y-95600000D02*
X144800000Y-94300000D01*
X144800000Y-92800000D02*
X143400000Y-91400000D01*
X148100001Y-104000001D02*
X150600000Y-106500000D01*
X148100001Y-102121801D02*
X148100001Y-104000001D01*
X150600000Y-106500000D02*
X150600000Y-111100000D01*
X152300000Y-88100000D02*
X152300000Y-85100000D01*
X147100000Y-96178201D02*
X147100000Y-93300000D01*
X147100000Y-93300000D02*
X152300000Y-88100000D01*
X145600000Y-112900000D02*
X145600000Y-111100000D01*
X144200000Y-114300000D02*
X145600000Y-112900000D01*
X138100000Y-112100000D02*
X140300000Y-114300000D01*
X140300000Y-114300000D02*
X144200000Y-114300000D01*
X147100000Y-106900000D02*
X145600000Y-108400000D01*
X147100000Y-102121801D02*
X147100000Y-106900000D01*
X145600000Y-108400000D02*
X145600000Y-111100000D01*
X148100001Y-96178201D02*
X148100001Y-95570200D01*
X151870201Y-91800000D02*
X159600000Y-91800000D01*
X148100001Y-95570200D02*
X151870201Y-91800000D01*
X136200000Y-89900000D02*
X134100000Y-89900000D01*
X143500000Y-93900000D02*
X141800000Y-92200000D01*
X138500000Y-92200000D02*
X136200000Y-89900000D01*
X144300000Y-96900000D02*
X144300000Y-95700000D01*
X145381500Y-97400002D02*
X144800002Y-97400002D01*
X144300000Y-95700000D02*
X143500000Y-94900000D01*
X141800000Y-92200000D02*
X138500000Y-92200000D01*
X144800002Y-97400002D02*
X144300000Y-96900000D01*
X143500000Y-94900000D02*
X143500000Y-93900000D01*
X143587897Y-97387897D02*
X143587897Y-95887897D01*
X142800000Y-95100000D02*
X142800000Y-94200000D01*
X143587897Y-95887897D02*
X142800000Y-95100000D01*
X144100001Y-97900001D02*
X143587897Y-97387897D01*
X134700000Y-93000000D02*
X131600000Y-89900000D01*
X145381500Y-97900001D02*
X144100001Y-97900001D01*
X142800000Y-94200000D02*
X141600000Y-93000000D01*
X141600000Y-93000000D02*
X134700000Y-93000000D01*
M02*
