G04 #@! TF.GenerationSoftware,KiCad,Pcbnew,8.0.3*
G04 #@! TF.CreationDate,2026-02-23T19:35:16-08:00*
G04 #@! TF.ProjectId,Capstone_Signal_Processing,43617073-746f-46e6-955f-5369676e616c,rev?*
G04 #@! TF.SameCoordinates,Original*
G04 #@! TF.FileFunction,Copper,L2,Inr*
G04 #@! TF.FilePolarity,Positive*
%FSLAX46Y46*%
G04 Gerber Fmt 4.6, Leading zero omitted, Abs format (unit mm)*
G04 Created by KiCad (PCBNEW 8.0.3) date 2026-02-23 19:35:16*
%MOMM*%
%LPD*%
G01*
G04 APERTURE LIST*
G04 Aperture macros list*
%AMRoundRect*
0 Rectangle with rounded corners*
0 $1 Rounding radius*
0 $2 $3 $4 $5 $6 $7 $8 $9 X,Y pos of 4 corners*
0 Add a 4 corners polygon primitive as box body*
4,1,4,$2,$3,$4,$5,$6,$7,$8,$9,$2,$3,0*
0 Add four circle primitives for the rounded corners*
1,1,$1+$1,$2,$3*
1,1,$1+$1,$4,$5*
1,1,$1+$1,$6,$7*
1,1,$1+$1,$8,$9*
0 Add four rect primitives between the rounded corners*
20,1,$1+$1,$2,$3,$4,$5,0*
20,1,$1+$1,$4,$5,$6,$7,0*
20,1,$1+$1,$6,$7,$8,$9,0*
20,1,$1+$1,$8,$9,$2,$3,0*%
G04 Aperture macros list end*
G04 #@! TA.AperFunction,ComponentPad*
%ADD10C,4.400000*%
G04 #@! TD*
G04 #@! TA.AperFunction,ComponentPad*
%ADD11RoundRect,0.250000X-0.600000X-0.750000X0.600000X-0.750000X0.600000X0.750000X-0.600000X0.750000X0*%
G04 #@! TD*
G04 #@! TA.AperFunction,ComponentPad*
%ADD12O,1.700000X2.000000*%
G04 #@! TD*
G04 #@! TA.AperFunction,ComponentPad*
%ADD13RoundRect,0.250000X0.750000X-0.600000X0.750000X0.600000X-0.750000X0.600000X-0.750000X-0.600000X0*%
G04 #@! TD*
G04 #@! TA.AperFunction,ComponentPad*
%ADD14O,2.000000X1.700000*%
G04 #@! TD*
G04 #@! TA.AperFunction,ComponentPad*
%ADD15RoundRect,0.250000X0.600000X0.750000X-0.600000X0.750000X-0.600000X-0.750000X0.600000X-0.750000X0*%
G04 #@! TD*
G04 #@! TA.AperFunction,ComponentPad*
%ADD16RoundRect,0.250000X-0.600000X-0.725000X0.600000X-0.725000X0.600000X0.725000X-0.600000X0.725000X0*%
G04 #@! TD*
G04 #@! TA.AperFunction,ComponentPad*
%ADD17O,1.700000X1.950000*%
G04 #@! TD*
G04 #@! TA.AperFunction,ComponentPad*
%ADD18RoundRect,0.250000X-0.750000X0.600000X-0.750000X-0.600000X0.750000X-0.600000X0.750000X0.600000X0*%
G04 #@! TD*
G04 #@! TA.AperFunction,ViaPad*
%ADD19C,0.600000*%
G04 #@! TD*
G04 APERTURE END LIST*
D10*
X130500000Y-82100000D03*
D11*
X140900000Y-85100000D03*
D12*
X143400000Y-85100000D03*
D10*
X160200000Y-82100000D03*
D13*
X131600000Y-107300000D03*
D14*
X131600000Y-104800000D03*
D10*
X130500000Y-113200000D03*
D11*
X149800000Y-85100000D03*
D12*
X152300000Y-85100000D03*
D15*
X134100000Y-89900000D03*
D12*
X131600000Y-89900000D03*
D16*
X143100000Y-111100000D03*
D17*
X145600000Y-111100000D03*
X148100000Y-111100000D03*
X150600000Y-111100000D03*
D18*
X159600000Y-89300000D03*
D14*
X159600000Y-91800000D03*
D18*
X132600000Y-96300000D03*
D14*
X132600000Y-98800000D03*
D10*
X160200000Y-113200000D03*
D19*
X160200000Y-110000000D03*
X132300000Y-110600000D03*
X130500000Y-85600000D03*
X136800000Y-98800000D03*
X151400000Y-96100000D03*
X136800000Y-96900000D03*
X157800000Y-99300000D03*
X160200000Y-85700000D03*
X142237500Y-105337500D03*
X151400000Y-100500000D03*
X141100000Y-107200000D03*
G04 #@! TA.AperFunction,Conductor*
G36*
X129660967Y-113916602D02*
G01*
X129783398Y-114039033D01*
X129917262Y-114136290D01*
X128775030Y-115278522D01*
X128775030Y-115278523D01*
X128901862Y-115377889D01*
X128942495Y-115434729D01*
X128945947Y-115504513D01*
X128911123Y-115565086D01*
X128849079Y-115597216D01*
X128825389Y-115599500D01*
X128224500Y-115599500D01*
X128157461Y-115579815D01*
X128111706Y-115527011D01*
X128100500Y-115475500D01*
X128100500Y-114874610D01*
X128120185Y-114807571D01*
X128172989Y-114761816D01*
X128242147Y-114751872D01*
X128305703Y-114780897D01*
X128322111Y-114798137D01*
X128421476Y-114924968D01*
X129563708Y-113782736D01*
X129660967Y-113916602D01*
G37*
G04 #@! TD.AperFunction*
G04 #@! TA.AperFunction,Conductor*
G36*
X158592428Y-79720185D02*
G01*
X158638183Y-79772989D01*
X158648127Y-79842147D01*
X158619102Y-79905703D01*
X158601861Y-79922111D01*
X158475030Y-80021474D01*
X158475029Y-80021476D01*
X159617262Y-81163709D01*
X159483398Y-81260967D01*
X159360967Y-81383398D01*
X159263709Y-81517262D01*
X158121476Y-80375029D01*
X158121474Y-80375030D01*
X157973886Y-80563416D01*
X157973881Y-80563422D01*
X157804898Y-80842956D01*
X157804897Y-80842958D01*
X157670839Y-81140824D01*
X157670835Y-81140835D01*
X157573667Y-81452658D01*
X157514786Y-81773961D01*
X157495065Y-82100000D01*
X157514786Y-82426038D01*
X157573667Y-82747341D01*
X157670835Y-83059164D01*
X157670839Y-83059175D01*
X157804897Y-83357041D01*
X157804898Y-83357043D01*
X157973881Y-83636576D01*
X158121476Y-83824968D01*
X159263708Y-82682736D01*
X159360967Y-82816602D01*
X159483398Y-82939033D01*
X159617262Y-83036290D01*
X158475030Y-84178522D01*
X158475030Y-84178523D01*
X158663423Y-84326118D01*
X158942956Y-84495101D01*
X158942958Y-84495102D01*
X159240824Y-84629160D01*
X159240835Y-84629164D01*
X159552658Y-84726332D01*
X159873961Y-84785213D01*
X160200000Y-84804934D01*
X160526038Y-84785213D01*
X160847341Y-84726332D01*
X161159164Y-84629164D01*
X161159175Y-84629160D01*
X161457041Y-84495102D01*
X161457043Y-84495101D01*
X161736586Y-84326112D01*
X161924968Y-84178523D01*
X161924968Y-84178522D01*
X160782737Y-83036290D01*
X160916602Y-82939033D01*
X161039033Y-82816602D01*
X161136290Y-82682736D01*
X162278522Y-83824968D01*
X162278523Y-83824968D01*
X162377889Y-83698138D01*
X162434729Y-83657505D01*
X162504514Y-83654053D01*
X162565086Y-83688877D01*
X162597216Y-83750921D01*
X162599500Y-83774611D01*
X162599500Y-111525389D01*
X162579815Y-111592428D01*
X162527011Y-111638183D01*
X162457853Y-111648127D01*
X162394297Y-111619102D01*
X162377889Y-111601862D01*
X162278522Y-111475030D01*
X161136290Y-112617261D01*
X161039033Y-112483398D01*
X160916602Y-112360967D01*
X160782736Y-112263709D01*
X161924968Y-111121476D01*
X161736576Y-110973881D01*
X161457043Y-110804898D01*
X161457041Y-110804897D01*
X161159175Y-110670839D01*
X161159164Y-110670835D01*
X160847341Y-110573667D01*
X160526038Y-110514786D01*
X160200000Y-110495065D01*
X159873961Y-110514786D01*
X159552658Y-110573667D01*
X159240835Y-110670835D01*
X159240824Y-110670839D01*
X158942958Y-110804897D01*
X158942956Y-110804898D01*
X158663422Y-110973881D01*
X158663416Y-110973886D01*
X158475030Y-111121474D01*
X158475029Y-111121476D01*
X159617262Y-112263709D01*
X159483398Y-112360967D01*
X159360967Y-112483398D01*
X159263709Y-112617262D01*
X158121476Y-111475029D01*
X158121474Y-111475030D01*
X157973886Y-111663416D01*
X157973881Y-111663422D01*
X157804898Y-111942956D01*
X157804897Y-111942958D01*
X157670839Y-112240824D01*
X157670835Y-112240835D01*
X157573667Y-112552658D01*
X157514786Y-112873961D01*
X157495065Y-113200000D01*
X157514786Y-113526038D01*
X157573667Y-113847341D01*
X157670835Y-114159164D01*
X157670839Y-114159175D01*
X157804897Y-114457041D01*
X157804898Y-114457043D01*
X157973881Y-114736576D01*
X158121476Y-114924968D01*
X159263708Y-113782736D01*
X159360967Y-113916602D01*
X159483398Y-114039033D01*
X159617262Y-114136290D01*
X158475030Y-115278522D01*
X158475030Y-115278523D01*
X158601862Y-115377889D01*
X158642495Y-115434729D01*
X158645947Y-115504513D01*
X158611123Y-115565086D01*
X158549079Y-115597216D01*
X158525389Y-115599500D01*
X132174611Y-115599500D01*
X132107572Y-115579815D01*
X132061817Y-115527011D01*
X132051873Y-115457853D01*
X132080898Y-115394297D01*
X132098138Y-115377889D01*
X132224968Y-115278523D01*
X132224968Y-115278522D01*
X131082737Y-114136290D01*
X131216602Y-114039033D01*
X131339033Y-113916602D01*
X131436290Y-113782737D01*
X132578522Y-114924968D01*
X132578523Y-114924968D01*
X132726112Y-114736586D01*
X132895101Y-114457043D01*
X132895102Y-114457041D01*
X133029160Y-114159175D01*
X133029164Y-114159164D01*
X133126332Y-113847341D01*
X133185213Y-113526038D01*
X133204934Y-113200000D01*
X133193818Y-113016228D01*
X140649500Y-113016228D01*
X140649500Y-113183771D01*
X140682182Y-113348074D01*
X140682184Y-113348082D01*
X140746295Y-113502860D01*
X140839373Y-113642162D01*
X140957837Y-113760626D01*
X140981632Y-113776525D01*
X141097137Y-113853703D01*
X141251918Y-113917816D01*
X141416228Y-113950499D01*
X141416232Y-113950500D01*
X141416233Y-113950500D01*
X141583768Y-113950500D01*
X141583769Y-113950499D01*
X141748082Y-113917816D01*
X141902863Y-113853703D01*
X142042162Y-113760626D01*
X142160626Y-113642162D01*
X142253703Y-113502863D01*
X142317816Y-113348082D01*
X142350500Y-113183767D01*
X142350500Y-113016233D01*
X142317816Y-112851918D01*
X142271916Y-112741108D01*
X142264448Y-112671641D01*
X142295723Y-112609162D01*
X142355811Y-112573509D01*
X142399081Y-112570299D01*
X142402300Y-112570627D01*
X142449991Y-112575500D01*
X143750008Y-112575499D01*
X143852797Y-112564999D01*
X144019334Y-112509814D01*
X144168656Y-112417712D01*
X144292712Y-112293656D01*
X144384814Y-112144334D01*
X144384814Y-112144331D01*
X144388178Y-112138879D01*
X144440126Y-112092154D01*
X144509088Y-112080931D01*
X144573170Y-112108774D01*
X144581398Y-112116294D01*
X144720213Y-112255109D01*
X144892179Y-112380048D01*
X144892181Y-112380049D01*
X144892184Y-112380051D01*
X145081588Y-112476557D01*
X145283757Y-112542246D01*
X145493713Y-112575500D01*
X145493714Y-112575500D01*
X145706286Y-112575500D01*
X145706287Y-112575500D01*
X145916243Y-112542246D01*
X146118412Y-112476557D01*
X146307816Y-112380051D01*
X146354275Y-112346297D01*
X146479786Y-112255109D01*
X146479788Y-112255106D01*
X146479792Y-112255104D01*
X146630104Y-112104792D01*
X146749683Y-111940204D01*
X146805011Y-111897540D01*
X146874624Y-111891561D01*
X146936420Y-111924166D01*
X146950313Y-111940199D01*
X147052560Y-112080931D01*
X147069896Y-112104792D01*
X147220213Y-112255109D01*
X147392179Y-112380048D01*
X147392181Y-112380049D01*
X147392184Y-112380051D01*
X147581588Y-112476557D01*
X147783757Y-112542246D01*
X147993713Y-112575500D01*
X147993714Y-112575500D01*
X148206286Y-112575500D01*
X148206287Y-112575500D01*
X148416243Y-112542246D01*
X148618412Y-112476557D01*
X148807816Y-112380051D01*
X148854275Y-112346297D01*
X148979786Y-112255109D01*
X148979788Y-112255106D01*
X148979792Y-112255104D01*
X149130104Y-112104792D01*
X149249683Y-111940204D01*
X149305011Y-111897540D01*
X149374624Y-111891561D01*
X149436420Y-111924166D01*
X149450313Y-111940199D01*
X149552560Y-112080931D01*
X149569896Y-112104792D01*
X149720213Y-112255109D01*
X149892179Y-112380048D01*
X149892181Y-112380049D01*
X149892184Y-112380051D01*
X150081588Y-112476557D01*
X150283757Y-112542246D01*
X150493713Y-112575500D01*
X150493714Y-112575500D01*
X150706286Y-112575500D01*
X150706287Y-112575500D01*
X150916243Y-112542246D01*
X151118412Y-112476557D01*
X151307816Y-112380051D01*
X151354275Y-112346297D01*
X151479786Y-112255109D01*
X151479788Y-112255106D01*
X151479792Y-112255104D01*
X151630104Y-112104792D01*
X151630106Y-112104788D01*
X151630109Y-112104786D01*
X151755048Y-111932820D01*
X151755047Y-111932820D01*
X151755051Y-111932816D01*
X151851557Y-111743412D01*
X151917246Y-111541243D01*
X151950500Y-111331287D01*
X151950500Y-110868713D01*
X151917246Y-110658757D01*
X151851557Y-110456588D01*
X151755051Y-110267184D01*
X151755049Y-110267181D01*
X151755048Y-110267179D01*
X151630109Y-110095213D01*
X151479786Y-109944890D01*
X151307820Y-109819951D01*
X151118414Y-109723444D01*
X151118413Y-109723443D01*
X151118412Y-109723443D01*
X150916243Y-109657754D01*
X150916241Y-109657753D01*
X150916240Y-109657753D01*
X150754957Y-109632208D01*
X150706287Y-109624500D01*
X150493713Y-109624500D01*
X150445042Y-109632208D01*
X150283760Y-109657753D01*
X150081585Y-109723444D01*
X149892179Y-109819951D01*
X149720213Y-109944890D01*
X149569894Y-110095209D01*
X149569890Y-110095214D01*
X149450318Y-110259793D01*
X149394989Y-110302459D01*
X149325375Y-110308438D01*
X149263580Y-110275833D01*
X149249682Y-110259793D01*
X149130109Y-110095214D01*
X149130105Y-110095209D01*
X148979786Y-109944890D01*
X148807820Y-109819951D01*
X148618414Y-109723444D01*
X148618413Y-109723443D01*
X148618412Y-109723443D01*
X148416243Y-109657754D01*
X148416241Y-109657753D01*
X148416240Y-109657753D01*
X148254957Y-109632208D01*
X148206287Y-109624500D01*
X147993713Y-109624500D01*
X147945042Y-109632208D01*
X147783760Y-109657753D01*
X147581585Y-109723444D01*
X147392179Y-109819951D01*
X147220213Y-109944890D01*
X147069894Y-110095209D01*
X147069890Y-110095214D01*
X146950318Y-110259793D01*
X146894989Y-110302459D01*
X146825375Y-110308438D01*
X146763580Y-110275833D01*
X146749682Y-110259793D01*
X146630109Y-110095214D01*
X146630105Y-110095209D01*
X146479786Y-109944890D01*
X146307820Y-109819951D01*
X146118414Y-109723444D01*
X146118413Y-109723443D01*
X146118412Y-109723443D01*
X145916243Y-109657754D01*
X145916241Y-109657753D01*
X145916240Y-109657753D01*
X145754957Y-109632208D01*
X145706287Y-109624500D01*
X145493713Y-109624500D01*
X145445042Y-109632208D01*
X145283760Y-109657753D01*
X145081585Y-109723444D01*
X144892179Y-109819951D01*
X144720215Y-109944889D01*
X144581398Y-110083706D01*
X144520075Y-110117190D01*
X144450383Y-110112206D01*
X144394450Y-110070334D01*
X144388178Y-110061120D01*
X144292712Y-109906344D01*
X144168657Y-109782289D01*
X144168656Y-109782288D01*
X144019334Y-109690186D01*
X143852797Y-109635001D01*
X143852795Y-109635000D01*
X143750010Y-109624500D01*
X142449998Y-109624500D01*
X142449981Y-109624501D01*
X142347203Y-109635000D01*
X142347200Y-109635001D01*
X142180668Y-109690185D01*
X142180663Y-109690187D01*
X142031342Y-109782289D01*
X141907289Y-109906342D01*
X141815187Y-110055663D01*
X141815185Y-110055668D01*
X141810325Y-110070334D01*
X141760001Y-110222203D01*
X141760001Y-110222204D01*
X141760000Y-110222204D01*
X141749500Y-110324983D01*
X141749500Y-111875001D01*
X141749501Y-111875018D01*
X141760000Y-111977796D01*
X141760001Y-111977799D01*
X141801830Y-112104028D01*
X141804232Y-112173856D01*
X141768500Y-112233898D01*
X141705980Y-112265091D01*
X141659934Y-112264650D01*
X141608015Y-112254323D01*
X141583767Y-112249500D01*
X141416233Y-112249500D01*
X141416228Y-112249500D01*
X141251925Y-112282182D01*
X141251917Y-112282184D01*
X141097139Y-112346295D01*
X140957837Y-112439373D01*
X140839373Y-112557837D01*
X140746295Y-112697139D01*
X140682184Y-112851917D01*
X140682182Y-112851925D01*
X140649500Y-113016228D01*
X133193818Y-113016228D01*
X133185213Y-112873961D01*
X133126332Y-112552658D01*
X133029164Y-112240835D01*
X133029160Y-112240824D01*
X132895102Y-111942958D01*
X132895101Y-111942956D01*
X132726118Y-111663423D01*
X132578522Y-111475030D01*
X131436290Y-112617262D01*
X131339033Y-112483398D01*
X131216602Y-112360967D01*
X131082736Y-112263709D01*
X132224968Y-111121476D01*
X132036576Y-110973881D01*
X131757043Y-110804898D01*
X131757041Y-110804897D01*
X131459175Y-110670839D01*
X131459164Y-110670835D01*
X131147341Y-110573667D01*
X130826038Y-110514786D01*
X130500000Y-110495065D01*
X130173961Y-110514786D01*
X129852658Y-110573667D01*
X129540835Y-110670835D01*
X129540824Y-110670839D01*
X129242958Y-110804897D01*
X129242956Y-110804898D01*
X128963422Y-110973881D01*
X128963416Y-110973886D01*
X128775030Y-111121474D01*
X128775029Y-111121476D01*
X129917262Y-112263709D01*
X129783398Y-112360967D01*
X129660967Y-112483398D01*
X129563709Y-112617262D01*
X128421476Y-111475029D01*
X128421475Y-111475030D01*
X128322111Y-111601861D01*
X128265272Y-111642493D01*
X128195487Y-111645946D01*
X128134914Y-111611122D01*
X128102784Y-111549079D01*
X128100500Y-111525388D01*
X128100500Y-106649983D01*
X130099500Y-106649983D01*
X130099500Y-107950001D01*
X130099501Y-107950018D01*
X130110000Y-108052796D01*
X130110001Y-108052799D01*
X130119739Y-108082185D01*
X130165186Y-108219334D01*
X130257288Y-108368656D01*
X130381344Y-108492712D01*
X130530666Y-108584814D01*
X130697203Y-108639999D01*
X130799991Y-108650500D01*
X132400008Y-108650499D01*
X132502797Y-108639999D01*
X132602266Y-108607037D01*
X132672091Y-108604636D01*
X132732133Y-108640367D01*
X132763327Y-108702887D01*
X132762886Y-108748934D01*
X132749500Y-108816234D01*
X132749500Y-108983771D01*
X132782182Y-109148074D01*
X132782184Y-109148082D01*
X132846295Y-109302860D01*
X132939373Y-109442162D01*
X133057837Y-109560626D01*
X133150494Y-109622537D01*
X133197137Y-109653703D01*
X133351918Y-109717816D01*
X133516228Y-109750499D01*
X133516232Y-109750500D01*
X133516233Y-109750500D01*
X133683768Y-109750500D01*
X133683769Y-109750499D01*
X133848082Y-109717816D01*
X134002863Y-109653703D01*
X134142162Y-109560626D01*
X134260626Y-109442162D01*
X134353703Y-109302863D01*
X134417816Y-109148082D01*
X134450500Y-108983767D01*
X134450500Y-108816233D01*
X134417816Y-108651918D01*
X134353703Y-108497137D01*
X134322537Y-108450494D01*
X134260626Y-108357837D01*
X134142162Y-108239373D01*
X134002860Y-108146295D01*
X133848082Y-108082184D01*
X133848074Y-108082182D01*
X133683771Y-108049500D01*
X133683767Y-108049500D01*
X133516233Y-108049500D01*
X133516228Y-108049500D01*
X133351925Y-108082182D01*
X133351913Y-108082185D01*
X133267213Y-108117269D01*
X133197744Y-108124738D01*
X133135265Y-108093462D01*
X133099613Y-108033373D01*
X133096403Y-107990108D01*
X133100500Y-107950009D01*
X133100499Y-107199996D01*
X140294435Y-107199996D01*
X140294435Y-107200003D01*
X140314630Y-107379249D01*
X140314631Y-107379254D01*
X140374211Y-107549523D01*
X140470184Y-107702262D01*
X140597738Y-107829816D01*
X140750478Y-107925789D01*
X140819721Y-107950018D01*
X140920745Y-107985368D01*
X140920750Y-107985369D01*
X141099996Y-108005565D01*
X141100000Y-108005565D01*
X141100004Y-108005565D01*
X141279249Y-107985369D01*
X141279252Y-107985368D01*
X141279255Y-107985368D01*
X141449522Y-107925789D01*
X141602262Y-107829816D01*
X141729816Y-107702262D01*
X141825789Y-107549522D01*
X141885368Y-107379255D01*
X141905565Y-107200000D01*
X141885368Y-107020745D01*
X141825789Y-106850478D01*
X141729816Y-106697738D01*
X141602262Y-106570184D01*
X141565683Y-106547200D01*
X141449523Y-106474211D01*
X141279254Y-106414631D01*
X141279249Y-106414630D01*
X141100004Y-106394435D01*
X141099996Y-106394435D01*
X140920750Y-106414630D01*
X140920745Y-106414631D01*
X140750476Y-106474211D01*
X140597737Y-106570184D01*
X140470184Y-106697737D01*
X140374211Y-106850476D01*
X140314631Y-107020745D01*
X140314630Y-107020750D01*
X140294435Y-107199996D01*
X133100499Y-107199996D01*
X133100499Y-106649992D01*
X133089999Y-106547203D01*
X133034814Y-106380666D01*
X132942712Y-106231344D01*
X132818656Y-106107288D01*
X132669334Y-106015186D01*
X132669332Y-106015185D01*
X132663440Y-106011551D01*
X132616716Y-105959603D01*
X132605493Y-105890641D01*
X132633337Y-105826558D01*
X132640856Y-105818330D01*
X132779728Y-105679458D01*
X132904620Y-105507557D01*
X133001095Y-105318217D01*
X133066757Y-105116129D01*
X133066757Y-105116126D01*
X133077231Y-105050000D01*
X132033012Y-105050000D01*
X132065925Y-104992993D01*
X132100000Y-104865826D01*
X132100000Y-104734174D01*
X132065925Y-104607007D01*
X132033012Y-104550000D01*
X133077231Y-104550000D01*
X133066757Y-104483873D01*
X133066757Y-104483870D01*
X133001095Y-104281782D01*
X132904620Y-104092442D01*
X132779727Y-103920540D01*
X132779723Y-103920535D01*
X132629464Y-103770276D01*
X132629459Y-103770272D01*
X132457557Y-103645379D01*
X132268217Y-103548904D01*
X132066129Y-103483242D01*
X131856246Y-103450000D01*
X131850000Y-103450000D01*
X131850000Y-104366988D01*
X131792993Y-104334075D01*
X131665826Y-104300000D01*
X131534174Y-104300000D01*
X131407007Y-104334075D01*
X131350000Y-104366988D01*
X131350000Y-103450000D01*
X131343754Y-103450000D01*
X131133872Y-103483242D01*
X131133869Y-103483242D01*
X130931782Y-103548904D01*
X130742442Y-103645379D01*
X130570540Y-103770272D01*
X130570535Y-103770276D01*
X130420276Y-103920535D01*
X130420272Y-103920540D01*
X130295379Y-104092442D01*
X130198904Y-104281782D01*
X130133242Y-104483870D01*
X130133242Y-104483873D01*
X130122769Y-104550000D01*
X131166988Y-104550000D01*
X131134075Y-104607007D01*
X131100000Y-104734174D01*
X131100000Y-104865826D01*
X131134075Y-104992993D01*
X131166988Y-105050000D01*
X130122769Y-105050000D01*
X130133242Y-105116126D01*
X130133242Y-105116129D01*
X130198904Y-105318217D01*
X130295379Y-105507557D01*
X130420272Y-105679459D01*
X130420276Y-105679464D01*
X130559143Y-105818331D01*
X130592628Y-105879654D01*
X130587644Y-105949346D01*
X130545772Y-106005279D01*
X130536559Y-106011551D01*
X130381342Y-106107289D01*
X130257289Y-106231342D01*
X130165187Y-106380663D01*
X130165186Y-106380666D01*
X130110001Y-106547203D01*
X130110001Y-106547204D01*
X130110000Y-106547204D01*
X130099500Y-106649983D01*
X128100500Y-106649983D01*
X128100500Y-100499996D01*
X150594435Y-100499996D01*
X150594435Y-100500003D01*
X150614630Y-100679249D01*
X150614631Y-100679254D01*
X150674211Y-100849523D01*
X150770184Y-101002262D01*
X150897738Y-101129816D01*
X151050478Y-101225789D01*
X151220745Y-101285368D01*
X151220750Y-101285369D01*
X151399996Y-101305565D01*
X151400000Y-101305565D01*
X151400004Y-101305565D01*
X151579249Y-101285369D01*
X151579252Y-101285368D01*
X151579255Y-101285368D01*
X151749522Y-101225789D01*
X151902262Y-101129816D01*
X152029816Y-101002262D01*
X152125789Y-100849522D01*
X152185368Y-100679255D01*
X152205565Y-100500000D01*
X152185368Y-100320745D01*
X152125789Y-100150478D01*
X152029816Y-99997738D01*
X151902262Y-99870184D01*
X151749523Y-99774211D01*
X151579254Y-99714631D01*
X151579249Y-99714630D01*
X151400004Y-99694435D01*
X151399996Y-99694435D01*
X151220750Y-99714630D01*
X151220745Y-99714631D01*
X151050476Y-99774211D01*
X150897737Y-99870184D01*
X150770184Y-99997737D01*
X150674211Y-100150476D01*
X150614631Y-100320745D01*
X150614630Y-100320750D01*
X150594435Y-100499996D01*
X128100500Y-100499996D01*
X128100500Y-94616228D01*
X129749500Y-94616228D01*
X129749500Y-94783771D01*
X129782182Y-94948074D01*
X129782184Y-94948082D01*
X129846295Y-95102860D01*
X129939373Y-95242162D01*
X130057837Y-95360626D01*
X130150494Y-95422537D01*
X130197137Y-95453703D01*
X130351918Y-95517816D01*
X130499643Y-95547200D01*
X130516228Y-95550499D01*
X130516232Y-95550500D01*
X130516233Y-95550500D01*
X130683768Y-95550500D01*
X130683769Y-95550499D01*
X130848082Y-95517816D01*
X130932786Y-95482729D01*
X131002254Y-95475261D01*
X131064733Y-95506536D01*
X131100386Y-95566624D01*
X131103596Y-95609893D01*
X131099500Y-95649981D01*
X131099500Y-96950001D01*
X131099501Y-96950018D01*
X131110000Y-97052796D01*
X131110001Y-97052799D01*
X131165185Y-97219331D01*
X131165187Y-97219336D01*
X131257289Y-97368657D01*
X131381344Y-97492712D01*
X131536558Y-97588448D01*
X131583283Y-97640396D01*
X131594506Y-97709358D01*
X131566663Y-97773441D01*
X131559144Y-97781668D01*
X131420271Y-97920541D01*
X131295379Y-98092442D01*
X131198904Y-98281782D01*
X131133242Y-98483870D01*
X131133242Y-98483873D01*
X131122769Y-98550000D01*
X132166988Y-98550000D01*
X132134075Y-98607007D01*
X132100000Y-98734174D01*
X132100000Y-98865826D01*
X132134075Y-98992993D01*
X132166988Y-99050000D01*
X131122769Y-99050000D01*
X131133242Y-99116126D01*
X131133242Y-99116129D01*
X131198904Y-99318217D01*
X131295379Y-99507557D01*
X131420272Y-99679459D01*
X131420276Y-99679464D01*
X131570535Y-99829723D01*
X131570540Y-99829727D01*
X131742442Y-99954620D01*
X131931782Y-100051095D01*
X132133870Y-100116757D01*
X132343754Y-100150000D01*
X132350000Y-100150000D01*
X132350000Y-99233012D01*
X132407007Y-99265925D01*
X132534174Y-99300000D01*
X132665826Y-99300000D01*
X132792993Y-99265925D01*
X132850000Y-99233012D01*
X132850000Y-100150000D01*
X132856246Y-100150000D01*
X133066127Y-100116757D01*
X133066130Y-100116757D01*
X133268217Y-100051095D01*
X133457557Y-99954620D01*
X133629459Y-99829727D01*
X133629464Y-99829723D01*
X133779723Y-99679464D01*
X133779727Y-99679459D01*
X133904620Y-99507557D01*
X134001095Y-99318217D01*
X134066757Y-99116129D01*
X134066757Y-99116126D01*
X134077231Y-99050000D01*
X133033012Y-99050000D01*
X133065925Y-98992993D01*
X133100000Y-98865826D01*
X133100000Y-98734174D01*
X133065925Y-98607007D01*
X133033012Y-98550000D01*
X134077231Y-98550000D01*
X134066757Y-98483873D01*
X134066757Y-98483870D01*
X134001095Y-98281782D01*
X133904620Y-98092442D01*
X133779727Y-97920540D01*
X133779723Y-97920535D01*
X133640856Y-97781668D01*
X133607371Y-97720345D01*
X133612355Y-97650653D01*
X133654227Y-97594720D01*
X133663441Y-97588448D01*
X133669331Y-97584814D01*
X133669334Y-97584814D01*
X133818656Y-97492712D01*
X133942712Y-97368656D01*
X134034814Y-97219334D01*
X134089999Y-97052797D01*
X134100500Y-96950009D01*
X134100499Y-95649992D01*
X134089999Y-95547203D01*
X134034814Y-95380666D01*
X133942712Y-95231344D01*
X133818656Y-95107288D01*
X133669334Y-95015186D01*
X133502797Y-94960001D01*
X133502795Y-94960000D01*
X133400010Y-94949500D01*
X131799998Y-94949500D01*
X131799981Y-94949501D01*
X131697203Y-94960000D01*
X131697200Y-94960001D01*
X131597735Y-94992961D01*
X131527906Y-94995363D01*
X131467865Y-94959631D01*
X131436672Y-94897110D01*
X131437114Y-94851063D01*
X131450500Y-94783767D01*
X131450500Y-94616233D01*
X131417816Y-94451918D01*
X131353703Y-94297137D01*
X131322537Y-94250494D01*
X131260626Y-94157837D01*
X131142162Y-94039373D01*
X131002860Y-93946295D01*
X130848082Y-93882184D01*
X130848074Y-93882182D01*
X130683771Y-93849500D01*
X130683767Y-93849500D01*
X130516233Y-93849500D01*
X130516228Y-93849500D01*
X130351925Y-93882182D01*
X130351917Y-93882184D01*
X130197139Y-93946295D01*
X130057837Y-94039373D01*
X129939373Y-94157837D01*
X129846295Y-94297139D01*
X129782184Y-94451917D01*
X129782182Y-94451925D01*
X129749500Y-94616228D01*
X128100500Y-94616228D01*
X128100500Y-89643713D01*
X130249500Y-89643713D01*
X130249500Y-90156287D01*
X130282754Y-90366243D01*
X130323846Y-90492712D01*
X130348444Y-90568414D01*
X130444951Y-90757820D01*
X130569890Y-90929786D01*
X130720213Y-91080109D01*
X130892179Y-91205048D01*
X130892181Y-91205049D01*
X130892184Y-91205051D01*
X131081588Y-91301557D01*
X131283757Y-91367246D01*
X131493713Y-91400500D01*
X131493714Y-91400500D01*
X131706286Y-91400500D01*
X131706287Y-91400500D01*
X131916243Y-91367246D01*
X132118412Y-91301557D01*
X132307816Y-91205051D01*
X132479792Y-91080104D01*
X132618604Y-90941291D01*
X132679923Y-90907809D01*
X132749615Y-90912793D01*
X132805549Y-90954664D01*
X132811821Y-90963878D01*
X132815185Y-90969333D01*
X132815186Y-90969334D01*
X132907288Y-91118656D01*
X133031344Y-91242712D01*
X133180666Y-91334814D01*
X133347203Y-91389999D01*
X133449991Y-91400500D01*
X134750008Y-91400499D01*
X134852797Y-91389999D01*
X135019334Y-91334814D01*
X135168656Y-91242712D01*
X135292712Y-91118656D01*
X135384814Y-90969334D01*
X135439999Y-90802797D01*
X135450500Y-90700009D01*
X135450499Y-89099992D01*
X135439999Y-88997203D01*
X135407037Y-88897733D01*
X135404636Y-88827907D01*
X135440367Y-88767865D01*
X135502888Y-88736672D01*
X135548935Y-88737114D01*
X135588270Y-88744937D01*
X135616230Y-88750499D01*
X135616232Y-88750500D01*
X135616233Y-88750500D01*
X135783768Y-88750500D01*
X135783769Y-88750499D01*
X135948082Y-88717816D01*
X136102863Y-88653703D01*
X136242162Y-88560626D01*
X136360626Y-88442162D01*
X136453703Y-88302863D01*
X136517816Y-88148082D01*
X136550500Y-87983767D01*
X136550500Y-87816233D01*
X136517816Y-87651918D01*
X136453703Y-87497137D01*
X136422537Y-87450494D01*
X136360626Y-87357837D01*
X136242162Y-87239373D01*
X136102860Y-87146295D01*
X135948082Y-87082184D01*
X135948074Y-87082182D01*
X135783771Y-87049500D01*
X135783767Y-87049500D01*
X135616233Y-87049500D01*
X135616228Y-87049500D01*
X135451925Y-87082182D01*
X135451917Y-87082184D01*
X135297139Y-87146295D01*
X135157837Y-87239373D01*
X135039373Y-87357837D01*
X134946295Y-87497139D01*
X134882184Y-87651917D01*
X134882182Y-87651925D01*
X134849500Y-87816228D01*
X134849500Y-87983771D01*
X134882182Y-88148074D01*
X134882185Y-88148086D01*
X134917269Y-88232786D01*
X134924738Y-88302255D01*
X134893463Y-88364734D01*
X134833374Y-88400386D01*
X134790106Y-88403596D01*
X134750011Y-88399500D01*
X133449998Y-88399500D01*
X133449981Y-88399501D01*
X133347203Y-88410000D01*
X133347200Y-88410001D01*
X133180668Y-88465185D01*
X133180663Y-88465187D01*
X133031342Y-88557289D01*
X132907289Y-88681342D01*
X132811821Y-88836121D01*
X132759873Y-88882845D01*
X132690910Y-88894068D01*
X132626828Y-88866224D01*
X132618601Y-88858705D01*
X132479786Y-88719890D01*
X132307820Y-88594951D01*
X132118414Y-88498444D01*
X132118413Y-88498443D01*
X132118412Y-88498443D01*
X131916243Y-88432754D01*
X131916241Y-88432753D01*
X131916240Y-88432753D01*
X131754957Y-88407208D01*
X131706287Y-88399500D01*
X131493713Y-88399500D01*
X131445042Y-88407208D01*
X131283760Y-88432753D01*
X131081585Y-88498444D01*
X130892179Y-88594951D01*
X130720213Y-88719890D01*
X130569890Y-88870213D01*
X130444951Y-89042179D01*
X130348444Y-89231585D01*
X130282753Y-89433760D01*
X130249500Y-89643713D01*
X128100500Y-89643713D01*
X128100500Y-87016228D01*
X138449500Y-87016228D01*
X138449500Y-87183771D01*
X138482182Y-87348074D01*
X138482184Y-87348082D01*
X138546295Y-87502860D01*
X138639373Y-87642162D01*
X138757837Y-87760626D01*
X138841052Y-87816228D01*
X138897137Y-87853703D01*
X139051918Y-87917816D01*
X139204037Y-87948074D01*
X139216228Y-87950499D01*
X139216232Y-87950500D01*
X139216233Y-87950500D01*
X139383768Y-87950500D01*
X139383769Y-87950499D01*
X139548082Y-87917816D01*
X139702863Y-87853703D01*
X139842162Y-87760626D01*
X139960626Y-87642162D01*
X140053703Y-87502863D01*
X140117816Y-87348082D01*
X140150500Y-87183767D01*
X140150500Y-87016233D01*
X140150499Y-87016228D01*
X147349500Y-87016228D01*
X147349500Y-87183771D01*
X147382182Y-87348074D01*
X147382184Y-87348082D01*
X147446295Y-87502860D01*
X147539373Y-87642162D01*
X147657837Y-87760626D01*
X147741052Y-87816228D01*
X147797137Y-87853703D01*
X147951918Y-87917816D01*
X148104037Y-87948074D01*
X148116228Y-87950499D01*
X148116232Y-87950500D01*
X148116233Y-87950500D01*
X148283768Y-87950500D01*
X148283769Y-87950499D01*
X148448082Y-87917816D01*
X148602863Y-87853703D01*
X148742162Y-87760626D01*
X148860626Y-87642162D01*
X148877955Y-87616228D01*
X156749500Y-87616228D01*
X156749500Y-87783771D01*
X156782182Y-87948074D01*
X156782184Y-87948082D01*
X156846295Y-88102860D01*
X156939373Y-88242162D01*
X157057837Y-88360626D01*
X157150494Y-88422537D01*
X157197137Y-88453703D01*
X157197138Y-88453703D01*
X157197139Y-88453704D01*
X157232201Y-88468227D01*
X157351918Y-88517816D01*
X157499643Y-88547200D01*
X157516228Y-88550499D01*
X157516232Y-88550500D01*
X157516233Y-88550500D01*
X157683768Y-88550500D01*
X157683769Y-88550499D01*
X157848082Y-88517816D01*
X157932786Y-88482729D01*
X158002254Y-88475261D01*
X158064733Y-88506536D01*
X158100386Y-88566624D01*
X158103596Y-88609893D01*
X158099500Y-88649981D01*
X158099500Y-89950001D01*
X158099501Y-89950018D01*
X158110000Y-90052796D01*
X158110001Y-90052799D01*
X158144294Y-90156286D01*
X158165186Y-90219334D01*
X158255797Y-90366239D01*
X158257289Y-90368657D01*
X158381344Y-90492712D01*
X158536120Y-90588178D01*
X158582845Y-90640126D01*
X158594068Y-90709088D01*
X158566224Y-90773171D01*
X158558706Y-90781398D01*
X158419889Y-90920215D01*
X158294951Y-91092179D01*
X158198444Y-91281585D01*
X158132753Y-91483760D01*
X158099500Y-91693713D01*
X158099500Y-91906286D01*
X158132753Y-92116239D01*
X158198444Y-92318414D01*
X158294951Y-92507820D01*
X158419890Y-92679786D01*
X158570213Y-92830109D01*
X158742179Y-92955048D01*
X158742181Y-92955049D01*
X158742184Y-92955051D01*
X158931588Y-93051557D01*
X159133757Y-93117246D01*
X159343713Y-93150500D01*
X159343714Y-93150500D01*
X159856286Y-93150500D01*
X159856287Y-93150500D01*
X160066243Y-93117246D01*
X160268412Y-93051557D01*
X160457816Y-92955051D01*
X160479789Y-92939086D01*
X160629786Y-92830109D01*
X160629788Y-92830106D01*
X160629792Y-92830104D01*
X160780104Y-92679792D01*
X160780106Y-92679788D01*
X160780109Y-92679786D01*
X160905048Y-92507820D01*
X160905047Y-92507820D01*
X160905051Y-92507816D01*
X161001557Y-92318412D01*
X161067246Y-92116243D01*
X161100500Y-91906287D01*
X161100500Y-91693713D01*
X161067246Y-91483757D01*
X161001557Y-91281588D01*
X160905051Y-91092184D01*
X160905049Y-91092181D01*
X160905048Y-91092179D01*
X160780109Y-90920213D01*
X160641294Y-90781398D01*
X160607809Y-90720075D01*
X160612793Y-90650383D01*
X160654665Y-90594450D01*
X160663879Y-90588178D01*
X160669331Y-90584814D01*
X160669334Y-90584814D01*
X160818656Y-90492712D01*
X160942712Y-90368656D01*
X161034814Y-90219334D01*
X161089999Y-90052797D01*
X161100500Y-89950009D01*
X161100499Y-88649992D01*
X161089999Y-88547203D01*
X161034814Y-88380666D01*
X160942712Y-88231344D01*
X160818656Y-88107288D01*
X160669334Y-88015186D01*
X160502797Y-87960001D01*
X160502795Y-87960000D01*
X160400010Y-87949500D01*
X158799998Y-87949500D01*
X158799981Y-87949501D01*
X158697203Y-87960000D01*
X158697200Y-87960001D01*
X158597735Y-87992961D01*
X158527906Y-87995363D01*
X158467865Y-87959631D01*
X158436672Y-87897110D01*
X158437114Y-87851063D01*
X158444043Y-87816228D01*
X158450500Y-87783767D01*
X158450500Y-87616233D01*
X158417816Y-87451918D01*
X158353703Y-87297137D01*
X158277952Y-87183768D01*
X158260626Y-87157837D01*
X158142162Y-87039373D01*
X158002860Y-86946295D01*
X157848082Y-86882184D01*
X157848074Y-86882182D01*
X157683771Y-86849500D01*
X157683767Y-86849500D01*
X157516233Y-86849500D01*
X157516228Y-86849500D01*
X157351925Y-86882182D01*
X157351917Y-86882184D01*
X157197139Y-86946295D01*
X157057837Y-87039373D01*
X156939373Y-87157837D01*
X156846295Y-87297139D01*
X156782184Y-87451917D01*
X156782182Y-87451925D01*
X156749500Y-87616228D01*
X148877955Y-87616228D01*
X148953703Y-87502863D01*
X149017816Y-87348082D01*
X149050500Y-87183767D01*
X149050500Y-87016233D01*
X149017816Y-86851918D01*
X148982729Y-86767213D01*
X148975261Y-86697745D01*
X149006536Y-86635265D01*
X149066625Y-86599613D01*
X149109891Y-86596403D01*
X149149991Y-86600500D01*
X150450008Y-86600499D01*
X150458682Y-86599613D01*
X150490105Y-86596403D01*
X150552797Y-86589999D01*
X150719334Y-86534814D01*
X150868656Y-86442712D01*
X150992712Y-86318656D01*
X151084814Y-86169334D01*
X151084814Y-86169331D01*
X151088178Y-86163879D01*
X151140126Y-86117154D01*
X151209088Y-86105931D01*
X151273170Y-86133774D01*
X151281398Y-86141294D01*
X151420213Y-86280109D01*
X151592179Y-86405048D01*
X151592181Y-86405049D01*
X151592184Y-86405051D01*
X151781588Y-86501557D01*
X151983757Y-86567246D01*
X152193713Y-86600500D01*
X152193714Y-86600500D01*
X152406286Y-86600500D01*
X152406287Y-86600500D01*
X152616243Y-86567246D01*
X152818412Y-86501557D01*
X153007816Y-86405051D01*
X153088685Y-86346297D01*
X153179786Y-86280109D01*
X153179788Y-86280106D01*
X153179792Y-86280104D01*
X153330104Y-86129792D01*
X153330106Y-86129788D01*
X153330109Y-86129786D01*
X153455048Y-85957820D01*
X153455047Y-85957820D01*
X153455051Y-85957816D01*
X153551557Y-85768412D01*
X153617246Y-85566243D01*
X153650500Y-85356287D01*
X153650500Y-84843713D01*
X153617246Y-84633757D01*
X153551557Y-84431588D01*
X153455051Y-84242184D01*
X153455049Y-84242181D01*
X153455048Y-84242179D01*
X153330109Y-84070213D01*
X153179786Y-83919890D01*
X153007820Y-83794951D01*
X152818414Y-83698444D01*
X152818413Y-83698443D01*
X152818412Y-83698443D01*
X152616243Y-83632754D01*
X152616241Y-83632753D01*
X152616240Y-83632753D01*
X152454957Y-83607208D01*
X152406287Y-83599500D01*
X152193713Y-83599500D01*
X152145042Y-83607208D01*
X151983760Y-83632753D01*
X151781585Y-83698444D01*
X151592179Y-83794951D01*
X151420215Y-83919889D01*
X151281398Y-84058706D01*
X151220075Y-84092190D01*
X151150383Y-84087206D01*
X151094450Y-84045334D01*
X151088178Y-84036120D01*
X150992712Y-83881344D01*
X150868657Y-83757289D01*
X150868656Y-83757288D01*
X150772756Y-83698137D01*
X150719336Y-83665187D01*
X150719331Y-83665185D01*
X150679155Y-83651872D01*
X150552797Y-83610001D01*
X150552795Y-83610000D01*
X150450010Y-83599500D01*
X149149998Y-83599500D01*
X149149981Y-83599501D01*
X149047203Y-83610000D01*
X149047200Y-83610001D01*
X148880668Y-83665185D01*
X148880663Y-83665187D01*
X148731342Y-83757289D01*
X148607289Y-83881342D01*
X148515187Y-84030663D01*
X148515185Y-84030668D01*
X148510325Y-84045334D01*
X148460001Y-84197203D01*
X148460001Y-84197204D01*
X148460000Y-84197204D01*
X148449500Y-84299983D01*
X148449500Y-85900001D01*
X148449501Y-85900018D01*
X148460000Y-86002796D01*
X148460001Y-86002799D01*
X148492961Y-86102264D01*
X148495363Y-86172092D01*
X148459631Y-86232134D01*
X148397111Y-86263327D01*
X148351065Y-86262886D01*
X148311286Y-86254973D01*
X148283767Y-86249500D01*
X148116233Y-86249500D01*
X148116228Y-86249500D01*
X147951925Y-86282182D01*
X147951917Y-86282184D01*
X147797139Y-86346295D01*
X147657837Y-86439373D01*
X147539373Y-86557837D01*
X147446295Y-86697139D01*
X147382184Y-86851917D01*
X147382182Y-86851925D01*
X147349500Y-87016228D01*
X140150499Y-87016228D01*
X140117816Y-86851918D01*
X140082729Y-86767213D01*
X140075261Y-86697745D01*
X140106536Y-86635265D01*
X140166625Y-86599613D01*
X140209891Y-86596403D01*
X140249991Y-86600500D01*
X141550008Y-86600499D01*
X141558682Y-86599613D01*
X141590105Y-86596403D01*
X141652797Y-86589999D01*
X141819334Y-86534814D01*
X141968656Y-86442712D01*
X142092712Y-86318656D01*
X142184814Y-86169334D01*
X142184814Y-86169331D01*
X142188178Y-86163879D01*
X142240126Y-86117154D01*
X142309088Y-86105931D01*
X142373170Y-86133774D01*
X142381398Y-86141294D01*
X142520213Y-86280109D01*
X142692179Y-86405048D01*
X142692181Y-86405049D01*
X142692184Y-86405051D01*
X142881588Y-86501557D01*
X143083757Y-86567246D01*
X143293713Y-86600500D01*
X143293714Y-86600500D01*
X143506286Y-86600500D01*
X143506287Y-86600500D01*
X143716243Y-86567246D01*
X143918412Y-86501557D01*
X144107816Y-86405051D01*
X144188685Y-86346297D01*
X144279786Y-86280109D01*
X144279788Y-86280106D01*
X144279792Y-86280104D01*
X144430104Y-86129792D01*
X144430106Y-86129788D01*
X144430109Y-86129786D01*
X144555048Y-85957820D01*
X144555047Y-85957820D01*
X144555051Y-85957816D01*
X144651557Y-85768412D01*
X144717246Y-85566243D01*
X144750500Y-85356287D01*
X144750500Y-84843713D01*
X144717246Y-84633757D01*
X144651557Y-84431588D01*
X144555051Y-84242184D01*
X144555049Y-84242181D01*
X144555048Y-84242179D01*
X144430109Y-84070213D01*
X144279786Y-83919890D01*
X144107820Y-83794951D01*
X143918414Y-83698444D01*
X143918413Y-83698443D01*
X143918412Y-83698443D01*
X143716243Y-83632754D01*
X143716241Y-83632753D01*
X143716240Y-83632753D01*
X143554957Y-83607208D01*
X143506287Y-83599500D01*
X143293713Y-83599500D01*
X143245042Y-83607208D01*
X143083760Y-83632753D01*
X142881585Y-83698444D01*
X142692179Y-83794951D01*
X142520215Y-83919889D01*
X142381398Y-84058706D01*
X142320075Y-84092190D01*
X142250383Y-84087206D01*
X142194450Y-84045334D01*
X142188178Y-84036120D01*
X142092712Y-83881344D01*
X141968657Y-83757289D01*
X141968656Y-83757288D01*
X141872756Y-83698137D01*
X141819336Y-83665187D01*
X141819331Y-83665185D01*
X141779155Y-83651872D01*
X141652797Y-83610001D01*
X141652795Y-83610000D01*
X141550010Y-83599500D01*
X140249998Y-83599500D01*
X140249981Y-83599501D01*
X140147203Y-83610000D01*
X140147200Y-83610001D01*
X139980668Y-83665185D01*
X139980663Y-83665187D01*
X139831342Y-83757289D01*
X139707289Y-83881342D01*
X139615187Y-84030663D01*
X139615185Y-84030668D01*
X139610325Y-84045334D01*
X139560001Y-84197203D01*
X139560001Y-84197204D01*
X139560000Y-84197204D01*
X139549500Y-84299983D01*
X139549500Y-85900001D01*
X139549501Y-85900018D01*
X139560000Y-86002796D01*
X139560001Y-86002799D01*
X139592961Y-86102264D01*
X139595363Y-86172092D01*
X139559631Y-86232134D01*
X139497111Y-86263327D01*
X139451065Y-86262886D01*
X139411286Y-86254973D01*
X139383767Y-86249500D01*
X139216233Y-86249500D01*
X139216228Y-86249500D01*
X139051925Y-86282182D01*
X139051917Y-86282184D01*
X138897139Y-86346295D01*
X138757837Y-86439373D01*
X138639373Y-86557837D01*
X138546295Y-86697139D01*
X138482184Y-86851917D01*
X138482182Y-86851925D01*
X138449500Y-87016228D01*
X128100500Y-87016228D01*
X128100500Y-83774610D01*
X128120185Y-83707571D01*
X128172989Y-83661816D01*
X128242147Y-83651872D01*
X128305703Y-83680897D01*
X128322111Y-83698137D01*
X128421476Y-83824968D01*
X129563708Y-82682736D01*
X129660967Y-82816602D01*
X129783398Y-82939033D01*
X129917262Y-83036290D01*
X128775030Y-84178522D01*
X128775030Y-84178523D01*
X128963423Y-84326118D01*
X129242956Y-84495101D01*
X129242958Y-84495102D01*
X129540824Y-84629160D01*
X129540835Y-84629164D01*
X129852658Y-84726332D01*
X130173961Y-84785213D01*
X130500000Y-84804934D01*
X130826038Y-84785213D01*
X131147341Y-84726332D01*
X131459164Y-84629164D01*
X131459175Y-84629160D01*
X131757041Y-84495102D01*
X131757043Y-84495101D01*
X132036586Y-84326112D01*
X132224968Y-84178523D01*
X132224968Y-84178522D01*
X131082737Y-83036290D01*
X131216602Y-82939033D01*
X131339033Y-82816602D01*
X131436290Y-82682737D01*
X132578522Y-83824968D01*
X132578523Y-83824968D01*
X132726112Y-83636586D01*
X132895101Y-83357043D01*
X132895102Y-83357041D01*
X133029160Y-83059175D01*
X133029164Y-83059164D01*
X133126332Y-82747341D01*
X133185213Y-82426038D01*
X133204934Y-82100000D01*
X133185213Y-81773961D01*
X133126332Y-81452658D01*
X133029164Y-81140835D01*
X133029160Y-81140824D01*
X132895102Y-80842958D01*
X132895101Y-80842956D01*
X132726118Y-80563423D01*
X132578522Y-80375030D01*
X131436290Y-81517262D01*
X131339033Y-81383398D01*
X131216602Y-81260967D01*
X131082736Y-81163709D01*
X132224968Y-80021476D01*
X132224968Y-80021475D01*
X132098138Y-79922111D01*
X132057505Y-79865271D01*
X132054053Y-79795487D01*
X132088877Y-79734914D01*
X132150921Y-79702784D01*
X132174611Y-79700500D01*
X158525389Y-79700500D01*
X158592428Y-79720185D01*
G37*
G04 #@! TD.AperFunction*
G04 #@! TA.AperFunction,Conductor*
G36*
X162278522Y-114924968D02*
G01*
X162278523Y-114924968D01*
X162377889Y-114798138D01*
X162434729Y-114757505D01*
X162504514Y-114754053D01*
X162565086Y-114788877D01*
X162597216Y-114850921D01*
X162599500Y-114874611D01*
X162599500Y-115475500D01*
X162579815Y-115542539D01*
X162527011Y-115588294D01*
X162475500Y-115599500D01*
X161874611Y-115599500D01*
X161807572Y-115579815D01*
X161761817Y-115527011D01*
X161751873Y-115457853D01*
X161780898Y-115394297D01*
X161798138Y-115377889D01*
X161924968Y-115278523D01*
X161924968Y-115278522D01*
X160782737Y-114136290D01*
X160916602Y-114039033D01*
X161039033Y-113916602D01*
X161136290Y-113782736D01*
X162278522Y-114924968D01*
G37*
G04 #@! TD.AperFunction*
G04 #@! TA.AperFunction,Conductor*
G36*
X128892428Y-79720185D02*
G01*
X128938183Y-79772989D01*
X128948127Y-79842147D01*
X128919102Y-79905703D01*
X128901861Y-79922111D01*
X128775030Y-80021474D01*
X128775029Y-80021476D01*
X129917262Y-81163709D01*
X129783398Y-81260967D01*
X129660967Y-81383398D01*
X129563709Y-81517262D01*
X128421476Y-80375029D01*
X128421475Y-80375030D01*
X128322111Y-80501861D01*
X128265272Y-80542493D01*
X128195487Y-80545946D01*
X128134914Y-80511122D01*
X128102784Y-80449079D01*
X128100500Y-80425388D01*
X128100500Y-79824500D01*
X128120185Y-79757461D01*
X128172989Y-79711706D01*
X128224500Y-79700500D01*
X128825389Y-79700500D01*
X128892428Y-79720185D01*
G37*
G04 #@! TD.AperFunction*
G04 #@! TA.AperFunction,Conductor*
G36*
X162542539Y-79720185D02*
G01*
X162588294Y-79772989D01*
X162599500Y-79824500D01*
X162599500Y-80425389D01*
X162579815Y-80492428D01*
X162527011Y-80538183D01*
X162457853Y-80548127D01*
X162394297Y-80519102D01*
X162377889Y-80501862D01*
X162278522Y-80375030D01*
X161136290Y-81517261D01*
X161039033Y-81383398D01*
X160916602Y-81260967D01*
X160782736Y-81163709D01*
X161924968Y-80021476D01*
X161924968Y-80021475D01*
X161798138Y-79922111D01*
X161757505Y-79865271D01*
X161754053Y-79795487D01*
X161788877Y-79734914D01*
X161850921Y-79702784D01*
X161874611Y-79700500D01*
X162475500Y-79700500D01*
X162542539Y-79720185D01*
G37*
G04 #@! TD.AperFunction*
M02*
