%TF.GenerationSoftware,KiCad,Pcbnew,8.0.3*%
%TF.CreationDate,2026-02-23T19:35:20-08:00*%
%TF.ProjectId,Capstone_Signal_Processing,43617073-746f-46e6-955f-5369676e616c,rev?*%
%TF.SameCoordinates,Original*%
%TF.FileFunction,Drillmap*%
%TF.FilePolarity,Positive*%
%FSLAX45Y45*%
G04 Gerber Fmt 4.5, Leading zero omitted, Abs format (unit mm)*
G04 Created by KiCad (PCBNEW 8.0.3) date 2026-02-23 19:35:20*
%MOMM*%
%LPD*%
G01*
G04 APERTURE LIST*
%ADD10C,0.050000*%
%ADD11C,0.200000*%
%ADD12C,0.100000*%
%ADD13C,0.220000*%
G04 APERTURE END LIST*
D10*
X12760000Y-7920000D02*
X16310000Y-7920000D01*
X16310000Y-11610000D01*
X12760000Y-11610000D01*
X12760000Y-7920000D01*
D11*
D12*
X13035000Y-8545000D02*
X13065000Y-8575000D01*
X13065000Y-8545000D02*
X13035000Y-8575000D01*
X13215000Y-11045000D02*
X13245000Y-11075000D01*
X13245000Y-11045000D02*
X13215000Y-11075000D01*
X13665000Y-9675000D02*
X13695000Y-9705000D01*
X13695000Y-9675000D02*
X13665000Y-9705000D01*
X13665000Y-9865000D02*
X13695000Y-9895000D01*
X13695000Y-9865000D02*
X13665000Y-9895000D01*
X14095000Y-10705000D02*
X14125000Y-10735000D01*
X14125000Y-10705000D02*
X14095000Y-10735000D01*
X14208750Y-10518750D02*
X14238750Y-10548750D01*
X14238750Y-10518750D02*
X14208750Y-10548750D01*
X15125000Y-9595000D02*
X15155000Y-9625000D01*
X15155000Y-9595000D02*
X15125000Y-9625000D01*
X15125000Y-10035000D02*
X15155000Y-10065000D01*
X15155000Y-10035000D02*
X15125000Y-10065000D01*
X15765000Y-9915000D02*
X15795000Y-9945000D01*
X15795000Y-9915000D02*
X15765000Y-9945000D01*
X16005000Y-8555000D02*
X16035000Y-8585000D01*
X16035000Y-8555000D02*
X16005000Y-8585000D01*
X16005000Y-10985000D02*
X16035000Y-11015000D01*
X16035000Y-10985000D02*
X16005000Y-11015000D01*
X14357500Y-11110000D02*
G75*
G02*
X14262500Y-11110000I-47500J0D01*
G01*
X14262500Y-11110000D02*
G75*
G02*
X14357500Y-11110000I47500J0D01*
G01*
X14607500Y-11110000D02*
G75*
G02*
X14512500Y-11110000I-47500J0D01*
G01*
X14512500Y-11110000D02*
G75*
G02*
X14607500Y-11110000I47500J0D01*
G01*
X14857500Y-11110000D02*
G75*
G02*
X14762500Y-11110000I-47500J0D01*
G01*
X14762500Y-11110000D02*
G75*
G02*
X14857500Y-11110000I47500J0D01*
G01*
X15107500Y-11110000D02*
G75*
G02*
X15012500Y-11110000I-47500J0D01*
G01*
X15012500Y-11110000D02*
G75*
G02*
X15107500Y-11110000I47500J0D01*
G01*
X13160000Y-8940000D02*
X13160000Y-9040000D01*
X13110000Y-8990000D02*
X13210000Y-8990000D01*
X13160000Y-10430000D02*
X13160000Y-10530000D01*
X13110000Y-10480000D02*
X13210000Y-10480000D01*
X13160000Y-10680000D02*
X13160000Y-10780000D01*
X13110000Y-10730000D02*
X13210000Y-10730000D01*
X13260000Y-9580000D02*
X13260000Y-9680000D01*
X13210000Y-9630000D02*
X13310000Y-9630000D01*
X13260000Y-9830000D02*
X13260000Y-9930000D01*
X13210000Y-9880000D02*
X13310000Y-9880000D01*
X13410000Y-8940000D02*
X13410000Y-9040000D01*
X13360000Y-8990000D02*
X13460000Y-8990000D01*
X14090000Y-8460000D02*
X14090000Y-8560000D01*
X14040000Y-8510000D02*
X14140000Y-8510000D01*
X14340000Y-8460000D02*
X14340000Y-8560000D01*
X14290000Y-8510000D02*
X14390000Y-8510000D01*
X14980000Y-8460000D02*
X14980000Y-8560000D01*
X14930000Y-8510000D02*
X15030000Y-8510000D01*
X15230000Y-8460000D02*
X15230000Y-8560000D01*
X15180000Y-8510000D02*
X15280000Y-8510000D01*
X15960000Y-8880000D02*
X15960000Y-8980000D01*
X15910000Y-8930000D02*
X16010000Y-8930000D01*
X15960000Y-9130000D02*
X15960000Y-9230000D01*
X15910000Y-9180000D02*
X16010000Y-9180000D01*
D13*
X13127782Y-8287782D02*
X13127782Y-8132217D01*
X12972217Y-8132217D01*
X12972217Y-8287782D01*
X13127782Y-8287782D01*
X13127782Y-11397782D02*
X13127782Y-11242217D01*
X12972217Y-11242217D01*
X12972217Y-11397782D01*
X13127782Y-11397782D01*
X16097782Y-8287782D02*
X16097782Y-8132217D01*
X15942217Y-8132217D01*
X15942217Y-8287782D01*
X16097782Y-8287782D01*
X16097782Y-11397782D02*
X16097782Y-11242217D01*
X15942217Y-11242217D01*
X15942217Y-11397782D01*
X16097782Y-11397782D01*
D11*
X13018277Y-11923984D02*
X13018277Y-11723984D01*
X13018277Y-11723984D02*
X13065896Y-11723984D01*
X13065896Y-11723984D02*
X13094467Y-11733508D01*
X13094467Y-11733508D02*
X13113515Y-11752555D01*
X13113515Y-11752555D02*
X13123039Y-11771603D01*
X13123039Y-11771603D02*
X13132562Y-11809698D01*
X13132562Y-11809698D02*
X13132562Y-11838269D01*
X13132562Y-11838269D02*
X13123039Y-11876365D01*
X13123039Y-11876365D02*
X13113515Y-11895412D01*
X13113515Y-11895412D02*
X13094467Y-11914460D01*
X13094467Y-11914460D02*
X13065896Y-11923984D01*
X13065896Y-11923984D02*
X13018277Y-11923984D01*
X13218277Y-11923984D02*
X13218277Y-11790650D01*
X13218277Y-11828746D02*
X13227801Y-11809698D01*
X13227801Y-11809698D02*
X13237324Y-11800174D01*
X13237324Y-11800174D02*
X13256372Y-11790650D01*
X13256372Y-11790650D02*
X13275420Y-11790650D01*
X13342086Y-11923984D02*
X13342086Y-11790650D01*
X13342086Y-11723984D02*
X13332562Y-11733508D01*
X13332562Y-11733508D02*
X13342086Y-11743031D01*
X13342086Y-11743031D02*
X13351610Y-11733508D01*
X13351610Y-11733508D02*
X13342086Y-11723984D01*
X13342086Y-11723984D02*
X13342086Y-11743031D01*
X13465896Y-11923984D02*
X13446848Y-11914460D01*
X13446848Y-11914460D02*
X13437324Y-11895412D01*
X13437324Y-11895412D02*
X13437324Y-11723984D01*
X13570658Y-11923984D02*
X13551610Y-11914460D01*
X13551610Y-11914460D02*
X13542086Y-11895412D01*
X13542086Y-11895412D02*
X13542086Y-11723984D01*
X13799229Y-11923984D02*
X13799229Y-11723984D01*
X13799229Y-11723984D02*
X13865896Y-11866841D01*
X13865896Y-11866841D02*
X13932562Y-11723984D01*
X13932562Y-11723984D02*
X13932562Y-11923984D01*
X14113515Y-11923984D02*
X14113515Y-11819222D01*
X14113515Y-11819222D02*
X14103991Y-11800174D01*
X14103991Y-11800174D02*
X14084943Y-11790650D01*
X14084943Y-11790650D02*
X14046848Y-11790650D01*
X14046848Y-11790650D02*
X14027801Y-11800174D01*
X14113515Y-11914460D02*
X14094467Y-11923984D01*
X14094467Y-11923984D02*
X14046848Y-11923984D01*
X14046848Y-11923984D02*
X14027801Y-11914460D01*
X14027801Y-11914460D02*
X14018277Y-11895412D01*
X14018277Y-11895412D02*
X14018277Y-11876365D01*
X14018277Y-11876365D02*
X14027801Y-11857317D01*
X14027801Y-11857317D02*
X14046848Y-11847793D01*
X14046848Y-11847793D02*
X14094467Y-11847793D01*
X14094467Y-11847793D02*
X14113515Y-11838269D01*
X14208753Y-11790650D02*
X14208753Y-11990650D01*
X14208753Y-11800174D02*
X14227801Y-11790650D01*
X14227801Y-11790650D02*
X14265896Y-11790650D01*
X14265896Y-11790650D02*
X14284943Y-11800174D01*
X14284943Y-11800174D02*
X14294467Y-11809698D01*
X14294467Y-11809698D02*
X14303991Y-11828746D01*
X14303991Y-11828746D02*
X14303991Y-11885888D01*
X14303991Y-11885888D02*
X14294467Y-11904936D01*
X14294467Y-11904936D02*
X14284943Y-11914460D01*
X14284943Y-11914460D02*
X14265896Y-11923984D01*
X14265896Y-11923984D02*
X14227801Y-11923984D01*
X14227801Y-11923984D02*
X14208753Y-11914460D01*
X14389705Y-11904936D02*
X14399229Y-11914460D01*
X14399229Y-11914460D02*
X14389705Y-11923984D01*
X14389705Y-11923984D02*
X14380182Y-11914460D01*
X14380182Y-11914460D02*
X14389705Y-11904936D01*
X14389705Y-11904936D02*
X14389705Y-11923984D01*
X14389705Y-11800174D02*
X14399229Y-11809698D01*
X14399229Y-11809698D02*
X14389705Y-11819222D01*
X14389705Y-11819222D02*
X14380182Y-11809698D01*
X14380182Y-11809698D02*
X14389705Y-11800174D01*
X14389705Y-11800174D02*
X14389705Y-11819222D01*
D12*
X12727500Y-12237500D02*
X12757500Y-12267500D01*
X12757500Y-12237500D02*
X12727500Y-12267500D01*
D11*
X13056372Y-12143984D02*
X13075420Y-12143984D01*
X13075420Y-12143984D02*
X13094467Y-12153508D01*
X13094467Y-12153508D02*
X13103991Y-12163031D01*
X13103991Y-12163031D02*
X13113515Y-12182079D01*
X13113515Y-12182079D02*
X13123039Y-12220174D01*
X13123039Y-12220174D02*
X13123039Y-12267793D01*
X13123039Y-12267793D02*
X13113515Y-12305888D01*
X13113515Y-12305888D02*
X13103991Y-12324936D01*
X13103991Y-12324936D02*
X13094467Y-12334460D01*
X13094467Y-12334460D02*
X13075420Y-12343984D01*
X13075420Y-12343984D02*
X13056372Y-12343984D01*
X13056372Y-12343984D02*
X13037324Y-12334460D01*
X13037324Y-12334460D02*
X13027801Y-12324936D01*
X13027801Y-12324936D02*
X13018277Y-12305888D01*
X13018277Y-12305888D02*
X13008753Y-12267793D01*
X13008753Y-12267793D02*
X13008753Y-12220174D01*
X13008753Y-12220174D02*
X13018277Y-12182079D01*
X13018277Y-12182079D02*
X13027801Y-12163031D01*
X13027801Y-12163031D02*
X13037324Y-12153508D01*
X13037324Y-12153508D02*
X13056372Y-12143984D01*
X13208753Y-12324936D02*
X13218277Y-12334460D01*
X13218277Y-12334460D02*
X13208753Y-12343984D01*
X13208753Y-12343984D02*
X13199229Y-12334460D01*
X13199229Y-12334460D02*
X13208753Y-12324936D01*
X13208753Y-12324936D02*
X13208753Y-12343984D01*
X13284943Y-12143984D02*
X13408753Y-12143984D01*
X13408753Y-12143984D02*
X13342086Y-12220174D01*
X13342086Y-12220174D02*
X13370658Y-12220174D01*
X13370658Y-12220174D02*
X13389705Y-12229698D01*
X13389705Y-12229698D02*
X13399229Y-12239222D01*
X13399229Y-12239222D02*
X13408753Y-12258269D01*
X13408753Y-12258269D02*
X13408753Y-12305888D01*
X13408753Y-12305888D02*
X13399229Y-12324936D01*
X13399229Y-12324936D02*
X13389705Y-12334460D01*
X13389705Y-12334460D02*
X13370658Y-12343984D01*
X13370658Y-12343984D02*
X13313515Y-12343984D01*
X13313515Y-12343984D02*
X13294467Y-12334460D01*
X13294467Y-12334460D02*
X13284943Y-12324936D01*
X13532562Y-12143984D02*
X13551610Y-12143984D01*
X13551610Y-12143984D02*
X13570658Y-12153508D01*
X13570658Y-12153508D02*
X13580182Y-12163031D01*
X13580182Y-12163031D02*
X13589705Y-12182079D01*
X13589705Y-12182079D02*
X13599229Y-12220174D01*
X13599229Y-12220174D02*
X13599229Y-12267793D01*
X13599229Y-12267793D02*
X13589705Y-12305888D01*
X13589705Y-12305888D02*
X13580182Y-12324936D01*
X13580182Y-12324936D02*
X13570658Y-12334460D01*
X13570658Y-12334460D02*
X13551610Y-12343984D01*
X13551610Y-12343984D02*
X13532562Y-12343984D01*
X13532562Y-12343984D02*
X13513515Y-12334460D01*
X13513515Y-12334460D02*
X13503991Y-12324936D01*
X13503991Y-12324936D02*
X13494467Y-12305888D01*
X13494467Y-12305888D02*
X13484943Y-12267793D01*
X13484943Y-12267793D02*
X13484943Y-12220174D01*
X13484943Y-12220174D02*
X13494467Y-12182079D01*
X13494467Y-12182079D02*
X13503991Y-12163031D01*
X13503991Y-12163031D02*
X13513515Y-12153508D01*
X13513515Y-12153508D02*
X13532562Y-12143984D01*
X13723039Y-12143984D02*
X13742086Y-12143984D01*
X13742086Y-12143984D02*
X13761134Y-12153508D01*
X13761134Y-12153508D02*
X13770658Y-12163031D01*
X13770658Y-12163031D02*
X13780182Y-12182079D01*
X13780182Y-12182079D02*
X13789705Y-12220174D01*
X13789705Y-12220174D02*
X13789705Y-12267793D01*
X13789705Y-12267793D02*
X13780182Y-12305888D01*
X13780182Y-12305888D02*
X13770658Y-12324936D01*
X13770658Y-12324936D02*
X13761134Y-12334460D01*
X13761134Y-12334460D02*
X13742086Y-12343984D01*
X13742086Y-12343984D02*
X13723039Y-12343984D01*
X13723039Y-12343984D02*
X13703991Y-12334460D01*
X13703991Y-12334460D02*
X13694467Y-12324936D01*
X13694467Y-12324936D02*
X13684943Y-12305888D01*
X13684943Y-12305888D02*
X13675420Y-12267793D01*
X13675420Y-12267793D02*
X13675420Y-12220174D01*
X13675420Y-12220174D02*
X13684943Y-12182079D01*
X13684943Y-12182079D02*
X13694467Y-12163031D01*
X13694467Y-12163031D02*
X13703991Y-12153508D01*
X13703991Y-12153508D02*
X13723039Y-12143984D01*
X13875420Y-12343984D02*
X13875420Y-12210650D01*
X13875420Y-12229698D02*
X13884943Y-12220174D01*
X13884943Y-12220174D02*
X13903991Y-12210650D01*
X13903991Y-12210650D02*
X13932563Y-12210650D01*
X13932563Y-12210650D02*
X13951610Y-12220174D01*
X13951610Y-12220174D02*
X13961134Y-12239222D01*
X13961134Y-12239222D02*
X13961134Y-12343984D01*
X13961134Y-12239222D02*
X13970658Y-12220174D01*
X13970658Y-12220174D02*
X13989705Y-12210650D01*
X13989705Y-12210650D02*
X14018277Y-12210650D01*
X14018277Y-12210650D02*
X14037324Y-12220174D01*
X14037324Y-12220174D02*
X14046848Y-12239222D01*
X14046848Y-12239222D02*
X14046848Y-12343984D01*
X14142086Y-12343984D02*
X14142086Y-12210650D01*
X14142086Y-12229698D02*
X14151610Y-12220174D01*
X14151610Y-12220174D02*
X14170658Y-12210650D01*
X14170658Y-12210650D02*
X14199229Y-12210650D01*
X14199229Y-12210650D02*
X14218277Y-12220174D01*
X14218277Y-12220174D02*
X14227801Y-12239222D01*
X14227801Y-12239222D02*
X14227801Y-12343984D01*
X14227801Y-12239222D02*
X14237324Y-12220174D01*
X14237324Y-12220174D02*
X14256372Y-12210650D01*
X14256372Y-12210650D02*
X14284943Y-12210650D01*
X14284943Y-12210650D02*
X14303991Y-12220174D01*
X14303991Y-12220174D02*
X14313515Y-12239222D01*
X14313515Y-12239222D02*
X14313515Y-12343984D01*
X14703991Y-12134460D02*
X14532563Y-12391603D01*
X14961134Y-12143984D02*
X14980182Y-12143984D01*
X14980182Y-12143984D02*
X14999229Y-12153508D01*
X14999229Y-12153508D02*
X15008753Y-12163031D01*
X15008753Y-12163031D02*
X15018277Y-12182079D01*
X15018277Y-12182079D02*
X15027801Y-12220174D01*
X15027801Y-12220174D02*
X15027801Y-12267793D01*
X15027801Y-12267793D02*
X15018277Y-12305888D01*
X15018277Y-12305888D02*
X15008753Y-12324936D01*
X15008753Y-12324936D02*
X14999229Y-12334460D01*
X14999229Y-12334460D02*
X14980182Y-12343984D01*
X14980182Y-12343984D02*
X14961134Y-12343984D01*
X14961134Y-12343984D02*
X14942086Y-12334460D01*
X14942086Y-12334460D02*
X14932563Y-12324936D01*
X14932563Y-12324936D02*
X14923039Y-12305888D01*
X14923039Y-12305888D02*
X14913515Y-12267793D01*
X14913515Y-12267793D02*
X14913515Y-12220174D01*
X14913515Y-12220174D02*
X14923039Y-12182079D01*
X14923039Y-12182079D02*
X14932563Y-12163031D01*
X14932563Y-12163031D02*
X14942086Y-12153508D01*
X14942086Y-12153508D02*
X14961134Y-12143984D01*
X15113515Y-12324936D02*
X15123039Y-12334460D01*
X15123039Y-12334460D02*
X15113515Y-12343984D01*
X15113515Y-12343984D02*
X15103991Y-12334460D01*
X15103991Y-12334460D02*
X15113515Y-12324936D01*
X15113515Y-12324936D02*
X15113515Y-12343984D01*
X15246848Y-12143984D02*
X15265896Y-12143984D01*
X15265896Y-12143984D02*
X15284944Y-12153508D01*
X15284944Y-12153508D02*
X15294467Y-12163031D01*
X15294467Y-12163031D02*
X15303991Y-12182079D01*
X15303991Y-12182079D02*
X15313515Y-12220174D01*
X15313515Y-12220174D02*
X15313515Y-12267793D01*
X15313515Y-12267793D02*
X15303991Y-12305888D01*
X15303991Y-12305888D02*
X15294467Y-12324936D01*
X15294467Y-12324936D02*
X15284944Y-12334460D01*
X15284944Y-12334460D02*
X15265896Y-12343984D01*
X15265896Y-12343984D02*
X15246848Y-12343984D01*
X15246848Y-12343984D02*
X15227801Y-12334460D01*
X15227801Y-12334460D02*
X15218277Y-12324936D01*
X15218277Y-12324936D02*
X15208753Y-12305888D01*
X15208753Y-12305888D02*
X15199229Y-12267793D01*
X15199229Y-12267793D02*
X15199229Y-12220174D01*
X15199229Y-12220174D02*
X15208753Y-12182079D01*
X15208753Y-12182079D02*
X15218277Y-12163031D01*
X15218277Y-12163031D02*
X15227801Y-12153508D01*
X15227801Y-12153508D02*
X15246848Y-12143984D01*
X15503991Y-12343984D02*
X15389706Y-12343984D01*
X15446848Y-12343984D02*
X15446848Y-12143984D01*
X15446848Y-12143984D02*
X15427801Y-12172555D01*
X15427801Y-12172555D02*
X15408753Y-12191603D01*
X15408753Y-12191603D02*
X15389706Y-12201127D01*
X15694467Y-12343984D02*
X15580182Y-12343984D01*
X15637325Y-12343984D02*
X15637325Y-12143984D01*
X15637325Y-12143984D02*
X15618277Y-12172555D01*
X15618277Y-12172555D02*
X15599229Y-12191603D01*
X15599229Y-12191603D02*
X15580182Y-12201127D01*
X15808753Y-12229698D02*
X15789706Y-12220174D01*
X15789706Y-12220174D02*
X15780182Y-12210650D01*
X15780182Y-12210650D02*
X15770658Y-12191603D01*
X15770658Y-12191603D02*
X15770658Y-12182079D01*
X15770658Y-12182079D02*
X15780182Y-12163031D01*
X15780182Y-12163031D02*
X15789706Y-12153508D01*
X15789706Y-12153508D02*
X15808753Y-12143984D01*
X15808753Y-12143984D02*
X15846848Y-12143984D01*
X15846848Y-12143984D02*
X15865896Y-12153508D01*
X15865896Y-12153508D02*
X15875420Y-12163031D01*
X15875420Y-12163031D02*
X15884944Y-12182079D01*
X15884944Y-12182079D02*
X15884944Y-12191603D01*
X15884944Y-12191603D02*
X15875420Y-12210650D01*
X15875420Y-12210650D02*
X15865896Y-12220174D01*
X15865896Y-12220174D02*
X15846848Y-12229698D01*
X15846848Y-12229698D02*
X15808753Y-12229698D01*
X15808753Y-12229698D02*
X15789706Y-12239222D01*
X15789706Y-12239222D02*
X15780182Y-12248746D01*
X15780182Y-12248746D02*
X15770658Y-12267793D01*
X15770658Y-12267793D02*
X15770658Y-12305888D01*
X15770658Y-12305888D02*
X15780182Y-12324936D01*
X15780182Y-12324936D02*
X15789706Y-12334460D01*
X15789706Y-12334460D02*
X15808753Y-12343984D01*
X15808753Y-12343984D02*
X15846848Y-12343984D01*
X15846848Y-12343984D02*
X15865896Y-12334460D01*
X15865896Y-12334460D02*
X15875420Y-12324936D01*
X15875420Y-12324936D02*
X15884944Y-12305888D01*
X15884944Y-12305888D02*
X15884944Y-12267793D01*
X15884944Y-12267793D02*
X15875420Y-12248746D01*
X15875420Y-12248746D02*
X15865896Y-12239222D01*
X15865896Y-12239222D02*
X15846848Y-12229698D01*
X15961134Y-12143984D02*
X15961134Y-12182079D01*
X16037325Y-12143984D02*
X16037325Y-12182079D01*
X16332563Y-12420174D02*
X16323039Y-12410650D01*
X16323039Y-12410650D02*
X16303991Y-12382079D01*
X16303991Y-12382079D02*
X16294468Y-12363031D01*
X16294468Y-12363031D02*
X16284944Y-12334460D01*
X16284944Y-12334460D02*
X16275420Y-12286841D01*
X16275420Y-12286841D02*
X16275420Y-12248746D01*
X16275420Y-12248746D02*
X16284944Y-12201127D01*
X16284944Y-12201127D02*
X16294468Y-12172555D01*
X16294468Y-12172555D02*
X16303991Y-12153508D01*
X16303991Y-12153508D02*
X16323039Y-12124936D01*
X16323039Y-12124936D02*
X16332563Y-12115412D01*
X16513515Y-12343984D02*
X16399229Y-12343984D01*
X16456372Y-12343984D02*
X16456372Y-12143984D01*
X16456372Y-12143984D02*
X16437325Y-12172555D01*
X16437325Y-12172555D02*
X16418277Y-12191603D01*
X16418277Y-12191603D02*
X16399229Y-12201127D01*
X16703991Y-12343984D02*
X16589706Y-12343984D01*
X16646848Y-12343984D02*
X16646848Y-12143984D01*
X16646848Y-12143984D02*
X16627801Y-12172555D01*
X16627801Y-12172555D02*
X16608753Y-12191603D01*
X16608753Y-12191603D02*
X16589706Y-12201127D01*
X16942087Y-12343984D02*
X16942087Y-12143984D01*
X17027801Y-12343984D02*
X17027801Y-12239222D01*
X17027801Y-12239222D02*
X17018277Y-12220174D01*
X17018277Y-12220174D02*
X16999230Y-12210650D01*
X16999230Y-12210650D02*
X16970658Y-12210650D01*
X16970658Y-12210650D02*
X16951611Y-12220174D01*
X16951611Y-12220174D02*
X16942087Y-12229698D01*
X17151611Y-12343984D02*
X17132563Y-12334460D01*
X17132563Y-12334460D02*
X17123039Y-12324936D01*
X17123039Y-12324936D02*
X17113515Y-12305888D01*
X17113515Y-12305888D02*
X17113515Y-12248746D01*
X17113515Y-12248746D02*
X17123039Y-12229698D01*
X17123039Y-12229698D02*
X17132563Y-12220174D01*
X17132563Y-12220174D02*
X17151611Y-12210650D01*
X17151611Y-12210650D02*
X17180182Y-12210650D01*
X17180182Y-12210650D02*
X17199230Y-12220174D01*
X17199230Y-12220174D02*
X17208753Y-12229698D01*
X17208753Y-12229698D02*
X17218277Y-12248746D01*
X17218277Y-12248746D02*
X17218277Y-12305888D01*
X17218277Y-12305888D02*
X17208753Y-12324936D01*
X17208753Y-12324936D02*
X17199230Y-12334460D01*
X17199230Y-12334460D02*
X17180182Y-12343984D01*
X17180182Y-12343984D02*
X17151611Y-12343984D01*
X17332563Y-12343984D02*
X17313515Y-12334460D01*
X17313515Y-12334460D02*
X17303992Y-12315412D01*
X17303992Y-12315412D02*
X17303992Y-12143984D01*
X17484944Y-12334460D02*
X17465896Y-12343984D01*
X17465896Y-12343984D02*
X17427801Y-12343984D01*
X17427801Y-12343984D02*
X17408753Y-12334460D01*
X17408753Y-12334460D02*
X17399230Y-12315412D01*
X17399230Y-12315412D02*
X17399230Y-12239222D01*
X17399230Y-12239222D02*
X17408753Y-12220174D01*
X17408753Y-12220174D02*
X17427801Y-12210650D01*
X17427801Y-12210650D02*
X17465896Y-12210650D01*
X17465896Y-12210650D02*
X17484944Y-12220174D01*
X17484944Y-12220174D02*
X17494468Y-12239222D01*
X17494468Y-12239222D02*
X17494468Y-12258269D01*
X17494468Y-12258269D02*
X17399230Y-12277317D01*
X17570658Y-12334460D02*
X17589706Y-12343984D01*
X17589706Y-12343984D02*
X17627801Y-12343984D01*
X17627801Y-12343984D02*
X17646849Y-12334460D01*
X17646849Y-12334460D02*
X17656373Y-12315412D01*
X17656373Y-12315412D02*
X17656373Y-12305888D01*
X17656373Y-12305888D02*
X17646849Y-12286841D01*
X17646849Y-12286841D02*
X17627801Y-12277317D01*
X17627801Y-12277317D02*
X17599230Y-12277317D01*
X17599230Y-12277317D02*
X17580182Y-12267793D01*
X17580182Y-12267793D02*
X17570658Y-12248746D01*
X17570658Y-12248746D02*
X17570658Y-12239222D01*
X17570658Y-12239222D02*
X17580182Y-12220174D01*
X17580182Y-12220174D02*
X17599230Y-12210650D01*
X17599230Y-12210650D02*
X17627801Y-12210650D01*
X17627801Y-12210650D02*
X17646849Y-12220174D01*
X17723039Y-12420174D02*
X17732563Y-12410650D01*
X17732563Y-12410650D02*
X17751611Y-12382079D01*
X17751611Y-12382079D02*
X17761134Y-12363031D01*
X17761134Y-12363031D02*
X17770658Y-12334460D01*
X17770658Y-12334460D02*
X17780182Y-12286841D01*
X17780182Y-12286841D02*
X17780182Y-12248746D01*
X17780182Y-12248746D02*
X17770658Y-12201127D01*
X17770658Y-12201127D02*
X17761134Y-12172555D01*
X17761134Y-12172555D02*
X17751611Y-12153508D01*
X17751611Y-12153508D02*
X17732563Y-12124936D01*
X17732563Y-12124936D02*
X17723039Y-12115412D01*
D12*
X12757500Y-12516500D02*
G75*
G02*
X12662500Y-12516500I-47500J0D01*
G01*
X12662500Y-12516500D02*
G75*
G02*
X12757500Y-12516500I47500J0D01*
G01*
D11*
X13056372Y-12407984D02*
X13075420Y-12407984D01*
X13075420Y-12407984D02*
X13094467Y-12417508D01*
X13094467Y-12417508D02*
X13103991Y-12427031D01*
X13103991Y-12427031D02*
X13113515Y-12446079D01*
X13113515Y-12446079D02*
X13123039Y-12484174D01*
X13123039Y-12484174D02*
X13123039Y-12531793D01*
X13123039Y-12531793D02*
X13113515Y-12569888D01*
X13113515Y-12569888D02*
X13103991Y-12588936D01*
X13103991Y-12588936D02*
X13094467Y-12598460D01*
X13094467Y-12598460D02*
X13075420Y-12607984D01*
X13075420Y-12607984D02*
X13056372Y-12607984D01*
X13056372Y-12607984D02*
X13037324Y-12598460D01*
X13037324Y-12598460D02*
X13027801Y-12588936D01*
X13027801Y-12588936D02*
X13018277Y-12569888D01*
X13018277Y-12569888D02*
X13008753Y-12531793D01*
X13008753Y-12531793D02*
X13008753Y-12484174D01*
X13008753Y-12484174D02*
X13018277Y-12446079D01*
X13018277Y-12446079D02*
X13027801Y-12427031D01*
X13027801Y-12427031D02*
X13037324Y-12417508D01*
X13037324Y-12417508D02*
X13056372Y-12407984D01*
X13208753Y-12588936D02*
X13218277Y-12598460D01*
X13218277Y-12598460D02*
X13208753Y-12607984D01*
X13208753Y-12607984D02*
X13199229Y-12598460D01*
X13199229Y-12598460D02*
X13208753Y-12588936D01*
X13208753Y-12588936D02*
X13208753Y-12607984D01*
X13313515Y-12607984D02*
X13351610Y-12607984D01*
X13351610Y-12607984D02*
X13370658Y-12598460D01*
X13370658Y-12598460D02*
X13380182Y-12588936D01*
X13380182Y-12588936D02*
X13399229Y-12560365D01*
X13399229Y-12560365D02*
X13408753Y-12522269D01*
X13408753Y-12522269D02*
X13408753Y-12446079D01*
X13408753Y-12446079D02*
X13399229Y-12427031D01*
X13399229Y-12427031D02*
X13389705Y-12417508D01*
X13389705Y-12417508D02*
X13370658Y-12407984D01*
X13370658Y-12407984D02*
X13332562Y-12407984D01*
X13332562Y-12407984D02*
X13313515Y-12417508D01*
X13313515Y-12417508D02*
X13303991Y-12427031D01*
X13303991Y-12427031D02*
X13294467Y-12446079D01*
X13294467Y-12446079D02*
X13294467Y-12493698D01*
X13294467Y-12493698D02*
X13303991Y-12512746D01*
X13303991Y-12512746D02*
X13313515Y-12522269D01*
X13313515Y-12522269D02*
X13332562Y-12531793D01*
X13332562Y-12531793D02*
X13370658Y-12531793D01*
X13370658Y-12531793D02*
X13389705Y-12522269D01*
X13389705Y-12522269D02*
X13399229Y-12512746D01*
X13399229Y-12512746D02*
X13408753Y-12493698D01*
X13589705Y-12407984D02*
X13494467Y-12407984D01*
X13494467Y-12407984D02*
X13484943Y-12503222D01*
X13484943Y-12503222D02*
X13494467Y-12493698D01*
X13494467Y-12493698D02*
X13513515Y-12484174D01*
X13513515Y-12484174D02*
X13561134Y-12484174D01*
X13561134Y-12484174D02*
X13580182Y-12493698D01*
X13580182Y-12493698D02*
X13589705Y-12503222D01*
X13589705Y-12503222D02*
X13599229Y-12522269D01*
X13599229Y-12522269D02*
X13599229Y-12569888D01*
X13599229Y-12569888D02*
X13589705Y-12588936D01*
X13589705Y-12588936D02*
X13580182Y-12598460D01*
X13580182Y-12598460D02*
X13561134Y-12607984D01*
X13561134Y-12607984D02*
X13513515Y-12607984D01*
X13513515Y-12607984D02*
X13494467Y-12598460D01*
X13494467Y-12598460D02*
X13484943Y-12588936D01*
X13723039Y-12407984D02*
X13742086Y-12407984D01*
X13742086Y-12407984D02*
X13761134Y-12417508D01*
X13761134Y-12417508D02*
X13770658Y-12427031D01*
X13770658Y-12427031D02*
X13780182Y-12446079D01*
X13780182Y-12446079D02*
X13789705Y-12484174D01*
X13789705Y-12484174D02*
X13789705Y-12531793D01*
X13789705Y-12531793D02*
X13780182Y-12569888D01*
X13780182Y-12569888D02*
X13770658Y-12588936D01*
X13770658Y-12588936D02*
X13761134Y-12598460D01*
X13761134Y-12598460D02*
X13742086Y-12607984D01*
X13742086Y-12607984D02*
X13723039Y-12607984D01*
X13723039Y-12607984D02*
X13703991Y-12598460D01*
X13703991Y-12598460D02*
X13694467Y-12588936D01*
X13694467Y-12588936D02*
X13684943Y-12569888D01*
X13684943Y-12569888D02*
X13675420Y-12531793D01*
X13675420Y-12531793D02*
X13675420Y-12484174D01*
X13675420Y-12484174D02*
X13684943Y-12446079D01*
X13684943Y-12446079D02*
X13694467Y-12427031D01*
X13694467Y-12427031D02*
X13703991Y-12417508D01*
X13703991Y-12417508D02*
X13723039Y-12407984D01*
X13875420Y-12607984D02*
X13875420Y-12474650D01*
X13875420Y-12493698D02*
X13884943Y-12484174D01*
X13884943Y-12484174D02*
X13903991Y-12474650D01*
X13903991Y-12474650D02*
X13932563Y-12474650D01*
X13932563Y-12474650D02*
X13951610Y-12484174D01*
X13951610Y-12484174D02*
X13961134Y-12503222D01*
X13961134Y-12503222D02*
X13961134Y-12607984D01*
X13961134Y-12503222D02*
X13970658Y-12484174D01*
X13970658Y-12484174D02*
X13989705Y-12474650D01*
X13989705Y-12474650D02*
X14018277Y-12474650D01*
X14018277Y-12474650D02*
X14037324Y-12484174D01*
X14037324Y-12484174D02*
X14046848Y-12503222D01*
X14046848Y-12503222D02*
X14046848Y-12607984D01*
X14142086Y-12607984D02*
X14142086Y-12474650D01*
X14142086Y-12493698D02*
X14151610Y-12484174D01*
X14151610Y-12484174D02*
X14170658Y-12474650D01*
X14170658Y-12474650D02*
X14199229Y-12474650D01*
X14199229Y-12474650D02*
X14218277Y-12484174D01*
X14218277Y-12484174D02*
X14227801Y-12503222D01*
X14227801Y-12503222D02*
X14227801Y-12607984D01*
X14227801Y-12503222D02*
X14237324Y-12484174D01*
X14237324Y-12484174D02*
X14256372Y-12474650D01*
X14256372Y-12474650D02*
X14284943Y-12474650D01*
X14284943Y-12474650D02*
X14303991Y-12484174D01*
X14303991Y-12484174D02*
X14313515Y-12503222D01*
X14313515Y-12503222D02*
X14313515Y-12607984D01*
X14703991Y-12398460D02*
X14532563Y-12655603D01*
X14961134Y-12407984D02*
X14980182Y-12407984D01*
X14980182Y-12407984D02*
X14999229Y-12417508D01*
X14999229Y-12417508D02*
X15008753Y-12427031D01*
X15008753Y-12427031D02*
X15018277Y-12446079D01*
X15018277Y-12446079D02*
X15027801Y-12484174D01*
X15027801Y-12484174D02*
X15027801Y-12531793D01*
X15027801Y-12531793D02*
X15018277Y-12569888D01*
X15018277Y-12569888D02*
X15008753Y-12588936D01*
X15008753Y-12588936D02*
X14999229Y-12598460D01*
X14999229Y-12598460D02*
X14980182Y-12607984D01*
X14980182Y-12607984D02*
X14961134Y-12607984D01*
X14961134Y-12607984D02*
X14942086Y-12598460D01*
X14942086Y-12598460D02*
X14932563Y-12588936D01*
X14932563Y-12588936D02*
X14923039Y-12569888D01*
X14923039Y-12569888D02*
X14913515Y-12531793D01*
X14913515Y-12531793D02*
X14913515Y-12484174D01*
X14913515Y-12484174D02*
X14923039Y-12446079D01*
X14923039Y-12446079D02*
X14932563Y-12427031D01*
X14932563Y-12427031D02*
X14942086Y-12417508D01*
X14942086Y-12417508D02*
X14961134Y-12407984D01*
X15113515Y-12588936D02*
X15123039Y-12598460D01*
X15123039Y-12598460D02*
X15113515Y-12607984D01*
X15113515Y-12607984D02*
X15103991Y-12598460D01*
X15103991Y-12598460D02*
X15113515Y-12588936D01*
X15113515Y-12588936D02*
X15113515Y-12607984D01*
X15246848Y-12407984D02*
X15265896Y-12407984D01*
X15265896Y-12407984D02*
X15284944Y-12417508D01*
X15284944Y-12417508D02*
X15294467Y-12427031D01*
X15294467Y-12427031D02*
X15303991Y-12446079D01*
X15303991Y-12446079D02*
X15313515Y-12484174D01*
X15313515Y-12484174D02*
X15313515Y-12531793D01*
X15313515Y-12531793D02*
X15303991Y-12569888D01*
X15303991Y-12569888D02*
X15294467Y-12588936D01*
X15294467Y-12588936D02*
X15284944Y-12598460D01*
X15284944Y-12598460D02*
X15265896Y-12607984D01*
X15265896Y-12607984D02*
X15246848Y-12607984D01*
X15246848Y-12607984D02*
X15227801Y-12598460D01*
X15227801Y-12598460D02*
X15218277Y-12588936D01*
X15218277Y-12588936D02*
X15208753Y-12569888D01*
X15208753Y-12569888D02*
X15199229Y-12531793D01*
X15199229Y-12531793D02*
X15199229Y-12484174D01*
X15199229Y-12484174D02*
X15208753Y-12446079D01*
X15208753Y-12446079D02*
X15218277Y-12427031D01*
X15218277Y-12427031D02*
X15227801Y-12417508D01*
X15227801Y-12417508D02*
X15246848Y-12407984D01*
X15380182Y-12407984D02*
X15503991Y-12407984D01*
X15503991Y-12407984D02*
X15437325Y-12484174D01*
X15437325Y-12484174D02*
X15465896Y-12484174D01*
X15465896Y-12484174D02*
X15484944Y-12493698D01*
X15484944Y-12493698D02*
X15494467Y-12503222D01*
X15494467Y-12503222D02*
X15503991Y-12522269D01*
X15503991Y-12522269D02*
X15503991Y-12569888D01*
X15503991Y-12569888D02*
X15494467Y-12588936D01*
X15494467Y-12588936D02*
X15484944Y-12598460D01*
X15484944Y-12598460D02*
X15465896Y-12607984D01*
X15465896Y-12607984D02*
X15408753Y-12607984D01*
X15408753Y-12607984D02*
X15389706Y-12598460D01*
X15389706Y-12598460D02*
X15380182Y-12588936D01*
X15570658Y-12407984D02*
X15703991Y-12407984D01*
X15703991Y-12407984D02*
X15618277Y-12607984D01*
X15865896Y-12474650D02*
X15865896Y-12607984D01*
X15818277Y-12398460D02*
X15770658Y-12541317D01*
X15770658Y-12541317D02*
X15894467Y-12541317D01*
X15961134Y-12407984D02*
X15961134Y-12446079D01*
X16037325Y-12407984D02*
X16037325Y-12446079D01*
X16332563Y-12684174D02*
X16323039Y-12674650D01*
X16323039Y-12674650D02*
X16303991Y-12646079D01*
X16303991Y-12646079D02*
X16294468Y-12627031D01*
X16294468Y-12627031D02*
X16284944Y-12598460D01*
X16284944Y-12598460D02*
X16275420Y-12550841D01*
X16275420Y-12550841D02*
X16275420Y-12512746D01*
X16275420Y-12512746D02*
X16284944Y-12465127D01*
X16284944Y-12465127D02*
X16294468Y-12436555D01*
X16294468Y-12436555D02*
X16303991Y-12417508D01*
X16303991Y-12417508D02*
X16323039Y-12388936D01*
X16323039Y-12388936D02*
X16332563Y-12379412D01*
X16494468Y-12474650D02*
X16494468Y-12607984D01*
X16446848Y-12398460D02*
X16399229Y-12541317D01*
X16399229Y-12541317D02*
X16523039Y-12541317D01*
X16751610Y-12607984D02*
X16751610Y-12407984D01*
X16837325Y-12607984D02*
X16837325Y-12503222D01*
X16837325Y-12503222D02*
X16827801Y-12484174D01*
X16827801Y-12484174D02*
X16808753Y-12474650D01*
X16808753Y-12474650D02*
X16780182Y-12474650D01*
X16780182Y-12474650D02*
X16761134Y-12484174D01*
X16761134Y-12484174D02*
X16751610Y-12493698D01*
X16961134Y-12607984D02*
X16942087Y-12598460D01*
X16942087Y-12598460D02*
X16932563Y-12588936D01*
X16932563Y-12588936D02*
X16923039Y-12569888D01*
X16923039Y-12569888D02*
X16923039Y-12512746D01*
X16923039Y-12512746D02*
X16932563Y-12493698D01*
X16932563Y-12493698D02*
X16942087Y-12484174D01*
X16942087Y-12484174D02*
X16961134Y-12474650D01*
X16961134Y-12474650D02*
X16989706Y-12474650D01*
X16989706Y-12474650D02*
X17008753Y-12484174D01*
X17008753Y-12484174D02*
X17018277Y-12493698D01*
X17018277Y-12493698D02*
X17027801Y-12512746D01*
X17027801Y-12512746D02*
X17027801Y-12569888D01*
X17027801Y-12569888D02*
X17018277Y-12588936D01*
X17018277Y-12588936D02*
X17008753Y-12598460D01*
X17008753Y-12598460D02*
X16989706Y-12607984D01*
X16989706Y-12607984D02*
X16961134Y-12607984D01*
X17142087Y-12607984D02*
X17123039Y-12598460D01*
X17123039Y-12598460D02*
X17113515Y-12579412D01*
X17113515Y-12579412D02*
X17113515Y-12407984D01*
X17294468Y-12598460D02*
X17275420Y-12607984D01*
X17275420Y-12607984D02*
X17237325Y-12607984D01*
X17237325Y-12607984D02*
X17218277Y-12598460D01*
X17218277Y-12598460D02*
X17208753Y-12579412D01*
X17208753Y-12579412D02*
X17208753Y-12503222D01*
X17208753Y-12503222D02*
X17218277Y-12484174D01*
X17218277Y-12484174D02*
X17237325Y-12474650D01*
X17237325Y-12474650D02*
X17275420Y-12474650D01*
X17275420Y-12474650D02*
X17294468Y-12484174D01*
X17294468Y-12484174D02*
X17303992Y-12503222D01*
X17303992Y-12503222D02*
X17303992Y-12522269D01*
X17303992Y-12522269D02*
X17208753Y-12541317D01*
X17380182Y-12598460D02*
X17399230Y-12607984D01*
X17399230Y-12607984D02*
X17437325Y-12607984D01*
X17437325Y-12607984D02*
X17456373Y-12598460D01*
X17456373Y-12598460D02*
X17465896Y-12579412D01*
X17465896Y-12579412D02*
X17465896Y-12569888D01*
X17465896Y-12569888D02*
X17456373Y-12550841D01*
X17456373Y-12550841D02*
X17437325Y-12541317D01*
X17437325Y-12541317D02*
X17408753Y-12541317D01*
X17408753Y-12541317D02*
X17389706Y-12531793D01*
X17389706Y-12531793D02*
X17380182Y-12512746D01*
X17380182Y-12512746D02*
X17380182Y-12503222D01*
X17380182Y-12503222D02*
X17389706Y-12484174D01*
X17389706Y-12484174D02*
X17408753Y-12474650D01*
X17408753Y-12474650D02*
X17437325Y-12474650D01*
X17437325Y-12474650D02*
X17456373Y-12484174D01*
X17532563Y-12684174D02*
X17542087Y-12674650D01*
X17542087Y-12674650D02*
X17561134Y-12646079D01*
X17561134Y-12646079D02*
X17570658Y-12627031D01*
X17570658Y-12627031D02*
X17580182Y-12598460D01*
X17580182Y-12598460D02*
X17589706Y-12550841D01*
X17589706Y-12550841D02*
X17589706Y-12512746D01*
X17589706Y-12512746D02*
X17580182Y-12465127D01*
X17580182Y-12465127D02*
X17570658Y-12436555D01*
X17570658Y-12436555D02*
X17561134Y-12417508D01*
X17561134Y-12417508D02*
X17542087Y-12388936D01*
X17542087Y-12388936D02*
X17532563Y-12379412D01*
D12*
X12707500Y-12730500D02*
X12707500Y-12830500D01*
X12657500Y-12780500D02*
X12757500Y-12780500D01*
D11*
X13123039Y-12871984D02*
X13008753Y-12871984D01*
X13065896Y-12871984D02*
X13065896Y-12671984D01*
X13065896Y-12671984D02*
X13046848Y-12700555D01*
X13046848Y-12700555D02*
X13027801Y-12719603D01*
X13027801Y-12719603D02*
X13008753Y-12729127D01*
X13208753Y-12852936D02*
X13218277Y-12862460D01*
X13218277Y-12862460D02*
X13208753Y-12871984D01*
X13208753Y-12871984D02*
X13199229Y-12862460D01*
X13199229Y-12862460D02*
X13208753Y-12852936D01*
X13208753Y-12852936D02*
X13208753Y-12871984D01*
X13342086Y-12671984D02*
X13361134Y-12671984D01*
X13361134Y-12671984D02*
X13380182Y-12681508D01*
X13380182Y-12681508D02*
X13389705Y-12691031D01*
X13389705Y-12691031D02*
X13399229Y-12710079D01*
X13399229Y-12710079D02*
X13408753Y-12748174D01*
X13408753Y-12748174D02*
X13408753Y-12795793D01*
X13408753Y-12795793D02*
X13399229Y-12833888D01*
X13399229Y-12833888D02*
X13389705Y-12852936D01*
X13389705Y-12852936D02*
X13380182Y-12862460D01*
X13380182Y-12862460D02*
X13361134Y-12871984D01*
X13361134Y-12871984D02*
X13342086Y-12871984D01*
X13342086Y-12871984D02*
X13323039Y-12862460D01*
X13323039Y-12862460D02*
X13313515Y-12852936D01*
X13313515Y-12852936D02*
X13303991Y-12833888D01*
X13303991Y-12833888D02*
X13294467Y-12795793D01*
X13294467Y-12795793D02*
X13294467Y-12748174D01*
X13294467Y-12748174D02*
X13303991Y-12710079D01*
X13303991Y-12710079D02*
X13313515Y-12691031D01*
X13313515Y-12691031D02*
X13323039Y-12681508D01*
X13323039Y-12681508D02*
X13342086Y-12671984D01*
X13532562Y-12671984D02*
X13551610Y-12671984D01*
X13551610Y-12671984D02*
X13570658Y-12681508D01*
X13570658Y-12681508D02*
X13580182Y-12691031D01*
X13580182Y-12691031D02*
X13589705Y-12710079D01*
X13589705Y-12710079D02*
X13599229Y-12748174D01*
X13599229Y-12748174D02*
X13599229Y-12795793D01*
X13599229Y-12795793D02*
X13589705Y-12833888D01*
X13589705Y-12833888D02*
X13580182Y-12852936D01*
X13580182Y-12852936D02*
X13570658Y-12862460D01*
X13570658Y-12862460D02*
X13551610Y-12871984D01*
X13551610Y-12871984D02*
X13532562Y-12871984D01*
X13532562Y-12871984D02*
X13513515Y-12862460D01*
X13513515Y-12862460D02*
X13503991Y-12852936D01*
X13503991Y-12852936D02*
X13494467Y-12833888D01*
X13494467Y-12833888D02*
X13484943Y-12795793D01*
X13484943Y-12795793D02*
X13484943Y-12748174D01*
X13484943Y-12748174D02*
X13494467Y-12710079D01*
X13494467Y-12710079D02*
X13503991Y-12691031D01*
X13503991Y-12691031D02*
X13513515Y-12681508D01*
X13513515Y-12681508D02*
X13532562Y-12671984D01*
X13723039Y-12671984D02*
X13742086Y-12671984D01*
X13742086Y-12671984D02*
X13761134Y-12681508D01*
X13761134Y-12681508D02*
X13770658Y-12691031D01*
X13770658Y-12691031D02*
X13780182Y-12710079D01*
X13780182Y-12710079D02*
X13789705Y-12748174D01*
X13789705Y-12748174D02*
X13789705Y-12795793D01*
X13789705Y-12795793D02*
X13780182Y-12833888D01*
X13780182Y-12833888D02*
X13770658Y-12852936D01*
X13770658Y-12852936D02*
X13761134Y-12862460D01*
X13761134Y-12862460D02*
X13742086Y-12871984D01*
X13742086Y-12871984D02*
X13723039Y-12871984D01*
X13723039Y-12871984D02*
X13703991Y-12862460D01*
X13703991Y-12862460D02*
X13694467Y-12852936D01*
X13694467Y-12852936D02*
X13684943Y-12833888D01*
X13684943Y-12833888D02*
X13675420Y-12795793D01*
X13675420Y-12795793D02*
X13675420Y-12748174D01*
X13675420Y-12748174D02*
X13684943Y-12710079D01*
X13684943Y-12710079D02*
X13694467Y-12691031D01*
X13694467Y-12691031D02*
X13703991Y-12681508D01*
X13703991Y-12681508D02*
X13723039Y-12671984D01*
X13875420Y-12871984D02*
X13875420Y-12738650D01*
X13875420Y-12757698D02*
X13884943Y-12748174D01*
X13884943Y-12748174D02*
X13903991Y-12738650D01*
X13903991Y-12738650D02*
X13932563Y-12738650D01*
X13932563Y-12738650D02*
X13951610Y-12748174D01*
X13951610Y-12748174D02*
X13961134Y-12767222D01*
X13961134Y-12767222D02*
X13961134Y-12871984D01*
X13961134Y-12767222D02*
X13970658Y-12748174D01*
X13970658Y-12748174D02*
X13989705Y-12738650D01*
X13989705Y-12738650D02*
X14018277Y-12738650D01*
X14018277Y-12738650D02*
X14037324Y-12748174D01*
X14037324Y-12748174D02*
X14046848Y-12767222D01*
X14046848Y-12767222D02*
X14046848Y-12871984D01*
X14142086Y-12871984D02*
X14142086Y-12738650D01*
X14142086Y-12757698D02*
X14151610Y-12748174D01*
X14151610Y-12748174D02*
X14170658Y-12738650D01*
X14170658Y-12738650D02*
X14199229Y-12738650D01*
X14199229Y-12738650D02*
X14218277Y-12748174D01*
X14218277Y-12748174D02*
X14227801Y-12767222D01*
X14227801Y-12767222D02*
X14227801Y-12871984D01*
X14227801Y-12767222D02*
X14237324Y-12748174D01*
X14237324Y-12748174D02*
X14256372Y-12738650D01*
X14256372Y-12738650D02*
X14284943Y-12738650D01*
X14284943Y-12738650D02*
X14303991Y-12748174D01*
X14303991Y-12748174D02*
X14313515Y-12767222D01*
X14313515Y-12767222D02*
X14313515Y-12871984D01*
X14703991Y-12662460D02*
X14532563Y-12919603D01*
X14961134Y-12671984D02*
X14980182Y-12671984D01*
X14980182Y-12671984D02*
X14999229Y-12681508D01*
X14999229Y-12681508D02*
X15008753Y-12691031D01*
X15008753Y-12691031D02*
X15018277Y-12710079D01*
X15018277Y-12710079D02*
X15027801Y-12748174D01*
X15027801Y-12748174D02*
X15027801Y-12795793D01*
X15027801Y-12795793D02*
X15018277Y-12833888D01*
X15018277Y-12833888D02*
X15008753Y-12852936D01*
X15008753Y-12852936D02*
X14999229Y-12862460D01*
X14999229Y-12862460D02*
X14980182Y-12871984D01*
X14980182Y-12871984D02*
X14961134Y-12871984D01*
X14961134Y-12871984D02*
X14942086Y-12862460D01*
X14942086Y-12862460D02*
X14932563Y-12852936D01*
X14932563Y-12852936D02*
X14923039Y-12833888D01*
X14923039Y-12833888D02*
X14913515Y-12795793D01*
X14913515Y-12795793D02*
X14913515Y-12748174D01*
X14913515Y-12748174D02*
X14923039Y-12710079D01*
X14923039Y-12710079D02*
X14932563Y-12691031D01*
X14932563Y-12691031D02*
X14942086Y-12681508D01*
X14942086Y-12681508D02*
X14961134Y-12671984D01*
X15113515Y-12852936D02*
X15123039Y-12862460D01*
X15123039Y-12862460D02*
X15113515Y-12871984D01*
X15113515Y-12871984D02*
X15103991Y-12862460D01*
X15103991Y-12862460D02*
X15113515Y-12852936D01*
X15113515Y-12852936D02*
X15113515Y-12871984D01*
X15246848Y-12671984D02*
X15265896Y-12671984D01*
X15265896Y-12671984D02*
X15284944Y-12681508D01*
X15284944Y-12681508D02*
X15294467Y-12691031D01*
X15294467Y-12691031D02*
X15303991Y-12710079D01*
X15303991Y-12710079D02*
X15313515Y-12748174D01*
X15313515Y-12748174D02*
X15313515Y-12795793D01*
X15313515Y-12795793D02*
X15303991Y-12833888D01*
X15303991Y-12833888D02*
X15294467Y-12852936D01*
X15294467Y-12852936D02*
X15284944Y-12862460D01*
X15284944Y-12862460D02*
X15265896Y-12871984D01*
X15265896Y-12871984D02*
X15246848Y-12871984D01*
X15246848Y-12871984D02*
X15227801Y-12862460D01*
X15227801Y-12862460D02*
X15218277Y-12852936D01*
X15218277Y-12852936D02*
X15208753Y-12833888D01*
X15208753Y-12833888D02*
X15199229Y-12795793D01*
X15199229Y-12795793D02*
X15199229Y-12748174D01*
X15199229Y-12748174D02*
X15208753Y-12710079D01*
X15208753Y-12710079D02*
X15218277Y-12691031D01*
X15218277Y-12691031D02*
X15227801Y-12681508D01*
X15227801Y-12681508D02*
X15246848Y-12671984D01*
X15380182Y-12671984D02*
X15503991Y-12671984D01*
X15503991Y-12671984D02*
X15437325Y-12748174D01*
X15437325Y-12748174D02*
X15465896Y-12748174D01*
X15465896Y-12748174D02*
X15484944Y-12757698D01*
X15484944Y-12757698D02*
X15494467Y-12767222D01*
X15494467Y-12767222D02*
X15503991Y-12786269D01*
X15503991Y-12786269D02*
X15503991Y-12833888D01*
X15503991Y-12833888D02*
X15494467Y-12852936D01*
X15494467Y-12852936D02*
X15484944Y-12862460D01*
X15484944Y-12862460D02*
X15465896Y-12871984D01*
X15465896Y-12871984D02*
X15408753Y-12871984D01*
X15408753Y-12871984D02*
X15389706Y-12862460D01*
X15389706Y-12862460D02*
X15380182Y-12852936D01*
X15599229Y-12871984D02*
X15637325Y-12871984D01*
X15637325Y-12871984D02*
X15656372Y-12862460D01*
X15656372Y-12862460D02*
X15665896Y-12852936D01*
X15665896Y-12852936D02*
X15684944Y-12824365D01*
X15684944Y-12824365D02*
X15694467Y-12786269D01*
X15694467Y-12786269D02*
X15694467Y-12710079D01*
X15694467Y-12710079D02*
X15684944Y-12691031D01*
X15684944Y-12691031D02*
X15675420Y-12681508D01*
X15675420Y-12681508D02*
X15656372Y-12671984D01*
X15656372Y-12671984D02*
X15618277Y-12671984D01*
X15618277Y-12671984D02*
X15599229Y-12681508D01*
X15599229Y-12681508D02*
X15589706Y-12691031D01*
X15589706Y-12691031D02*
X15580182Y-12710079D01*
X15580182Y-12710079D02*
X15580182Y-12757698D01*
X15580182Y-12757698D02*
X15589706Y-12776746D01*
X15589706Y-12776746D02*
X15599229Y-12786269D01*
X15599229Y-12786269D02*
X15618277Y-12795793D01*
X15618277Y-12795793D02*
X15656372Y-12795793D01*
X15656372Y-12795793D02*
X15675420Y-12786269D01*
X15675420Y-12786269D02*
X15684944Y-12776746D01*
X15684944Y-12776746D02*
X15694467Y-12757698D01*
X15865896Y-12738650D02*
X15865896Y-12871984D01*
X15818277Y-12662460D02*
X15770658Y-12805317D01*
X15770658Y-12805317D02*
X15894467Y-12805317D01*
X15961134Y-12671984D02*
X15961134Y-12710079D01*
X16037325Y-12671984D02*
X16037325Y-12710079D01*
X16332563Y-12948174D02*
X16323039Y-12938650D01*
X16323039Y-12938650D02*
X16303991Y-12910079D01*
X16303991Y-12910079D02*
X16294468Y-12891031D01*
X16294468Y-12891031D02*
X16284944Y-12862460D01*
X16284944Y-12862460D02*
X16275420Y-12814841D01*
X16275420Y-12814841D02*
X16275420Y-12776746D01*
X16275420Y-12776746D02*
X16284944Y-12729127D01*
X16284944Y-12729127D02*
X16294468Y-12700555D01*
X16294468Y-12700555D02*
X16303991Y-12681508D01*
X16303991Y-12681508D02*
X16323039Y-12652936D01*
X16323039Y-12652936D02*
X16332563Y-12643412D01*
X16513515Y-12871984D02*
X16399229Y-12871984D01*
X16456372Y-12871984D02*
X16456372Y-12671984D01*
X16456372Y-12671984D02*
X16437325Y-12700555D01*
X16437325Y-12700555D02*
X16418277Y-12719603D01*
X16418277Y-12719603D02*
X16399229Y-12729127D01*
X16589706Y-12691031D02*
X16599229Y-12681508D01*
X16599229Y-12681508D02*
X16618277Y-12671984D01*
X16618277Y-12671984D02*
X16665896Y-12671984D01*
X16665896Y-12671984D02*
X16684944Y-12681508D01*
X16684944Y-12681508D02*
X16694468Y-12691031D01*
X16694468Y-12691031D02*
X16703991Y-12710079D01*
X16703991Y-12710079D02*
X16703991Y-12729127D01*
X16703991Y-12729127D02*
X16694468Y-12757698D01*
X16694468Y-12757698D02*
X16580182Y-12871984D01*
X16580182Y-12871984D02*
X16703991Y-12871984D01*
X16942087Y-12871984D02*
X16942087Y-12671984D01*
X17027801Y-12871984D02*
X17027801Y-12767222D01*
X17027801Y-12767222D02*
X17018277Y-12748174D01*
X17018277Y-12748174D02*
X16999230Y-12738650D01*
X16999230Y-12738650D02*
X16970658Y-12738650D01*
X16970658Y-12738650D02*
X16951611Y-12748174D01*
X16951611Y-12748174D02*
X16942087Y-12757698D01*
X17151611Y-12871984D02*
X17132563Y-12862460D01*
X17132563Y-12862460D02*
X17123039Y-12852936D01*
X17123039Y-12852936D02*
X17113515Y-12833888D01*
X17113515Y-12833888D02*
X17113515Y-12776746D01*
X17113515Y-12776746D02*
X17123039Y-12757698D01*
X17123039Y-12757698D02*
X17132563Y-12748174D01*
X17132563Y-12748174D02*
X17151611Y-12738650D01*
X17151611Y-12738650D02*
X17180182Y-12738650D01*
X17180182Y-12738650D02*
X17199230Y-12748174D01*
X17199230Y-12748174D02*
X17208753Y-12757698D01*
X17208753Y-12757698D02*
X17218277Y-12776746D01*
X17218277Y-12776746D02*
X17218277Y-12833888D01*
X17218277Y-12833888D02*
X17208753Y-12852936D01*
X17208753Y-12852936D02*
X17199230Y-12862460D01*
X17199230Y-12862460D02*
X17180182Y-12871984D01*
X17180182Y-12871984D02*
X17151611Y-12871984D01*
X17332563Y-12871984D02*
X17313515Y-12862460D01*
X17313515Y-12862460D02*
X17303992Y-12843412D01*
X17303992Y-12843412D02*
X17303992Y-12671984D01*
X17484944Y-12862460D02*
X17465896Y-12871984D01*
X17465896Y-12871984D02*
X17427801Y-12871984D01*
X17427801Y-12871984D02*
X17408753Y-12862460D01*
X17408753Y-12862460D02*
X17399230Y-12843412D01*
X17399230Y-12843412D02*
X17399230Y-12767222D01*
X17399230Y-12767222D02*
X17408753Y-12748174D01*
X17408753Y-12748174D02*
X17427801Y-12738650D01*
X17427801Y-12738650D02*
X17465896Y-12738650D01*
X17465896Y-12738650D02*
X17484944Y-12748174D01*
X17484944Y-12748174D02*
X17494468Y-12767222D01*
X17494468Y-12767222D02*
X17494468Y-12786269D01*
X17494468Y-12786269D02*
X17399230Y-12805317D01*
X17570658Y-12862460D02*
X17589706Y-12871984D01*
X17589706Y-12871984D02*
X17627801Y-12871984D01*
X17627801Y-12871984D02*
X17646849Y-12862460D01*
X17646849Y-12862460D02*
X17656373Y-12843412D01*
X17656373Y-12843412D02*
X17656373Y-12833888D01*
X17656373Y-12833888D02*
X17646849Y-12814841D01*
X17646849Y-12814841D02*
X17627801Y-12805317D01*
X17627801Y-12805317D02*
X17599230Y-12805317D01*
X17599230Y-12805317D02*
X17580182Y-12795793D01*
X17580182Y-12795793D02*
X17570658Y-12776746D01*
X17570658Y-12776746D02*
X17570658Y-12767222D01*
X17570658Y-12767222D02*
X17580182Y-12748174D01*
X17580182Y-12748174D02*
X17599230Y-12738650D01*
X17599230Y-12738650D02*
X17627801Y-12738650D01*
X17627801Y-12738650D02*
X17646849Y-12748174D01*
X17723039Y-12948174D02*
X17732563Y-12938650D01*
X17732563Y-12938650D02*
X17751611Y-12910079D01*
X17751611Y-12910079D02*
X17761134Y-12891031D01*
X17761134Y-12891031D02*
X17770658Y-12862460D01*
X17770658Y-12862460D02*
X17780182Y-12814841D01*
X17780182Y-12814841D02*
X17780182Y-12776746D01*
X17780182Y-12776746D02*
X17770658Y-12729127D01*
X17770658Y-12729127D02*
X17761134Y-12700555D01*
X17761134Y-12700555D02*
X17751611Y-12681508D01*
X17751611Y-12681508D02*
X17732563Y-12652936D01*
X17732563Y-12652936D02*
X17723039Y-12643412D01*
X12728211Y-13115211D02*
X12728211Y-12973789D01*
X12586789Y-12973789D01*
X12586789Y-13115211D01*
X12728211Y-13115211D01*
X13008753Y-12955031D02*
X13018277Y-12945508D01*
X13018277Y-12945508D02*
X13037324Y-12935984D01*
X13037324Y-12935984D02*
X13084943Y-12935984D01*
X13084943Y-12935984D02*
X13103991Y-12945508D01*
X13103991Y-12945508D02*
X13113515Y-12955031D01*
X13113515Y-12955031D02*
X13123039Y-12974079D01*
X13123039Y-12974079D02*
X13123039Y-12993127D01*
X13123039Y-12993127D02*
X13113515Y-13021698D01*
X13113515Y-13021698D02*
X12999229Y-13135984D01*
X12999229Y-13135984D02*
X13123039Y-13135984D01*
X13208753Y-13116936D02*
X13218277Y-13126460D01*
X13218277Y-13126460D02*
X13208753Y-13135984D01*
X13208753Y-13135984D02*
X13199229Y-13126460D01*
X13199229Y-13126460D02*
X13208753Y-13116936D01*
X13208753Y-13116936D02*
X13208753Y-13135984D01*
X13294467Y-12955031D02*
X13303991Y-12945508D01*
X13303991Y-12945508D02*
X13323039Y-12935984D01*
X13323039Y-12935984D02*
X13370658Y-12935984D01*
X13370658Y-12935984D02*
X13389705Y-12945508D01*
X13389705Y-12945508D02*
X13399229Y-12955031D01*
X13399229Y-12955031D02*
X13408753Y-12974079D01*
X13408753Y-12974079D02*
X13408753Y-12993127D01*
X13408753Y-12993127D02*
X13399229Y-13021698D01*
X13399229Y-13021698D02*
X13284943Y-13135984D01*
X13284943Y-13135984D02*
X13408753Y-13135984D01*
X13532562Y-12935984D02*
X13551610Y-12935984D01*
X13551610Y-12935984D02*
X13570658Y-12945508D01*
X13570658Y-12945508D02*
X13580182Y-12955031D01*
X13580182Y-12955031D02*
X13589705Y-12974079D01*
X13589705Y-12974079D02*
X13599229Y-13012174D01*
X13599229Y-13012174D02*
X13599229Y-13059793D01*
X13599229Y-13059793D02*
X13589705Y-13097888D01*
X13589705Y-13097888D02*
X13580182Y-13116936D01*
X13580182Y-13116936D02*
X13570658Y-13126460D01*
X13570658Y-13126460D02*
X13551610Y-13135984D01*
X13551610Y-13135984D02*
X13532562Y-13135984D01*
X13532562Y-13135984D02*
X13513515Y-13126460D01*
X13513515Y-13126460D02*
X13503991Y-13116936D01*
X13503991Y-13116936D02*
X13494467Y-13097888D01*
X13494467Y-13097888D02*
X13484943Y-13059793D01*
X13484943Y-13059793D02*
X13484943Y-13012174D01*
X13484943Y-13012174D02*
X13494467Y-12974079D01*
X13494467Y-12974079D02*
X13503991Y-12955031D01*
X13503991Y-12955031D02*
X13513515Y-12945508D01*
X13513515Y-12945508D02*
X13532562Y-12935984D01*
X13723039Y-12935984D02*
X13742086Y-12935984D01*
X13742086Y-12935984D02*
X13761134Y-12945508D01*
X13761134Y-12945508D02*
X13770658Y-12955031D01*
X13770658Y-12955031D02*
X13780182Y-12974079D01*
X13780182Y-12974079D02*
X13789705Y-13012174D01*
X13789705Y-13012174D02*
X13789705Y-13059793D01*
X13789705Y-13059793D02*
X13780182Y-13097888D01*
X13780182Y-13097888D02*
X13770658Y-13116936D01*
X13770658Y-13116936D02*
X13761134Y-13126460D01*
X13761134Y-13126460D02*
X13742086Y-13135984D01*
X13742086Y-13135984D02*
X13723039Y-13135984D01*
X13723039Y-13135984D02*
X13703991Y-13126460D01*
X13703991Y-13126460D02*
X13694467Y-13116936D01*
X13694467Y-13116936D02*
X13684943Y-13097888D01*
X13684943Y-13097888D02*
X13675420Y-13059793D01*
X13675420Y-13059793D02*
X13675420Y-13012174D01*
X13675420Y-13012174D02*
X13684943Y-12974079D01*
X13684943Y-12974079D02*
X13694467Y-12955031D01*
X13694467Y-12955031D02*
X13703991Y-12945508D01*
X13703991Y-12945508D02*
X13723039Y-12935984D01*
X13875420Y-13135984D02*
X13875420Y-13002650D01*
X13875420Y-13021698D02*
X13884943Y-13012174D01*
X13884943Y-13012174D02*
X13903991Y-13002650D01*
X13903991Y-13002650D02*
X13932563Y-13002650D01*
X13932563Y-13002650D02*
X13951610Y-13012174D01*
X13951610Y-13012174D02*
X13961134Y-13031222D01*
X13961134Y-13031222D02*
X13961134Y-13135984D01*
X13961134Y-13031222D02*
X13970658Y-13012174D01*
X13970658Y-13012174D02*
X13989705Y-13002650D01*
X13989705Y-13002650D02*
X14018277Y-13002650D01*
X14018277Y-13002650D02*
X14037324Y-13012174D01*
X14037324Y-13012174D02*
X14046848Y-13031222D01*
X14046848Y-13031222D02*
X14046848Y-13135984D01*
X14142086Y-13135984D02*
X14142086Y-13002650D01*
X14142086Y-13021698D02*
X14151610Y-13012174D01*
X14151610Y-13012174D02*
X14170658Y-13002650D01*
X14170658Y-13002650D02*
X14199229Y-13002650D01*
X14199229Y-13002650D02*
X14218277Y-13012174D01*
X14218277Y-13012174D02*
X14227801Y-13031222D01*
X14227801Y-13031222D02*
X14227801Y-13135984D01*
X14227801Y-13031222D02*
X14237324Y-13012174D01*
X14237324Y-13012174D02*
X14256372Y-13002650D01*
X14256372Y-13002650D02*
X14284943Y-13002650D01*
X14284943Y-13002650D02*
X14303991Y-13012174D01*
X14303991Y-13012174D02*
X14313515Y-13031222D01*
X14313515Y-13031222D02*
X14313515Y-13135984D01*
X14703991Y-12926460D02*
X14532563Y-13183603D01*
X14961134Y-12935984D02*
X14980182Y-12935984D01*
X14980182Y-12935984D02*
X14999229Y-12945508D01*
X14999229Y-12945508D02*
X15008753Y-12955031D01*
X15008753Y-12955031D02*
X15018277Y-12974079D01*
X15018277Y-12974079D02*
X15027801Y-13012174D01*
X15027801Y-13012174D02*
X15027801Y-13059793D01*
X15027801Y-13059793D02*
X15018277Y-13097888D01*
X15018277Y-13097888D02*
X15008753Y-13116936D01*
X15008753Y-13116936D02*
X14999229Y-13126460D01*
X14999229Y-13126460D02*
X14980182Y-13135984D01*
X14980182Y-13135984D02*
X14961134Y-13135984D01*
X14961134Y-13135984D02*
X14942086Y-13126460D01*
X14942086Y-13126460D02*
X14932563Y-13116936D01*
X14932563Y-13116936D02*
X14923039Y-13097888D01*
X14923039Y-13097888D02*
X14913515Y-13059793D01*
X14913515Y-13059793D02*
X14913515Y-13012174D01*
X14913515Y-13012174D02*
X14923039Y-12974079D01*
X14923039Y-12974079D02*
X14932563Y-12955031D01*
X14932563Y-12955031D02*
X14942086Y-12945508D01*
X14942086Y-12945508D02*
X14961134Y-12935984D01*
X15113515Y-13116936D02*
X15123039Y-13126460D01*
X15123039Y-13126460D02*
X15113515Y-13135984D01*
X15113515Y-13135984D02*
X15103991Y-13126460D01*
X15103991Y-13126460D02*
X15113515Y-13116936D01*
X15113515Y-13116936D02*
X15113515Y-13135984D01*
X15246848Y-12935984D02*
X15265896Y-12935984D01*
X15265896Y-12935984D02*
X15284944Y-12945508D01*
X15284944Y-12945508D02*
X15294467Y-12955031D01*
X15294467Y-12955031D02*
X15303991Y-12974079D01*
X15303991Y-12974079D02*
X15313515Y-13012174D01*
X15313515Y-13012174D02*
X15313515Y-13059793D01*
X15313515Y-13059793D02*
X15303991Y-13097888D01*
X15303991Y-13097888D02*
X15294467Y-13116936D01*
X15294467Y-13116936D02*
X15284944Y-13126460D01*
X15284944Y-13126460D02*
X15265896Y-13135984D01*
X15265896Y-13135984D02*
X15246848Y-13135984D01*
X15246848Y-13135984D02*
X15227801Y-13126460D01*
X15227801Y-13126460D02*
X15218277Y-13116936D01*
X15218277Y-13116936D02*
X15208753Y-13097888D01*
X15208753Y-13097888D02*
X15199229Y-13059793D01*
X15199229Y-13059793D02*
X15199229Y-13012174D01*
X15199229Y-13012174D02*
X15208753Y-12974079D01*
X15208753Y-12974079D02*
X15218277Y-12955031D01*
X15218277Y-12955031D02*
X15227801Y-12945508D01*
X15227801Y-12945508D02*
X15246848Y-12935984D01*
X15427801Y-13021698D02*
X15408753Y-13012174D01*
X15408753Y-13012174D02*
X15399229Y-13002650D01*
X15399229Y-13002650D02*
X15389706Y-12983603D01*
X15389706Y-12983603D02*
X15389706Y-12974079D01*
X15389706Y-12974079D02*
X15399229Y-12955031D01*
X15399229Y-12955031D02*
X15408753Y-12945508D01*
X15408753Y-12945508D02*
X15427801Y-12935984D01*
X15427801Y-12935984D02*
X15465896Y-12935984D01*
X15465896Y-12935984D02*
X15484944Y-12945508D01*
X15484944Y-12945508D02*
X15494467Y-12955031D01*
X15494467Y-12955031D02*
X15503991Y-12974079D01*
X15503991Y-12974079D02*
X15503991Y-12983603D01*
X15503991Y-12983603D02*
X15494467Y-13002650D01*
X15494467Y-13002650D02*
X15484944Y-13012174D01*
X15484944Y-13012174D02*
X15465896Y-13021698D01*
X15465896Y-13021698D02*
X15427801Y-13021698D01*
X15427801Y-13021698D02*
X15408753Y-13031222D01*
X15408753Y-13031222D02*
X15399229Y-13040746D01*
X15399229Y-13040746D02*
X15389706Y-13059793D01*
X15389706Y-13059793D02*
X15389706Y-13097888D01*
X15389706Y-13097888D02*
X15399229Y-13116936D01*
X15399229Y-13116936D02*
X15408753Y-13126460D01*
X15408753Y-13126460D02*
X15427801Y-13135984D01*
X15427801Y-13135984D02*
X15465896Y-13135984D01*
X15465896Y-13135984D02*
X15484944Y-13126460D01*
X15484944Y-13126460D02*
X15494467Y-13116936D01*
X15494467Y-13116936D02*
X15503991Y-13097888D01*
X15503991Y-13097888D02*
X15503991Y-13059793D01*
X15503991Y-13059793D02*
X15494467Y-13040746D01*
X15494467Y-13040746D02*
X15484944Y-13031222D01*
X15484944Y-13031222D02*
X15465896Y-13021698D01*
X15675420Y-12935984D02*
X15637325Y-12935984D01*
X15637325Y-12935984D02*
X15618277Y-12945508D01*
X15618277Y-12945508D02*
X15608753Y-12955031D01*
X15608753Y-12955031D02*
X15589706Y-12983603D01*
X15589706Y-12983603D02*
X15580182Y-13021698D01*
X15580182Y-13021698D02*
X15580182Y-13097888D01*
X15580182Y-13097888D02*
X15589706Y-13116936D01*
X15589706Y-13116936D02*
X15599229Y-13126460D01*
X15599229Y-13126460D02*
X15618277Y-13135984D01*
X15618277Y-13135984D02*
X15656372Y-13135984D01*
X15656372Y-13135984D02*
X15675420Y-13126460D01*
X15675420Y-13126460D02*
X15684944Y-13116936D01*
X15684944Y-13116936D02*
X15694467Y-13097888D01*
X15694467Y-13097888D02*
X15694467Y-13050269D01*
X15694467Y-13050269D02*
X15684944Y-13031222D01*
X15684944Y-13031222D02*
X15675420Y-13021698D01*
X15675420Y-13021698D02*
X15656372Y-13012174D01*
X15656372Y-13012174D02*
X15618277Y-13012174D01*
X15618277Y-13012174D02*
X15599229Y-13021698D01*
X15599229Y-13021698D02*
X15589706Y-13031222D01*
X15589706Y-13031222D02*
X15580182Y-13050269D01*
X15865896Y-12935984D02*
X15827801Y-12935984D01*
X15827801Y-12935984D02*
X15808753Y-12945508D01*
X15808753Y-12945508D02*
X15799229Y-12955031D01*
X15799229Y-12955031D02*
X15780182Y-12983603D01*
X15780182Y-12983603D02*
X15770658Y-13021698D01*
X15770658Y-13021698D02*
X15770658Y-13097888D01*
X15770658Y-13097888D02*
X15780182Y-13116936D01*
X15780182Y-13116936D02*
X15789706Y-13126460D01*
X15789706Y-13126460D02*
X15808753Y-13135984D01*
X15808753Y-13135984D02*
X15846848Y-13135984D01*
X15846848Y-13135984D02*
X15865896Y-13126460D01*
X15865896Y-13126460D02*
X15875420Y-13116936D01*
X15875420Y-13116936D02*
X15884944Y-13097888D01*
X15884944Y-13097888D02*
X15884944Y-13050269D01*
X15884944Y-13050269D02*
X15875420Y-13031222D01*
X15875420Y-13031222D02*
X15865896Y-13021698D01*
X15865896Y-13021698D02*
X15846848Y-13012174D01*
X15846848Y-13012174D02*
X15808753Y-13012174D01*
X15808753Y-13012174D02*
X15789706Y-13021698D01*
X15789706Y-13021698D02*
X15780182Y-13031222D01*
X15780182Y-13031222D02*
X15770658Y-13050269D01*
X15961134Y-12935984D02*
X15961134Y-12974079D01*
X16037325Y-12935984D02*
X16037325Y-12974079D01*
X16332563Y-13212174D02*
X16323039Y-13202650D01*
X16323039Y-13202650D02*
X16303991Y-13174079D01*
X16303991Y-13174079D02*
X16294468Y-13155031D01*
X16294468Y-13155031D02*
X16284944Y-13126460D01*
X16284944Y-13126460D02*
X16275420Y-13078841D01*
X16275420Y-13078841D02*
X16275420Y-13040746D01*
X16275420Y-13040746D02*
X16284944Y-12993127D01*
X16284944Y-12993127D02*
X16294468Y-12964555D01*
X16294468Y-12964555D02*
X16303991Y-12945508D01*
X16303991Y-12945508D02*
X16323039Y-12916936D01*
X16323039Y-12916936D02*
X16332563Y-12907412D01*
X16494468Y-13002650D02*
X16494468Y-13135984D01*
X16446848Y-12926460D02*
X16399229Y-13069317D01*
X16399229Y-13069317D02*
X16523039Y-13069317D01*
X16751610Y-13135984D02*
X16751610Y-12935984D01*
X16837325Y-13135984D02*
X16837325Y-13031222D01*
X16837325Y-13031222D02*
X16827801Y-13012174D01*
X16827801Y-13012174D02*
X16808753Y-13002650D01*
X16808753Y-13002650D02*
X16780182Y-13002650D01*
X16780182Y-13002650D02*
X16761134Y-13012174D01*
X16761134Y-13012174D02*
X16751610Y-13021698D01*
X16961134Y-13135984D02*
X16942087Y-13126460D01*
X16942087Y-13126460D02*
X16932563Y-13116936D01*
X16932563Y-13116936D02*
X16923039Y-13097888D01*
X16923039Y-13097888D02*
X16923039Y-13040746D01*
X16923039Y-13040746D02*
X16932563Y-13021698D01*
X16932563Y-13021698D02*
X16942087Y-13012174D01*
X16942087Y-13012174D02*
X16961134Y-13002650D01*
X16961134Y-13002650D02*
X16989706Y-13002650D01*
X16989706Y-13002650D02*
X17008753Y-13012174D01*
X17008753Y-13012174D02*
X17018277Y-13021698D01*
X17018277Y-13021698D02*
X17027801Y-13040746D01*
X17027801Y-13040746D02*
X17027801Y-13097888D01*
X17027801Y-13097888D02*
X17018277Y-13116936D01*
X17018277Y-13116936D02*
X17008753Y-13126460D01*
X17008753Y-13126460D02*
X16989706Y-13135984D01*
X16989706Y-13135984D02*
X16961134Y-13135984D01*
X17142087Y-13135984D02*
X17123039Y-13126460D01*
X17123039Y-13126460D02*
X17113515Y-13107412D01*
X17113515Y-13107412D02*
X17113515Y-12935984D01*
X17294468Y-13126460D02*
X17275420Y-13135984D01*
X17275420Y-13135984D02*
X17237325Y-13135984D01*
X17237325Y-13135984D02*
X17218277Y-13126460D01*
X17218277Y-13126460D02*
X17208753Y-13107412D01*
X17208753Y-13107412D02*
X17208753Y-13031222D01*
X17208753Y-13031222D02*
X17218277Y-13012174D01*
X17218277Y-13012174D02*
X17237325Y-13002650D01*
X17237325Y-13002650D02*
X17275420Y-13002650D01*
X17275420Y-13002650D02*
X17294468Y-13012174D01*
X17294468Y-13012174D02*
X17303992Y-13031222D01*
X17303992Y-13031222D02*
X17303992Y-13050269D01*
X17303992Y-13050269D02*
X17208753Y-13069317D01*
X17380182Y-13126460D02*
X17399230Y-13135984D01*
X17399230Y-13135984D02*
X17437325Y-13135984D01*
X17437325Y-13135984D02*
X17456373Y-13126460D01*
X17456373Y-13126460D02*
X17465896Y-13107412D01*
X17465896Y-13107412D02*
X17465896Y-13097888D01*
X17465896Y-13097888D02*
X17456373Y-13078841D01*
X17456373Y-13078841D02*
X17437325Y-13069317D01*
X17437325Y-13069317D02*
X17408753Y-13069317D01*
X17408753Y-13069317D02*
X17389706Y-13059793D01*
X17389706Y-13059793D02*
X17380182Y-13040746D01*
X17380182Y-13040746D02*
X17380182Y-13031222D01*
X17380182Y-13031222D02*
X17389706Y-13012174D01*
X17389706Y-13012174D02*
X17408753Y-13002650D01*
X17408753Y-13002650D02*
X17437325Y-13002650D01*
X17437325Y-13002650D02*
X17456373Y-13012174D01*
X17532563Y-13212174D02*
X17542087Y-13202650D01*
X17542087Y-13202650D02*
X17561134Y-13174079D01*
X17561134Y-13174079D02*
X17570658Y-13155031D01*
X17570658Y-13155031D02*
X17580182Y-13126460D01*
X17580182Y-13126460D02*
X17589706Y-13078841D01*
X17589706Y-13078841D02*
X17589706Y-13040746D01*
X17589706Y-13040746D02*
X17580182Y-12993127D01*
X17580182Y-12993127D02*
X17570658Y-12964555D01*
X17570658Y-12964555D02*
X17561134Y-12945508D01*
X17561134Y-12945508D02*
X17542087Y-12916936D01*
X17542087Y-12916936D02*
X17532563Y-12907412D01*
M02*
