G04 #@! TF.GenerationSoftware,KiCad,Pcbnew,8.0.3*
G04 #@! TF.CreationDate,2026-02-23T19:35:16-08:00*
G04 #@! TF.ProjectId,Capstone_Signal_Processing,43617073-746f-46e6-955f-5369676e616c,rev?*
G04 #@! TF.SameCoordinates,Original*
G04 #@! TF.FileFunction,Legend,Top*
G04 #@! TF.FilePolarity,Positive*
%FSLAX46Y46*%
G04 Gerber Fmt 4.6, Leading zero omitted, Abs format (unit mm)*
G04 Created by KiCad (PCBNEW 8.0.3) date 2026-02-23 19:35:16*
%MOMM*%
%LPD*%
G01*
G04 APERTURE LIST*
G04 Aperture macros list*
%AMRoundRect*
0 Rectangle with rounded corners*
0 $1 Rounding radius*
0 $2 $3 $4 $5 $6 $7 $8 $9 X,Y pos of 4 corners*
0 Add a 4 corners polygon primitive as box body*
4,1,4,$2,$3,$4,$5,$6,$7,$8,$9,$2,$3,0*
0 Add four circle primitives for the rounded corners*
1,1,$1+$1,$2,$3*
1,1,$1+$1,$4,$5*
1,1,$1+$1,$6,$7*
1,1,$1+$1,$8,$9*
0 Add four rect primitives between the rounded corners*
20,1,$1+$1,$2,$3,$4,$5,0*
20,1,$1+$1,$4,$5,$6,$7,0*
20,1,$1+$1,$6,$7,$8,$9,0*
20,1,$1+$1,$8,$9,$2,$3,0*%
G04 Aperture macros list end*
%ADD10C,0.150000*%
%ADD11C,0.120000*%
%ADD12C,0.152400*%
%ADD13C,0.000000*%
%ADD14C,4.400000*%
%ADD15C,1.200000*%
%ADD16RoundRect,0.250000X-0.600000X-0.750000X0.600000X-0.750000X0.600000X0.750000X-0.600000X0.750000X0*%
%ADD17O,1.700000X2.000000*%
%ADD18RoundRect,0.250000X-0.475000X0.337500X-0.475000X-0.337500X0.475000X-0.337500X0.475000X0.337500X0*%
%ADD19RoundRect,0.250000X0.750000X-0.600000X0.750000X0.600000X-0.750000X0.600000X-0.750000X-0.600000X0*%
%ADD20O,2.000000X1.700000*%
%ADD21R,0.762000X0.254000*%
%ADD22R,0.254000X0.762000*%
%ADD23R,2.692400X4.699000*%
%ADD24RoundRect,0.250000X0.475000X-0.337500X0.475000X0.337500X-0.475000X0.337500X-0.475000X-0.337500X0*%
%ADD25RoundRect,0.250000X-0.450000X0.350000X-0.450000X-0.350000X0.450000X-0.350000X0.450000X0.350000X0*%
%ADD26RoundRect,0.250000X0.350000X0.450000X-0.350000X0.450000X-0.350000X-0.450000X0.350000X-0.450000X0*%
%ADD27RoundRect,0.250000X0.600000X0.750000X-0.600000X0.750000X-0.600000X-0.750000X0.600000X-0.750000X0*%
%ADD28RoundRect,0.250000X-0.600000X-0.725000X0.600000X-0.725000X0.600000X0.725000X-0.600000X0.725000X0*%
%ADD29O,1.700000X1.950000*%
%ADD30RoundRect,0.250000X-0.750000X0.600000X-0.750000X-0.600000X0.750000X-0.600000X0.750000X0.600000X0*%
G04 APERTURE END LIST*
D10*
X141816666Y-81004819D02*
X141816666Y-81719104D01*
X141816666Y-81719104D02*
X141769047Y-81861961D01*
X141769047Y-81861961D02*
X141673809Y-81957200D01*
X141673809Y-81957200D02*
X141530952Y-82004819D01*
X141530952Y-82004819D02*
X141435714Y-82004819D01*
X142816666Y-82004819D02*
X142245238Y-82004819D01*
X142530952Y-82004819D02*
X142530952Y-81004819D01*
X142530952Y-81004819D02*
X142435714Y-81147676D01*
X142435714Y-81147676D02*
X142340476Y-81242914D01*
X142340476Y-81242914D02*
X142245238Y-81290533D01*
X138633333Y-93559580D02*
X138585714Y-93607200D01*
X138585714Y-93607200D02*
X138442857Y-93654819D01*
X138442857Y-93654819D02*
X138347619Y-93654819D01*
X138347619Y-93654819D02*
X138204762Y-93607200D01*
X138204762Y-93607200D02*
X138109524Y-93511961D01*
X138109524Y-93511961D02*
X138061905Y-93416723D01*
X138061905Y-93416723D02*
X138014286Y-93226247D01*
X138014286Y-93226247D02*
X138014286Y-93083390D01*
X138014286Y-93083390D02*
X138061905Y-92892914D01*
X138061905Y-92892914D02*
X138109524Y-92797676D01*
X138109524Y-92797676D02*
X138204762Y-92702438D01*
X138204762Y-92702438D02*
X138347619Y-92654819D01*
X138347619Y-92654819D02*
X138442857Y-92654819D01*
X138442857Y-92654819D02*
X138585714Y-92702438D01*
X138585714Y-92702438D02*
X138633333Y-92750057D01*
X138966667Y-92654819D02*
X139585714Y-92654819D01*
X139585714Y-92654819D02*
X139252381Y-93035771D01*
X139252381Y-93035771D02*
X139395238Y-93035771D01*
X139395238Y-93035771D02*
X139490476Y-93083390D01*
X139490476Y-93083390D02*
X139538095Y-93131009D01*
X139538095Y-93131009D02*
X139585714Y-93226247D01*
X139585714Y-93226247D02*
X139585714Y-93464342D01*
X139585714Y-93464342D02*
X139538095Y-93559580D01*
X139538095Y-93559580D02*
X139490476Y-93607200D01*
X139490476Y-93607200D02*
X139395238Y-93654819D01*
X139395238Y-93654819D02*
X139109524Y-93654819D01*
X139109524Y-93654819D02*
X139014286Y-93607200D01*
X139014286Y-93607200D02*
X138966667Y-93559580D01*
X141533333Y-102959580D02*
X141485714Y-103007200D01*
X141485714Y-103007200D02*
X141342857Y-103054819D01*
X141342857Y-103054819D02*
X141247619Y-103054819D01*
X141247619Y-103054819D02*
X141104762Y-103007200D01*
X141104762Y-103007200D02*
X141009524Y-102911961D01*
X141009524Y-102911961D02*
X140961905Y-102816723D01*
X140961905Y-102816723D02*
X140914286Y-102626247D01*
X140914286Y-102626247D02*
X140914286Y-102483390D01*
X140914286Y-102483390D02*
X140961905Y-102292914D01*
X140961905Y-102292914D02*
X141009524Y-102197676D01*
X141009524Y-102197676D02*
X141104762Y-102102438D01*
X141104762Y-102102438D02*
X141247619Y-102054819D01*
X141247619Y-102054819D02*
X141342857Y-102054819D01*
X141342857Y-102054819D02*
X141485714Y-102102438D01*
X141485714Y-102102438D02*
X141533333Y-102150057D01*
X142390476Y-102054819D02*
X142200000Y-102054819D01*
X142200000Y-102054819D02*
X142104762Y-102102438D01*
X142104762Y-102102438D02*
X142057143Y-102150057D01*
X142057143Y-102150057D02*
X141961905Y-102292914D01*
X141961905Y-102292914D02*
X141914286Y-102483390D01*
X141914286Y-102483390D02*
X141914286Y-102864342D01*
X141914286Y-102864342D02*
X141961905Y-102959580D01*
X141961905Y-102959580D02*
X142009524Y-103007200D01*
X142009524Y-103007200D02*
X142104762Y-103054819D01*
X142104762Y-103054819D02*
X142295238Y-103054819D01*
X142295238Y-103054819D02*
X142390476Y-103007200D01*
X142390476Y-103007200D02*
X142438095Y-102959580D01*
X142438095Y-102959580D02*
X142485714Y-102864342D01*
X142485714Y-102864342D02*
X142485714Y-102626247D01*
X142485714Y-102626247D02*
X142438095Y-102531009D01*
X142438095Y-102531009D02*
X142390476Y-102483390D01*
X142390476Y-102483390D02*
X142295238Y-102435771D01*
X142295238Y-102435771D02*
X142104762Y-102435771D01*
X142104762Y-102435771D02*
X142009524Y-102483390D01*
X142009524Y-102483390D02*
X141961905Y-102531009D01*
X141961905Y-102531009D02*
X141914286Y-102626247D01*
X136066666Y-104554819D02*
X136066666Y-105269104D01*
X136066666Y-105269104D02*
X136019047Y-105411961D01*
X136019047Y-105411961D02*
X135923809Y-105507200D01*
X135923809Y-105507200D02*
X135780952Y-105554819D01*
X135780952Y-105554819D02*
X135685714Y-105554819D01*
X136971428Y-104554819D02*
X136780952Y-104554819D01*
X136780952Y-104554819D02*
X136685714Y-104602438D01*
X136685714Y-104602438D02*
X136638095Y-104650057D01*
X136638095Y-104650057D02*
X136542857Y-104792914D01*
X136542857Y-104792914D02*
X136495238Y-104983390D01*
X136495238Y-104983390D02*
X136495238Y-105364342D01*
X136495238Y-105364342D02*
X136542857Y-105459580D01*
X136542857Y-105459580D02*
X136590476Y-105507200D01*
X136590476Y-105507200D02*
X136685714Y-105554819D01*
X136685714Y-105554819D02*
X136876190Y-105554819D01*
X136876190Y-105554819D02*
X136971428Y-105507200D01*
X136971428Y-105507200D02*
X137019047Y-105459580D01*
X137019047Y-105459580D02*
X137066666Y-105364342D01*
X137066666Y-105364342D02*
X137066666Y-105126247D01*
X137066666Y-105126247D02*
X137019047Y-105031009D01*
X137019047Y-105031009D02*
X136971428Y-104983390D01*
X136971428Y-104983390D02*
X136876190Y-104935771D01*
X136876190Y-104935771D02*
X136685714Y-104935771D01*
X136685714Y-104935771D02*
X136590476Y-104983390D01*
X136590476Y-104983390D02*
X136542857Y-105031009D01*
X136542857Y-105031009D02*
X136495238Y-105126247D01*
X149438095Y-102954819D02*
X149438095Y-103764342D01*
X149438095Y-103764342D02*
X149485714Y-103859580D01*
X149485714Y-103859580D02*
X149533333Y-103907200D01*
X149533333Y-103907200D02*
X149628571Y-103954819D01*
X149628571Y-103954819D02*
X149819047Y-103954819D01*
X149819047Y-103954819D02*
X149914285Y-103907200D01*
X149914285Y-103907200D02*
X149961904Y-103859580D01*
X149961904Y-103859580D02*
X150009523Y-103764342D01*
X150009523Y-103764342D02*
X150009523Y-102954819D01*
X151009523Y-103954819D02*
X150438095Y-103954819D01*
X150723809Y-103954819D02*
X150723809Y-102954819D01*
X150723809Y-102954819D02*
X150628571Y-103097676D01*
X150628571Y-103097676D02*
X150533333Y-103192914D01*
X150533333Y-103192914D02*
X150438095Y-103240533D01*
X144700000Y-95354819D02*
X144700000Y-95592914D01*
X144461905Y-95497676D02*
X144700000Y-95592914D01*
X144700000Y-95592914D02*
X144938095Y-95497676D01*
X144557143Y-95783390D02*
X144700000Y-95592914D01*
X144700000Y-95592914D02*
X144842857Y-95783390D01*
X144700000Y-95354819D02*
X144700000Y-95592914D01*
X144461905Y-95497676D02*
X144700000Y-95592914D01*
X144700000Y-95592914D02*
X144938095Y-95497676D01*
X144557143Y-95783390D02*
X144700000Y-95592914D01*
X144700000Y-95592914D02*
X144842857Y-95783390D01*
X143633333Y-107359580D02*
X143585714Y-107407200D01*
X143585714Y-107407200D02*
X143442857Y-107454819D01*
X143442857Y-107454819D02*
X143347619Y-107454819D01*
X143347619Y-107454819D02*
X143204762Y-107407200D01*
X143204762Y-107407200D02*
X143109524Y-107311961D01*
X143109524Y-107311961D02*
X143061905Y-107216723D01*
X143061905Y-107216723D02*
X143014286Y-107026247D01*
X143014286Y-107026247D02*
X143014286Y-106883390D01*
X143014286Y-106883390D02*
X143061905Y-106692914D01*
X143061905Y-106692914D02*
X143109524Y-106597676D01*
X143109524Y-106597676D02*
X143204762Y-106502438D01*
X143204762Y-106502438D02*
X143347619Y-106454819D01*
X143347619Y-106454819D02*
X143442857Y-106454819D01*
X143442857Y-106454819D02*
X143585714Y-106502438D01*
X143585714Y-106502438D02*
X143633333Y-106550057D01*
X143966667Y-106454819D02*
X144633333Y-106454819D01*
X144633333Y-106454819D02*
X144204762Y-107454819D01*
X141233333Y-93597080D02*
X141185714Y-93644700D01*
X141185714Y-93644700D02*
X141042857Y-93692319D01*
X141042857Y-93692319D02*
X140947619Y-93692319D01*
X140947619Y-93692319D02*
X140804762Y-93644700D01*
X140804762Y-93644700D02*
X140709524Y-93549461D01*
X140709524Y-93549461D02*
X140661905Y-93454223D01*
X140661905Y-93454223D02*
X140614286Y-93263747D01*
X140614286Y-93263747D02*
X140614286Y-93120890D01*
X140614286Y-93120890D02*
X140661905Y-92930414D01*
X140661905Y-92930414D02*
X140709524Y-92835176D01*
X140709524Y-92835176D02*
X140804762Y-92739938D01*
X140804762Y-92739938D02*
X140947619Y-92692319D01*
X140947619Y-92692319D02*
X141042857Y-92692319D01*
X141042857Y-92692319D02*
X141185714Y-92739938D01*
X141185714Y-92739938D02*
X141233333Y-92787557D01*
X142090476Y-93025652D02*
X142090476Y-93692319D01*
X141852381Y-92644700D02*
X141614286Y-93358985D01*
X141614286Y-93358985D02*
X142233333Y-93358985D01*
X155433333Y-104559580D02*
X155385714Y-104607200D01*
X155385714Y-104607200D02*
X155242857Y-104654819D01*
X155242857Y-104654819D02*
X155147619Y-104654819D01*
X155147619Y-104654819D02*
X155004762Y-104607200D01*
X155004762Y-104607200D02*
X154909524Y-104511961D01*
X154909524Y-104511961D02*
X154861905Y-104416723D01*
X154861905Y-104416723D02*
X154814286Y-104226247D01*
X154814286Y-104226247D02*
X154814286Y-104083390D01*
X154814286Y-104083390D02*
X154861905Y-103892914D01*
X154861905Y-103892914D02*
X154909524Y-103797676D01*
X154909524Y-103797676D02*
X155004762Y-103702438D01*
X155004762Y-103702438D02*
X155147619Y-103654819D01*
X155147619Y-103654819D02*
X155242857Y-103654819D01*
X155242857Y-103654819D02*
X155385714Y-103702438D01*
X155385714Y-103702438D02*
X155433333Y-103750057D01*
X155814286Y-103750057D02*
X155861905Y-103702438D01*
X155861905Y-103702438D02*
X155957143Y-103654819D01*
X155957143Y-103654819D02*
X156195238Y-103654819D01*
X156195238Y-103654819D02*
X156290476Y-103702438D01*
X156290476Y-103702438D02*
X156338095Y-103750057D01*
X156338095Y-103750057D02*
X156385714Y-103845295D01*
X156385714Y-103845295D02*
X156385714Y-103940533D01*
X156385714Y-103940533D02*
X156338095Y-104083390D01*
X156338095Y-104083390D02*
X155766667Y-104654819D01*
X155766667Y-104654819D02*
X156385714Y-104654819D01*
X138733333Y-102959580D02*
X138685714Y-103007200D01*
X138685714Y-103007200D02*
X138542857Y-103054819D01*
X138542857Y-103054819D02*
X138447619Y-103054819D01*
X138447619Y-103054819D02*
X138304762Y-103007200D01*
X138304762Y-103007200D02*
X138209524Y-102911961D01*
X138209524Y-102911961D02*
X138161905Y-102816723D01*
X138161905Y-102816723D02*
X138114286Y-102626247D01*
X138114286Y-102626247D02*
X138114286Y-102483390D01*
X138114286Y-102483390D02*
X138161905Y-102292914D01*
X138161905Y-102292914D02*
X138209524Y-102197676D01*
X138209524Y-102197676D02*
X138304762Y-102102438D01*
X138304762Y-102102438D02*
X138447619Y-102054819D01*
X138447619Y-102054819D02*
X138542857Y-102054819D01*
X138542857Y-102054819D02*
X138685714Y-102102438D01*
X138685714Y-102102438D02*
X138733333Y-102150057D01*
X139638095Y-102054819D02*
X139161905Y-102054819D01*
X139161905Y-102054819D02*
X139114286Y-102531009D01*
X139114286Y-102531009D02*
X139161905Y-102483390D01*
X139161905Y-102483390D02*
X139257143Y-102435771D01*
X139257143Y-102435771D02*
X139495238Y-102435771D01*
X139495238Y-102435771D02*
X139590476Y-102483390D01*
X139590476Y-102483390D02*
X139638095Y-102531009D01*
X139638095Y-102531009D02*
X139685714Y-102626247D01*
X139685714Y-102626247D02*
X139685714Y-102864342D01*
X139685714Y-102864342D02*
X139638095Y-102959580D01*
X139638095Y-102959580D02*
X139590476Y-103007200D01*
X139590476Y-103007200D02*
X139495238Y-103054819D01*
X139495238Y-103054819D02*
X139257143Y-103054819D01*
X139257143Y-103054819D02*
X139161905Y-103007200D01*
X139161905Y-103007200D02*
X139114286Y-102959580D01*
X150716666Y-81004819D02*
X150716666Y-81719104D01*
X150716666Y-81719104D02*
X150669047Y-81861961D01*
X150669047Y-81861961D02*
X150573809Y-81957200D01*
X150573809Y-81957200D02*
X150430952Y-82004819D01*
X150430952Y-82004819D02*
X150335714Y-82004819D01*
X151145238Y-81100057D02*
X151192857Y-81052438D01*
X151192857Y-81052438D02*
X151288095Y-81004819D01*
X151288095Y-81004819D02*
X151526190Y-81004819D01*
X151526190Y-81004819D02*
X151621428Y-81052438D01*
X151621428Y-81052438D02*
X151669047Y-81100057D01*
X151669047Y-81100057D02*
X151716666Y-81195295D01*
X151716666Y-81195295D02*
X151716666Y-81290533D01*
X151716666Y-81290533D02*
X151669047Y-81433390D01*
X151669047Y-81433390D02*
X151097619Y-82004819D01*
X151097619Y-82004819D02*
X151716666Y-82004819D01*
X137633333Y-114254819D02*
X137300000Y-113778628D01*
X137061905Y-114254819D02*
X137061905Y-113254819D01*
X137061905Y-113254819D02*
X137442857Y-113254819D01*
X137442857Y-113254819D02*
X137538095Y-113302438D01*
X137538095Y-113302438D02*
X137585714Y-113350057D01*
X137585714Y-113350057D02*
X137633333Y-113445295D01*
X137633333Y-113445295D02*
X137633333Y-113588152D01*
X137633333Y-113588152D02*
X137585714Y-113683390D01*
X137585714Y-113683390D02*
X137538095Y-113731009D01*
X137538095Y-113731009D02*
X137442857Y-113778628D01*
X137442857Y-113778628D02*
X137061905Y-113778628D01*
X138585714Y-114254819D02*
X138014286Y-114254819D01*
X138300000Y-114254819D02*
X138300000Y-113254819D01*
X138300000Y-113254819D02*
X138204762Y-113397676D01*
X138204762Y-113397676D02*
X138109524Y-113492914D01*
X138109524Y-113492914D02*
X138014286Y-113540533D01*
X139833333Y-106454819D02*
X139500000Y-105978628D01*
X139261905Y-106454819D02*
X139261905Y-105454819D01*
X139261905Y-105454819D02*
X139642857Y-105454819D01*
X139642857Y-105454819D02*
X139738095Y-105502438D01*
X139738095Y-105502438D02*
X139785714Y-105550057D01*
X139785714Y-105550057D02*
X139833333Y-105645295D01*
X139833333Y-105645295D02*
X139833333Y-105788152D01*
X139833333Y-105788152D02*
X139785714Y-105883390D01*
X139785714Y-105883390D02*
X139738095Y-105931009D01*
X139738095Y-105931009D02*
X139642857Y-105978628D01*
X139642857Y-105978628D02*
X139261905Y-105978628D01*
X140214286Y-105550057D02*
X140261905Y-105502438D01*
X140261905Y-105502438D02*
X140357143Y-105454819D01*
X140357143Y-105454819D02*
X140595238Y-105454819D01*
X140595238Y-105454819D02*
X140690476Y-105502438D01*
X140690476Y-105502438D02*
X140738095Y-105550057D01*
X140738095Y-105550057D02*
X140785714Y-105645295D01*
X140785714Y-105645295D02*
X140785714Y-105740533D01*
X140785714Y-105740533D02*
X140738095Y-105883390D01*
X140738095Y-105883390D02*
X140166667Y-106454819D01*
X140166667Y-106454819D02*
X140785714Y-106454819D01*
X152933333Y-104559580D02*
X152885714Y-104607200D01*
X152885714Y-104607200D02*
X152742857Y-104654819D01*
X152742857Y-104654819D02*
X152647619Y-104654819D01*
X152647619Y-104654819D02*
X152504762Y-104607200D01*
X152504762Y-104607200D02*
X152409524Y-104511961D01*
X152409524Y-104511961D02*
X152361905Y-104416723D01*
X152361905Y-104416723D02*
X152314286Y-104226247D01*
X152314286Y-104226247D02*
X152314286Y-104083390D01*
X152314286Y-104083390D02*
X152361905Y-103892914D01*
X152361905Y-103892914D02*
X152409524Y-103797676D01*
X152409524Y-103797676D02*
X152504762Y-103702438D01*
X152504762Y-103702438D02*
X152647619Y-103654819D01*
X152647619Y-103654819D02*
X152742857Y-103654819D01*
X152742857Y-103654819D02*
X152885714Y-103702438D01*
X152885714Y-103702438D02*
X152933333Y-103750057D01*
X153885714Y-104654819D02*
X153314286Y-104654819D01*
X153600000Y-104654819D02*
X153600000Y-103654819D01*
X153600000Y-103654819D02*
X153504762Y-103797676D01*
X153504762Y-103797676D02*
X153409524Y-103892914D01*
X153409524Y-103892914D02*
X153314286Y-103940533D01*
X157633333Y-96159580D02*
X157585714Y-96207200D01*
X157585714Y-96207200D02*
X157442857Y-96254819D01*
X157442857Y-96254819D02*
X157347619Y-96254819D01*
X157347619Y-96254819D02*
X157204762Y-96207200D01*
X157204762Y-96207200D02*
X157109524Y-96111961D01*
X157109524Y-96111961D02*
X157061905Y-96016723D01*
X157061905Y-96016723D02*
X157014286Y-95826247D01*
X157014286Y-95826247D02*
X157014286Y-95683390D01*
X157014286Y-95683390D02*
X157061905Y-95492914D01*
X157061905Y-95492914D02*
X157109524Y-95397676D01*
X157109524Y-95397676D02*
X157204762Y-95302438D01*
X157204762Y-95302438D02*
X157347619Y-95254819D01*
X157347619Y-95254819D02*
X157442857Y-95254819D01*
X157442857Y-95254819D02*
X157585714Y-95302438D01*
X157585714Y-95302438D02*
X157633333Y-95350057D01*
X158109524Y-96254819D02*
X158300000Y-96254819D01*
X158300000Y-96254819D02*
X158395238Y-96207200D01*
X158395238Y-96207200D02*
X158442857Y-96159580D01*
X158442857Y-96159580D02*
X158538095Y-96016723D01*
X158538095Y-96016723D02*
X158585714Y-95826247D01*
X158585714Y-95826247D02*
X158585714Y-95445295D01*
X158585714Y-95445295D02*
X158538095Y-95350057D01*
X158538095Y-95350057D02*
X158490476Y-95302438D01*
X158490476Y-95302438D02*
X158395238Y-95254819D01*
X158395238Y-95254819D02*
X158204762Y-95254819D01*
X158204762Y-95254819D02*
X158109524Y-95302438D01*
X158109524Y-95302438D02*
X158061905Y-95350057D01*
X158061905Y-95350057D02*
X158014286Y-95445295D01*
X158014286Y-95445295D02*
X158014286Y-95683390D01*
X158014286Y-95683390D02*
X158061905Y-95778628D01*
X158061905Y-95778628D02*
X158109524Y-95826247D01*
X158109524Y-95826247D02*
X158204762Y-95873866D01*
X158204762Y-95873866D02*
X158395238Y-95873866D01*
X158395238Y-95873866D02*
X158490476Y-95826247D01*
X158490476Y-95826247D02*
X158538095Y-95778628D01*
X158538095Y-95778628D02*
X158585714Y-95683390D01*
X152633333Y-94859580D02*
X152585714Y-94907200D01*
X152585714Y-94907200D02*
X152442857Y-94954819D01*
X152442857Y-94954819D02*
X152347619Y-94954819D01*
X152347619Y-94954819D02*
X152204762Y-94907200D01*
X152204762Y-94907200D02*
X152109524Y-94811961D01*
X152109524Y-94811961D02*
X152061905Y-94716723D01*
X152061905Y-94716723D02*
X152014286Y-94526247D01*
X152014286Y-94526247D02*
X152014286Y-94383390D01*
X152014286Y-94383390D02*
X152061905Y-94192914D01*
X152061905Y-94192914D02*
X152109524Y-94097676D01*
X152109524Y-94097676D02*
X152204762Y-94002438D01*
X152204762Y-94002438D02*
X152347619Y-93954819D01*
X152347619Y-93954819D02*
X152442857Y-93954819D01*
X152442857Y-93954819D02*
X152585714Y-94002438D01*
X152585714Y-94002438D02*
X152633333Y-94050057D01*
X153204762Y-94383390D02*
X153109524Y-94335771D01*
X153109524Y-94335771D02*
X153061905Y-94288152D01*
X153061905Y-94288152D02*
X153014286Y-94192914D01*
X153014286Y-94192914D02*
X153014286Y-94145295D01*
X153014286Y-94145295D02*
X153061905Y-94050057D01*
X153061905Y-94050057D02*
X153109524Y-94002438D01*
X153109524Y-94002438D02*
X153204762Y-93954819D01*
X153204762Y-93954819D02*
X153395238Y-93954819D01*
X153395238Y-93954819D02*
X153490476Y-94002438D01*
X153490476Y-94002438D02*
X153538095Y-94050057D01*
X153538095Y-94050057D02*
X153585714Y-94145295D01*
X153585714Y-94145295D02*
X153585714Y-94192914D01*
X153585714Y-94192914D02*
X153538095Y-94288152D01*
X153538095Y-94288152D02*
X153490476Y-94335771D01*
X153490476Y-94335771D02*
X153395238Y-94383390D01*
X153395238Y-94383390D02*
X153204762Y-94383390D01*
X153204762Y-94383390D02*
X153109524Y-94431009D01*
X153109524Y-94431009D02*
X153061905Y-94478628D01*
X153061905Y-94478628D02*
X153014286Y-94573866D01*
X153014286Y-94573866D02*
X153014286Y-94764342D01*
X153014286Y-94764342D02*
X153061905Y-94859580D01*
X153061905Y-94859580D02*
X153109524Y-94907200D01*
X153109524Y-94907200D02*
X153204762Y-94954819D01*
X153204762Y-94954819D02*
X153395238Y-94954819D01*
X153395238Y-94954819D02*
X153490476Y-94907200D01*
X153490476Y-94907200D02*
X153538095Y-94859580D01*
X153538095Y-94859580D02*
X153585714Y-94764342D01*
X153585714Y-94764342D02*
X153585714Y-94573866D01*
X153585714Y-94573866D02*
X153538095Y-94478628D01*
X153538095Y-94478628D02*
X153490476Y-94431009D01*
X153490476Y-94431009D02*
X153395238Y-94383390D01*
X133866666Y-84754819D02*
X133866666Y-85469104D01*
X133866666Y-85469104D02*
X133819047Y-85611961D01*
X133819047Y-85611961D02*
X133723809Y-85707200D01*
X133723809Y-85707200D02*
X133580952Y-85754819D01*
X133580952Y-85754819D02*
X133485714Y-85754819D01*
X134247619Y-84754819D02*
X134914285Y-84754819D01*
X134914285Y-84754819D02*
X134485714Y-85754819D01*
X154266666Y-113354819D02*
X154266666Y-114069104D01*
X154266666Y-114069104D02*
X154219047Y-114211961D01*
X154219047Y-114211961D02*
X154123809Y-114307200D01*
X154123809Y-114307200D02*
X153980952Y-114354819D01*
X153980952Y-114354819D02*
X153885714Y-114354819D01*
X155171428Y-113688152D02*
X155171428Y-114354819D01*
X154933333Y-113307200D02*
X154695238Y-114021485D01*
X154695238Y-114021485D02*
X155314285Y-114021485D01*
X157166666Y-85054819D02*
X157166666Y-85769104D01*
X157166666Y-85769104D02*
X157119047Y-85911961D01*
X157119047Y-85911961D02*
X157023809Y-86007200D01*
X157023809Y-86007200D02*
X156880952Y-86054819D01*
X156880952Y-86054819D02*
X156785714Y-86054819D01*
X157547619Y-85054819D02*
X158166666Y-85054819D01*
X158166666Y-85054819D02*
X157833333Y-85435771D01*
X157833333Y-85435771D02*
X157976190Y-85435771D01*
X157976190Y-85435771D02*
X158071428Y-85483390D01*
X158071428Y-85483390D02*
X158119047Y-85531009D01*
X158119047Y-85531009D02*
X158166666Y-85626247D01*
X158166666Y-85626247D02*
X158166666Y-85864342D01*
X158166666Y-85864342D02*
X158119047Y-85959580D01*
X158119047Y-85959580D02*
X158071428Y-86007200D01*
X158071428Y-86007200D02*
X157976190Y-86054819D01*
X157976190Y-86054819D02*
X157690476Y-86054819D01*
X157690476Y-86054819D02*
X157595238Y-86007200D01*
X157595238Y-86007200D02*
X157547619Y-85959580D01*
X136066666Y-93354819D02*
X136066666Y-94069104D01*
X136066666Y-94069104D02*
X136019047Y-94211961D01*
X136019047Y-94211961D02*
X135923809Y-94307200D01*
X135923809Y-94307200D02*
X135780952Y-94354819D01*
X135780952Y-94354819D02*
X135685714Y-94354819D01*
X137019047Y-93354819D02*
X136542857Y-93354819D01*
X136542857Y-93354819D02*
X136495238Y-93831009D01*
X136495238Y-93831009D02*
X136542857Y-93783390D01*
X136542857Y-93783390D02*
X136638095Y-93735771D01*
X136638095Y-93735771D02*
X136876190Y-93735771D01*
X136876190Y-93735771D02*
X136971428Y-93783390D01*
X136971428Y-93783390D02*
X137019047Y-93831009D01*
X137019047Y-93831009D02*
X137066666Y-93926247D01*
X137066666Y-93926247D02*
X137066666Y-94164342D01*
X137066666Y-94164342D02*
X137019047Y-94259580D01*
X137019047Y-94259580D02*
X136971428Y-94307200D01*
X136971428Y-94307200D02*
X136876190Y-94354819D01*
X136876190Y-94354819D02*
X136638095Y-94354819D01*
X136638095Y-94354819D02*
X136542857Y-94307200D01*
X136542857Y-94307200D02*
X136495238Y-94259580D01*
D11*
X138050000Y-82350000D02*
X138050000Y-83600000D01*
X138340000Y-82640000D02*
X138340000Y-88610000D01*
X138340000Y-88610000D02*
X145960000Y-88610000D01*
X138350000Y-82650000D02*
X138350000Y-83400000D01*
X138350000Y-83400000D02*
X140150000Y-83400000D01*
X138350000Y-84900000D02*
X139100000Y-84900000D01*
X139100000Y-84900000D02*
X139100000Y-86240000D01*
X139300000Y-82350000D02*
X138050000Y-82350000D01*
X140150000Y-82650000D02*
X138350000Y-82650000D01*
X140150000Y-83400000D02*
X140150000Y-82650000D01*
X141650000Y-82650000D02*
X141650000Y-83400000D01*
X141650000Y-83400000D02*
X142650000Y-83400000D01*
X142150000Y-87850000D02*
X140160000Y-87850000D01*
X142650000Y-82650000D02*
X141650000Y-82650000D01*
X142650000Y-83400000D02*
X142650000Y-82650000D01*
X144150000Y-82650000D02*
X144150000Y-83400000D01*
X144150000Y-83400000D02*
X145950000Y-83400000D01*
X145200000Y-84900000D02*
X145200000Y-87850000D01*
X145200000Y-87850000D02*
X142150000Y-87850000D01*
X145950000Y-82650000D02*
X144150000Y-82650000D01*
X145950000Y-83400000D02*
X145950000Y-82650000D01*
X145950000Y-84900000D02*
X145200000Y-84900000D01*
X145960000Y-82640000D02*
X138340000Y-82640000D01*
X145960000Y-88610000D02*
X145960000Y-82640000D01*
X138065000Y-95576248D02*
X138065000Y-96098752D01*
X139535000Y-95576248D02*
X139535000Y-96098752D01*
X140965000Y-99676248D02*
X140965000Y-100198752D01*
X142435000Y-99676248D02*
X142435000Y-100198752D01*
X128850000Y-108900000D02*
X128850000Y-110150000D01*
X128850000Y-110150000D02*
X130100000Y-110150000D01*
X129140000Y-102240000D02*
X129140000Y-109860000D01*
X129140000Y-109860000D02*
X135110000Y-109860000D01*
X129150000Y-102250000D02*
X129150000Y-104050000D01*
X129150000Y-104050000D02*
X129900000Y-104050000D01*
X129150000Y-105550000D02*
X129150000Y-106550000D01*
X129150000Y-106550000D02*
X129900000Y-106550000D01*
X129150000Y-108050000D02*
X129150000Y-109850000D01*
X129150000Y-109850000D02*
X129900000Y-109850000D01*
X129900000Y-102250000D02*
X129150000Y-102250000D01*
X129900000Y-104050000D02*
X129900000Y-102250000D01*
X129900000Y-105550000D02*
X129150000Y-105550000D01*
X129900000Y-106550000D02*
X129900000Y-105550000D01*
X129900000Y-108050000D02*
X129150000Y-108050000D01*
X129900000Y-109850000D02*
X129900000Y-108050000D01*
X131400000Y-102250000D02*
X131400000Y-103000000D01*
X131400000Y-103000000D02*
X134350000Y-103000000D01*
X131400000Y-109100000D02*
X132740000Y-109100000D01*
X131400000Y-109850000D02*
X131400000Y-109100000D01*
X134350000Y-103000000D02*
X134350000Y-106050000D01*
X134350000Y-106050000D02*
X134350000Y-108040000D01*
X135110000Y-102240000D02*
X129140000Y-102240000D01*
X135110000Y-109860000D02*
X135110000Y-102240000D01*
D12*
X145178300Y-95975001D02*
X145178300Y-96440260D01*
X145178300Y-101859742D02*
X145178300Y-102325001D01*
X145178300Y-102325001D02*
X145640260Y-102325001D01*
X145640260Y-95975001D02*
X145178300Y-95975001D01*
X149059740Y-102325001D02*
X149521700Y-102325001D01*
X149521700Y-95975001D02*
X149059740Y-95975001D01*
X149521700Y-96440260D02*
X149521700Y-95975001D01*
X149521700Y-102325001D02*
X149521700Y-101859742D01*
D13*
G36*
X144746500Y-101590502D02*
G01*
X144492500Y-101590502D01*
X144492500Y-101209502D01*
X144746500Y-101209502D01*
X144746500Y-101590502D01*
G37*
G36*
X147290501Y-95543201D02*
G01*
X146909500Y-95543201D01*
X146909500Y-95289201D01*
X147290501Y-95289201D01*
X147290501Y-95543201D01*
G37*
G36*
X150207500Y-100090502D02*
G01*
X149953500Y-100090502D01*
X149953500Y-99709502D01*
X150207500Y-99709502D01*
X150207500Y-100090502D01*
G37*
D11*
X143065000Y-104561252D02*
X143065000Y-104038748D01*
X144535000Y-104561252D02*
X144535000Y-104038748D01*
X140665000Y-95576248D02*
X140665000Y-96098752D01*
X142135000Y-95576248D02*
X142135000Y-96098752D01*
X154865000Y-101238748D02*
X154865000Y-101761252D01*
X156335000Y-101238748D02*
X156335000Y-101761252D01*
X138065000Y-99676248D02*
X138065000Y-100198752D01*
X139535000Y-99676248D02*
X139535000Y-100198752D01*
X146950000Y-82350000D02*
X146950000Y-83600000D01*
X147240000Y-82640000D02*
X147240000Y-88610000D01*
X147240000Y-88610000D02*
X154860000Y-88610000D01*
X147250000Y-82650000D02*
X147250000Y-83400000D01*
X147250000Y-83400000D02*
X149050000Y-83400000D01*
X147250000Y-84900000D02*
X148000000Y-84900000D01*
X148000000Y-84900000D02*
X148000000Y-86240000D01*
X148200000Y-82350000D02*
X146950000Y-82350000D01*
X149050000Y-82650000D02*
X147250000Y-82650000D01*
X149050000Y-83400000D02*
X149050000Y-82650000D01*
X150550000Y-82650000D02*
X150550000Y-83400000D01*
X150550000Y-83400000D02*
X151550000Y-83400000D01*
X151050000Y-87850000D02*
X149060000Y-87850000D01*
X151550000Y-82650000D02*
X150550000Y-82650000D01*
X151550000Y-83400000D02*
X151550000Y-82650000D01*
X153050000Y-82650000D02*
X153050000Y-83400000D01*
X153050000Y-83400000D02*
X154850000Y-83400000D01*
X154100000Y-84900000D02*
X154100000Y-87850000D01*
X154100000Y-87850000D02*
X151050000Y-87850000D01*
X154850000Y-82650000D02*
X153050000Y-82650000D01*
X154850000Y-83400000D02*
X154850000Y-82650000D01*
X154850000Y-84900000D02*
X154100000Y-84900000D01*
X154860000Y-82640000D02*
X147240000Y-82640000D01*
X154860000Y-88610000D02*
X154860000Y-82640000D01*
X137365000Y-110872936D02*
X137365000Y-111327064D01*
X138835000Y-110872936D02*
X138835000Y-111327064D01*
X140227064Y-103465000D02*
X139772936Y-103465000D01*
X140227064Y-104935000D02*
X139772936Y-104935000D01*
X152165000Y-101238748D02*
X152165000Y-101761252D01*
X153635000Y-101238748D02*
X153635000Y-101761252D01*
X154865000Y-97423752D02*
X154865000Y-96901248D01*
X156335000Y-97423752D02*
X156335000Y-96901248D01*
X152165000Y-97423752D02*
X152165000Y-96901248D01*
X153635000Y-97423752D02*
X153635000Y-96901248D01*
X129040000Y-86390000D02*
X129040000Y-92360000D01*
X129040000Y-92360000D02*
X136660000Y-92360000D01*
X129050000Y-90100000D02*
X129800000Y-90100000D01*
X129050000Y-91600000D02*
X129050000Y-92350000D01*
X129050000Y-92350000D02*
X130850000Y-92350000D01*
X129800000Y-87150000D02*
X132850000Y-87150000D01*
X129800000Y-90100000D02*
X129800000Y-87150000D01*
X130850000Y-91600000D02*
X129050000Y-91600000D01*
X130850000Y-92350000D02*
X130850000Y-91600000D01*
X132350000Y-91600000D02*
X132350000Y-92350000D01*
X132350000Y-92350000D02*
X133350000Y-92350000D01*
X132850000Y-87150000D02*
X134840000Y-87150000D01*
X133350000Y-91600000D02*
X132350000Y-91600000D01*
X133350000Y-92350000D02*
X133350000Y-91600000D01*
X134850000Y-91600000D02*
X134850000Y-92350000D01*
X134850000Y-92350000D02*
X136650000Y-92350000D01*
X135700000Y-92650000D02*
X136950000Y-92650000D01*
X135900000Y-90100000D02*
X135900000Y-88760000D01*
X136650000Y-90100000D02*
X135900000Y-90100000D01*
X136650000Y-91600000D02*
X134850000Y-91600000D01*
X136650000Y-92350000D02*
X136650000Y-91600000D01*
X136660000Y-86390000D02*
X129040000Y-86390000D01*
X136660000Y-92360000D02*
X136660000Y-86390000D01*
X136950000Y-92650000D02*
X136950000Y-91400000D01*
X140250000Y-108350000D02*
X140250000Y-109600000D01*
X140540000Y-108640000D02*
X140540000Y-114610000D01*
X140540000Y-114610000D02*
X153160000Y-114610000D01*
X140550000Y-108650000D02*
X140550000Y-109400000D01*
X140550000Y-109400000D02*
X142350000Y-109400000D01*
X140550000Y-110900000D02*
X141300000Y-110900000D01*
X141300000Y-110900000D02*
X141300000Y-112240000D01*
X141500000Y-108350000D02*
X140250000Y-108350000D01*
X142350000Y-108650000D02*
X140550000Y-108650000D01*
X142350000Y-109400000D02*
X142350000Y-108650000D01*
X143850000Y-108650000D02*
X143850000Y-109400000D01*
X143850000Y-109400000D02*
X149850000Y-109400000D01*
X146850000Y-113850000D02*
X142360000Y-113850000D01*
X149850000Y-108650000D02*
X143850000Y-108650000D01*
X149850000Y-109400000D02*
X149850000Y-108650000D01*
X151350000Y-108650000D02*
X151350000Y-109400000D01*
X151350000Y-109400000D02*
X153150000Y-109400000D01*
X152400000Y-110900000D02*
X152400000Y-113850000D01*
X152400000Y-113850000D02*
X146850000Y-113850000D01*
X153150000Y-108650000D02*
X151350000Y-108650000D01*
X153150000Y-109400000D02*
X153150000Y-108650000D01*
X153150000Y-110900000D02*
X152400000Y-110900000D01*
X153160000Y-108640000D02*
X140540000Y-108640000D01*
X153160000Y-114610000D02*
X153160000Y-108640000D01*
X156090000Y-86740000D02*
X156090000Y-94360000D01*
X156090000Y-94360000D02*
X162060000Y-94360000D01*
X156850000Y-90550000D02*
X156850000Y-88560000D01*
X156850000Y-93600000D02*
X156850000Y-90550000D01*
X159800000Y-86750000D02*
X159800000Y-87500000D01*
X159800000Y-87500000D02*
X158460000Y-87500000D01*
X159800000Y-93600000D02*
X156850000Y-93600000D01*
X159800000Y-94350000D02*
X159800000Y-93600000D01*
X161300000Y-86750000D02*
X161300000Y-88550000D01*
X161300000Y-88550000D02*
X162050000Y-88550000D01*
X161300000Y-90050000D02*
X161300000Y-91050000D01*
X161300000Y-91050000D02*
X162050000Y-91050000D01*
X161300000Y-92550000D02*
X161300000Y-94350000D01*
X161300000Y-94350000D02*
X162050000Y-94350000D01*
X162050000Y-86750000D02*
X161300000Y-86750000D01*
X162050000Y-88550000D02*
X162050000Y-86750000D01*
X162050000Y-90050000D02*
X161300000Y-90050000D01*
X162050000Y-91050000D02*
X162050000Y-90050000D01*
X162050000Y-92550000D02*
X161300000Y-92550000D01*
X162050000Y-94350000D02*
X162050000Y-92550000D01*
X162060000Y-86740000D02*
X156090000Y-86740000D01*
X162060000Y-94360000D02*
X162060000Y-86740000D01*
X162350000Y-86450000D02*
X161100000Y-86450000D01*
X162350000Y-87700000D02*
X162350000Y-86450000D01*
X129090000Y-93740000D02*
X129090000Y-101360000D01*
X129090000Y-101360000D02*
X135060000Y-101360000D01*
X129850000Y-97550000D02*
X129850000Y-95560000D01*
X129850000Y-100600000D02*
X129850000Y-97550000D01*
X132800000Y-93750000D02*
X132800000Y-94500000D01*
X132800000Y-94500000D02*
X131460000Y-94500000D01*
X132800000Y-100600000D02*
X129850000Y-100600000D01*
X132800000Y-101350000D02*
X132800000Y-100600000D01*
X134300000Y-93750000D02*
X134300000Y-95550000D01*
X134300000Y-95550000D02*
X135050000Y-95550000D01*
X134300000Y-97050000D02*
X134300000Y-98050000D01*
X134300000Y-98050000D02*
X135050000Y-98050000D01*
X134300000Y-99550000D02*
X134300000Y-101350000D01*
X134300000Y-101350000D02*
X135050000Y-101350000D01*
X135050000Y-93750000D02*
X134300000Y-93750000D01*
X135050000Y-95550000D02*
X135050000Y-93750000D01*
X135050000Y-97050000D02*
X134300000Y-97050000D01*
X135050000Y-98050000D02*
X135050000Y-97050000D01*
X135050000Y-99550000D02*
X134300000Y-99550000D01*
X135050000Y-101350000D02*
X135050000Y-99550000D01*
X135060000Y-93740000D02*
X129090000Y-93740000D01*
X135060000Y-101360000D02*
X135060000Y-93740000D01*
X135350000Y-93450000D02*
X134100000Y-93450000D01*
X135350000Y-94700000D02*
X135350000Y-93450000D01*
%LPC*%
D14*
X130500000Y-82100000D03*
D15*
X139300000Y-87100000D03*
D16*
X140900000Y-85100000D03*
D17*
X143400000Y-85100000D03*
D18*
X138800000Y-94800000D03*
X138800000Y-96875000D03*
D14*
X160200000Y-82100000D03*
D18*
X141700000Y-98900000D03*
X141700000Y-100975000D03*
D15*
X133600000Y-108900000D03*
D19*
X131600000Y-107300000D03*
D20*
X131600000Y-104800000D03*
D21*
X145381500Y-96900000D03*
X145381500Y-97400002D03*
X145381500Y-97900001D03*
X145381500Y-98400000D03*
X145381500Y-98900001D03*
X145381500Y-99400001D03*
X145381500Y-99900002D03*
X145381500Y-100400001D03*
X145381500Y-100900000D03*
X145381500Y-101400002D03*
D22*
X146100000Y-102121801D03*
X146599999Y-102121801D03*
X147100000Y-102121801D03*
X147600000Y-102121801D03*
X148100001Y-102121801D03*
X148600000Y-102121801D03*
D21*
X149318500Y-101400002D03*
X149318500Y-100900000D03*
X149318500Y-100400001D03*
X149318500Y-99900002D03*
X149318500Y-99400001D03*
X149318500Y-98900001D03*
X149318500Y-98400000D03*
X149318500Y-97900001D03*
X149318500Y-97400002D03*
X149318500Y-96900000D03*
D22*
X148600000Y-96178201D03*
X148100001Y-96178201D03*
X147600000Y-96178201D03*
X147100000Y-96178201D03*
X146599999Y-96178201D03*
X146100000Y-96178201D03*
D23*
X147350000Y-99150001D03*
D24*
X143800000Y-105337500D03*
X143800000Y-103262500D03*
D14*
X130500000Y-113200000D03*
D18*
X141400000Y-94800000D03*
X141400000Y-96875000D03*
X155600000Y-100462500D03*
X155600000Y-102537500D03*
X138800000Y-98900000D03*
X138800000Y-100975000D03*
D15*
X148200000Y-87100000D03*
D16*
X149800000Y-85100000D03*
D17*
X152300000Y-85100000D03*
D25*
X138100000Y-110100000D03*
X138100000Y-112100000D03*
D26*
X141000000Y-104200000D03*
X139000000Y-104200000D03*
D18*
X152900000Y-100462500D03*
X152900000Y-102537500D03*
D24*
X155600000Y-98200000D03*
X155600000Y-96125000D03*
X152900000Y-98200000D03*
X152900000Y-96125000D03*
D15*
X135700000Y-87900000D03*
D27*
X134100000Y-89900000D03*
D17*
X131600000Y-89900000D03*
D15*
X141500000Y-113100000D03*
D28*
X143100000Y-111100000D03*
D29*
X145600000Y-111100000D03*
X148100000Y-111100000D03*
X150600000Y-111100000D03*
D15*
X157600000Y-87700000D03*
D30*
X159600000Y-89300000D03*
D20*
X159600000Y-91800000D03*
D15*
X130600000Y-94700000D03*
D30*
X132600000Y-96300000D03*
D20*
X132600000Y-98800000D03*
D14*
X160200000Y-113200000D03*
%LPD*%
M02*
